M48
;Layer_Color=9474304
;FILE_FORMAT=2:5
INCH,LZ
;TYPE=PLATED
T01F00S00C0.00984
T02F00S00C0.01181
T04F00S00C0.08268
T05F00S00C0.14567
;TYPE=NON_PLATED
T06F00S00C0.02756
%
T01
X0180189Y-0087921
Y-0085693
Y-0083465
X0177961
X0175732
X0182421
X018465
X0186882
Y-0085693
Y-0087921
X018911Y-0083465
X0191339
X0186882Y-0081232
Y-0079004
Y-0076772
Y-0074543
Y-0072315
X018911Y-0076772
X0191339
X018465
X0182421
X0180189
Y-0074543
Y-0072315
X0177961Y-0076772
X0175732
X0180189Y-0079004
Y-0081232
T02
X0047244Y-0062008
Y-0059842
X0078347Y-0061811
X0083858Y-005315
Y-0050787
X0084646Y-0045276
X008043Y-0046457
X0074016Y-0044094
X0073622Y-0038976
X007441Y-0029921
X0084646Y-0021654
X0090354Y-0045177
X0093307Y-0072047
X0083858Y-0080341
Y-0083359
X0056693Y-0026772
X0094882Y-0029921
X0112008Y-0035531
Y-0045374
X011811Y-004685
X0123228Y-0045669
X0129646Y-0047244
X0130013Y-0056784
X013189Y-0058661
X0133071Y-0055118
X0122047Y-0056299
X0121464Y-0066107
X0109252Y-0072933
X0101575Y-0072047
X0101378Y-0064961
X0097441Y-0061024
X0105315
X0101378Y-0057087
X010748Y-0080709
X0109843Y-0085433
X0112992
X0114567Y-0083858
X0117323Y-0086811
X0126476Y-0087008
X0134524Y-0093024
X0137118
X014311Y-0084055
X0148031Y-0111024
X0140945Y-0115354
X0157087Y-0115748
X0163386Y-0116929
X0175591Y-0135433
X0195965Y-0136417
X0200787Y-0136516
X02Y-0129921
X0215846Y-0106398
X0218307Y-0106299
X0220374Y-0110827
X0218406Y-0046949
X0215748
X0220669Y-0043996
X0199508Y-0037478
X0198819Y-003189
X0191732Y-0032283
X0188189Y-003189
X0184252
X0180709Y-0031988
X0177953Y-0025492
X0173622Y-0024803
X0166929
X0159843
X015748Y-003248
X0163494Y-0035355
X017126Y-0037008
X0174803
X017126Y-0032677
X0186221Y-0024803
X019685Y-0022047
X0162008Y-0052658
X0161811Y-0060236
X0146063Y-0043701
X0138583Y-013189
X0196457Y-0017323
X0201181
X0216986Y0024409
X0216142Y0027559
X0216986Y0030709
X0219291Y0033014
X0222441Y0033858
X0225591Y0033014
X0227896Y0030709
X022874Y0027559
X0227896Y0024409
X0225591Y0022104
X0222441Y002126
X0219291Y0022104
Y0120529
X0222441Y0119685
X0225591Y0120529
X0227896Y0122835
X022874Y0125984
X0227896Y0129134
X0225591Y0131439
X0222441Y0132283
X0219291Y0131439
X0216986Y0129134
X0216142Y0125984
X0216986Y0122835
X0019235
X0020079Y0125984
X0019235Y0129134
X0016929Y0131439
X001378Y0132283
X001063Y0131439
X0008324Y0129134
X000748Y0125984
X0008324Y0122835
X001063Y0120529
X001378Y0119685
X0016929Y0120529
Y0033014
X001378Y0033858
X001063Y0033014
X0008324Y0030709
X000748Y0027559
X0008324Y0024409
X001063Y0022104
X001378Y002126
X0016929Y0022104
X0019235Y0024409
X0020079Y0027559
X0019235Y0030709
T04
X0222441Y0027559
Y0125984
X001378
Y0027559
T05
X001378Y-0125984
Y-0027559
X0222441
Y-0125984
T06
X0105473Y-0034843
X0128228
M30
