G04*
G04 #@! TF.GenerationSoftware,Altium Limited,Altium Designer,24.4.1 (13)*
G04*
G04 Layer_Color=16711935*
%FSLAX25Y25*%
%MOIN*%
G70*
G04*
G04 #@! TF.SameCoordinates,3B715CD9-8656-4105-9A90-409076DA93B2*
G04*
G04*
G04 #@! TF.FilePolarity,Positive*
G04*
G01*
G75*
%ADD12C,0.00787*%
%ADD13C,0.00394*%
G36*
X-56156Y17684D02*
X-56073D01*
X-55977Y17671D01*
X-55862Y17658D01*
X-55735Y17639D01*
X-55600Y17620D01*
X-55453Y17588D01*
X-55300Y17550D01*
X-55140Y17499D01*
X-54981Y17447D01*
X-54814Y17377D01*
X-54661Y17300D01*
X-54501Y17211D01*
X-54354Y17109D01*
X-54348Y17102D01*
X-54322Y17083D01*
X-54278Y17051D01*
X-54227Y17000D01*
X-54163Y16943D01*
X-54092Y16872D01*
X-54016Y16789D01*
X-53926Y16693D01*
X-53843Y16578D01*
X-53754Y16457D01*
X-53658Y16329D01*
X-53575Y16182D01*
X-53485Y16022D01*
X-53409Y15856D01*
X-53338Y15677D01*
X-53275Y15486D01*
X-54259Y15249D01*
Y15262D01*
X-54271Y15288D01*
X-54284Y15326D01*
X-54310Y15383D01*
X-54335Y15454D01*
X-54367Y15530D01*
X-54412Y15620D01*
X-54457Y15709D01*
X-54565Y15907D01*
X-54693Y16112D01*
X-54770Y16208D01*
X-54846Y16297D01*
X-54936Y16380D01*
X-55025Y16457D01*
X-55032Y16463D01*
X-55051Y16476D01*
X-55076Y16489D01*
X-55115Y16514D01*
X-55166Y16546D01*
X-55223Y16578D01*
X-55294Y16610D01*
X-55370Y16649D01*
X-55453Y16681D01*
X-55549Y16713D01*
X-55658Y16745D01*
X-55767Y16776D01*
X-55888Y16802D01*
X-56009Y16815D01*
X-56144Y16828D01*
X-56284Y16834D01*
X-56367D01*
X-56431Y16828D01*
X-56508Y16821D01*
X-56591Y16815D01*
X-56687Y16802D01*
X-56795Y16783D01*
X-56910Y16757D01*
X-57025Y16732D01*
X-57147Y16700D01*
X-57268Y16655D01*
X-57396Y16610D01*
X-57517Y16553D01*
X-57632Y16489D01*
X-57748Y16412D01*
X-57754Y16406D01*
X-57773Y16393D01*
X-57805Y16367D01*
X-57843Y16335D01*
X-57888Y16297D01*
X-57946Y16246D01*
X-58003Y16182D01*
X-58067Y16118D01*
X-58137Y16042D01*
X-58201Y15952D01*
X-58271Y15863D01*
X-58335Y15760D01*
X-58399Y15652D01*
X-58463Y15537D01*
X-58514Y15415D01*
X-58565Y15288D01*
Y15281D01*
X-58578Y15256D01*
X-58585Y15217D01*
X-58604Y15166D01*
X-58623Y15102D01*
X-58642Y15026D01*
X-58661Y14936D01*
X-58680Y14840D01*
X-58706Y14738D01*
X-58725Y14623D01*
X-58744Y14508D01*
X-58763Y14380D01*
X-58789Y14112D01*
X-58802Y13837D01*
Y13824D01*
Y13792D01*
Y13741D01*
X-58795Y13677D01*
Y13594D01*
X-58789Y13492D01*
X-58776Y13383D01*
X-58763Y13262D01*
X-58751Y13134D01*
X-58732Y13000D01*
X-58680Y12719D01*
X-58610Y12431D01*
X-58572Y12291D01*
X-58521Y12150D01*
X-58514Y12144D01*
X-58508Y12118D01*
X-58489Y12080D01*
X-58469Y12035D01*
X-58438Y11971D01*
X-58399Y11907D01*
X-58355Y11831D01*
X-58303Y11748D01*
X-58246Y11664D01*
X-58182Y11575D01*
X-58112Y11485D01*
X-58035Y11396D01*
X-57952Y11307D01*
X-57856Y11224D01*
X-57760Y11147D01*
X-57652Y11077D01*
X-57645Y11070D01*
X-57626Y11064D01*
X-57594Y11045D01*
X-57549Y11019D01*
X-57492Y10994D01*
X-57428Y10968D01*
X-57351Y10936D01*
X-57268Y10904D01*
X-57172Y10866D01*
X-57077Y10834D01*
X-56968Y10808D01*
X-56859Y10783D01*
X-56616Y10738D01*
X-56489Y10731D01*
X-56361Y10725D01*
X-56322D01*
X-56278Y10731D01*
X-56220D01*
X-56150Y10738D01*
X-56060Y10751D01*
X-55971Y10763D01*
X-55869Y10783D01*
X-55754Y10808D01*
X-55645Y10840D01*
X-55524Y10879D01*
X-55402Y10930D01*
X-55281Y10981D01*
X-55166Y11045D01*
X-55045Y11121D01*
X-54936Y11204D01*
X-54930Y11211D01*
X-54910Y11230D01*
X-54878Y11255D01*
X-54840Y11294D01*
X-54795Y11345D01*
X-54738Y11409D01*
X-54680Y11485D01*
X-54616Y11569D01*
X-54553Y11664D01*
X-54489Y11773D01*
X-54418Y11888D01*
X-54354Y12016D01*
X-54297Y12156D01*
X-54239Y12310D01*
X-54188Y12476D01*
X-54144Y12649D01*
X-53147Y12393D01*
Y12387D01*
X-53153Y12380D01*
Y12361D01*
X-53159Y12342D01*
X-53179Y12278D01*
X-53211Y12188D01*
X-53242Y12086D01*
X-53294Y11971D01*
X-53345Y11837D01*
X-53409Y11696D01*
X-53479Y11549D01*
X-53562Y11390D01*
X-53658Y11236D01*
X-53760Y11083D01*
X-53875Y10930D01*
X-54003Y10783D01*
X-54137Y10642D01*
X-54284Y10514D01*
X-54290Y10508D01*
X-54322Y10489D01*
X-54367Y10457D01*
X-54431Y10412D01*
X-54508Y10367D01*
X-54604Y10310D01*
X-54712Y10252D01*
X-54840Y10195D01*
X-54981Y10131D01*
X-55128Y10073D01*
X-55294Y10016D01*
X-55473Y9971D01*
X-55658Y9926D01*
X-55856Y9894D01*
X-56060Y9875D01*
X-56278Y9869D01*
X-56329D01*
X-56393Y9875D01*
X-56482D01*
X-56585Y9882D01*
X-56706Y9894D01*
X-56840Y9907D01*
X-56987Y9933D01*
X-57140Y9958D01*
X-57307Y9990D01*
X-57466Y10029D01*
X-57639Y10080D01*
X-57805Y10131D01*
X-57965Y10201D01*
X-58125Y10271D01*
X-58271Y10361D01*
X-58278Y10367D01*
X-58303Y10386D01*
X-58342Y10412D01*
X-58399Y10457D01*
X-58457Y10508D01*
X-58533Y10572D01*
X-58617Y10642D01*
X-58700Y10731D01*
X-58795Y10827D01*
X-58891Y10930D01*
X-58987Y11051D01*
X-59083Y11179D01*
X-59179Y11319D01*
X-59268Y11473D01*
X-59358Y11632D01*
X-59434Y11805D01*
X-59441Y11818D01*
X-59454Y11850D01*
X-59473Y11901D01*
X-59498Y11971D01*
X-59524Y12061D01*
X-59562Y12163D01*
X-59594Y12278D01*
X-59632Y12412D01*
X-59671Y12559D01*
X-59703Y12712D01*
X-59741Y12885D01*
X-59767Y13058D01*
X-59792Y13243D01*
X-59811Y13434D01*
X-59824Y13633D01*
X-59831Y13831D01*
Y13837D01*
Y13843D01*
Y13882D01*
Y13946D01*
X-59824Y14029D01*
X-59818Y14131D01*
X-59805Y14252D01*
X-59792Y14387D01*
X-59773Y14534D01*
X-59754Y14687D01*
X-59722Y14853D01*
X-59684Y15026D01*
X-59639Y15198D01*
X-59588Y15377D01*
X-59530Y15556D01*
X-59460Y15729D01*
X-59383Y15895D01*
X-59377Y15907D01*
X-59364Y15933D01*
X-59339Y15978D01*
X-59300Y16042D01*
X-59255Y16112D01*
X-59198Y16195D01*
X-59128Y16291D01*
X-59051Y16393D01*
X-58968Y16502D01*
X-58872Y16610D01*
X-58763Y16719D01*
X-58649Y16828D01*
X-58527Y16936D01*
X-58393Y17045D01*
X-58252Y17141D01*
X-58099Y17230D01*
X-58086Y17236D01*
X-58061Y17249D01*
X-58016Y17275D01*
X-57952Y17300D01*
X-57875Y17339D01*
X-57779Y17377D01*
X-57677Y17415D01*
X-57556Y17460D01*
X-57422Y17505D01*
X-57281Y17543D01*
X-57134Y17582D01*
X-56974Y17620D01*
X-56802Y17646D01*
X-56629Y17671D01*
X-56450Y17684D01*
X-56265Y17690D01*
X-56214D01*
X-56156Y17684D01*
D02*
G37*
G36*
X-60687Y12265D02*
X-63537D01*
Y13198D01*
X-60687D01*
Y12265D01*
D02*
G37*
G36*
X-66904Y9997D02*
X-67946D01*
X-70866Y17556D01*
X-69780D01*
X-67818Y12061D01*
Y12054D01*
X-67805Y12029D01*
X-67793Y11997D01*
X-67780Y11946D01*
X-67761Y11888D01*
X-67735Y11818D01*
X-67709Y11741D01*
X-67677Y11658D01*
X-67652Y11562D01*
X-67620Y11466D01*
X-67550Y11255D01*
X-67486Y11038D01*
X-67422Y10821D01*
Y10827D01*
X-67415Y10847D01*
X-67403Y10885D01*
X-67390Y10930D01*
X-67377Y10981D01*
X-67352Y11051D01*
X-67333Y11128D01*
X-67307Y11211D01*
X-67275Y11300D01*
X-67243Y11396D01*
X-67179Y11607D01*
X-67096Y11831D01*
X-67013Y12061D01*
X-64968Y17556D01*
X-63952D01*
X-66904Y9997D01*
D02*
G37*
G36*
X-45958Y13185D02*
Y13172D01*
Y13134D01*
Y13077D01*
X-45964Y13000D01*
Y12904D01*
X-45971Y12789D01*
X-45977Y12668D01*
X-45990Y12533D01*
X-46003Y12393D01*
X-46022Y12246D01*
X-46067Y11946D01*
X-46130Y11645D01*
X-46175Y11511D01*
X-46220Y11377D01*
Y11371D01*
X-46233Y11345D01*
X-46246Y11313D01*
X-46271Y11268D01*
X-46297Y11211D01*
X-46335Y11141D01*
X-46380Y11070D01*
X-46431Y10987D01*
X-46495Y10904D01*
X-46559Y10815D01*
X-46635Y10725D01*
X-46718Y10636D01*
X-46814Y10540D01*
X-46916Y10450D01*
X-47031Y10367D01*
X-47153Y10284D01*
X-47159Y10278D01*
X-47185Y10265D01*
X-47223Y10246D01*
X-47274Y10220D01*
X-47344Y10188D01*
X-47421Y10150D01*
X-47517Y10118D01*
X-47626Y10080D01*
X-47747Y10035D01*
X-47875Y10003D01*
X-48022Y9965D01*
X-48182Y9933D01*
X-48348Y9907D01*
X-48527Y9888D01*
X-48718Y9875D01*
X-48917Y9869D01*
X-49019D01*
X-49095Y9875D01*
X-49185Y9882D01*
X-49287Y9888D01*
X-49402Y9901D01*
X-49530Y9914D01*
X-49664Y9933D01*
X-49805Y9958D01*
X-49952Y9990D01*
X-50099Y10022D01*
X-50246Y10067D01*
X-50386Y10112D01*
X-50520Y10169D01*
X-50655Y10233D01*
X-50661Y10239D01*
X-50687Y10252D01*
X-50718Y10271D01*
X-50763Y10303D01*
X-50821Y10342D01*
X-50885Y10386D01*
X-50949Y10438D01*
X-51025Y10502D01*
X-51102Y10572D01*
X-51185Y10648D01*
X-51262Y10738D01*
X-51345Y10834D01*
X-51415Y10936D01*
X-51492Y11045D01*
X-51556Y11160D01*
X-51613Y11287D01*
Y11294D01*
X-51626Y11319D01*
X-51639Y11358D01*
X-51658Y11415D01*
X-51677Y11485D01*
X-51702Y11569D01*
X-51728Y11671D01*
X-51754Y11786D01*
X-51786Y11914D01*
X-51811Y12054D01*
X-51837Y12214D01*
X-51856Y12380D01*
X-51875Y12565D01*
X-51888Y12757D01*
X-51894Y12968D01*
X-51901Y13185D01*
Y17556D01*
X-50904D01*
Y13192D01*
Y13179D01*
Y13147D01*
Y13096D01*
Y13032D01*
X-50897Y12949D01*
X-50891Y12853D01*
Y12751D01*
X-50878Y12642D01*
X-50859Y12406D01*
X-50827Y12163D01*
X-50808Y12048D01*
X-50782Y11939D01*
X-50757Y11837D01*
X-50725Y11741D01*
Y11735D01*
X-50718Y11722D01*
X-50706Y11696D01*
X-50687Y11664D01*
X-50667Y11626D01*
X-50642Y11581D01*
X-50578Y11479D01*
X-50488Y11358D01*
X-50380Y11243D01*
X-50246Y11121D01*
X-50092Y11019D01*
X-50086D01*
X-50073Y11006D01*
X-50047Y10994D01*
X-50009Y10981D01*
X-49971Y10961D01*
X-49913Y10942D01*
X-49856Y10917D01*
X-49786Y10898D01*
X-49709Y10872D01*
X-49626Y10847D01*
X-49536Y10827D01*
X-49441Y10808D01*
X-49230Y10783D01*
X-49000Y10770D01*
X-48948D01*
X-48897Y10776D01*
X-48821D01*
X-48731Y10783D01*
X-48629Y10795D01*
X-48514Y10815D01*
X-48393Y10834D01*
X-48265Y10859D01*
X-48131Y10891D01*
X-48003Y10930D01*
X-47875Y10981D01*
X-47747Y11038D01*
X-47632Y11102D01*
X-47523Y11179D01*
X-47428Y11268D01*
X-47421Y11275D01*
X-47408Y11294D01*
X-47383Y11326D01*
X-47351Y11371D01*
X-47319Y11428D01*
X-47281Y11498D01*
X-47236Y11588D01*
X-47191Y11696D01*
X-47146Y11818D01*
X-47102Y11958D01*
X-47063Y12112D01*
X-47031Y12291D01*
X-46999Y12482D01*
X-46974Y12700D01*
X-46961Y12936D01*
X-46955Y13192D01*
Y17556D01*
X-45958D01*
Y13185D01*
D02*
G37*
G36*
X-38878Y16661D02*
X-41376D01*
Y9997D01*
X-42373D01*
Y16661D01*
X-44865D01*
Y17556D01*
X-38878D01*
Y16661D01*
D02*
G37*
G36*
X-56156Y-9875D02*
X-56073D01*
X-55977Y-9888D01*
X-55862Y-9901D01*
X-55735Y-9920D01*
X-55600Y-9939D01*
X-55453Y-9971D01*
X-55300Y-10009D01*
X-55140Y-10061D01*
X-54981Y-10112D01*
X-54814Y-10182D01*
X-54661Y-10259D01*
X-54501Y-10348D01*
X-54354Y-10450D01*
X-54348Y-10457D01*
X-54322Y-10476D01*
X-54278Y-10508D01*
X-54227Y-10559D01*
X-54163Y-10616D01*
X-54092Y-10687D01*
X-54016Y-10770D01*
X-53926Y-10866D01*
X-53843Y-10981D01*
X-53754Y-11102D01*
X-53658Y-11230D01*
X-53575Y-11377D01*
X-53485Y-11537D01*
X-53409Y-11703D01*
X-53338Y-11882D01*
X-53275Y-12073D01*
X-54259Y-12310D01*
Y-12297D01*
X-54271Y-12271D01*
X-54284Y-12233D01*
X-54310Y-12176D01*
X-54335Y-12105D01*
X-54367Y-12029D01*
X-54412Y-11939D01*
X-54457Y-11850D01*
X-54565Y-11652D01*
X-54693Y-11447D01*
X-54770Y-11351D01*
X-54846Y-11262D01*
X-54936Y-11179D01*
X-55025Y-11102D01*
X-55032Y-11096D01*
X-55051Y-11083D01*
X-55076Y-11070D01*
X-55115Y-11045D01*
X-55166Y-11013D01*
X-55223Y-10981D01*
X-55294Y-10949D01*
X-55370Y-10910D01*
X-55453Y-10879D01*
X-55549Y-10847D01*
X-55658Y-10815D01*
X-55767Y-10783D01*
X-55888Y-10757D01*
X-56009Y-10744D01*
X-56144Y-10731D01*
X-56284Y-10725D01*
X-56367D01*
X-56431Y-10731D01*
X-56508Y-10738D01*
X-56591Y-10744D01*
X-56687Y-10757D01*
X-56795Y-10776D01*
X-56910Y-10802D01*
X-57025Y-10827D01*
X-57147Y-10859D01*
X-57268Y-10904D01*
X-57396Y-10949D01*
X-57517Y-11006D01*
X-57632Y-11070D01*
X-57748Y-11147D01*
X-57754Y-11153D01*
X-57773Y-11166D01*
X-57805Y-11192D01*
X-57843Y-11224D01*
X-57888Y-11262D01*
X-57946Y-11313D01*
X-58003Y-11377D01*
X-58067Y-11441D01*
X-58137Y-11518D01*
X-58201Y-11607D01*
X-58271Y-11696D01*
X-58335Y-11799D01*
X-58399Y-11907D01*
X-58463Y-12022D01*
X-58514Y-12144D01*
X-58565Y-12271D01*
Y-12278D01*
X-58578Y-12303D01*
X-58585Y-12342D01*
X-58604Y-12393D01*
X-58623Y-12457D01*
X-58642Y-12533D01*
X-58661Y-12623D01*
X-58680Y-12719D01*
X-58706Y-12821D01*
X-58725Y-12936D01*
X-58744Y-13051D01*
X-58763Y-13179D01*
X-58789Y-13447D01*
X-58802Y-13722D01*
Y-13735D01*
Y-13767D01*
Y-13818D01*
X-58795Y-13882D01*
Y-13965D01*
X-58789Y-14067D01*
X-58776Y-14176D01*
X-58763Y-14297D01*
X-58751Y-14425D01*
X-58732Y-14559D01*
X-58680Y-14840D01*
X-58610Y-15128D01*
X-58572Y-15268D01*
X-58521Y-15409D01*
X-58514Y-15415D01*
X-58508Y-15441D01*
X-58489Y-15479D01*
X-58469Y-15524D01*
X-58438Y-15588D01*
X-58399Y-15652D01*
X-58355Y-15729D01*
X-58303Y-15811D01*
X-58246Y-15895D01*
X-58182Y-15984D01*
X-58112Y-16073D01*
X-58035Y-16163D01*
X-57952Y-16252D01*
X-57856Y-16335D01*
X-57760Y-16412D01*
X-57652Y-16483D01*
X-57645Y-16489D01*
X-57626Y-16495D01*
X-57594Y-16514D01*
X-57549Y-16540D01*
X-57492Y-16566D01*
X-57428Y-16591D01*
X-57351Y-16623D01*
X-57268Y-16655D01*
X-57172Y-16693D01*
X-57077Y-16725D01*
X-56968Y-16751D01*
X-56859Y-16776D01*
X-56616Y-16821D01*
X-56489Y-16828D01*
X-56361Y-16834D01*
X-56322D01*
X-56278Y-16828D01*
X-56220D01*
X-56150Y-16821D01*
X-56060Y-16808D01*
X-55971Y-16796D01*
X-55869Y-16776D01*
X-55754Y-16751D01*
X-55645Y-16719D01*
X-55524Y-16681D01*
X-55402Y-16630D01*
X-55281Y-16578D01*
X-55166Y-16514D01*
X-55045Y-16438D01*
X-54936Y-16355D01*
X-54930Y-16348D01*
X-54910Y-16329D01*
X-54878Y-16304D01*
X-54840Y-16265D01*
X-54795Y-16214D01*
X-54738Y-16150D01*
X-54680Y-16073D01*
X-54616Y-15991D01*
X-54553Y-15895D01*
X-54489Y-15786D01*
X-54418Y-15671D01*
X-54354Y-15543D01*
X-54297Y-15403D01*
X-54239Y-15249D01*
X-54188Y-15083D01*
X-54144Y-14911D01*
X-53147Y-15166D01*
Y-15173D01*
X-53153Y-15179D01*
Y-15198D01*
X-53159Y-15217D01*
X-53179Y-15281D01*
X-53211Y-15371D01*
X-53242Y-15473D01*
X-53294Y-15588D01*
X-53345Y-15722D01*
X-53409Y-15863D01*
X-53479Y-16010D01*
X-53562Y-16169D01*
X-53658Y-16323D01*
X-53760Y-16476D01*
X-53875Y-16630D01*
X-54003Y-16776D01*
X-54137Y-16917D01*
X-54284Y-17045D01*
X-54290Y-17051D01*
X-54322Y-17070D01*
X-54367Y-17102D01*
X-54431Y-17147D01*
X-54508Y-17192D01*
X-54604Y-17249D01*
X-54712Y-17307D01*
X-54840Y-17364D01*
X-54981Y-17428D01*
X-55128Y-17486D01*
X-55294Y-17543D01*
X-55473Y-17588D01*
X-55658Y-17633D01*
X-55856Y-17665D01*
X-56060Y-17684D01*
X-56278Y-17690D01*
X-56329D01*
X-56393Y-17684D01*
X-56482D01*
X-56585Y-17677D01*
X-56706Y-17665D01*
X-56840Y-17652D01*
X-56987Y-17626D01*
X-57140Y-17601D01*
X-57307Y-17569D01*
X-57466Y-17530D01*
X-57639Y-17479D01*
X-57805Y-17428D01*
X-57965Y-17358D01*
X-58125Y-17288D01*
X-58271Y-17198D01*
X-58278Y-17192D01*
X-58303Y-17173D01*
X-58342Y-17147D01*
X-58399Y-17102D01*
X-58457Y-17051D01*
X-58533Y-16987D01*
X-58617Y-16917D01*
X-58700Y-16828D01*
X-58795Y-16732D01*
X-58891Y-16630D01*
X-58987Y-16508D01*
X-59083Y-16380D01*
X-59179Y-16240D01*
X-59268Y-16086D01*
X-59358Y-15927D01*
X-59434Y-15754D01*
X-59441Y-15741D01*
X-59454Y-15709D01*
X-59473Y-15658D01*
X-59498Y-15588D01*
X-59524Y-15498D01*
X-59562Y-15396D01*
X-59594Y-15281D01*
X-59632Y-15147D01*
X-59671Y-15000D01*
X-59703Y-14847D01*
X-59741Y-14674D01*
X-59767Y-14502D01*
X-59792Y-14316D01*
X-59811Y-14125D01*
X-59824Y-13927D01*
X-59831Y-13728D01*
Y-13722D01*
Y-13716D01*
Y-13677D01*
Y-13613D01*
X-59824Y-13530D01*
X-59818Y-13428D01*
X-59805Y-13307D01*
X-59792Y-13172D01*
X-59773Y-13025D01*
X-59754Y-12872D01*
X-59722Y-12706D01*
X-59684Y-12533D01*
X-59639Y-12361D01*
X-59588Y-12182D01*
X-59530Y-12003D01*
X-59460Y-11831D01*
X-59383Y-11664D01*
X-59377Y-11652D01*
X-59364Y-11626D01*
X-59339Y-11581D01*
X-59300Y-11518D01*
X-59255Y-11447D01*
X-59198Y-11364D01*
X-59128Y-11268D01*
X-59051Y-11166D01*
X-58968Y-11057D01*
X-58872Y-10949D01*
X-58763Y-10840D01*
X-58649Y-10731D01*
X-58527Y-10623D01*
X-58393Y-10514D01*
X-58252Y-10418D01*
X-58099Y-10329D01*
X-58086Y-10323D01*
X-58061Y-10310D01*
X-58016Y-10284D01*
X-57952Y-10259D01*
X-57875Y-10220D01*
X-57779Y-10182D01*
X-57677Y-10144D01*
X-57556Y-10099D01*
X-57422Y-10054D01*
X-57281Y-10016D01*
X-57134Y-9978D01*
X-56974Y-9939D01*
X-56802Y-9914D01*
X-56629Y-9888D01*
X-56450Y-9875D01*
X-56265Y-9869D01*
X-56214D01*
X-56156Y-9875D01*
D02*
G37*
G36*
X-60687Y-15294D02*
X-63537D01*
Y-14361D01*
X-60687D01*
Y-15294D01*
D02*
G37*
G36*
X-66904Y-17562D02*
X-67946D01*
X-70866Y-10003D01*
X-69780D01*
X-67818Y-15498D01*
Y-15505D01*
X-67805Y-15530D01*
X-67793Y-15562D01*
X-67780Y-15613D01*
X-67761Y-15671D01*
X-67735Y-15741D01*
X-67709Y-15818D01*
X-67677Y-15901D01*
X-67652Y-15997D01*
X-67620Y-16093D01*
X-67550Y-16304D01*
X-67486Y-16521D01*
X-67422Y-16738D01*
Y-16732D01*
X-67415Y-16713D01*
X-67403Y-16674D01*
X-67390Y-16630D01*
X-67377Y-16578D01*
X-67352Y-16508D01*
X-67333Y-16431D01*
X-67307Y-16348D01*
X-67275Y-16259D01*
X-67243Y-16163D01*
X-67179Y-15952D01*
X-67096Y-15729D01*
X-67013Y-15498D01*
X-64968Y-10003D01*
X-63952D01*
X-66904Y-17562D01*
D02*
G37*
G36*
X-45958Y-14374D02*
Y-14387D01*
Y-14425D01*
Y-14482D01*
X-45964Y-14559D01*
Y-14655D01*
X-45971Y-14770D01*
X-45977Y-14891D01*
X-45990Y-15026D01*
X-46003Y-15166D01*
X-46022Y-15313D01*
X-46067Y-15613D01*
X-46130Y-15914D01*
X-46175Y-16048D01*
X-46220Y-16182D01*
Y-16189D01*
X-46233Y-16214D01*
X-46246Y-16246D01*
X-46271Y-16291D01*
X-46297Y-16348D01*
X-46335Y-16419D01*
X-46380Y-16489D01*
X-46431Y-16572D01*
X-46495Y-16655D01*
X-46559Y-16745D01*
X-46635Y-16834D01*
X-46718Y-16923D01*
X-46814Y-17019D01*
X-46916Y-17109D01*
X-47031Y-17192D01*
X-47153Y-17275D01*
X-47159Y-17281D01*
X-47185Y-17294D01*
X-47223Y-17313D01*
X-47274Y-17339D01*
X-47344Y-17371D01*
X-47421Y-17409D01*
X-47517Y-17441D01*
X-47626Y-17479D01*
X-47747Y-17524D01*
X-47875Y-17556D01*
X-48022Y-17594D01*
X-48182Y-17626D01*
X-48348Y-17652D01*
X-48527Y-17671D01*
X-48718Y-17684D01*
X-48917Y-17690D01*
X-49019D01*
X-49095Y-17684D01*
X-49185Y-17677D01*
X-49287Y-17671D01*
X-49402Y-17658D01*
X-49530Y-17646D01*
X-49664Y-17626D01*
X-49805Y-17601D01*
X-49952Y-17569D01*
X-50099Y-17537D01*
X-50246Y-17492D01*
X-50386Y-17447D01*
X-50520Y-17390D01*
X-50655Y-17326D01*
X-50661Y-17320D01*
X-50687Y-17307D01*
X-50718Y-17288D01*
X-50763Y-17256D01*
X-50821Y-17217D01*
X-50885Y-17173D01*
X-50949Y-17121D01*
X-51025Y-17058D01*
X-51102Y-16987D01*
X-51185Y-16911D01*
X-51262Y-16821D01*
X-51345Y-16725D01*
X-51415Y-16623D01*
X-51492Y-16514D01*
X-51556Y-16399D01*
X-51613Y-16272D01*
Y-16265D01*
X-51626Y-16240D01*
X-51639Y-16201D01*
X-51658Y-16144D01*
X-51677Y-16073D01*
X-51702Y-15991D01*
X-51728Y-15888D01*
X-51754Y-15773D01*
X-51786Y-15645D01*
X-51811Y-15505D01*
X-51837Y-15345D01*
X-51856Y-15179D01*
X-51875Y-14994D01*
X-51888Y-14802D01*
X-51894Y-14591D01*
X-51901Y-14374D01*
Y-10003D01*
X-50904D01*
Y-14367D01*
Y-14380D01*
Y-14412D01*
Y-14463D01*
Y-14527D01*
X-50897Y-14610D01*
X-50891Y-14706D01*
Y-14808D01*
X-50878Y-14917D01*
X-50859Y-15153D01*
X-50827Y-15396D01*
X-50808Y-15511D01*
X-50782Y-15620D01*
X-50757Y-15722D01*
X-50725Y-15818D01*
Y-15824D01*
X-50718Y-15837D01*
X-50706Y-15863D01*
X-50687Y-15895D01*
X-50667Y-15933D01*
X-50642Y-15978D01*
X-50578Y-16080D01*
X-50488Y-16201D01*
X-50380Y-16316D01*
X-50246Y-16438D01*
X-50092Y-16540D01*
X-50086D01*
X-50073Y-16553D01*
X-50047Y-16566D01*
X-50009Y-16578D01*
X-49971Y-16598D01*
X-49913Y-16617D01*
X-49856Y-16642D01*
X-49786Y-16661D01*
X-49709Y-16687D01*
X-49626Y-16713D01*
X-49536Y-16732D01*
X-49441Y-16751D01*
X-49230Y-16776D01*
X-49000Y-16789D01*
X-48948D01*
X-48897Y-16783D01*
X-48821D01*
X-48731Y-16776D01*
X-48629Y-16764D01*
X-48514Y-16745D01*
X-48393Y-16725D01*
X-48265Y-16700D01*
X-48131Y-16668D01*
X-48003Y-16630D01*
X-47875Y-16578D01*
X-47747Y-16521D01*
X-47632Y-16457D01*
X-47523Y-16380D01*
X-47428Y-16291D01*
X-47421Y-16284D01*
X-47408Y-16265D01*
X-47383Y-16233D01*
X-47351Y-16189D01*
X-47319Y-16131D01*
X-47281Y-16061D01*
X-47236Y-15971D01*
X-47191Y-15863D01*
X-47146Y-15741D01*
X-47102Y-15601D01*
X-47063Y-15447D01*
X-47031Y-15268D01*
X-46999Y-15077D01*
X-46974Y-14859D01*
X-46961Y-14623D01*
X-46955Y-14367D01*
Y-10003D01*
X-45958D01*
Y-14374D01*
D02*
G37*
G36*
X-38878Y-10898D02*
X-41376D01*
Y-17562D01*
X-42373D01*
Y-10898D01*
X-44865D01*
Y-10003D01*
X-38878D01*
Y-10898D01*
D02*
G37*
G36*
X298174Y-9875D02*
X298257D01*
X298353Y-9888D01*
X298468Y-9901D01*
X298596Y-9920D01*
X298730Y-9939D01*
X298877Y-9971D01*
X299031Y-10009D01*
X299190Y-10061D01*
X299350Y-10112D01*
X299516Y-10182D01*
X299670Y-10259D01*
X299829Y-10348D01*
X299976Y-10450D01*
X299983Y-10457D01*
X300008Y-10476D01*
X300053Y-10508D01*
X300104Y-10559D01*
X300168Y-10616D01*
X300238Y-10687D01*
X300315Y-10770D01*
X300405Y-10866D01*
X300487Y-10981D01*
X300577Y-11102D01*
X300673Y-11230D01*
X300756Y-11377D01*
X300845Y-11537D01*
X300922Y-11703D01*
X300992Y-11882D01*
X301056Y-12073D01*
X300072Y-12310D01*
Y-12297D01*
X300059Y-12271D01*
X300047Y-12233D01*
X300021Y-12176D01*
X299995Y-12105D01*
X299963Y-12029D01*
X299919Y-11939D01*
X299874Y-11850D01*
X299765Y-11652D01*
X299638Y-11447D01*
X299561Y-11351D01*
X299484Y-11262D01*
X299395Y-11179D01*
X299305Y-11102D01*
X299299Y-11096D01*
X299280Y-11083D01*
X299254Y-11070D01*
X299216Y-11045D01*
X299165Y-11013D01*
X299107Y-10981D01*
X299037Y-10949D01*
X298960Y-10910D01*
X298877Y-10879D01*
X298781Y-10847D01*
X298673Y-10815D01*
X298564Y-10783D01*
X298443Y-10757D01*
X298321Y-10744D01*
X298187Y-10731D01*
X298046Y-10725D01*
X297964D01*
X297900Y-10731D01*
X297823Y-10738D01*
X297740Y-10744D01*
X297644Y-10757D01*
X297535Y-10776D01*
X297420Y-10802D01*
X297305Y-10827D01*
X297184Y-10859D01*
X297062Y-10904D01*
X296935Y-10949D01*
X296813Y-11006D01*
X296698Y-11070D01*
X296583Y-11147D01*
X296577Y-11153D01*
X296558Y-11166D01*
X296526Y-11192D01*
X296487Y-11224D01*
X296443Y-11262D01*
X296385Y-11313D01*
X296328Y-11377D01*
X296264Y-11441D01*
X296193Y-11518D01*
X296130Y-11607D01*
X296059Y-11696D01*
X295995Y-11799D01*
X295932Y-11907D01*
X295868Y-12022D01*
X295816Y-12144D01*
X295765Y-12271D01*
Y-12278D01*
X295753Y-12303D01*
X295746Y-12342D01*
X295727Y-12393D01*
X295708Y-12457D01*
X295689Y-12533D01*
X295670Y-12623D01*
X295650Y-12719D01*
X295625Y-12821D01*
X295606Y-12936D01*
X295586Y-13051D01*
X295567Y-13179D01*
X295542Y-13447D01*
X295529Y-13722D01*
Y-13735D01*
Y-13767D01*
Y-13818D01*
X295535Y-13882D01*
Y-13965D01*
X295542Y-14067D01*
X295554Y-14176D01*
X295567Y-14297D01*
X295580Y-14425D01*
X295599Y-14559D01*
X295650Y-14840D01*
X295721Y-15128D01*
X295759Y-15268D01*
X295810Y-15409D01*
X295816Y-15415D01*
X295823Y-15441D01*
X295842Y-15479D01*
X295861Y-15524D01*
X295893Y-15588D01*
X295932Y-15652D01*
X295976Y-15729D01*
X296027Y-15811D01*
X296085Y-15895D01*
X296149Y-15984D01*
X296219Y-16073D01*
X296296Y-16163D01*
X296379Y-16252D01*
X296475Y-16335D01*
X296570Y-16412D01*
X296679Y-16483D01*
X296686Y-16489D01*
X296705Y-16495D01*
X296737Y-16514D01*
X296781Y-16540D01*
X296839Y-16566D01*
X296903Y-16591D01*
X296979Y-16623D01*
X297062Y-16655D01*
X297158Y-16693D01*
X297254Y-16725D01*
X297363Y-16751D01*
X297471Y-16776D01*
X297714Y-16821D01*
X297842Y-16828D01*
X297970Y-16834D01*
X298008D01*
X298053Y-16828D01*
X298110D01*
X298181Y-16821D01*
X298270Y-16808D01*
X298360Y-16796D01*
X298462Y-16776D01*
X298577Y-16751D01*
X298686Y-16719D01*
X298807Y-16681D01*
X298928Y-16630D01*
X299050Y-16578D01*
X299165Y-16514D01*
X299286Y-16438D01*
X299395Y-16355D01*
X299401Y-16348D01*
X299420Y-16329D01*
X299452Y-16304D01*
X299491Y-16265D01*
X299535Y-16214D01*
X299593Y-16150D01*
X299650Y-16073D01*
X299714Y-15991D01*
X299778Y-15895D01*
X299842Y-15786D01*
X299912Y-15671D01*
X299976Y-15543D01*
X300034Y-15403D01*
X300091Y-15249D01*
X300143Y-15083D01*
X300187Y-14911D01*
X301184Y-15166D01*
Y-15173D01*
X301178Y-15179D01*
Y-15198D01*
X301171Y-15217D01*
X301152Y-15281D01*
X301120Y-15371D01*
X301088Y-15473D01*
X301037Y-15588D01*
X300986Y-15722D01*
X300922Y-15863D01*
X300852Y-16010D01*
X300769Y-16169D01*
X300673Y-16323D01*
X300571Y-16476D01*
X300456Y-16630D01*
X300328Y-16776D01*
X300194Y-16917D01*
X300047Y-17045D01*
X300040Y-17051D01*
X300008Y-17070D01*
X299963Y-17102D01*
X299900Y-17147D01*
X299823Y-17192D01*
X299727Y-17249D01*
X299619Y-17307D01*
X299491Y-17364D01*
X299350Y-17428D01*
X299203Y-17486D01*
X299037Y-17543D01*
X298858Y-17588D01*
X298673Y-17633D01*
X298475Y-17665D01*
X298270Y-17684D01*
X298053Y-17690D01*
X298002D01*
X297938Y-17684D01*
X297849D01*
X297746Y-17677D01*
X297625Y-17665D01*
X297491Y-17652D01*
X297344Y-17626D01*
X297190Y-17601D01*
X297024Y-17569D01*
X296864Y-17530D01*
X296692Y-17479D01*
X296526Y-17428D01*
X296366Y-17358D01*
X296206Y-17288D01*
X296059Y-17198D01*
X296053Y-17192D01*
X296027Y-17173D01*
X295989Y-17147D01*
X295932Y-17102D01*
X295874Y-17051D01*
X295797Y-16987D01*
X295714Y-16917D01*
X295631Y-16828D01*
X295535Y-16732D01*
X295439Y-16630D01*
X295344Y-16508D01*
X295248Y-16380D01*
X295152Y-16240D01*
X295062Y-16086D01*
X294973Y-15927D01*
X294896Y-15754D01*
X294890Y-15741D01*
X294877Y-15709D01*
X294858Y-15658D01*
X294832Y-15588D01*
X294807Y-15498D01*
X294769Y-15396D01*
X294737Y-15281D01*
X294698Y-15147D01*
X294660Y-15000D01*
X294628Y-14847D01*
X294590Y-14674D01*
X294564Y-14502D01*
X294538Y-14316D01*
X294519Y-14125D01*
X294507Y-13927D01*
X294500Y-13728D01*
Y-13722D01*
Y-13716D01*
Y-13677D01*
Y-13613D01*
X294507Y-13530D01*
X294513Y-13428D01*
X294526Y-13307D01*
X294538Y-13172D01*
X294558Y-13025D01*
X294577Y-12872D01*
X294609Y-12706D01*
X294647Y-12533D01*
X294692Y-12361D01*
X294743Y-12182D01*
X294800Y-12003D01*
X294871Y-11831D01*
X294947Y-11664D01*
X294954Y-11652D01*
X294967Y-11626D01*
X294992Y-11581D01*
X295030Y-11518D01*
X295075Y-11447D01*
X295133Y-11364D01*
X295203Y-11268D01*
X295280Y-11166D01*
X295363Y-11057D01*
X295459Y-10949D01*
X295567Y-10840D01*
X295682Y-10731D01*
X295804Y-10623D01*
X295938Y-10514D01*
X296078Y-10418D01*
X296232Y-10329D01*
X296245Y-10323D01*
X296270Y-10310D01*
X296315Y-10284D01*
X296379Y-10259D01*
X296455Y-10220D01*
X296551Y-10182D01*
X296654Y-10144D01*
X296775Y-10099D01*
X296909Y-10054D01*
X297050Y-10016D01*
X297197Y-9978D01*
X297356Y-9939D01*
X297529Y-9914D01*
X297702Y-9888D01*
X297880Y-9875D01*
X298066Y-9869D01*
X298117D01*
X298174Y-9875D01*
D02*
G37*
G36*
X293644Y-15294D02*
X290794D01*
Y-14361D01*
X293644D01*
Y-15294D01*
D02*
G37*
G36*
X287426Y-17562D02*
X286385D01*
X283465Y-10003D01*
X284551D01*
X286513Y-15498D01*
Y-15505D01*
X286525Y-15530D01*
X286538Y-15562D01*
X286551Y-15613D01*
X286570Y-15671D01*
X286596Y-15741D01*
X286621Y-15818D01*
X286653Y-15901D01*
X286679Y-15997D01*
X286711Y-16093D01*
X286781Y-16304D01*
X286845Y-16521D01*
X286909Y-16738D01*
Y-16732D01*
X286915Y-16713D01*
X286928Y-16674D01*
X286941Y-16630D01*
X286953Y-16578D01*
X286979Y-16508D01*
X286998Y-16431D01*
X287024Y-16348D01*
X287056Y-16259D01*
X287088Y-16163D01*
X287152Y-15952D01*
X287235Y-15729D01*
X287318Y-15498D01*
X289363Y-10003D01*
X290378D01*
X287426Y-17562D01*
D02*
G37*
G36*
X308373Y-14374D02*
Y-14387D01*
Y-14425D01*
Y-14482D01*
X308366Y-14559D01*
Y-14655D01*
X308360Y-14770D01*
X308354Y-14891D01*
X308341Y-15026D01*
X308328Y-15166D01*
X308309Y-15313D01*
X308264Y-15613D01*
X308200Y-15914D01*
X308155Y-16048D01*
X308111Y-16182D01*
Y-16189D01*
X308098Y-16214D01*
X308085Y-16246D01*
X308060Y-16291D01*
X308034Y-16348D01*
X307996Y-16419D01*
X307951Y-16489D01*
X307900Y-16572D01*
X307836Y-16655D01*
X307772Y-16745D01*
X307695Y-16834D01*
X307612Y-16923D01*
X307517Y-17019D01*
X307414Y-17109D01*
X307299Y-17192D01*
X307178Y-17275D01*
X307172Y-17281D01*
X307146Y-17294D01*
X307108Y-17313D01*
X307056Y-17339D01*
X306986Y-17371D01*
X306909Y-17409D01*
X306814Y-17441D01*
X306705Y-17479D01*
X306584Y-17524D01*
X306456Y-17556D01*
X306309Y-17594D01*
X306149Y-17626D01*
X305983Y-17652D01*
X305804Y-17671D01*
X305612Y-17684D01*
X305414Y-17690D01*
X305312D01*
X305235Y-17684D01*
X305146Y-17677D01*
X305044Y-17671D01*
X304929Y-17658D01*
X304801Y-17646D01*
X304667Y-17626D01*
X304526Y-17601D01*
X304379Y-17569D01*
X304232Y-17537D01*
X304085Y-17492D01*
X303944Y-17447D01*
X303810Y-17390D01*
X303676Y-17326D01*
X303670Y-17320D01*
X303644Y-17307D01*
X303612Y-17288D01*
X303568Y-17256D01*
X303510Y-17217D01*
X303446Y-17173D01*
X303382Y-17121D01*
X303306Y-17058D01*
X303229Y-16987D01*
X303146Y-16911D01*
X303069Y-16821D01*
X302986Y-16725D01*
X302916Y-16623D01*
X302839Y-16514D01*
X302775Y-16399D01*
X302718Y-16272D01*
Y-16265D01*
X302705Y-16240D01*
X302692Y-16201D01*
X302673Y-16144D01*
X302654Y-16073D01*
X302628Y-15991D01*
X302603Y-15888D01*
X302577Y-15773D01*
X302545Y-15645D01*
X302519Y-15505D01*
X302494Y-15345D01*
X302475Y-15179D01*
X302456Y-14994D01*
X302443Y-14802D01*
X302436Y-14591D01*
X302430Y-14374D01*
Y-10003D01*
X303427D01*
Y-14367D01*
Y-14380D01*
Y-14412D01*
Y-14463D01*
Y-14527D01*
X303433Y-14610D01*
X303440Y-14706D01*
Y-14808D01*
X303452Y-14917D01*
X303472Y-15153D01*
X303504Y-15396D01*
X303523Y-15511D01*
X303548Y-15620D01*
X303574Y-15722D01*
X303606Y-15818D01*
Y-15824D01*
X303612Y-15837D01*
X303625Y-15863D01*
X303644Y-15895D01*
X303663Y-15933D01*
X303689Y-15978D01*
X303753Y-16080D01*
X303842Y-16201D01*
X303951Y-16316D01*
X304085Y-16438D01*
X304239Y-16540D01*
X304245D01*
X304258Y-16553D01*
X304283Y-16566D01*
X304322Y-16578D01*
X304360Y-16598D01*
X304417Y-16617D01*
X304475Y-16642D01*
X304545Y-16661D01*
X304622Y-16687D01*
X304705Y-16713D01*
X304794Y-16732D01*
X304890Y-16751D01*
X305101Y-16776D01*
X305331Y-16789D01*
X305382D01*
X305433Y-16783D01*
X305510D01*
X305599Y-16776D01*
X305702Y-16764D01*
X305817Y-16745D01*
X305938Y-16725D01*
X306066Y-16700D01*
X306200Y-16668D01*
X306328Y-16630D01*
X306456Y-16578D01*
X306584Y-16521D01*
X306699Y-16457D01*
X306807Y-16380D01*
X306903Y-16291D01*
X306909Y-16284D01*
X306922Y-16265D01*
X306948Y-16233D01*
X306980Y-16189D01*
X307012Y-16131D01*
X307050Y-16061D01*
X307095Y-15971D01*
X307139Y-15863D01*
X307184Y-15741D01*
X307229Y-15601D01*
X307267Y-15447D01*
X307299Y-15268D01*
X307331Y-15077D01*
X307357Y-14859D01*
X307370Y-14623D01*
X307376Y-14367D01*
Y-10003D01*
X308373D01*
Y-14374D01*
D02*
G37*
G36*
X315453Y-10898D02*
X312954D01*
Y-17562D01*
X311958D01*
Y-10898D01*
X309466D01*
Y-10003D01*
X315453D01*
Y-10898D01*
D02*
G37*
G36*
X298174Y17684D02*
X298257D01*
X298353Y17671D01*
X298468Y17658D01*
X298596Y17639D01*
X298730Y17620D01*
X298877Y17588D01*
X299031Y17550D01*
X299190Y17499D01*
X299350Y17447D01*
X299516Y17377D01*
X299670Y17300D01*
X299829Y17211D01*
X299976Y17109D01*
X299983Y17102D01*
X300008Y17083D01*
X300053Y17051D01*
X300104Y17000D01*
X300168Y16943D01*
X300238Y16872D01*
X300315Y16789D01*
X300405Y16693D01*
X300487Y16578D01*
X300577Y16457D01*
X300673Y16329D01*
X300756Y16182D01*
X300845Y16022D01*
X300922Y15856D01*
X300992Y15677D01*
X301056Y15486D01*
X300072Y15249D01*
Y15262D01*
X300059Y15288D01*
X300047Y15326D01*
X300021Y15383D01*
X299995Y15454D01*
X299963Y15530D01*
X299919Y15620D01*
X299874Y15709D01*
X299765Y15907D01*
X299638Y16112D01*
X299561Y16208D01*
X299484Y16297D01*
X299395Y16380D01*
X299305Y16457D01*
X299299Y16463D01*
X299280Y16476D01*
X299254Y16489D01*
X299216Y16514D01*
X299165Y16546D01*
X299107Y16578D01*
X299037Y16610D01*
X298960Y16649D01*
X298877Y16681D01*
X298781Y16713D01*
X298673Y16745D01*
X298564Y16776D01*
X298443Y16802D01*
X298321Y16815D01*
X298187Y16828D01*
X298046Y16834D01*
X297964D01*
X297900Y16828D01*
X297823Y16821D01*
X297740Y16815D01*
X297644Y16802D01*
X297535Y16783D01*
X297420Y16757D01*
X297305Y16732D01*
X297184Y16700D01*
X297062Y16655D01*
X296935Y16610D01*
X296813Y16553D01*
X296698Y16489D01*
X296583Y16412D01*
X296577Y16406D01*
X296558Y16393D01*
X296526Y16367D01*
X296487Y16335D01*
X296443Y16297D01*
X296385Y16246D01*
X296328Y16182D01*
X296264Y16118D01*
X296193Y16042D01*
X296130Y15952D01*
X296059Y15863D01*
X295995Y15760D01*
X295932Y15652D01*
X295868Y15537D01*
X295816Y15415D01*
X295765Y15288D01*
Y15281D01*
X295753Y15256D01*
X295746Y15217D01*
X295727Y15166D01*
X295708Y15102D01*
X295689Y15026D01*
X295670Y14936D01*
X295650Y14840D01*
X295625Y14738D01*
X295606Y14623D01*
X295586Y14508D01*
X295567Y14380D01*
X295542Y14112D01*
X295529Y13837D01*
Y13824D01*
Y13792D01*
Y13741D01*
X295535Y13677D01*
Y13594D01*
X295542Y13492D01*
X295554Y13383D01*
X295567Y13262D01*
X295580Y13134D01*
X295599Y13000D01*
X295650Y12719D01*
X295721Y12431D01*
X295759Y12291D01*
X295810Y12150D01*
X295816Y12144D01*
X295823Y12118D01*
X295842Y12080D01*
X295861Y12035D01*
X295893Y11971D01*
X295932Y11907D01*
X295976Y11831D01*
X296027Y11748D01*
X296085Y11664D01*
X296149Y11575D01*
X296219Y11485D01*
X296296Y11396D01*
X296379Y11307D01*
X296475Y11224D01*
X296570Y11147D01*
X296679Y11077D01*
X296686Y11070D01*
X296705Y11064D01*
X296737Y11045D01*
X296781Y11019D01*
X296839Y10994D01*
X296903Y10968D01*
X296979Y10936D01*
X297062Y10904D01*
X297158Y10866D01*
X297254Y10834D01*
X297363Y10808D01*
X297471Y10783D01*
X297714Y10738D01*
X297842Y10731D01*
X297970Y10725D01*
X298008D01*
X298053Y10731D01*
X298110D01*
X298181Y10738D01*
X298270Y10751D01*
X298360Y10763D01*
X298462Y10783D01*
X298577Y10808D01*
X298686Y10840D01*
X298807Y10879D01*
X298928Y10930D01*
X299050Y10981D01*
X299165Y11045D01*
X299286Y11121D01*
X299395Y11204D01*
X299401Y11211D01*
X299420Y11230D01*
X299452Y11255D01*
X299491Y11294D01*
X299535Y11345D01*
X299593Y11409D01*
X299650Y11485D01*
X299714Y11569D01*
X299778Y11664D01*
X299842Y11773D01*
X299912Y11888D01*
X299976Y12016D01*
X300034Y12156D01*
X300091Y12310D01*
X300143Y12476D01*
X300187Y12649D01*
X301184Y12393D01*
Y12387D01*
X301178Y12380D01*
Y12361D01*
X301171Y12342D01*
X301152Y12278D01*
X301120Y12188D01*
X301088Y12086D01*
X301037Y11971D01*
X300986Y11837D01*
X300922Y11696D01*
X300852Y11549D01*
X300769Y11390D01*
X300673Y11236D01*
X300571Y11083D01*
X300456Y10930D01*
X300328Y10783D01*
X300194Y10642D01*
X300047Y10514D01*
X300040Y10508D01*
X300008Y10489D01*
X299963Y10457D01*
X299900Y10412D01*
X299823Y10367D01*
X299727Y10310D01*
X299619Y10252D01*
X299491Y10195D01*
X299350Y10131D01*
X299203Y10073D01*
X299037Y10016D01*
X298858Y9971D01*
X298673Y9926D01*
X298475Y9894D01*
X298270Y9875D01*
X298053Y9869D01*
X298002D01*
X297938Y9875D01*
X297849D01*
X297746Y9882D01*
X297625Y9894D01*
X297491Y9907D01*
X297344Y9933D01*
X297190Y9958D01*
X297024Y9990D01*
X296864Y10029D01*
X296692Y10080D01*
X296526Y10131D01*
X296366Y10201D01*
X296206Y10271D01*
X296059Y10361D01*
X296053Y10367D01*
X296027Y10386D01*
X295989Y10412D01*
X295932Y10457D01*
X295874Y10508D01*
X295797Y10572D01*
X295714Y10642D01*
X295631Y10731D01*
X295535Y10827D01*
X295439Y10930D01*
X295344Y11051D01*
X295248Y11179D01*
X295152Y11319D01*
X295062Y11473D01*
X294973Y11632D01*
X294896Y11805D01*
X294890Y11818D01*
X294877Y11850D01*
X294858Y11901D01*
X294832Y11971D01*
X294807Y12061D01*
X294769Y12163D01*
X294737Y12278D01*
X294698Y12412D01*
X294660Y12559D01*
X294628Y12712D01*
X294590Y12885D01*
X294564Y13058D01*
X294538Y13243D01*
X294519Y13434D01*
X294507Y13633D01*
X294500Y13831D01*
Y13837D01*
Y13843D01*
Y13882D01*
Y13946D01*
X294507Y14029D01*
X294513Y14131D01*
X294526Y14252D01*
X294538Y14387D01*
X294558Y14534D01*
X294577Y14687D01*
X294609Y14853D01*
X294647Y15026D01*
X294692Y15198D01*
X294743Y15377D01*
X294800Y15556D01*
X294871Y15729D01*
X294947Y15895D01*
X294954Y15907D01*
X294967Y15933D01*
X294992Y15978D01*
X295030Y16042D01*
X295075Y16112D01*
X295133Y16195D01*
X295203Y16291D01*
X295280Y16393D01*
X295363Y16502D01*
X295459Y16610D01*
X295567Y16719D01*
X295682Y16828D01*
X295804Y16936D01*
X295938Y17045D01*
X296078Y17141D01*
X296232Y17230D01*
X296245Y17236D01*
X296270Y17249D01*
X296315Y17275D01*
X296379Y17300D01*
X296455Y17339D01*
X296551Y17377D01*
X296654Y17415D01*
X296775Y17460D01*
X296909Y17505D01*
X297050Y17543D01*
X297197Y17582D01*
X297356Y17620D01*
X297529Y17646D01*
X297702Y17671D01*
X297880Y17684D01*
X298066Y17690D01*
X298117D01*
X298174Y17684D01*
D02*
G37*
G36*
X293644Y12265D02*
X290794D01*
Y13198D01*
X293644D01*
Y12265D01*
D02*
G37*
G36*
X287426Y9997D02*
X286385D01*
X283465Y17556D01*
X284551D01*
X286513Y12061D01*
Y12054D01*
X286525Y12029D01*
X286538Y11997D01*
X286551Y11946D01*
X286570Y11888D01*
X286596Y11818D01*
X286621Y11741D01*
X286653Y11658D01*
X286679Y11562D01*
X286711Y11466D01*
X286781Y11255D01*
X286845Y11038D01*
X286909Y10821D01*
Y10827D01*
X286915Y10847D01*
X286928Y10885D01*
X286941Y10930D01*
X286953Y10981D01*
X286979Y11051D01*
X286998Y11128D01*
X287024Y11211D01*
X287056Y11300D01*
X287088Y11396D01*
X287152Y11607D01*
X287235Y11831D01*
X287318Y12061D01*
X289363Y17556D01*
X290378D01*
X287426Y9997D01*
D02*
G37*
G36*
X308373Y13185D02*
Y13172D01*
Y13134D01*
Y13077D01*
X308366Y13000D01*
Y12904D01*
X308360Y12789D01*
X308354Y12668D01*
X308341Y12533D01*
X308328Y12393D01*
X308309Y12246D01*
X308264Y11946D01*
X308200Y11645D01*
X308155Y11511D01*
X308111Y11377D01*
Y11371D01*
X308098Y11345D01*
X308085Y11313D01*
X308060Y11268D01*
X308034Y11211D01*
X307996Y11141D01*
X307951Y11070D01*
X307900Y10987D01*
X307836Y10904D01*
X307772Y10815D01*
X307695Y10725D01*
X307612Y10636D01*
X307517Y10540D01*
X307414Y10450D01*
X307299Y10367D01*
X307178Y10284D01*
X307172Y10278D01*
X307146Y10265D01*
X307108Y10246D01*
X307056Y10220D01*
X306986Y10188D01*
X306909Y10150D01*
X306814Y10118D01*
X306705Y10080D01*
X306584Y10035D01*
X306456Y10003D01*
X306309Y9965D01*
X306149Y9933D01*
X305983Y9907D01*
X305804Y9888D01*
X305612Y9875D01*
X305414Y9869D01*
X305312D01*
X305235Y9875D01*
X305146Y9882D01*
X305044Y9888D01*
X304929Y9901D01*
X304801Y9914D01*
X304667Y9933D01*
X304526Y9958D01*
X304379Y9990D01*
X304232Y10022D01*
X304085Y10067D01*
X303944Y10112D01*
X303810Y10169D01*
X303676Y10233D01*
X303670Y10239D01*
X303644Y10252D01*
X303612Y10271D01*
X303568Y10303D01*
X303510Y10342D01*
X303446Y10386D01*
X303382Y10438D01*
X303306Y10502D01*
X303229Y10572D01*
X303146Y10648D01*
X303069Y10738D01*
X302986Y10834D01*
X302916Y10936D01*
X302839Y11045D01*
X302775Y11160D01*
X302718Y11287D01*
Y11294D01*
X302705Y11319D01*
X302692Y11358D01*
X302673Y11415D01*
X302654Y11485D01*
X302628Y11569D01*
X302603Y11671D01*
X302577Y11786D01*
X302545Y11914D01*
X302519Y12054D01*
X302494Y12214D01*
X302475Y12380D01*
X302456Y12565D01*
X302443Y12757D01*
X302436Y12968D01*
X302430Y13185D01*
Y17556D01*
X303427D01*
Y13192D01*
Y13179D01*
Y13147D01*
Y13096D01*
Y13032D01*
X303433Y12949D01*
X303440Y12853D01*
Y12751D01*
X303452Y12642D01*
X303472Y12406D01*
X303504Y12163D01*
X303523Y12048D01*
X303548Y11939D01*
X303574Y11837D01*
X303606Y11741D01*
Y11735D01*
X303612Y11722D01*
X303625Y11696D01*
X303644Y11664D01*
X303663Y11626D01*
X303689Y11581D01*
X303753Y11479D01*
X303842Y11358D01*
X303951Y11243D01*
X304085Y11121D01*
X304239Y11019D01*
X304245D01*
X304258Y11006D01*
X304283Y10994D01*
X304322Y10981D01*
X304360Y10961D01*
X304417Y10942D01*
X304475Y10917D01*
X304545Y10898D01*
X304622Y10872D01*
X304705Y10847D01*
X304794Y10827D01*
X304890Y10808D01*
X305101Y10783D01*
X305331Y10770D01*
X305382D01*
X305433Y10776D01*
X305510D01*
X305599Y10783D01*
X305702Y10795D01*
X305817Y10815D01*
X305938Y10834D01*
X306066Y10859D01*
X306200Y10891D01*
X306328Y10930D01*
X306456Y10981D01*
X306584Y11038D01*
X306699Y11102D01*
X306807Y11179D01*
X306903Y11268D01*
X306909Y11275D01*
X306922Y11294D01*
X306948Y11326D01*
X306980Y11371D01*
X307012Y11428D01*
X307050Y11498D01*
X307095Y11588D01*
X307139Y11696D01*
X307184Y11818D01*
X307229Y11958D01*
X307267Y12112D01*
X307299Y12291D01*
X307331Y12482D01*
X307357Y12700D01*
X307370Y12936D01*
X307376Y13192D01*
Y17556D01*
X308373D01*
Y13185D01*
D02*
G37*
G36*
X315453Y16661D02*
X312954D01*
Y9997D01*
X311958D01*
Y16661D01*
X309466D01*
Y17556D01*
X315453D01*
Y16661D01*
D02*
G37*
D12*
X-33339Y13780D02*
X281621D01*
X-33339Y-13780D02*
X281621D01*
D13*
X170107Y21654D02*
G03*
X170107Y21654I-2784J0D01*
G01*
X156327Y21654D02*
G03*
X156327Y21654I-2784J0D01*
G01*
X838Y52165D02*
G03*
X0Y51327I146J-984D01*
G01*
X0Y102216D02*
G03*
X839Y101378I984J146D01*
G01*
X183886Y131890D02*
G03*
X183886Y131890I-2784J0D01*
G01*
X170107Y131890D02*
G03*
X170107Y131890I-2784J0D01*
G01*
X156327Y131890D02*
G03*
X156327Y131890I-2784J0D01*
G01*
X59842Y111221D02*
G03*
X58858Y110236I-0J-984D01*
G01*
X50028Y131890D02*
G03*
X50028Y131890I-2784J0D01*
G01*
X63807Y131890D02*
G03*
X63807Y131890I-2784J0D01*
G01*
X58858Y43307D02*
G03*
X59842Y42323I984J-0D01*
G01*
X85433Y66929D02*
G03*
X84449Y65945I0J-984D01*
G01*
X87402Y66929D02*
G03*
X88386Y67913I0J984D01*
G01*
X88386Y85630D02*
G03*
X87401Y86614I-984J0D01*
G01*
X84449Y87598D02*
G03*
X85433Y86614I984J-0D01*
G01*
X84449Y110236D02*
G03*
X83464Y111220I-984J0D01*
G01*
X83465Y42323D02*
G03*
X84449Y43307I0J984D01*
G01*
X76772Y133858D02*
G03*
X72835Y133858I-1969J-1968D01*
G01*
X76772Y129921D02*
G03*
X76772Y133858I-1969J1969D01*
G01*
X72835Y129921D02*
G03*
X76772Y129921I1969J1969D01*
G01*
X72835Y133858D02*
G03*
X72835Y129921I1968J-1968D01*
G01*
X27559Y0D02*
G03*
X13780Y13780I-13780J0D01*
G01*
X236221Y125984D02*
G03*
X222441Y139764I-13780J0D01*
G01*
X222441Y13780D02*
G03*
X236221Y27559I0J13780D01*
G01*
X208661Y-0D02*
G03*
X222441Y-13780I13780J0D01*
G01*
X0Y27559D02*
G03*
X13780Y13780I13780J0D01*
G01*
Y139764D02*
G03*
X0Y125984I0J-13780D01*
G01*
X222441Y13780D02*
G03*
X208661Y0I0J-13780D01*
G01*
X236221Y-27559D02*
G03*
X222441Y-13780I-13780J0D01*
G01*
X13780D02*
G03*
X0Y-27559I0J-13780D01*
G01*
X13780Y-13780D02*
G03*
X27559Y-0I0J13780D01*
G01*
X222441Y-139764D02*
G03*
X236221Y-125984I0J13780D01*
G01*
X0D02*
G03*
X13780Y-139764I13780J0D01*
G01*
X236221Y112205D02*
Y125984D01*
Y27559D02*
Y41339D01*
X224471D02*
Y112205D01*
Y41339D02*
X236282D01*
X224471Y112205D02*
X236282D01*
X224410Y-41339D02*
X236221D01*
X224410Y-112205D02*
X236221D01*
X224410D02*
Y-41339D01*
X236221D02*
Y-27559D01*
Y-125984D02*
Y-112205D01*
X0Y27559D02*
Y51368D01*
X797Y52165D02*
X27559D01*
X839Y101378D02*
X27559D01*
X0Y102217D02*
Y125984D01*
X59842Y111221D02*
X83465D01*
X58858Y43307D02*
Y110236D01*
X27559Y52165D02*
Y101378D01*
X85433Y66929D02*
X87402D01*
X88386Y67913D02*
Y85630D01*
X85433Y86614D02*
X87402D01*
X84449Y87598D02*
Y110236D01*
X59842Y42323D02*
X83465D01*
X84449Y43307D02*
Y65945D01*
X13780Y139764D02*
X222441D01*
X13780Y-139764D02*
X222441Y-139764D01*
X0Y-125984D02*
Y-27559D01*
M02*
