G04*
G04 #@! TF.GenerationSoftware,Altium Limited,Altium Designer,24.4.1 (13)*
G04*
G04 Layer_Color=8388736*
%FSLAX25Y25*%
%MOIN*%
G70*
G04*
G04 #@! TF.SameCoordinates,3B715CD9-8656-4105-9A90-409076DA93B2*
G04*
G04*
G04 #@! TF.FilePolarity,Negative*
G04*
G01*
G75*
%ADD12C,0.00787*%
%ADD13C,0.00394*%
G04:AMPARAMS|DCode=32|XSize=51.18mil|YSize=55.12mil|CornerRadius=0mil|HoleSize=0mil|Usage=FLASHONLY|Rotation=315.000|XOffset=0mil|YOffset=0mil|HoleType=Round|Shape=Rectangle|*
%AMROTATEDRECTD32*
4,1,4,-0.03758,-0.00139,0.00139,0.03758,0.03758,0.00139,-0.00139,-0.03758,-0.03758,-0.00139,0.0*
%
%ADD32ROTATEDRECTD32*%

%ADD43C,0.08268*%
G04:AMPARAMS|DCode=44|XSize=35.43mil|YSize=15.75mil|CornerRadius=0mil|HoleSize=0mil|Usage=FLASHONLY|Rotation=315.000|XOffset=0mil|YOffset=0mil|HoleType=Round|Shape=Rectangle|*
%AMROTATEDRECTD44*
4,1,4,-0.01810,0.00696,-0.00696,0.01810,0.01810,-0.00696,0.00696,-0.01810,-0.01810,0.00696,0.0*
%
%ADD44ROTATEDRECTD44*%

G04:AMPARAMS|DCode=45|XSize=35.43mil|YSize=15.75mil|CornerRadius=0mil|HoleSize=0mil|Usage=FLASHONLY|Rotation=45.000|XOffset=0mil|YOffset=0mil|HoleType=Round|Shape=Rectangle|*
%AMROTATEDRECTD45*
4,1,4,-0.00696,-0.01810,-0.01810,-0.00696,0.00696,0.01810,0.01810,0.00696,-0.00696,-0.01810,0.0*
%
%ADD45ROTATEDRECTD45*%

%ADD46P,0.15868X4X90.0*%
%ADD47P,0.15868X4X180.0*%
%ADD48P,0.03341X4X270.0*%
%ADD49R,0.02559X0.02756*%
%ADD50R,0.02559X0.02756*%
%ADD51R,0.02362X0.02362*%
%ADD52P,0.03341X4X360.0*%
%ADD53R,0.03543X0.03543*%
%ADD54R,0.05906X0.03937*%
%ADD55R,0.03937X0.05846*%
%ADD56R,0.05512X0.05512*%
G04:AMPARAMS|DCode=57|XSize=25.59mil|YSize=27.56mil|CornerRadius=0mil|HoleSize=0mil|Usage=FLASHONLY|Rotation=315.000|XOffset=0mil|YOffset=0mil|HoleType=Round|Shape=Rectangle|*
%AMROTATEDRECTD57*
4,1,4,-0.01879,-0.00070,0.00070,0.01879,0.01879,0.00070,-0.00070,-0.01879,-0.01879,-0.00070,0.0*
%
%ADD57ROTATEDRECTD57*%

G04:AMPARAMS|DCode=58|XSize=27.56mil|YSize=25.59mil|CornerRadius=0mil|HoleSize=0mil|Usage=FLASHONLY|Rotation=45.000|XOffset=0mil|YOffset=0mil|HoleType=Round|Shape=Rectangle|*
%AMROTATEDRECTD58*
4,1,4,-0.00070,-0.01879,-0.01879,-0.00070,0.00070,0.01879,0.01879,0.00070,-0.00070,-0.01879,0.0*
%
%ADD58ROTATEDRECTD58*%

%ADD59R,0.05906X0.05118*%
%ADD60R,0.05906X0.05118*%
%ADD61R,0.04409X0.11024*%
G04:AMPARAMS|DCode=62|XSize=22.05mil|YSize=11.81mil|CornerRadius=2.95mil|HoleSize=0mil|Usage=FLASHONLY|Rotation=225.000|XOffset=0mil|YOffset=0mil|HoleType=Round|Shape=RoundedRectangle|*
%AMROUNDEDRECTD62*
21,1,0.02205,0.00591,0,0,225.0*
21,1,0.01614,0.01181,0,0,225.0*
1,1,0.00591,-0.00780,-0.00362*
1,1,0.00591,0.00362,0.00780*
1,1,0.00591,0.00780,0.00362*
1,1,0.00591,-0.00362,-0.00780*
%
%ADD62ROUNDEDRECTD62*%
%ADD63R,0.10236X0.04331*%
G04:AMPARAMS|DCode=64|XSize=45.67mil|YSize=29.53mil|CornerRadius=8.37mil|HoleSize=0mil|Usage=FLASHONLY|Rotation=0.000|XOffset=0mil|YOffset=0mil|HoleType=Round|Shape=RoundedRectangle|*
%AMROUNDEDRECTD64*
21,1,0.04567,0.01280,0,0,0.0*
21,1,0.02894,0.02953,0,0,0.0*
1,1,0.01673,0.01447,-0.00640*
1,1,0.01673,-0.01447,-0.00640*
1,1,0.01673,-0.01447,0.00640*
1,1,0.01673,0.01447,0.00640*
%
%ADD64ROUNDEDRECTD64*%
%ADD65R,0.11024X0.04409*%
%ADD66R,0.03543X0.03543*%
%ADD67R,0.02756X0.06102*%
%ADD68R,0.01575X0.06102*%
%ADD69C,0.23635*%
%ADD70C,0.03150*%
%ADD71O,0.04528X0.08661*%
G36*
X199606Y22441D02*
X197244D01*
Y19685D01*
X196063D01*
X198425Y17323D01*
X200787Y19685D01*
X199606D01*
Y22441D01*
D02*
G37*
G36*
X151136Y96445D02*
X151528Y96222D01*
X151780Y95969D01*
X151836Y95858D01*
X151948Y95745D01*
X152004Y95354D01*
X151948Y94682D01*
X151724Y94346D01*
X151612Y94066D01*
X151668Y89363D01*
X151920Y89279D01*
X154775Y89334D01*
X154859Y89419D01*
X154915Y89643D01*
X154887Y89950D01*
X154915Y90706D01*
X154859Y90874D01*
X154887Y92358D01*
X154803Y92554D01*
X154467Y93114D01*
X154411Y93506D01*
X154467Y94010D01*
X154635Y94178D01*
X154803Y94458D01*
X155167Y94710D01*
X155531Y94794D01*
X155839Y94822D01*
X156007Y94766D01*
X156287Y94710D01*
X156595Y94458D01*
X156763Y94346D01*
X157043Y93730D01*
X156987Y93114D01*
X156763Y92722D01*
X156595Y92442D01*
X156651Y88971D01*
X160318Y85303D01*
X160542Y85247D01*
X163706Y85219D01*
X163986Y85331D01*
X164182Y85471D01*
X164462Y85583D01*
X164686Y85639D01*
X165357Y85583D01*
X165861Y85191D01*
X165945Y85107D01*
X166169Y84603D01*
X166113Y83931D01*
X165889Y83539D01*
X165582Y83231D01*
X165302Y83119D01*
X164910Y83008D01*
X164518Y83064D01*
X164014Y83343D01*
X163902Y83455D01*
X160878Y83399D01*
X160794Y83315D01*
X160850Y80404D01*
X160934Y80320D01*
X165582Y80376D01*
X165693Y80488D01*
X165805Y80544D01*
X166309Y80768D01*
X167037Y80712D01*
X167149Y80600D01*
X167261Y80544D01*
X167569Y80292D01*
X167849Y79676D01*
X167793Y79004D01*
X167681Y78892D01*
X167457Y78500D01*
X167373Y78416D01*
X166757Y78136D01*
X166085Y78192D01*
X165973Y78304D01*
X165749Y78360D01*
X165525Y78584D01*
X160878Y78528D01*
X160794Y78276D01*
X160850Y76037D01*
X160934Y75953D01*
X165638Y76009D01*
X165749Y76177D01*
X166309Y76401D01*
X166925Y76345D01*
X167401Y76092D01*
X167457Y75981D01*
X167625Y75813D01*
X167681Y75701D01*
X167849Y75309D01*
X167793Y74581D01*
X167681Y74469D01*
X167625Y74357D01*
X167373Y74049D01*
X167261Y73993D01*
X166981Y73825D01*
X166757Y73769D01*
X166029Y73825D01*
X165917Y73937D01*
X165805Y73993D01*
X165302Y74217D01*
X160934Y74161D01*
X160850Y74077D01*
X160794Y73853D01*
X160850Y71165D01*
X160934Y71081D01*
X163958Y71137D01*
X164126Y71305D01*
X164686Y71473D01*
X165302Y71417D01*
X165470Y71361D01*
X165582Y71305D01*
X165945Y70941D01*
X166169Y70437D01*
X166197Y70185D01*
X166113Y69709D01*
X166001Y69598D01*
X165945Y69430D01*
X165861Y69290D01*
X165749Y69234D01*
X165525Y69010D01*
X165077Y68898D01*
X164294Y68954D01*
X163986Y69206D01*
X163678Y69290D01*
X160374Y69234D01*
X160262Y69122D01*
X160150Y69066D01*
X159870Y68730D01*
X159590Y68450D01*
X159478Y68394D01*
X159058Y67974D01*
X159002Y67862D01*
X158807Y67722D01*
X158722Y67638D01*
X158667Y67526D01*
X158471Y67330D01*
X158359Y67274D01*
X158163Y67078D01*
X158135Y66994D01*
X158023Y66938D01*
X157211Y66126D01*
X157183Y66042D01*
X157071Y65986D01*
X156707Y65622D01*
X156595Y65342D01*
X156651Y62487D01*
X156819Y62319D01*
X157043Y61815D01*
X156987Y61087D01*
X156875Y60975D01*
X156819Y60751D01*
X156455Y60387D01*
X156091Y60303D01*
X155783Y60219D01*
X155335Y60275D01*
X154943Y60499D01*
X154691Y60695D01*
X154523Y60975D01*
X154467Y61143D01*
X154411Y61367D01*
X154467Y62095D01*
X154691Y62319D01*
X154915Y62823D01*
X154859Y62990D01*
X154887Y64978D01*
X154831Y65146D01*
X154439Y65258D01*
X152115Y65230D01*
X151864Y65258D01*
X151612Y65062D01*
X151668Y60863D01*
X151836Y60583D01*
X152004Y60191D01*
X152032Y59715D01*
X152004Y59687D01*
Y59631D01*
X151948Y59295D01*
X151836Y59183D01*
X151780Y59071D01*
X151472Y58763D01*
X150968Y58539D01*
X150296Y58595D01*
X149904Y58819D01*
X149596Y59127D01*
X149456Y59491D01*
X149372Y59799D01*
X149428Y60247D01*
X149652Y60639D01*
X149764Y60751D01*
X149876Y61143D01*
X149820Y65174D01*
X149512Y65258D01*
X149344Y65202D01*
X147776Y65258D01*
X147272Y65202D01*
X147188Y65118D01*
X147132Y64894D01*
X147188Y64670D01*
X147160Y61059D01*
X147216Y60835D01*
X147356Y60639D01*
X147524Y60247D01*
X147636Y59855D01*
X147580Y59687D01*
X147496Y59379D01*
X147328Y59043D01*
X147048Y58763D01*
X146488Y58539D01*
X145872Y58595D01*
X145481Y58819D01*
X145117Y59183D01*
X145005Y59463D01*
X144977Y60051D01*
X145033Y60331D01*
X145117Y60527D01*
X145229Y60639D01*
X145397Y61031D01*
X145341Y65118D01*
X145257Y65202D01*
X145033Y65258D01*
X144781Y65230D01*
X143241Y65258D01*
X143073Y65202D01*
X142849Y65258D01*
X142541Y65174D01*
X142429Y65062D01*
X142485Y62543D01*
X142821Y61983D01*
X142877Y61759D01*
X142821Y61031D01*
X142653Y60863D01*
X142513Y60611D01*
X142401Y60555D01*
X142233Y60387D01*
X141841Y60275D01*
X141617Y60219D01*
X141225Y60275D01*
X141057Y60331D01*
X140777Y60443D01*
X140469Y60751D01*
X140245Y61255D01*
X140189Y61479D01*
X140273Y61955D01*
X140581Y62431D01*
X140693Y62711D01*
X140637Y65790D01*
X139294Y67134D01*
X139237Y67246D01*
X139041Y67386D01*
X137194Y69234D01*
X136970Y69290D01*
X133610Y69234D01*
X133386Y69010D01*
X132939Y68898D01*
X132631Y68870D01*
X132295Y68926D01*
X132015Y69038D01*
X131819Y69234D01*
X131707Y69290D01*
X131623Y69374D01*
X131399Y69877D01*
X131343Y70101D01*
X131399Y70549D01*
X131679Y71053D01*
X131875Y71193D01*
X132043Y71361D01*
X132406Y71445D01*
X132994Y71473D01*
X133274Y71361D01*
X133554Y71193D01*
X133666Y71081D01*
X136494Y71053D01*
X136690Y71137D01*
X136774Y71389D01*
X136718Y74077D01*
X136578Y74217D01*
X131987Y74161D01*
X131875Y74049D01*
X131763Y73993D01*
X131483Y73825D01*
X131259Y73769D01*
X130531Y73825D01*
X130027Y74217D01*
X129803Y74553D01*
X129719Y74861D01*
X129775Y75589D01*
X129887Y75701D01*
X130055Y75981D01*
X130251Y76177D01*
X130615Y76316D01*
X130867Y76401D01*
X131427Y76345D01*
X131819Y76121D01*
X131931Y76009D01*
X132155Y75953D01*
X136690Y76009D01*
X136774Y76261D01*
X136718Y76429D01*
X136662Y78556D01*
X132043Y78584D01*
X131875Y78416D01*
X131259Y78136D01*
X130587Y78192D01*
X130475Y78304D01*
X130307Y78360D01*
X129999Y78612D01*
X129943Y78724D01*
X129719Y79060D01*
X129775Y79956D01*
X129887Y80068D01*
X129943Y80180D01*
X130195Y80488D01*
X130307Y80544D01*
X130419Y80656D01*
X130811Y80768D01*
X131539Y80712D01*
X131707Y80544D01*
X132211Y80320D01*
X136634Y80376D01*
X136718Y80460D01*
X136774Y80852D01*
X136718Y83371D01*
X136634Y83455D01*
X133610Y83399D01*
X133442Y83231D01*
X133078Y83091D01*
X132771Y83008D01*
X132351Y83091D01*
X131987Y83231D01*
X131763Y83455D01*
X131651Y83511D01*
X131483Y83847D01*
X131399Y84099D01*
X131371Y84239D01*
X131427Y84743D01*
X131511Y84827D01*
X131735Y85219D01*
X132043Y85527D01*
X132491Y85639D01*
X133218Y85583D01*
X133610Y85303D01*
X133834Y85247D01*
X133974Y85219D01*
X137166Y85275D01*
X137362Y85415D01*
X140693Y88747D01*
X140637Y92554D01*
X140525Y92666D01*
X140245Y93282D01*
X140301Y93954D01*
X140525Y94346D01*
X140665Y94486D01*
X140777Y94542D01*
X140833Y94654D01*
X141225Y94766D01*
X141617Y94822D01*
X142205Y94682D01*
X142401Y94486D01*
X142513Y94430D01*
X142597Y94346D01*
X142821Y93842D01*
X142849Y93422D01*
X142793Y93086D01*
X142457Y92526D01*
X142429Y89419D01*
X142513Y89334D01*
X142737Y89279D01*
X145313Y89334D01*
X145397Y89419D01*
X145424Y89670D01*
X145397Y92274D01*
X145452Y92442D01*
X145424Y93646D01*
X145452Y93954D01*
X145117Y94570D01*
X145005Y94850D01*
X145061Y95745D01*
X145173Y95858D01*
X145229Y95969D01*
X145592Y96333D01*
X145900Y96417D01*
X146152Y96501D01*
X146656Y96445D01*
X147160Y96166D01*
X147356Y95969D01*
X147468Y95689D01*
X147580Y95298D01*
X147524Y94794D01*
X147300Y94402D01*
X147132Y94010D01*
X147188Y89363D01*
X147440Y89279D01*
X149792Y89334D01*
X149876Y89419D01*
X149820Y94234D01*
X149540Y94626D01*
X149484Y94850D01*
X149428Y95018D01*
X149484Y95634D01*
X149708Y96026D01*
X149960Y96277D01*
X150520Y96501D01*
X151136Y96445D01*
D02*
G37*
G36*
X120474Y135878D02*
X120494Y135871D01*
X120610Y135857D01*
X120709Y135847D01*
X120749Y135840D01*
X120777Y135833D01*
X120811Y135827D01*
X120865Y135820D01*
X120906Y135813D01*
X120933Y135806D01*
X120971Y135796D01*
X120998Y135789D01*
X121063Y135779D01*
X121097Y135765D01*
X121124Y135758D01*
X121165Y135752D01*
X121199Y135738D01*
X121230Y135728D01*
X121257Y135721D01*
X121294Y135711D01*
X121332Y135694D01*
X121386Y135680D01*
X121434Y135660D01*
X121478Y135643D01*
X121488Y135633D01*
X121516Y135626D01*
X121560Y135609D01*
X121570Y135598D01*
X121608Y135588D01*
X121652Y135564D01*
X121696Y135547D01*
X121706Y135537D01*
X121740Y135523D01*
X121754Y135517D01*
X121788Y135496D01*
X121979Y135387D01*
X121992Y135374D01*
X122040Y135346D01*
X122054Y135333D01*
X122088Y135312D01*
X122101Y135299D01*
X122135Y135278D01*
X122149Y135265D01*
X122183Y135244D01*
X122197Y135231D01*
X122210Y135224D01*
X122238Y135197D01*
X122251Y135190D01*
X122272Y135169D01*
X122285Y135163D01*
X122302Y135146D01*
X122306Y135142D01*
X122343Y135111D01*
X122360Y135094D01*
X122374Y135088D01*
X122387Y135067D01*
X122401Y135060D01*
X122541Y134921D01*
X122547Y134907D01*
X122558Y134897D01*
X122568Y134894D01*
X122575Y134880D01*
X122609Y134846D01*
X122616Y134832D01*
X122636Y134812D01*
X122643Y134798D01*
X122670Y134771D01*
X122677Y134757D01*
X122704Y134730D01*
X122711Y134716D01*
X122731Y134696D01*
X122752Y134662D01*
X122765Y134648D01*
X122786Y134614D01*
X122799Y134601D01*
X122820Y134567D01*
X122833Y134553D01*
X122840Y134533D01*
X122874Y134485D01*
X122881Y134471D01*
X122901Y134437D01*
X122908Y134424D01*
X122929Y134403D01*
X122936Y134376D01*
X122963Y134335D01*
X122990Y134288D01*
X123004Y134253D01*
X123011Y134240D01*
X123031Y134206D01*
X123038Y134178D01*
X123051Y134165D01*
X123079Y134097D01*
X123099Y134049D01*
X123126Y133988D01*
X123133Y133961D01*
X123140Y133947D01*
X123160Y133899D01*
X123167Y133872D01*
X123194Y133811D01*
X123205Y133760D01*
X123222Y133722D01*
X123239Y133651D01*
X123252Y133617D01*
X123259Y133583D01*
X123266Y133542D01*
X123273Y133515D01*
X123283Y133484D01*
X123290Y133457D01*
X123307Y133358D01*
X123313Y133331D01*
X123320Y133297D01*
X123327Y133229D01*
X123334Y133167D01*
X123341Y133126D01*
X123351Y133034D01*
X123358Y132966D01*
X123351Y132422D01*
X123344Y132401D01*
X123330Y132285D01*
X123324Y132238D01*
X123317Y132170D01*
X123303Y132135D01*
X123296Y132088D01*
X123286Y132023D01*
X123262Y131945D01*
X123252Y131880D01*
X123235Y131843D01*
X123218Y131764D01*
X123201Y131727D01*
X123187Y131666D01*
X123167Y131618D01*
X123160Y131591D01*
X123133Y131529D01*
X123126Y131502D01*
X123119Y131489D01*
X123065Y131366D01*
X122976Y131196D01*
X122915Y131080D01*
X122901Y131066D01*
X122895Y131046D01*
X122868Y131005D01*
X122861Y130991D01*
X122840Y130971D01*
X122813Y130923D01*
X122711Y130780D01*
X122680Y130743D01*
X122670Y130733D01*
X122663Y130719D01*
X122636Y130692D01*
X122629Y130678D01*
X122602Y130651D01*
X122595Y130637D01*
X122568Y130610D01*
X122564Y130600D01*
X122551Y130593D01*
X122541Y130583D01*
X122534Y130569D01*
X122524Y130559D01*
X122513Y130556D01*
X122506Y130542D01*
X122394Y130430D01*
X122380Y130423D01*
X122326Y130368D01*
X122312Y130361D01*
X122285Y130334D01*
X122272Y130327D01*
X122244Y130300D01*
X122231Y130293D01*
X122210Y130273D01*
X122197Y130266D01*
X122169Y130239D01*
X122135Y130219D01*
X122122Y130205D01*
X122088Y130184D01*
X122074Y130171D01*
X122040Y130150D01*
X121992Y130123D01*
X121972Y130103D01*
X121951Y130096D01*
X121911Y130069D01*
X121877Y130048D01*
X121754Y129980D01*
X121720Y129966D01*
X121706Y129960D01*
X121693Y129946D01*
X121666Y129939D01*
X121577Y129898D01*
X121563Y129892D01*
X121516Y129871D01*
X121488Y129864D01*
X121475Y129851D01*
X121427Y129837D01*
X121366Y129810D01*
X121325Y129803D01*
X121264Y129776D01*
X121213Y129766D01*
X121168Y129749D01*
X121141Y129742D01*
X121097Y129732D01*
X121053Y129715D01*
X120954Y129698D01*
X120916Y129687D01*
X120889Y129681D01*
X120821Y129674D01*
X120794Y129667D01*
X120749Y129657D01*
X120709Y129650D01*
X120647Y129643D01*
X120566Y129636D01*
X120511Y129629D01*
X120470Y129623D01*
X120382Y129616D01*
X113779Y129612D01*
X113759Y129619D01*
X113650Y129626D01*
X113630Y129633D01*
X113493Y129647D01*
X113442Y129657D01*
X113388Y129670D01*
X113333Y129677D01*
X113299Y129684D01*
X113272Y129691D01*
X113242Y129701D01*
X113214Y129708D01*
X113163Y129718D01*
X113129Y129732D01*
X113102Y129738D01*
X113061Y129745D01*
X113027Y129759D01*
X112983Y129776D01*
X112942Y129783D01*
X112928Y129796D01*
X112891Y129806D01*
X112864Y129813D01*
X112853Y129824D01*
X112819Y129837D01*
X112775Y129847D01*
X112731Y129871D01*
X112697Y129885D01*
X112683Y129898D01*
X112639Y129909D01*
X112588Y129939D01*
X112567Y129946D01*
X112533Y129966D01*
X112499Y129980D01*
X112486Y129994D01*
X112441Y130011D01*
X112424Y130028D01*
X112336Y130076D01*
X112322Y130089D01*
X112274Y130116D01*
X112261Y130130D01*
X112227Y130144D01*
X112206Y130164D01*
X112172Y130184D01*
X112159Y130198D01*
X112125Y130219D01*
X112111Y130232D01*
X112077Y130253D01*
X112057Y130273D01*
X112046Y130276D01*
X112043Y130287D01*
X112029Y130293D01*
X111992Y130324D01*
X111968Y130341D01*
X111948Y130361D01*
X111934Y130368D01*
X111907Y130396D01*
X111893Y130402D01*
X111883Y130413D01*
X111879Y130423D01*
X111866Y130430D01*
X111770Y130525D01*
X111757Y130532D01*
X111740Y130556D01*
X111651Y130644D01*
X111648Y130654D01*
X111634Y130661D01*
X111617Y130685D01*
X111590Y130712D01*
X111583Y130726D01*
X111556Y130753D01*
X111549Y130767D01*
X111529Y130787D01*
X111522Y130801D01*
X111502Y130821D01*
X111495Y130835D01*
X111467Y130862D01*
X111447Y130896D01*
X111433Y130910D01*
X111413Y130944D01*
X111399Y130957D01*
X111379Y130991D01*
X111365Y131005D01*
X111358Y131032D01*
X111338Y131053D01*
X111318Y131087D01*
X111304Y131100D01*
X111290Y131134D01*
X111277Y131148D01*
X111243Y131209D01*
X111181Y131325D01*
X111168Y131359D01*
X111161Y131373D01*
X111141Y131407D01*
X111124Y131451D01*
X111113Y131461D01*
X111090Y131526D01*
X111073Y131563D01*
X111062Y131601D01*
X111038Y131645D01*
X111032Y131686D01*
X111004Y131747D01*
X110997Y131781D01*
X110977Y131829D01*
X110970Y131856D01*
X110963Y131897D01*
X110943Y131945D01*
X110933Y132009D01*
X110916Y132067D01*
X110909Y132095D01*
X110899Y132166D01*
X110885Y132221D01*
X110878Y132255D01*
X110872Y132336D01*
X110865Y132391D01*
X110858Y132425D01*
X110851Y132486D01*
X110841Y132687D01*
X110848Y133007D01*
X110854Y133028D01*
X110861Y133103D01*
X110868Y133123D01*
X110875Y133232D01*
X110882Y133259D01*
X110892Y133303D01*
X110899Y133331D01*
X110906Y133372D01*
X110912Y133426D01*
X110929Y133484D01*
X110936Y133511D01*
X110953Y133583D01*
X110970Y133627D01*
X110977Y133681D01*
X111004Y133743D01*
X111015Y133787D01*
X111032Y133818D01*
X111045Y133872D01*
X111059Y133886D01*
X111073Y133933D01*
X111100Y133995D01*
X111117Y134039D01*
X111127Y134049D01*
X111147Y134104D01*
X111168Y134138D01*
X111175Y134165D01*
X111195Y134185D01*
X111212Y134230D01*
X111236Y134274D01*
X111243Y134288D01*
X111256Y134301D01*
X111290Y134362D01*
X111318Y134410D01*
X111331Y134424D01*
X111338Y134444D01*
X111352Y134458D01*
X111358Y134471D01*
X111379Y134505D01*
X111392Y134519D01*
X111413Y134553D01*
X111427Y134567D01*
X111447Y134601D01*
X111461Y134614D01*
X111481Y134648D01*
X111502Y134669D01*
X111508Y134683D01*
X111529Y134703D01*
X111536Y134716D01*
X111556Y134737D01*
X111563Y134751D01*
X111573Y134768D01*
X111587Y134774D01*
X111604Y134798D01*
X111631Y134826D01*
X111638Y134839D01*
X111753Y134955D01*
X111760Y134968D01*
X111784Y134985D01*
X111791Y134999D01*
X111804Y135006D01*
X111900Y135101D01*
X111914Y135108D01*
X111941Y135135D01*
X111954Y135142D01*
X111982Y135169D01*
X111995Y135176D01*
X112016Y135197D01*
X112029Y135203D01*
X112057Y135231D01*
X112070Y135238D01*
X112091Y135258D01*
X112104Y135265D01*
X112152Y135299D01*
X112165Y135306D01*
X112186Y135326D01*
X112220Y135346D01*
X112234Y135360D01*
X112261Y135367D01*
X112288Y135394D01*
X112322Y135415D01*
X112370Y135442D01*
X112383Y135455D01*
X112428Y135473D01*
X112445Y135489D01*
X112479Y135503D01*
X112513Y135523D01*
X112547Y135537D01*
X112581Y135558D01*
X112731Y135626D01*
X112792Y135653D01*
X112819Y135660D01*
X112881Y135687D01*
X112969Y135721D01*
X113010Y135728D01*
X113071Y135755D01*
X113126Y135762D01*
X113173Y135782D01*
X113221Y135789D01*
X113310Y135816D01*
X113378Y135823D01*
X113487Y135850D01*
X113606Y135861D01*
X113647Y135867D01*
X113739Y135878D01*
X113848Y135884D01*
X120474Y135878D01*
D02*
G37*
G36*
X197244Y131102D02*
X199606D01*
Y133858D01*
X200787D01*
X198425Y136221D01*
X196063Y133858D01*
X197244D01*
Y131102D01*
D02*
G37*
%LPC*%
G36*
X150912Y95774D02*
X150464Y95718D01*
X150156Y95410D01*
X150128Y95158D01*
X150240Y94878D01*
X150352Y94766D01*
X150464Y94710D01*
X150744Y94598D01*
X150828Y94626D01*
X150856Y94654D01*
X151080Y94710D01*
X151164Y94794D01*
X151276Y95074D01*
X151332Y95242D01*
X151164Y95522D01*
X150912Y95774D01*
D02*
G37*
G36*
X146320D02*
X146040Y95718D01*
X145732Y95410D01*
X145677Y95186D01*
X145789Y94906D01*
Y94850D01*
X145929Y94710D01*
X146320Y94598D01*
X146712Y94822D01*
X146852Y95074D01*
X146908Y95242D01*
X146740Y95522D01*
X146544Y95718D01*
X146320Y95774D01*
D02*
G37*
G36*
X155671Y94150D02*
X155195Y93786D01*
X155139Y93394D01*
X155307Y93114D01*
X155671Y92918D01*
X155895Y92974D01*
X156007Y93086D01*
X156259Y93226D01*
X156315Y93450D01*
X156259Y93786D01*
X156119Y93926D01*
X156007Y93982D01*
X155951Y94038D01*
X155923Y94066D01*
X155671Y94150D01*
D02*
G37*
G36*
X141505D02*
X141029Y93786D01*
X140973Y93562D01*
X141029Y93226D01*
X141113Y93142D01*
X141225Y93086D01*
X141505Y92918D01*
X141673D01*
X141701Y92946D01*
X141785Y93030D01*
X141897Y93086D01*
X142037Y93170D01*
X142093Y93394D01*
X142037Y93842D01*
X141953Y93926D01*
X141841Y93982D01*
X141729Y94094D01*
X141505Y94150D01*
D02*
G37*
G36*
X164910Y84911D02*
X164630Y84855D01*
X164378Y84659D01*
X164322Y84435D01*
X164378Y84043D01*
X164630Y83791D01*
X164854Y83735D01*
X165077Y83791D01*
X165190Y83903D01*
X165217Y83931D01*
X165385Y84099D01*
X165442Y84323D01*
X165385Y84603D01*
X165190Y84799D01*
X164910Y84911D01*
D02*
G37*
G36*
X132659D02*
X132267Y84687D01*
X132127Y84547D01*
Y84211D01*
Y84155D01*
X132491Y83791D01*
X132714Y83735D01*
X132882Y83791D01*
X133190Y84043D01*
X133246Y84267D01*
X133190Y84659D01*
X133051Y84799D01*
X132659Y84911D01*
D02*
G37*
G36*
X166477Y80040D02*
X166085Y79816D01*
X165945Y79508D01*
X166001Y79228D01*
X166309Y78920D01*
X166533Y78864D01*
X166757Y78920D01*
X167065Y79228D01*
X167121Y79508D01*
X166897Y79900D01*
X166701Y79984D01*
X166645D01*
X166477Y80040D01*
D02*
G37*
G36*
X131007Y80012D02*
X130783Y79956D01*
X130587Y79816D01*
X130447Y79508D01*
X130531Y79200D01*
X130699Y79032D01*
X130727Y79004D01*
X130811Y78920D01*
X131035Y78864D01*
X131315Y78976D01*
X131567Y79228D01*
X131623Y79564D01*
X131371Y79872D01*
X131259Y79984D01*
X131007Y80012D01*
D02*
G37*
G36*
X131147Y75673D02*
X131091D01*
X130811Y75617D01*
X130503Y75309D01*
X130447Y75029D01*
X130671Y74637D01*
X130923Y74553D01*
X131315Y74609D01*
X131567Y74861D01*
X131595Y75169D01*
X131511Y75365D01*
X131259Y75617D01*
X131147Y75673D01*
D02*
G37*
G36*
X166533D02*
X166309Y75617D01*
X166001Y75309D01*
X165945Y75085D01*
X166001Y74861D01*
X166197Y74609D01*
X166533Y74497D01*
X166701Y74553D01*
X166981Y74721D01*
X167065Y74973D01*
X167009Y75365D01*
X166869Y75505D01*
X166841Y75533D01*
X166757Y75617D01*
X166533Y75673D01*
D02*
G37*
G36*
X164798Y70801D02*
X164378Y70493D01*
X164322Y70269D01*
X164378Y69877D01*
X164518Y69737D01*
X164798Y69626D01*
X165077Y69682D01*
X165385Y69933D01*
X165442Y70157D01*
X165357Y70465D01*
X165190Y70577D01*
X165162Y70605D01*
X165022Y70745D01*
X164798Y70801D01*
D02*
G37*
G36*
X132659D02*
X132546Y70745D01*
X132463Y70661D01*
X132434Y70633D01*
X132183Y70437D01*
X132127Y70213D01*
X132183Y69933D01*
X132378Y69737D01*
X132491Y69682D01*
X132659Y69626D01*
X132939Y69682D01*
X133190Y69877D01*
X133246Y70101D01*
X133190Y70493D01*
X133106Y70577D01*
X132994Y70633D01*
X132882Y70745D01*
X132659Y70801D01*
D02*
G37*
G36*
X155279Y87543D02*
X141897Y87487D01*
X138566Y84155D01*
X138510Y83931D01*
X138566Y70381D01*
X141897Y67050D01*
X142289Y66994D01*
X155139Y67022D01*
X155503Y66994D01*
X155783Y67162D01*
X155839Y67274D01*
X155951Y67330D01*
X156371Y67750D01*
X156399Y67834D01*
X156511Y67890D01*
X156875Y68254D01*
X156931Y68366D01*
X157071Y68450D01*
X157099Y68478D01*
X157715Y69094D01*
X157743Y69178D01*
X157855Y69234D01*
X159002Y70381D01*
X159030Y77240D01*
X159002Y77660D01*
X159058Y77828D01*
X159030Y82616D01*
X159058Y83427D01*
X159002Y83483D01*
X159058Y83651D01*
X159002Y84155D01*
X155895Y87263D01*
X155811Y87291D01*
X155755Y87403D01*
X155671Y87487D01*
X155279Y87543D01*
D02*
G37*
G36*
X155727Y62123D02*
X155559Y62067D01*
X155531Y62039D01*
X155251Y61871D01*
X155195Y61647D01*
X155251Y61255D01*
X155447Y61059D01*
X155559Y61003D01*
X155727Y60947D01*
X155895Y61003D01*
X156007Y61115D01*
X156119Y61171D01*
X156259Y61311D01*
X156315Y61591D01*
X156147Y61871D01*
X156007Y62011D01*
X155895Y62067D01*
X155727Y62123D01*
D02*
G37*
G36*
X141561D02*
X141393Y62067D01*
X141029Y61815D01*
X140973Y61423D01*
X141225Y61115D01*
X141505Y60947D01*
X141729Y61003D01*
X141841Y61115D01*
X141953Y61171D01*
X142037Y61255D01*
X142093Y61479D01*
Y61703D01*
Y61759D01*
X141841Y62011D01*
X141729Y62067D01*
X141561Y62123D01*
D02*
G37*
G36*
X150856Y60387D02*
X150408Y60331D01*
X150212Y60135D01*
X150156Y59911D01*
X150212Y59631D01*
X150520Y59323D01*
X150744Y59267D01*
X151136Y59491D01*
X151276Y59799D01*
Y60023D01*
X151248Y60051D01*
X151080Y60331D01*
X150856Y60387D01*
D02*
G37*
G36*
X146376D02*
X146040D01*
X146012Y60359D01*
X145844Y60247D01*
X145732Y59967D01*
X145789Y59631D01*
X145984Y59379D01*
X146264Y59267D01*
X146544Y59379D01*
X146796Y59631D01*
X146852Y59855D01*
X146796Y60079D01*
X146684Y60191D01*
X146628Y60303D01*
X146376Y60387D01*
D02*
G37*
%LPD*%
G36*
X154103Y85583D02*
X154383Y85303D01*
X154467Y85275D01*
X154523Y85163D01*
X154607Y85079D01*
X154719Y85023D01*
X157099Y82644D01*
X157155Y82420D01*
X157099Y71893D01*
X154103Y68898D01*
X153711Y68842D01*
X153543Y68898D01*
X147972Y68870D01*
X143801Y68898D01*
X143689Y68842D01*
X143521Y68898D01*
X143409Y68954D01*
X143073Y69290D01*
X142961Y69346D01*
X142681Y69682D01*
X140889Y71473D01*
X140805Y71501D01*
X140749Y71613D01*
X140413Y71949D01*
X140385Y72201D01*
X140441Y82616D01*
X143409Y85583D01*
X143633Y85639D01*
X147216Y85583D01*
X147272Y85359D01*
X147244Y77044D01*
X147300Y76932D01*
X147160Y76792D01*
X146852Y77044D01*
X144921Y78976D01*
X144641Y78920D01*
X144501Y78780D01*
X144445Y78668D01*
X144249Y78528D01*
X144109Y78332D01*
X143941Y78220D01*
X143885Y78108D01*
X143717Y77996D01*
X143661Y77884D01*
X143577Y77800D01*
X143465Y77744D01*
X143297Y77520D01*
X143185Y77464D01*
X143017Y77240D01*
X142905Y77184D01*
X142821Y76932D01*
X142877Y76764D01*
X142961Y76680D01*
X143073Y76625D01*
X143213Y76429D01*
X143521Y76121D01*
X143605Y76092D01*
X143661Y75981D01*
X144025Y75617D01*
X144137Y75561D01*
X144221Y75477D01*
X144249Y75393D01*
X144361Y75337D01*
X144445Y75253D01*
X144501Y75141D01*
X144585Y75057D01*
X144669Y75029D01*
X144725Y74917D01*
X144865Y74777D01*
X144949Y74749D01*
X145005Y74637D01*
X145369Y74273D01*
X145481Y74217D01*
X145564Y74133D01*
X145592Y74049D01*
X145704Y73993D01*
X145789Y73909D01*
X145844Y73797D01*
X146040Y73657D01*
X146180Y73461D01*
X146432Y73209D01*
X146544Y73153D01*
X146628Y73069D01*
X146684Y72957D01*
X146852Y72845D01*
X146908Y72733D01*
X146992Y72649D01*
X147104Y72593D01*
X147244Y72397D01*
X147412Y72285D01*
X147468Y72173D01*
X147664Y72033D01*
X147776Y71865D01*
X147888Y71809D01*
X148028Y71613D01*
X148280Y71361D01*
X148392Y71305D01*
X148476Y71221D01*
X148532Y71109D01*
X148616Y71025D01*
X148840Y70969D01*
X149092Y71165D01*
X149148Y71277D01*
X149232Y71361D01*
X149344Y71417D01*
X149484Y71613D01*
X149792Y71921D01*
X149876Y71949D01*
X149932Y72061D01*
X150016Y72145D01*
X150100Y72173D01*
X150156Y72285D01*
X150800Y72929D01*
X150912Y72985D01*
X151192Y73321D01*
X151360Y73489D01*
X151444Y73517D01*
X151500Y73629D01*
X151640Y73769D01*
X151724Y73797D01*
X151780Y73909D01*
X152199Y74329D01*
X152312Y74385D01*
X152367Y74497D01*
X152480Y74553D01*
X152564Y74637D01*
X152620Y74749D01*
X152703Y74833D01*
X152815Y74889D01*
X152927Y75057D01*
X153039Y75113D01*
X153123Y75197D01*
X153179Y75309D01*
X153263Y75393D01*
X153347Y75421D01*
X153403Y75533D01*
X153767Y75897D01*
X153879Y75953D01*
X154019Y76148D01*
X154187Y76261D01*
X154243Y76372D01*
X154439Y76512D01*
X154551Y76680D01*
X154663Y76736D01*
X154747Y76820D01*
X154691Y77156D01*
X154607Y77240D01*
X154495Y77296D01*
X154355Y77436D01*
X154327Y77520D01*
X154215Y77576D01*
X154131Y77660D01*
X154075Y77772D01*
X153879Y77912D01*
X153571Y78220D01*
X153543Y78304D01*
X153431Y78360D01*
X153291Y78500D01*
X153263Y78584D01*
X153151Y78640D01*
X153067Y78724D01*
X153011Y78836D01*
X152983Y78864D01*
X152703Y78976D01*
X152507Y78892D01*
X152452Y78780D01*
X150912Y77240D01*
X150828Y77212D01*
X150772Y77100D01*
X150520Y76848D01*
X150380Y76820D01*
X150268Y76932D01*
X150324Y77156D01*
X150296Y85471D01*
X150408Y85639D01*
X154103Y85583D01*
D02*
G37*
%LPC*%
G36*
X120079Y134843D02*
X113779Y134836D01*
X113759Y134829D01*
X113694Y134819D01*
X113654Y134812D01*
X113592Y134805D01*
X113551Y134798D01*
X113493Y134781D01*
X113466Y134774D01*
X113418Y134768D01*
X113371Y134747D01*
X113310Y134734D01*
X113262Y134713D01*
X113235Y134706D01*
X113173Y134679D01*
X113139Y134666D01*
X113078Y134638D01*
X113064Y134631D01*
X113051Y134618D01*
X112996Y134597D01*
X112983Y134584D01*
X112949Y134570D01*
X112935Y134556D01*
X112874Y134522D01*
X112799Y134475D01*
X112785Y134468D01*
X112765Y134448D01*
X112731Y134427D01*
X112717Y134414D01*
X112704Y134407D01*
X112683Y134386D01*
X112669Y134379D01*
X112632Y134349D01*
X112594Y134311D01*
X112581Y134304D01*
X112574Y134291D01*
X112560Y134284D01*
X112520Y134243D01*
X112509Y134240D01*
X112503Y134226D01*
X112414Y134138D01*
X112407Y134124D01*
X112359Y134076D01*
X112353Y134063D01*
X112339Y134049D01*
X112332Y134036D01*
X112312Y134015D01*
X112305Y134002D01*
X112285Y133981D01*
X112264Y133947D01*
X112251Y133933D01*
X112223Y133886D01*
X112182Y133818D01*
X112176Y133804D01*
X112148Y133763D01*
X112094Y133661D01*
X112087Y133641D01*
X112074Y133607D01*
X112019Y133484D01*
X112009Y133447D01*
X111992Y133409D01*
X111985Y133382D01*
X111975Y133337D01*
X111958Y133300D01*
X111948Y133235D01*
X111941Y133208D01*
X111931Y133177D01*
X111924Y133150D01*
X111914Y133065D01*
X111900Y132983D01*
X111893Y132929D01*
X111890Y132578D01*
X111897Y132558D01*
X111903Y132483D01*
X111910Y132462D01*
X111920Y132384D01*
X111927Y132330D01*
X111934Y132302D01*
X111944Y132272D01*
X111951Y132245D01*
X111961Y132187D01*
X111978Y132149D01*
X111995Y132078D01*
X112012Y132040D01*
X112019Y132013D01*
X112046Y131952D01*
X112063Y131907D01*
X112080Y131877D01*
X112097Y131833D01*
X112108Y131822D01*
X112125Y131778D01*
X112155Y131727D01*
X112162Y131713D01*
X112203Y131645D01*
X112271Y131543D01*
X112305Y131495D01*
X112336Y131458D01*
X112346Y131448D01*
X112353Y131434D01*
X112373Y131414D01*
X112380Y131400D01*
X112414Y131366D01*
X112421Y131352D01*
X112482Y131291D01*
X112486Y131281D01*
X112499Y131274D01*
X112509Y131264D01*
X112516Y131250D01*
X112540Y131233D01*
X112567Y131206D01*
X112577Y131202D01*
X112584Y131189D01*
X112608Y131172D01*
X112635Y131145D01*
X112649Y131138D01*
X112669Y131117D01*
X112683Y131111D01*
X112704Y131090D01*
X112717Y131083D01*
X112754Y131053D01*
X112778Y131036D01*
X112819Y131009D01*
X112833Y131002D01*
X112847Y130988D01*
X112942Y130933D01*
X113003Y130900D01*
X113105Y130852D01*
X113139Y130831D01*
X113173Y130818D01*
X113201Y130811D01*
X113214Y130797D01*
X113269Y130784D01*
X113316Y130763D01*
X113371Y130750D01*
X113415Y130733D01*
X113453Y130722D01*
X113507Y130716D01*
X113541Y130702D01*
X113568Y130695D01*
X113636Y130688D01*
X113684Y130682D01*
X113711Y130675D01*
X113776Y130665D01*
X113933Y130658D01*
X114127Y130654D01*
X114134D01*
X120433Y130661D01*
X120453Y130668D01*
X120518Y130678D01*
X120559Y130685D01*
X120620Y130692D01*
X120661Y130699D01*
X120719Y130716D01*
X120746Y130722D01*
X120794Y130729D01*
X120842Y130750D01*
X120903Y130763D01*
X120950Y130784D01*
X120978Y130790D01*
X121039Y130818D01*
X121073Y130831D01*
X121284Y130940D01*
X121359Y130988D01*
X121373Y130995D01*
X121386Y131009D01*
X121434Y131036D01*
X121448Y131049D01*
X121461Y131056D01*
X121475Y131070D01*
X121488Y131077D01*
X121526Y131107D01*
X121560Y131128D01*
X121563Y131138D01*
X121577Y131145D01*
X121611Y131179D01*
X121625Y131185D01*
X121713Y131274D01*
X121723Y131278D01*
X121730Y131291D01*
X121792Y131352D01*
X121798Y131366D01*
X121853Y131421D01*
X121860Y131434D01*
X121880Y131455D01*
X121887Y131468D01*
X121951Y131553D01*
X121982Y131597D01*
X122003Y131632D01*
X122030Y131679D01*
X122050Y131713D01*
X122057Y131727D01*
X122084Y131768D01*
X122091Y131795D01*
X122111Y131816D01*
X122122Y131853D01*
X122146Y131897D01*
X122163Y131941D01*
X122173Y131952D01*
X122180Y131979D01*
X122214Y132067D01*
X122224Y132112D01*
X122241Y132149D01*
X122248Y132176D01*
X122258Y132228D01*
X122275Y132272D01*
X122282Y132340D01*
X122289Y132367D01*
X122299Y132404D01*
X122306Y132439D01*
X122312Y132513D01*
X122323Y132714D01*
X122316Y132980D01*
X122309Y133000D01*
X122302Y133089D01*
X122289Y133123D01*
X122282Y133191D01*
X122275Y133218D01*
X122265Y133256D01*
X122255Y133286D01*
X122248Y133314D01*
X122241Y133354D01*
X122221Y133402D01*
X122214Y133429D01*
X122180Y133518D01*
X122173Y133545D01*
X122159Y133559D01*
X122135Y133624D01*
X122125Y133634D01*
X122105Y133688D01*
X122071Y133749D01*
X122050Y133784D01*
X122043Y133797D01*
X122016Y133838D01*
X121996Y133872D01*
X121968Y133920D01*
X121955Y133933D01*
X121948Y133947D01*
X121928Y133967D01*
X121921Y133981D01*
X121887Y134029D01*
X121880Y134042D01*
X121853Y134070D01*
X121846Y134083D01*
X121792Y134138D01*
X121785Y134151D01*
X121645Y134291D01*
X121635Y134294D01*
X121628Y134308D01*
X121618Y134318D01*
X121604Y134325D01*
X121556Y134373D01*
X121543Y134379D01*
X121505Y134410D01*
X121468Y134434D01*
X121454Y134448D01*
X121441Y134454D01*
X121420Y134475D01*
X121325Y134529D01*
X121311Y134543D01*
X121277Y134563D01*
X121216Y134597D01*
X121114Y134645D01*
X121039Y134679D01*
X120978Y134706D01*
X120933Y134716D01*
X120903Y134734D01*
X120876Y134740D01*
X120831Y134751D01*
X120794Y134768D01*
X120746Y134774D01*
X120702Y134785D01*
X120644Y134802D01*
X120576Y134809D01*
X120549Y134815D01*
X120484Y134826D01*
X120392Y134836D01*
X120079Y134843D01*
D02*
G37*
%LPD*%
G36*
X120358Y133263D02*
X120406Y133242D01*
X120450Y133232D01*
X120460Y133222D01*
X120474Y133215D01*
X120521Y133188D01*
X120569Y133154D01*
X120583Y133140D01*
X120596Y133133D01*
X120647Y133082D01*
X120654Y133069D01*
X120675Y133048D01*
X120702Y133000D01*
X120715Y132966D01*
X120722Y132953D01*
X120743Y132905D01*
X120760Y132827D01*
X120767Y132793D01*
X120770Y132714D01*
X120763Y132694D01*
X120739Y132575D01*
X120715Y132530D01*
X120702Y132497D01*
X120688Y132483D01*
X120661Y132435D01*
X120647Y132422D01*
X120641Y132408D01*
X120589Y132357D01*
X120576Y132350D01*
X120549Y132323D01*
X120515Y132302D01*
X120453Y132268D01*
X120433Y132262D01*
X120406Y132255D01*
X120361Y132238D01*
X120327Y132231D01*
X119105Y132228D01*
X119098D01*
X113868Y132234D01*
X113834Y132248D01*
X113807Y132255D01*
X113762Y132272D01*
X113745Y132289D01*
X113708Y132299D01*
X113684Y132323D01*
X113650Y132343D01*
X113630Y132364D01*
X113619Y132367D01*
X113613Y132381D01*
X113602Y132391D01*
X113592Y132394D01*
X113585Y132408D01*
X113558Y132435D01*
X113538Y132469D01*
X113524Y132483D01*
X113517Y132510D01*
X113490Y132551D01*
X113483Y132599D01*
X113463Y132646D01*
X113456Y132735D01*
X113463Y132857D01*
X113483Y132905D01*
X113497Y132959D01*
X113510Y132973D01*
X113524Y133007D01*
X113531Y133021D01*
X113551Y133041D01*
X113572Y133075D01*
X113585Y133089D01*
X113592Y133103D01*
X113602Y133113D01*
X113616Y133120D01*
X113630Y133140D01*
X113643Y133147D01*
X113671Y133174D01*
X113705Y133194D01*
X113807Y133242D01*
X113844Y133252D01*
X113875Y133263D01*
X113923Y133269D01*
X120358Y133263D01*
D02*
G37*
D12*
X135863Y32261D02*
G03*
X134660Y33465I-1203J0D01*
G01*
X97443D02*
G03*
X96493Y32515I0J-950D01*
G01*
X96457Y17717D02*
Y32515D01*
X97443Y33465D02*
X134660D01*
X135827Y17323D02*
Y32261D01*
X90551Y67913D02*
Y85630D01*
X2953Y103347D02*
X26575D01*
X194227Y33345D02*
X192391D01*
Y30590D01*
X194227D01*
X192391Y31967D02*
X193309D01*
X196982Y32885D02*
X196523Y33345D01*
X195605D01*
X195145Y32885D01*
Y32426D01*
X195605Y31967D01*
X196523D01*
X196982Y31508D01*
Y31049D01*
X196523Y30590D01*
X195605D01*
X195145Y31049D01*
X197901Y30590D02*
Y33345D01*
X199278D01*
X199737Y32885D01*
Y31967D01*
X199278Y31508D01*
X197901D01*
X200656Y32885D02*
X201115Y33345D01*
X202033D01*
X202492Y32885D01*
Y32426D01*
X202033Y31967D01*
X201574D01*
X202033D01*
X202492Y31508D01*
Y31049D01*
X202033Y30590D01*
X201115D01*
X200656Y31049D01*
X205247Y30590D02*
X203411D01*
X205247Y32426D01*
Y32885D01*
X204788Y33345D01*
X203870D01*
X203411Y32885D01*
X193768Y28149D02*
Y25394D01*
X195145D01*
X195605Y25853D01*
Y26312D01*
X195145Y26771D01*
X193768D01*
X195145D01*
X195605Y27230D01*
Y27690D01*
X195145Y28149D01*
X193768D01*
X197901D02*
X196982D01*
X196523Y27690D01*
Y25853D01*
X196982Y25394D01*
X197901D01*
X198360Y25853D01*
Y27690D01*
X197901Y28149D01*
X200656D02*
X199737D01*
X199278Y27690D01*
Y25853D01*
X199737Y25394D01*
X200656D01*
X201115Y25853D01*
Y27690D01*
X200656Y28149D01*
X202033D02*
X203870D01*
X202951D01*
Y25394D01*
X194227Y127833D02*
X192391D01*
Y125078D01*
X194227D01*
X192391Y126455D02*
X193309D01*
X196982Y127374D02*
X196523Y127833D01*
X195605D01*
X195145Y127374D01*
Y126914D01*
X195605Y126455D01*
X196523D01*
X196982Y125996D01*
Y125537D01*
X196523Y125078D01*
X195605D01*
X195145Y125537D01*
X197901Y125078D02*
Y127833D01*
X199278D01*
X199737Y127374D01*
Y126455D01*
X199278Y125996D01*
X197901D01*
X200656Y127374D02*
X201115Y127833D01*
X202033D01*
X202492Y127374D01*
Y126914D01*
X202033Y126455D01*
X201574D01*
X202033D01*
X202492Y125996D01*
Y125537D01*
X202033Y125078D01*
X201115D01*
X200656Y125537D01*
X205247Y125078D02*
X203411D01*
X205247Y126914D01*
Y127374D01*
X204788Y127833D01*
X203870D01*
X203411Y127374D01*
X192391Y119882D02*
Y122637D01*
X193768D01*
X194227Y122178D01*
Y121259D01*
X193768Y120800D01*
X192391D01*
X193309D02*
X194227Y119882D01*
X196982Y122637D02*
X195145D01*
Y119882D01*
X196982D01*
X195145Y121259D02*
X196064D01*
X199737Y122178D02*
X199278Y122637D01*
X198360D01*
X197901Y122178D01*
Y121719D01*
X198360Y121259D01*
X199278D01*
X199737Y120800D01*
Y120341D01*
X199278Y119882D01*
X198360D01*
X197901Y120341D01*
X202492Y122637D02*
X200656D01*
Y119882D01*
X202492D01*
X200656Y121259D02*
X201574D01*
X203411Y122637D02*
X205247D01*
X204329D01*
Y119882D01*
X209466Y52501D02*
Y49877D01*
X213401D01*
Y52501D01*
X211433Y49877D02*
Y51189D01*
X210121Y56437D02*
X209466Y55781D01*
Y54469D01*
X210121Y53813D01*
X210777D01*
X211433Y54469D01*
Y55781D01*
X212089Y56437D01*
X212745D01*
X213401Y55781D01*
Y54469D01*
X212745Y53813D01*
X213401Y57749D02*
X209466D01*
Y59717D01*
X210121Y60373D01*
X211433D01*
X212089Y59717D01*
Y57749D01*
X210121Y61685D02*
X209466Y62341D01*
Y63652D01*
X210121Y64309D01*
X210777D01*
X211433Y63652D01*
Y62997D01*
Y63652D01*
X212089Y64309D01*
X212745D01*
X213401Y63652D01*
Y62341D01*
X212745Y61685D01*
X213401Y68244D02*
Y65620D01*
X210777Y68244D01*
X210121D01*
X209466Y67588D01*
Y66276D01*
X210121Y65620D01*
X211433Y69556D02*
Y72180D01*
X210121Y76116D02*
X209466Y75460D01*
Y74148D01*
X210121Y73492D01*
X212745D01*
X213401Y74148D01*
Y75460D01*
X212745Y76116D01*
X209466Y80051D02*
Y77428D01*
X211433D01*
X210777Y78740D01*
Y79396D01*
X211433Y80051D01*
X212745D01*
X213401Y79396D01*
Y78084D01*
X212745Y77428D01*
X209466Y85299D02*
X213401D01*
Y87267D01*
X212745Y87923D01*
X210121D01*
X209466Y87267D01*
Y85299D01*
X213401Y91203D02*
Y89891D01*
X212745Y89235D01*
X211433D01*
X210777Y89891D01*
Y91203D01*
X211433Y91859D01*
X212089D01*
Y89235D01*
X209466Y93171D02*
X213401D01*
Y95139D01*
X212745Y95794D01*
X212089D01*
X211433D01*
X210777Y95139D01*
Y93171D01*
Y97106D02*
X212745D01*
X213401Y97762D01*
Y99730D01*
X210777D01*
X214713Y102354D02*
Y103010D01*
X214057Y103666D01*
X210777D01*
Y101698D01*
X211433Y101042D01*
X212745D01*
X213401Y101698D01*
Y103666D01*
X217390Y41350D02*
X221326D01*
Y43318D01*
X220670Y43974D01*
X220014D01*
X219358Y43318D01*
Y41350D01*
Y43318D01*
X218702Y43974D01*
X218046D01*
X217390Y43318D01*
Y41350D01*
X221326Y45286D02*
Y46598D01*
Y45942D01*
X217390D01*
Y45286D01*
X218702Y49222D02*
Y50533D01*
X219358Y51189D01*
X221326D01*
Y49222D01*
X220670Y48566D01*
X220014Y49222D01*
Y51189D01*
X218702Y55125D02*
Y53157D01*
X219358Y52501D01*
X220670D01*
X221326Y53157D01*
Y55125D01*
Y56437D02*
X217390D01*
X220014D02*
X218702Y58405D01*
X220014Y56437D02*
X221326Y58405D01*
Y60373D02*
X217390D01*
X218702Y61685D01*
X217390Y62997D01*
X221326D01*
X218702Y64964D02*
Y66276D01*
X219358Y66932D01*
X221326D01*
Y64964D01*
X220670Y64309D01*
X220014Y64964D01*
Y66932D01*
X222638Y69556D02*
Y70212D01*
X221982Y70868D01*
X218702D01*
Y68900D01*
X219358Y68244D01*
X220670D01*
X221326Y68900D01*
Y70868D01*
Y72180D02*
Y73492D01*
Y72836D01*
X218702D01*
Y72180D01*
Y78084D02*
Y76116D01*
X219358Y75460D01*
X220670D01*
X221326Y76116D01*
Y78084D01*
Y83331D02*
X217390D01*
Y85299D01*
X218046Y85955D01*
X219358D01*
X220014Y85299D01*
Y83331D01*
X218702Y87267D02*
X221326D01*
X220014D01*
X219358Y87923D01*
X218702Y88579D01*
Y89235D01*
X221326Y91859D02*
Y93171D01*
X220670Y93827D01*
X219358D01*
X218702Y93171D01*
Y91859D01*
X219358Y91203D01*
X220670D01*
X221326Y91859D01*
X217390Y95139D02*
X221326D01*
Y97106D01*
X220670Y97762D01*
X220014D01*
X219358D01*
X218702Y97106D01*
Y95139D01*
X221326Y101042D02*
Y99730D01*
X220670Y99074D01*
X219358D01*
X218702Y99730D01*
Y101042D01*
X219358Y101698D01*
X220014D01*
Y99074D01*
X217390Y106946D02*
X220014D01*
X221326Y108258D01*
X220014Y109570D01*
X217390D01*
X221326Y110881D02*
Y112193D01*
Y111537D01*
X217390D01*
X218046Y110881D01*
X108763Y39500D02*
X108107Y40156D01*
X106795D01*
X106139Y39500D01*
Y38844D01*
X106795Y38188D01*
X108107D01*
X108763Y37532D01*
Y36876D01*
X108107Y36220D01*
X106795D01*
X106139Y36876D01*
X112698Y40156D02*
X110075D01*
Y36220D01*
X112698D01*
X110075Y38188D02*
X111387D01*
X114010Y36220D02*
Y40156D01*
X115978D01*
X116634Y39500D01*
Y38188D01*
X115978Y37532D01*
X114010D01*
X115322D02*
X116634Y36220D01*
X117946Y40156D02*
X119258D01*
X118602D01*
Y36220D01*
X117946D01*
X119258D01*
X121226D02*
Y38844D01*
X122538Y40156D01*
X123850Y38844D01*
Y36220D01*
Y38188D01*
X121226D01*
X125162Y40156D02*
Y36220D01*
X127785D01*
X112730Y21457D02*
X109975D01*
Y22834D01*
X110434Y23293D01*
X111352D01*
X111811Y22834D01*
Y21457D01*
Y22375D02*
X112730Y23293D01*
X110893Y24212D02*
X112730Y26048D01*
X111811Y25130D01*
X110893Y26048D01*
X112730Y24212D01*
X120145Y21457D02*
Y23293D01*
Y22375D01*
X122900D01*
X121064Y24212D02*
X122900Y26048D01*
X121982Y25130D01*
X121064Y26048D01*
X122900Y24212D01*
X130775Y23293D02*
X130316Y22834D01*
Y21916D01*
X130775Y21457D01*
X132612D01*
X133071Y21916D01*
Y22834D01*
X132612Y23293D01*
X131693D01*
Y22375D01*
X133071Y24212D02*
X130316D01*
X133071Y26048D01*
X130316D01*
Y26967D02*
X133071D01*
Y28344D01*
X132612Y28803D01*
X130775D01*
X130316Y28344D01*
Y26967D01*
X100263Y21457D02*
X99804Y21916D01*
Y22834D01*
X100263Y23293D01*
X100722D01*
X101182Y22834D01*
Y22375D01*
Y22834D01*
X101641Y23293D01*
X102100D01*
X102559Y22834D01*
Y21916D01*
X102100Y21457D01*
X102559Y24212D02*
X102100D01*
Y24671D01*
X102559D01*
Y24212D01*
X100263Y26507D02*
X99804Y26967D01*
Y27885D01*
X100263Y28344D01*
X100722D01*
X101182Y27885D01*
Y27426D01*
Y27885D01*
X101641Y28344D01*
X102100D01*
X102559Y27885D01*
Y26967D01*
X102100Y26507D01*
X99804Y29263D02*
X101641D01*
X102559Y30181D01*
X101641Y31099D01*
X99804D01*
X92718Y71325D02*
Y70013D01*
Y70669D01*
X95998D01*
X96653Y70013D01*
Y69357D01*
X95998Y68701D01*
X92718Y72636D02*
Y75260D01*
Y73948D01*
X96653D01*
Y76572D02*
X94030D01*
X92718Y77884D01*
X94030Y79196D01*
X96653D01*
X94686D01*
Y76572D01*
X93374Y83132D02*
X92718Y82476D01*
Y81164D01*
X93374Y80508D01*
X95998D01*
X96653Y81164D01*
Y82476D01*
X95998Y83132D01*
X94686D01*
Y81820D01*
X11285Y109382D02*
X10629Y110038D01*
X9317D01*
X8661Y109382D01*
Y108726D01*
X9317Y108070D01*
X10629D01*
X11285Y107414D01*
Y106758D01*
X10629Y106102D01*
X9317D01*
X8661Y106758D01*
X12597Y110038D02*
Y106102D01*
X13909Y107414D01*
X15221Y106102D01*
Y110038D01*
X16533D02*
Y106102D01*
X18501D01*
X19157Y106758D01*
Y109382D01*
X18501Y110038D01*
X16533D01*
X165157Y28346D02*
Y31102D01*
X166535D01*
X166994Y30642D01*
Y29724D01*
X166535Y29265D01*
X165157D01*
X166076D02*
X166994Y28346D01*
X167912Y30183D02*
X169749Y28346D01*
X168831Y29265D01*
X169749Y30183D01*
X167912Y28346D01*
X151378Y31102D02*
X153215D01*
X152296D01*
Y28346D01*
X154133Y30183D02*
X155970Y28346D01*
X155051Y29265D01*
X155970Y30183D01*
X154133Y28346D01*
X82480Y39370D02*
Y40288D01*
Y39829D01*
X79725D01*
X80185Y39370D01*
X63976Y40026D02*
Y38189D01*
X62140Y40026D01*
X61681D01*
X61221Y39566D01*
Y38648D01*
X61681Y38189D01*
X109055Y125786D02*
Y122506D01*
X109711Y121850D01*
X111023D01*
X111679Y122506D01*
Y125786D01*
X115615Y125130D02*
X114959Y125786D01*
X113647D01*
X112991Y125130D01*
Y124474D01*
X113647Y123818D01*
X114959D01*
X115615Y123162D01*
Y122506D01*
X114959Y121850D01*
X113647D01*
X112991Y122506D01*
X116927Y125786D02*
Y121850D01*
X118895D01*
X119550Y122506D01*
Y123162D01*
X118895Y123818D01*
X116927D01*
X118895D01*
X119550Y124474D01*
Y125130D01*
X118895Y125786D01*
X116927D01*
X120862Y123818D02*
X123486D01*
X127422Y125130D02*
X126766Y125786D01*
X125454D01*
X124798Y125130D01*
Y122506D01*
X125454Y121850D01*
X126766D01*
X127422Y122506D01*
X35892Y66666D02*
X35433Y67125D01*
X34514D01*
X34055Y66666D01*
Y66207D01*
X34514Y65748D01*
X35433D01*
X35892Y65288D01*
Y64829D01*
X35433Y64370D01*
X34514D01*
X34055Y64829D01*
X36810Y67125D02*
Y64370D01*
X37729Y65288D01*
X38647Y64370D01*
Y67125D01*
X39565D02*
Y64370D01*
X40943D01*
X41402Y64829D01*
Y66666D01*
X40943Y67125D01*
X39565D01*
X42320D02*
X43238D01*
X42779D01*
Y64370D01*
X42320D01*
X43238D01*
X45994Y67125D02*
X45075D01*
X44616Y66666D01*
Y64829D01*
X45075Y64370D01*
X45994D01*
X46453Y64829D01*
Y66666D01*
X45994Y67125D01*
X35892Y76705D02*
X35433Y77165D01*
X34514D01*
X34055Y76705D01*
Y76246D01*
X34514Y75787D01*
X35433D01*
X35892Y75328D01*
Y74869D01*
X35433Y74410D01*
X34514D01*
X34055Y74869D01*
X36810Y77165D02*
Y74410D01*
X37729Y75328D01*
X38647Y74410D01*
Y77165D01*
X41402Y76705D02*
X40943Y77165D01*
X40024D01*
X39565Y76705D01*
Y74869D01*
X40024Y74410D01*
X40943D01*
X41402Y74869D01*
X42320Y77165D02*
Y74410D01*
X44157D01*
X45075Y77165D02*
Y74410D01*
Y75328D01*
X46912Y77165D01*
X45534Y75787D01*
X46912Y74410D01*
X35892Y86745D02*
X35433Y87204D01*
X34514D01*
X34055Y86745D01*
Y86286D01*
X34514Y85826D01*
X35433D01*
X35892Y85367D01*
Y84908D01*
X35433Y84449D01*
X34514D01*
X34055Y84908D01*
X36810Y87204D02*
Y84449D01*
X37729Y85367D01*
X38647Y84449D01*
Y87204D01*
X40943D02*
X40024D01*
X39565Y86745D01*
Y84908D01*
X40024Y84449D01*
X40943D01*
X41402Y84908D01*
Y86745D01*
X40943Y87204D01*
X35892Y96784D02*
X35433Y97243D01*
X34514D01*
X34055Y96784D01*
Y94947D01*
X34514Y94488D01*
X35433D01*
X35892Y94947D01*
Y95866D01*
X34973D01*
X36810Y94488D02*
Y97243D01*
X38647Y94488D01*
Y97243D01*
X39565D02*
Y94488D01*
X40943D01*
X41402Y94947D01*
Y96784D01*
X40943Y97243D01*
X39565D01*
X34055Y56627D02*
X34514Y57086D01*
X35433D01*
X35892Y56627D01*
Y56167D01*
X35433Y55708D01*
X34973D01*
X35433D01*
X35892Y55249D01*
Y54790D01*
X35433Y54331D01*
X34514D01*
X34055Y54790D01*
X36810Y54331D02*
Y54790D01*
X37269D01*
Y54331D01*
X36810D01*
X39106Y56627D02*
X39565Y57086D01*
X40483D01*
X40943Y56627D01*
Y56167D01*
X40483Y55708D01*
X40024D01*
X40483D01*
X40943Y55249D01*
Y54790D01*
X40483Y54331D01*
X39565D01*
X39106Y54790D01*
X41861Y57086D02*
Y55249D01*
X42779Y54331D01*
X43698Y55249D01*
Y57086D01*
X178740Y122835D02*
Y125590D01*
X179658Y124671D01*
X180577Y125590D01*
Y122835D01*
X181495Y125590D02*
Y122835D01*
X182873D01*
X183332Y123294D01*
Y125130D01*
X182873Y125590D01*
X181495D01*
X164173D02*
X165092D01*
X164632D01*
Y122835D01*
X164173D01*
X165092D01*
X166469Y125590D02*
Y122835D01*
X167847D01*
X168306Y123294D01*
Y125130D01*
X167847Y125590D01*
X166469D01*
X169224D02*
Y122835D01*
X171061D01*
X72835D02*
Y125590D01*
X74212D01*
X74671Y125130D01*
Y124212D01*
X74212Y123753D01*
X72835D01*
X75590Y122835D02*
X76508D01*
X76049D01*
Y125590D01*
X75590Y125130D01*
X150000Y122835D02*
Y125590D01*
X151377D01*
X151837Y125130D01*
Y124212D01*
X151377Y123753D01*
X150000D01*
X152755Y125590D02*
Y122835D01*
X153673Y123753D01*
X154592Y122835D01*
Y125590D01*
X155510Y122835D02*
Y125590D01*
X156888D01*
X157347Y125130D01*
Y124212D01*
X156888Y123753D01*
X155510D01*
X156428D02*
X157347Y122835D01*
X58858D02*
Y125590D01*
X60236D01*
X60695Y125130D01*
Y124212D01*
X60236Y123753D01*
X58858D01*
X61613Y125130D02*
X62072Y125590D01*
X62991D01*
X63450Y125130D01*
Y123294D01*
X62991Y122835D01*
X62072D01*
X61613Y123294D01*
Y125130D01*
X44094Y122835D02*
Y124671D01*
X45013Y125590D01*
X45931Y124671D01*
Y122835D01*
Y124212D01*
X44094D01*
X48686Y124671D02*
X47309D01*
X46850Y124212D01*
Y123294D01*
X47309Y122835D01*
X48686D01*
X50064Y125130D02*
Y124671D01*
X49604D01*
X50523D01*
X50064D01*
Y123294D01*
X50523Y122835D01*
D13*
X171260Y15748D02*
G03*
X173228Y17717I0J1969D01*
G01*
X161417D02*
G03*
X163386Y15748I1969J0D01*
G01*
X173228Y31496D02*
G03*
X171260Y33465I-1969J0D01*
G01*
X163386D02*
G03*
X161417Y31496I0J-1969D01*
G01*
X149606Y33465D02*
G03*
X147638Y31496I0J-1969D01*
G01*
X159449D02*
G03*
X157480Y33465I-1969J0D01*
G01*
X147638Y17717D02*
G03*
X149606Y15748I1969J0D01*
G01*
X157480D02*
G03*
X159449Y17717I0J1969D01*
G01*
X185039Y120079D02*
G03*
X187008Y122047I0J1969D01*
G01*
X175197D02*
G03*
X177165Y120079I1969J0D01*
G01*
X187008Y135827D02*
G03*
X185039Y137795I-1969J0D01*
G01*
X177165D02*
G03*
X175197Y135827I0J-1969D01*
G01*
X171260Y120079D02*
G03*
X173228Y122047I0J1969D01*
G01*
X161417D02*
G03*
X163386Y120079I1969J0D01*
G01*
X173228Y135827D02*
G03*
X171260Y137795I-1969J0D01*
G01*
X163386D02*
G03*
X161417Y135827I0J-1969D01*
G01*
X157480Y120079D02*
G03*
X159449Y122047I0J1969D01*
G01*
X147638D02*
G03*
X149606Y120079I1969J0D01*
G01*
X159449Y135827D02*
G03*
X157480Y137795I-1969J0D01*
G01*
X149606D02*
G03*
X147638Y135827I0J-1969D01*
G01*
X78740Y120079D02*
G03*
X80709Y122047I0J1969D01*
G01*
X68898D02*
G03*
X70866Y120079I1969J0D01*
G01*
X80709Y135827D02*
G03*
X78740Y137795I-1969J0D01*
G01*
X70866D02*
G03*
X68898Y135827I0J-1969D01*
G01*
X64961Y120079D02*
G03*
X66929Y122047I0J1969D01*
G01*
X55118D02*
G03*
X57087Y120079I1969J0D01*
G01*
X66929Y135827D02*
G03*
X64961Y137795I-1969J0D01*
G01*
X57087D02*
G03*
X55118Y135827I0J-1969D01*
G01*
X43307Y137795D02*
G03*
X41339Y135827I0J-1969D01*
G01*
X53150D02*
G03*
X51181Y137795I-1969J0D01*
G01*
X41339Y122047D02*
G03*
X43307Y120079I1969J0D01*
G01*
X51181D02*
G03*
X53150Y122047I0J1969D01*
G01*
X173228Y17717D02*
Y31496D01*
X161417Y17717D02*
Y31496D01*
X163386Y33465D02*
X171260D01*
X163386Y15748D02*
X171260D01*
X149606D02*
X157480D01*
X149606Y33465D02*
X157480D01*
X147638Y17717D02*
Y31496D01*
X159449Y17717D02*
Y31496D01*
X187008Y122047D02*
Y135827D01*
X175197Y122047D02*
Y135827D01*
X177165Y137795D02*
X185039D01*
X177165Y120079D02*
X185039D01*
X173228Y122047D02*
Y135827D01*
X161417Y122047D02*
Y135827D01*
X163386Y137795D02*
X171260D01*
X163386Y120079D02*
X171260D01*
X159449Y122047D02*
Y135827D01*
X147638Y122047D02*
Y135827D01*
X149606Y137795D02*
X157480D01*
X149606Y120079D02*
X157480D01*
X80709Y122047D02*
Y135827D01*
X68898Y122047D02*
Y135827D01*
X70866Y137795D02*
X78740D01*
X70866Y120079D02*
X78740D01*
X66929Y122047D02*
Y135827D01*
X55118Y122047D02*
Y135827D01*
X57087Y137795D02*
X64961D01*
X57087Y120079D02*
X64961D01*
X43307D02*
X51181D01*
X43307Y137795D02*
X51181D01*
X41339Y122047D02*
Y135827D01*
X53150Y122047D02*
Y135827D01*
D32*
X127066Y-53050D02*
D03*
X135139Y-61123D02*
D03*
D43*
X17913Y27559D02*
G03*
X17913Y27559I-4134J0D01*
G01*
Y125984D02*
G03*
X17913Y125984I-4134J0D01*
G01*
X226575D02*
G03*
X226575Y125984I-4134J0D01*
G01*
Y27559D02*
G03*
X226575Y27559I-4134J0D01*
G01*
D44*
X124958Y-66944D02*
D03*
X123566Y-68336D02*
D03*
X122174Y-69728D02*
D03*
X120782Y-71120D02*
D03*
X119390Y-72512D02*
D03*
X117998Y-73904D02*
D03*
X129134Y-85039D02*
D03*
X133310Y-80863D02*
D03*
X134702Y-79472D02*
D03*
X136094Y-78080D02*
D03*
X131918Y-82256D02*
D03*
X130526Y-83647D02*
D03*
X92133Y-58936D02*
D03*
X93525Y-57544D02*
D03*
X94917Y-56152D02*
D03*
X96309Y-54760D02*
D03*
X97701Y-53368D02*
D03*
X99093Y-51976D02*
D03*
X110229Y-63112D02*
D03*
X108837Y-64504D02*
D03*
X107445Y-65895D02*
D03*
X106053Y-67287D02*
D03*
X104661Y-68679D02*
D03*
X103269Y-70071D02*
D03*
D45*
X117998Y-78080D02*
D03*
X119390Y-79472D02*
D03*
X120782Y-80863D02*
D03*
X122174Y-82256D02*
D03*
X123566Y-83647D02*
D03*
X124958Y-85039D02*
D03*
X136094Y-73904D02*
D03*
X134702Y-72512D02*
D03*
X133310Y-71120D02*
D03*
X131918Y-69728D02*
D03*
X130526Y-68336D02*
D03*
X129134Y-66944D02*
D03*
X108837Y-57544D02*
D03*
X107445Y-56152D02*
D03*
X103269Y-51976D02*
D03*
X104661Y-53368D02*
D03*
X106053Y-54760D02*
D03*
X110229Y-58936D02*
D03*
X99093Y-70071D02*
D03*
X97701Y-68679D02*
D03*
X96309Y-67287D02*
D03*
X94917Y-65895D02*
D03*
X93525Y-64504D02*
D03*
X92133Y-63112D02*
D03*
D46*
X127046Y-75992D02*
D03*
D47*
X101181Y-61024D02*
D03*
D48*
X109055Y-51603D02*
D03*
X111839Y-48819D02*
D03*
X115959Y-70655D02*
D03*
X113175Y-73439D02*
D03*
D49*
X205118Y-31496D02*
D03*
X80709Y-35433D02*
D03*
Y-39764D02*
D03*
X189370Y-35827D02*
D03*
X197244D02*
D03*
X142126Y-131890D02*
D03*
X175591D02*
D03*
X80709Y-26772D02*
D03*
X53150Y-31102D02*
D03*
X50000Y-26772D02*
D03*
X80709Y-31102D02*
D03*
X66929Y-26772D02*
D03*
X181496Y-35827D02*
D03*
D50*
X201969Y-31496D02*
D03*
X77559Y-35433D02*
D03*
Y-39764D02*
D03*
X186221Y-35827D02*
D03*
X194095D02*
D03*
X145276Y-131890D02*
D03*
X178740D02*
D03*
X77559Y-26772D02*
D03*
X50000Y-31102D02*
D03*
X53150Y-26772D02*
D03*
X77559Y-31102D02*
D03*
X63779Y-26772D02*
D03*
X178347Y-35827D02*
D03*
D51*
X201575D02*
D03*
X205512D02*
D03*
X146260Y-32776D02*
D03*
X142323D02*
D03*
X144095Y-115354D02*
D03*
X148031D02*
D03*
D52*
X92309Y-47033D02*
D03*
X95093Y-49817D02*
D03*
X116325Y-82073D02*
D03*
X119108Y-84856D02*
D03*
X113990Y-79738D02*
D03*
X111206Y-76955D02*
D03*
D53*
X166831Y-29429D02*
D03*
Y-35335D02*
D03*
X164173Y-131890D02*
D03*
X170472D02*
D03*
X150394D02*
D03*
X156693D02*
D03*
X177953Y-21654D02*
D03*
X184252D02*
D03*
X164173D02*
D03*
X170472D02*
D03*
X156693D02*
D03*
X150394D02*
D03*
X73622Y-21654D02*
D03*
X79921D02*
D03*
X59842D02*
D03*
X66142D02*
D03*
X46063D02*
D03*
X52362D02*
D03*
D54*
X191634Y-136417D02*
D03*
X205807D02*
D03*
Y-131299D02*
D03*
X191634D02*
D03*
X205906Y-22244D02*
D03*
X191732D02*
D03*
Y-17126D02*
D03*
X205906D02*
D03*
D55*
X152008Y-111462D02*
D03*
Y-42033D02*
D03*
X157008Y-111462D02*
D03*
Y-42033D02*
D03*
X162008Y-111462D02*
D03*
Y-42033D02*
D03*
X167008Y-111462D02*
D03*
Y-42033D02*
D03*
X172008Y-111462D02*
D03*
Y-42033D02*
D03*
X177008Y-111462D02*
D03*
Y-42033D02*
D03*
X182008Y-111462D02*
D03*
Y-42033D02*
D03*
X187008Y-111462D02*
D03*
Y-42033D02*
D03*
X192008Y-111462D02*
D03*
Y-42033D02*
D03*
X197008Y-111462D02*
D03*
Y-42033D02*
D03*
X202008Y-111462D02*
D03*
Y-42033D02*
D03*
X207008Y-111462D02*
D03*
Y-42033D02*
D03*
X212008Y-111462D02*
D03*
Y-42033D02*
D03*
X217008Y-111462D02*
D03*
Y-42033D02*
D03*
D56*
X176831Y-86787D02*
D03*
Y-80094D02*
D03*
Y-73401D02*
D03*
X183524D02*
D03*
Y-80094D02*
D03*
Y-86787D02*
D03*
X190217D02*
D03*
Y-80094D02*
D03*
Y-73401D02*
D03*
D57*
X134578Y-50720D02*
D03*
X117390Y-56367D02*
D03*
D58*
X132351Y-48493D02*
D03*
X119617Y-58594D02*
D03*
D59*
X94095Y-77165D02*
D03*
D60*
X102756D02*
D03*
X94095Y-83464D02*
D03*
X102756Y-83465D02*
D03*
D61*
X131142Y-93024D02*
D03*
X121142D02*
D03*
X111142D02*
D03*
X101142D02*
D03*
D62*
X117983Y-48946D02*
D03*
X116062Y-52816D02*
D03*
X114113Y-50867D02*
D03*
D63*
X59449Y-56772D02*
D03*
Y-66772D02*
D03*
Y-76772D02*
D03*
Y-86772D02*
D03*
Y-96772D02*
D03*
X83858Y-56772D02*
D03*
X83858Y-66772D02*
D03*
Y-76772D02*
D03*
Y-86772D02*
D03*
Y-96772D02*
D03*
D64*
X150787Y-32480D02*
D03*
Y-28740D02*
D03*
Y-36220D02*
D03*
X159449D02*
D03*
Y-28740D02*
D03*
D65*
X46740Y-56772D02*
D03*
Y-66772D02*
D03*
Y-76772D02*
D03*
Y-86772D02*
D03*
Y-96772D02*
D03*
D66*
X140256Y-38287D02*
D03*
X146161D02*
D03*
D67*
X104055Y-40532D02*
D03*
X107205D02*
D03*
X126496D02*
D03*
X129646D02*
D03*
D68*
X109961D02*
D03*
X111929D02*
D03*
X113898D02*
D03*
X115866D02*
D03*
X123740D02*
D03*
X121772D02*
D03*
X119803D02*
D03*
X117835D02*
D03*
D69*
X222441Y-27559D02*
D03*
X13780Y-125984D02*
D03*
Y-27559D02*
D03*
X222441Y-125984D02*
D03*
D70*
X105473Y-34843D02*
D03*
X128228D02*
D03*
D71*
X99843Y-20472D02*
D03*
X133858D02*
D03*
X99843Y-36929D02*
D03*
X133858D02*
D03*
M02*
