G04*
G04 #@! TF.GenerationSoftware,Altium Limited,Altium Designer,24.4.1 (13)*
G04*
G04 Layer_Physical_Order=1*
G04 Layer_Color=255*
%FSLAX25Y25*%
%MOIN*%
G70*
G04*
G04 #@! TF.SameCoordinates,E44915E3-94F4-4F17-B3A4-48B4486F6C31*
G04*
G04*
G04 #@! TF.FilePolarity,Positive*
G04*
G01*
G75*
%ADD11C,0.01181*%
%ADD12C,0.00787*%
%ADD15C,0.01000*%
G04:AMPARAMS|DCode=17|XSize=31.5mil|YSize=11.81mil|CornerRadius=0mil|HoleSize=0mil|Usage=FLASHONLY|Rotation=315.000|XOffset=0mil|YOffset=0mil|HoleType=Round|Shape=Rectangle|*
%AMROTATEDRECTD17*
4,1,4,-0.01531,0.00696,-0.00696,0.01531,0.01531,-0.00696,0.00696,-0.01531,-0.01531,0.00696,0.0*
%
%ADD17ROTATEDRECTD17*%

G04:AMPARAMS|DCode=18|XSize=31.5mil|YSize=11.81mil|CornerRadius=0mil|HoleSize=0mil|Usage=FLASHONLY|Rotation=45.000|XOffset=0mil|YOffset=0mil|HoleType=Round|Shape=Rectangle|*
%AMROTATEDRECTD18*
4,1,4,-0.00696,-0.01531,-0.01531,-0.00696,0.00696,0.01531,0.01531,0.00696,-0.00696,-0.01531,0.0*
%
%ADD18ROTATEDRECTD18*%

%ADD19P,0.15311X4X90.0*%
%ADD20P,0.15311X4X180.0*%
%ADD21P,0.02784X4X270.0*%
%ADD22R,0.02165X0.02362*%
%ADD23R,0.02165X0.02362*%
%ADD24R,0.01968X0.01968*%
%ADD25P,0.02784X4X360.0*%
%ADD26R,0.03150X0.03150*%
%ADD27R,0.05512X0.03543*%
%ADD28R,0.03543X0.05453*%
%ADD29R,0.05118X0.05118*%
G04:AMPARAMS|DCode=30|XSize=21.65mil|YSize=23.62mil|CornerRadius=0mil|HoleSize=0mil|Usage=FLASHONLY|Rotation=315.000|XOffset=0mil|YOffset=0mil|HoleType=Round|Shape=Rectangle|*
%AMROTATEDRECTD30*
4,1,4,-0.01601,-0.00070,0.00070,0.01601,0.01601,0.00070,-0.00070,-0.01601,-0.01601,-0.00070,0.0*
%
%ADD30ROTATEDRECTD30*%

G04:AMPARAMS|DCode=31|XSize=23.62mil|YSize=21.65mil|CornerRadius=0mil|HoleSize=0mil|Usage=FLASHONLY|Rotation=45.000|XOffset=0mil|YOffset=0mil|HoleType=Round|Shape=Rectangle|*
%AMROTATEDRECTD31*
4,1,4,-0.00070,-0.01601,-0.01601,-0.00070,0.00070,0.01601,0.01601,0.00070,-0.00070,-0.01601,0.0*
%
%ADD31ROTATEDRECTD31*%

G04:AMPARAMS|DCode=32|XSize=51.18mil|YSize=55.12mil|CornerRadius=0mil|HoleSize=0mil|Usage=FLASHONLY|Rotation=315.000|XOffset=0mil|YOffset=0mil|HoleType=Round|Shape=Rectangle|*
%AMROTATEDRECTD32*
4,1,4,-0.03758,-0.00139,0.00139,0.03758,0.03758,0.00139,-0.00139,-0.03758,-0.03758,-0.00139,0.0*
%
%ADD32ROTATEDRECTD32*%

%ADD33R,0.05512X0.04724*%
%ADD34R,0.05512X0.04724*%
%ADD35R,0.04016X0.10630*%
G04:AMPARAMS|DCode=36|XSize=18.11mil|YSize=7.87mil|CornerRadius=0.98mil|HoleSize=0mil|Usage=FLASHONLY|Rotation=225.000|XOffset=0mil|YOffset=0mil|HoleType=Round|Shape=RoundedRectangle|*
%AMROUNDEDRECTD36*
21,1,0.01811,0.00591,0,0,225.0*
21,1,0.01614,0.00787,0,0,225.0*
1,1,0.00197,-0.00780,-0.00362*
1,1,0.00197,0.00362,0.00780*
1,1,0.00197,0.00780,0.00362*
1,1,0.00197,-0.00362,-0.00780*
%
%ADD36ROUNDEDRECTD36*%
%ADD37R,0.09843X0.03937*%
G04:AMPARAMS|DCode=38|XSize=41.73mil|YSize=25.59mil|CornerRadius=6.4mil|HoleSize=0mil|Usage=FLASHONLY|Rotation=0.000|XOffset=0mil|YOffset=0mil|HoleType=Round|Shape=RoundedRectangle|*
%AMROUNDEDRECTD38*
21,1,0.04173,0.01280,0,0,0.0*
21,1,0.02894,0.02559,0,0,0.0*
1,1,0.01280,0.01447,-0.00640*
1,1,0.01280,-0.01447,-0.00640*
1,1,0.01280,-0.01447,0.00640*
1,1,0.01280,0.01447,0.00640*
%
%ADD38ROUNDEDRECTD38*%
%ADD39R,0.10630X0.04016*%
%ADD40R,0.03150X0.03150*%
%ADD41R,0.02362X0.05709*%
%ADD42R,0.01181X0.05709*%
%ADD72C,0.02362*%
%ADD73C,0.02756*%
%ADD74C,0.03937*%
%ADD75C,0.01008*%
%ADD76C,0.02559*%
%ADD77C,0.01378*%
%ADD78C,0.01968*%
%ADD79C,0.01575*%
%ADD80C,0.01378*%
%ADD81C,0.22835*%
%ADD82C,0.02756*%
%ADD83O,0.04134X0.08268*%
%ADD84C,0.16535*%
%ADD85C,0.02362*%
G36*
X222441Y138560D02*
X223265D01*
X224900Y138344D01*
X226492Y137918D01*
X228015Y137287D01*
X229442Y136463D01*
X230750Y135459D01*
X231916Y134293D01*
X232919Y132986D01*
X233744Y131558D01*
X234374Y130035D01*
X234801Y128443D01*
X235016Y126808D01*
X235016Y125984D01*
D01*
X235016Y113409D01*
X224471D01*
X224011Y113317D01*
X223620Y113056D01*
X223359Y112665D01*
X223267Y112205D01*
Y41339D01*
X223359Y40878D01*
X223620Y40487D01*
X224011Y40226D01*
X224471Y40134D01*
X235016D01*
X235016Y27559D01*
Y26735D01*
X234801Y25100D01*
X234374Y23508D01*
X233744Y21985D01*
X232919Y20558D01*
X231916Y19250D01*
X230750Y18084D01*
X229442Y17081D01*
X228015Y16256D01*
X226492Y15626D01*
X224900Y15199D01*
X223266Y14984D01*
X12955D01*
X11321Y15199D01*
X9729Y15626D01*
X8206Y16256D01*
X6778Y17081D01*
X5470Y18084D01*
X4305Y19250D01*
X3301Y20558D01*
X2477Y21985D01*
X1846Y23508D01*
X1419Y25100D01*
X1204Y26735D01*
Y27559D01*
X1204Y50961D01*
X27559D01*
X28020Y51053D01*
X28411Y51314D01*
X28672Y51705D01*
X28763Y52165D01*
Y101378D01*
X28672Y101839D01*
X28411Y102229D01*
X28020Y102490D01*
X27559Y102582D01*
X1204D01*
Y125984D01*
Y126809D01*
X1419Y128443D01*
X1846Y130035D01*
X2477Y131558D01*
X3301Y132986D01*
X4305Y134293D01*
X5470Y135459D01*
X6778Y136463D01*
X8206Y137287D01*
X9729Y137918D01*
X11321Y138344D01*
X12955Y138560D01*
X13780D01*
X222441Y138560D01*
D02*
G37*
G36*
X203174Y-18504D02*
X203162Y-18392D01*
X203126Y-18291D01*
X203066Y-18203D01*
X202983Y-18126D01*
X202875Y-18061D01*
X202744Y-18008D01*
X202589Y-17966D01*
X202476Y-17948D01*
X202455Y-17951D01*
X202362Y-17972D01*
X202278Y-17998D01*
X202202Y-18029D01*
X202134Y-18065D01*
X202075Y-18105D01*
X202025Y-18150D01*
Y-17914D01*
X201980Y-17913D01*
Y-16732D01*
X202025Y-16731D01*
Y-16496D01*
X202075Y-16541D01*
X202134Y-16581D01*
X202202Y-16616D01*
X202278Y-16647D01*
X202362Y-16673D01*
X202455Y-16694D01*
X202476Y-16698D01*
X202589Y-16679D01*
X202744Y-16638D01*
X202875Y-16585D01*
X202983Y-16520D01*
X203066Y-16443D01*
X203126Y-16354D01*
X203162Y-16254D01*
X203174Y-16142D01*
Y-18504D01*
D02*
G37*
G36*
X194476Y-16254D02*
X194512Y-16354D01*
X194572Y-16443D01*
X194655Y-16520D01*
X194763Y-16585D01*
X194894Y-16638D01*
X195049Y-16679D01*
X195162Y-16698D01*
X195182Y-16694D01*
X195275Y-16673D01*
X195360Y-16647D01*
X195436Y-16616D01*
X195504Y-16581D01*
X195563Y-16541D01*
X195613Y-16496D01*
Y-16731D01*
X195657Y-16732D01*
Y-17913D01*
X195613Y-17914D01*
Y-18150D01*
X195563Y-18105D01*
X195504Y-18065D01*
X195436Y-18029D01*
X195360Y-17998D01*
X195275Y-17972D01*
X195182Y-17951D01*
X195162Y-17948D01*
X195049Y-17966D01*
X194894Y-18008D01*
X194763Y-18061D01*
X194655Y-18126D01*
X194572Y-18203D01*
X194512Y-18291D01*
X194476Y-18392D01*
X194464Y-18504D01*
Y-16142D01*
X194476Y-16254D01*
D02*
G37*
G36*
X60240Y-19455D02*
X60252Y-19591D01*
X60272Y-19711D01*
X60299Y-19815D01*
X60335Y-19903D01*
X60378Y-19975D01*
X60429Y-20031D01*
X60488Y-20071D01*
X60555Y-20095D01*
X60630Y-20103D01*
X59055D01*
X59130Y-20095D01*
X59197Y-20071D01*
X59256Y-20031D01*
X59307Y-19975D01*
X59350Y-19903D01*
X59386Y-19815D01*
X59413Y-19711D01*
X59433Y-19591D01*
X59445Y-19455D01*
X59449Y-19303D01*
X60236D01*
X60240Y-19455D01*
D02*
G37*
G36*
X54482Y-20091D02*
X54326Y-20252D01*
X54081Y-20542D01*
X53992Y-20670D01*
X53925Y-20787D01*
X53881Y-20892D01*
X53858Y-20987D01*
Y-21071D01*
X53881Y-21143D01*
X53925Y-21204D01*
X52811Y-20091D01*
X52873Y-20135D01*
X52945Y-20158D01*
X53029D01*
X53123Y-20135D01*
X53229Y-20091D01*
X53346Y-20024D01*
X53474Y-19935D01*
X53613Y-19824D01*
X53925Y-19534D01*
X54482Y-20091D01*
D02*
G37*
G36*
X78521Y-19691D02*
X78812Y-19938D01*
X78940Y-20029D01*
X79057Y-20097D01*
X79163Y-20143D01*
X79257Y-20166D01*
X79340Y-20167D01*
X79412Y-20146D01*
X79472Y-20103D01*
X78370Y-21204D01*
X78414Y-21144D01*
X78435Y-21073D01*
X78434Y-20990D01*
X78410Y-20895D01*
X78364Y-20790D01*
X78297Y-20673D01*
X78206Y-20544D01*
X78094Y-20404D01*
X77802Y-20091D01*
X78359Y-19534D01*
X78521Y-19691D01*
D02*
G37*
G36*
X81492Y-20941D02*
X81516Y-21008D01*
X81555Y-21067D01*
X81610Y-21118D01*
X81681Y-21161D01*
X81767Y-21197D01*
X81870Y-21224D01*
X81988Y-21244D01*
X82122Y-21256D01*
X82271Y-21260D01*
Y-22047D01*
X82122Y-22051D01*
X81988Y-22063D01*
X81870Y-22083D01*
X81767Y-22110D01*
X81681Y-22146D01*
X81610Y-22189D01*
X81555Y-22240D01*
X81516Y-22299D01*
X81492Y-22366D01*
X81484Y-22441D01*
Y-20866D01*
X81492Y-20941D01*
D02*
G37*
G36*
X72071Y-22441D02*
X72063Y-22366D01*
X72039Y-22299D01*
X71999Y-22240D01*
X71943Y-22189D01*
X71871Y-22146D01*
X71784Y-22110D01*
X71680Y-22083D01*
X71560Y-22063D01*
X71424Y-22051D01*
X71272Y-22047D01*
Y-21260D01*
X71424Y-21256D01*
X71560Y-21244D01*
X71680Y-21224D01*
X71784Y-21197D01*
X71871Y-21161D01*
X71943Y-21118D01*
X71999Y-21067D01*
X72039Y-21008D01*
X72063Y-20941D01*
X72071Y-20866D01*
Y-22441D01*
D02*
G37*
G36*
X67712Y-20941D02*
X67736Y-21008D01*
X67775Y-21067D01*
X67830Y-21118D01*
X67901Y-21161D01*
X67988Y-21197D01*
X68090Y-21224D01*
X68208Y-21244D01*
X68342Y-21256D01*
X68492Y-21260D01*
Y-22047D01*
X68342Y-22051D01*
X68208Y-22063D01*
X68090Y-22083D01*
X67988Y-22110D01*
X67901Y-22146D01*
X67830Y-22189D01*
X67775Y-22240D01*
X67736Y-22299D01*
X67712Y-22366D01*
X67704Y-22441D01*
Y-20866D01*
X67712Y-20941D01*
D02*
G37*
G36*
X83802Y-22480D02*
X83716Y-22398D01*
X83627Y-22324D01*
X83536Y-22259D01*
X83442Y-22203D01*
X83345Y-22155D01*
X83246Y-22117D01*
X83144Y-22086D01*
X83040Y-22065D01*
X82933Y-22052D01*
X82823Y-22047D01*
Y-21260D01*
X82933Y-21256D01*
X83040Y-21242D01*
X83144Y-21221D01*
X83246Y-21191D01*
X83345Y-21152D01*
X83442Y-21104D01*
X83536Y-21048D01*
X83627Y-20983D01*
X83716Y-20909D01*
X83802Y-20827D01*
Y-22480D01*
D02*
G37*
G36*
X194474Y-21135D02*
X194505Y-21221D01*
X194556Y-21296D01*
X194627Y-21362D01*
X194719Y-21417D01*
X194831Y-21463D01*
X194964Y-21498D01*
X195117Y-21523D01*
X195253Y-21535D01*
X195308Y-21530D01*
X195417Y-21514D01*
X195519Y-21492D01*
X195615Y-21463D01*
X195706Y-21427D01*
X195790Y-21385D01*
X195868Y-21337D01*
X195941Y-21282D01*
X196007Y-21220D01*
Y-22874D01*
X195941Y-22813D01*
X195868Y-22758D01*
X195790Y-22709D01*
X195706Y-22667D01*
X195615Y-22632D01*
X195519Y-22603D01*
X195417Y-22580D01*
X195308Y-22564D01*
X195253Y-22559D01*
X195117Y-22571D01*
X194964Y-22596D01*
X194831Y-22632D01*
X194719Y-22677D01*
X194627Y-22733D01*
X194556Y-22798D01*
X194505Y-22874D01*
X194474Y-22959D01*
X194464Y-23055D01*
Y-21039D01*
X194474Y-21135D01*
D02*
G37*
G36*
X148831Y-23216D02*
X148805Y-23163D01*
X148729Y-23114D01*
X148601Y-23072D01*
X148421Y-23035D01*
X148191Y-23004D01*
X147577Y-22959D01*
X146272Y-22933D01*
Y-20374D01*
X146758Y-20371D01*
X148421Y-20272D01*
X148601Y-20235D01*
X148729Y-20193D01*
X148805Y-20145D01*
X148831Y-20091D01*
Y-23216D01*
D02*
G37*
G36*
X47581Y-22164D02*
X47559Y-22236D01*
Y-22320D01*
X47581Y-22415D01*
X47626Y-22520D01*
X47693Y-22637D01*
X47782Y-22765D01*
X47893Y-22905D01*
X48183Y-23216D01*
X47626Y-23773D01*
X47464Y-23617D01*
X47175Y-23372D01*
X47047Y-23283D01*
X46930Y-23216D01*
X46824Y-23172D01*
X46729Y-23149D01*
X46646D01*
X46573Y-23172D01*
X46512Y-23216D01*
X47626Y-22103D01*
X47581Y-22164D01*
D02*
G37*
G36*
X171980Y-22163D02*
X171959Y-22234D01*
X171960Y-22317D01*
X171984Y-22412D01*
X172029Y-22517D01*
X172097Y-22634D01*
X172187Y-22763D01*
X172300Y-22903D01*
X172592Y-23216D01*
X172035Y-23773D01*
X171873Y-23616D01*
X171582Y-23369D01*
X171453Y-23278D01*
X171336Y-23210D01*
X171231Y-23165D01*
X171136Y-23141D01*
X171053Y-23140D01*
X170982Y-23161D01*
X170922Y-23204D01*
X172023Y-22103D01*
X171980Y-22163D01*
D02*
G37*
G36*
X158200D02*
X158179Y-22234D01*
X158180Y-22317D01*
X158204Y-22412D01*
X158250Y-22517D01*
X158318Y-22634D01*
X158408Y-22763D01*
X158521Y-22903D01*
X158812Y-23216D01*
X158256Y-23773D01*
X158093Y-23616D01*
X157802Y-23369D01*
X157674Y-23278D01*
X157557Y-23210D01*
X157451Y-23165D01*
X157357Y-23141D01*
X157274Y-23140D01*
X157202Y-23161D01*
X157142Y-23204D01*
X158244Y-22103D01*
X158200Y-22163D01*
D02*
G37*
G36*
X66854Y-23212D02*
X66787Y-23236D01*
X66728Y-23276D01*
X66677Y-23332D01*
X66634Y-23404D01*
X66598Y-23492D01*
X66571Y-23596D01*
X66551Y-23716D01*
X66539Y-23852D01*
X66535Y-24004D01*
X65748D01*
X65744Y-23852D01*
X65732Y-23716D01*
X65713Y-23596D01*
X65685Y-23492D01*
X65650Y-23404D01*
X65606Y-23332D01*
X65555Y-23276D01*
X65496Y-23236D01*
X65429Y-23212D01*
X65354Y-23204D01*
X66929D01*
X66854Y-23212D01*
D02*
G37*
G36*
X165681Y-22163D02*
X165660Y-22234D01*
X165661Y-22317D01*
X165684Y-22412D01*
X165730Y-22517D01*
X165798Y-22634D01*
X165888Y-22763D01*
X166001Y-22903D01*
X166259Y-23179D01*
X166293Y-23212D01*
X166375Y-23279D01*
X166461Y-23342D01*
X166551Y-23400D01*
X166647Y-23454D01*
X166747Y-23503D01*
X166852Y-23547D01*
X167077Y-23622D01*
X167196Y-23653D01*
X165784Y-24513D01*
X165807Y-24404D01*
X165818Y-24298D01*
X165819Y-24195D01*
X165808Y-24094D01*
X165787Y-23997D01*
X165754Y-23902D01*
X165711Y-23810D01*
X165657Y-23722D01*
X165592Y-23636D01*
X165575Y-23617D01*
X165574Y-23616D01*
X165282Y-23369D01*
X165154Y-23278D01*
X165037Y-23210D01*
X164931Y-23165D01*
X164837Y-23141D01*
X164754Y-23140D01*
X164683Y-23161D01*
X164622Y-23204D01*
X165724Y-22103D01*
X165681Y-22163D01*
D02*
G37*
G36*
X178665Y-23212D02*
X178598Y-23236D01*
X178539Y-23276D01*
X178488Y-23332D01*
X178445Y-23404D01*
X178409Y-23492D01*
X178382Y-23596D01*
X178362Y-23716D01*
X178354Y-23808D01*
X178364Y-23886D01*
X178385Y-23991D01*
X178416Y-24092D01*
X178455Y-24192D01*
X178502Y-24288D01*
X178559Y-24382D01*
X178624Y-24474D01*
X178697Y-24563D01*
X178779Y-24649D01*
X177126D01*
X177208Y-24563D01*
X177282Y-24474D01*
X177347Y-24382D01*
X177403Y-24288D01*
X177451Y-24192D01*
X177490Y-24092D01*
X177520Y-23991D01*
X177542Y-23886D01*
X177551Y-23808D01*
X177543Y-23716D01*
X177524Y-23596D01*
X177496Y-23492D01*
X177461Y-23404D01*
X177417Y-23332D01*
X177366Y-23276D01*
X177307Y-23236D01*
X177240Y-23212D01*
X177165Y-23204D01*
X178740D01*
X178665Y-23212D01*
D02*
G37*
G36*
X172693Y-23311D02*
X172777Y-23377D01*
X172866Y-23436D01*
X172960Y-23486D01*
X173057Y-23529D01*
X173159Y-23563D01*
X173266Y-23590D01*
X173376Y-23609D01*
X173491Y-23619D01*
X173610Y-23622D01*
X172441Y-24791D01*
X172438Y-24672D01*
X172427Y-24557D01*
X172409Y-24447D01*
X172382Y-24340D01*
X172348Y-24239D01*
X172305Y-24141D01*
X172255Y-24047D01*
X172196Y-23958D01*
X172130Y-23874D01*
X172055Y-23793D01*
X172612Y-23236D01*
X172693Y-23311D01*
D02*
G37*
G36*
X158913D02*
X158998Y-23377D01*
X159087Y-23436D01*
X159180Y-23486D01*
X159278Y-23529D01*
X159380Y-23563D01*
X159486Y-23590D01*
X159597Y-23609D01*
X159712Y-23619D01*
X159831Y-23622D01*
X158661Y-24791D01*
X158659Y-24672D01*
X158648Y-24557D01*
X158629Y-24447D01*
X158603Y-24340D01*
X158568Y-24239D01*
X158526Y-24141D01*
X158475Y-24047D01*
X158416Y-23958D01*
X158350Y-23874D01*
X158276Y-23793D01*
X158832Y-23236D01*
X158913Y-23311D01*
D02*
G37*
G36*
X151975Y-20359D02*
X152029Y-20637D01*
X152119Y-20925D01*
X152246Y-21223D01*
X152409Y-21530D01*
X152608Y-21848D01*
X152843Y-22175D01*
X153115Y-22512D01*
X153766Y-23216D01*
X151956Y-25026D01*
X151600Y-24682D01*
X150915Y-24103D01*
X150588Y-23868D01*
X150270Y-23669D01*
X149963Y-23506D01*
X149665Y-23379D01*
X149377Y-23289D01*
X149099Y-23234D01*
X148831Y-23216D01*
X151956Y-20091D01*
X151975Y-20359D01*
D02*
G37*
G36*
X66539Y-24966D02*
X66551Y-25102D01*
X66571Y-25221D01*
X66598Y-25325D01*
X66634Y-25412D01*
X66677Y-25484D01*
X66728Y-25541D01*
X66787Y-25581D01*
X66854Y-25606D01*
X66929Y-25615D01*
X65859Y-25603D01*
X65748Y-24815D01*
X66535D01*
X66539Y-24966D01*
D02*
G37*
G36*
X49708Y-25036D02*
X49717Y-25157D01*
X49732Y-25264D01*
X49754Y-25356D01*
X49782Y-25435D01*
X49815Y-25499D01*
X49855Y-25549D01*
X49901Y-25585D01*
X49954Y-25607D01*
X50012Y-25615D01*
X48929Y-25603D01*
X48927Y-25596D01*
X48925Y-25574D01*
X48922Y-25490D01*
X48917Y-24902D01*
X49705D01*
X49708Y-25036D01*
D02*
G37*
G36*
X81775Y-26059D02*
X81799Y-26126D01*
X81839Y-26185D01*
X81895Y-26236D01*
X81967Y-26280D01*
X82055Y-26315D01*
X82159Y-26342D01*
X82279Y-26362D01*
X82415Y-26374D01*
X82567Y-26378D01*
Y-27165D01*
X82415Y-27169D01*
X82279Y-27181D01*
X82159Y-27201D01*
X82055Y-27228D01*
X81967Y-27264D01*
X81895Y-27307D01*
X81839Y-27358D01*
X81799Y-27417D01*
X81775Y-27484D01*
X81767Y-27559D01*
Y-25984D01*
X81775Y-26059D01*
D02*
G37*
G36*
X54218Y-25867D02*
X54249Y-25952D01*
X54299Y-26027D01*
X54370Y-26092D01*
X54461Y-26147D01*
X54573Y-26192D01*
X54704Y-26227D01*
X54856Y-26252D01*
X55028Y-26267D01*
X55048Y-26267D01*
X55148Y-26259D01*
X55257Y-26242D01*
X55359Y-26219D01*
X55455Y-26190D01*
X55546Y-26154D01*
X55631Y-26112D01*
X55709Y-26063D01*
X55782Y-26007D01*
X55849Y-25945D01*
Y-27598D01*
X55782Y-27536D01*
X55709Y-27481D01*
X55631Y-27432D01*
X55546Y-27389D01*
X55455Y-27353D01*
X55359Y-27324D01*
X55257Y-27301D01*
X55148Y-27285D01*
X55048Y-27276D01*
X55028Y-27277D01*
X54856Y-27292D01*
X54704Y-27317D01*
X54573Y-27352D01*
X54461Y-27397D01*
X54370Y-27452D01*
X54299Y-27517D01*
X54249Y-27592D01*
X54218Y-27677D01*
X54208Y-27772D01*
Y-25772D01*
X54218Y-25867D01*
D02*
G37*
G36*
X78159Y-27929D02*
X78068Y-27863D01*
X77960Y-27831D01*
X77836Y-27832D01*
X77694Y-27867D01*
X77535Y-27935D01*
X77360Y-28036D01*
X77167Y-28171D01*
X76958Y-28339D01*
X76488Y-28776D01*
X75653Y-27941D01*
X75888Y-27698D01*
X76258Y-27262D01*
X76393Y-27069D01*
X76494Y-26894D01*
X76562Y-26735D01*
X76597Y-26594D01*
X76598Y-26469D01*
X76566Y-26361D01*
X76500Y-26270D01*
X78159Y-27929D01*
D02*
G37*
G36*
X64492Y-27937D02*
X64425Y-27961D01*
X64366Y-28001D01*
X64315Y-28057D01*
X64272Y-28129D01*
X64236Y-28216D01*
X64209Y-28321D01*
X64189Y-28440D01*
X64177Y-28576D01*
X64173Y-28728D01*
X63386D01*
X63382Y-28576D01*
X63370Y-28440D01*
X63350Y-28321D01*
X63323Y-28216D01*
X63287Y-28129D01*
X63244Y-28057D01*
X63193Y-28001D01*
X63134Y-27961D01*
X63067Y-27937D01*
X62992Y-27929D01*
X64567D01*
X64492Y-27937D01*
D02*
G37*
G36*
X136815Y-29127D02*
X136938Y-29604D01*
X136680Y-30226D01*
X136592Y-30894D01*
Y-34657D01*
X136680Y-35325D01*
X136938Y-35947D01*
X137008Y-36039D01*
Y-44488D01*
X128904D01*
Y-40532D01*
X128858Y-40299D01*
Y-36925D01*
X129455Y-36678D01*
X130064Y-36069D01*
X130394Y-35273D01*
Y-34412D01*
X130064Y-33616D01*
X129455Y-33007D01*
X128659Y-32677D01*
X127798D01*
X127002Y-33007D01*
X126393Y-33616D01*
X126255Y-33948D01*
X125765Y-34046D01*
X123075Y-31356D01*
X122424Y-30921D01*
X121656Y-30768D01*
X110866D01*
X110098Y-30921D01*
X109447Y-31356D01*
X107833Y-32971D01*
X107647Y-33248D01*
X107004Y-33312D01*
X106699Y-33007D01*
X105903Y-32677D01*
X105042D01*
X104246Y-33007D01*
X103637Y-33616D01*
X103307Y-34412D01*
Y-35273D01*
X103637Y-36069D01*
X104246Y-36678D01*
X104842Y-36925D01*
Y-44488D01*
X103012D01*
X96850Y-38326D01*
Y-31293D01*
X96885Y-31259D01*
X97244Y-30391D01*
Y-29541D01*
X97599Y-29102D01*
X98002Y-29182D01*
X98002Y-29182D01*
X135571D01*
X136508Y-28996D01*
X136596Y-28989D01*
X136815Y-29127D01*
D02*
G37*
G36*
X156717Y-26150D02*
X157648Y-26936D01*
X158061Y-27224D01*
X158440Y-27441D01*
X158785Y-27588D01*
X159095Y-27665D01*
X159371Y-27671D01*
X159613Y-27607D01*
X159819Y-27472D01*
X157411Y-29625D01*
X157421Y-29798D01*
X157368Y-29890D01*
X157251Y-29901D01*
X157071Y-29832D01*
X156826Y-29682D01*
X156518Y-29450D01*
X156146Y-29138D01*
X154648Y-27717D01*
X156201Y-25651D01*
X156717Y-26150D01*
D02*
G37*
G36*
X76070Y-29194D02*
X75981Y-29286D01*
X75831Y-29460D01*
X75770Y-29543D01*
X75717Y-29623D01*
X75674Y-29700D01*
X75639Y-29774D01*
X75613Y-29845D01*
X75597Y-29914D01*
X75589Y-29979D01*
X74491Y-28743D01*
X74559Y-28743D01*
X74631Y-28733D01*
X74704Y-28713D01*
X74781Y-28684D01*
X74859Y-28644D01*
X74941Y-28596D01*
X75025Y-28537D01*
X75111Y-28468D01*
X75292Y-28302D01*
X76070Y-29194D01*
D02*
G37*
G36*
X94038Y-30748D02*
X93952Y-30666D01*
X93863Y-30592D01*
X93772Y-30527D01*
X93678Y-30471D01*
X93581Y-30423D01*
X93482Y-30384D01*
X93381Y-30354D01*
X93276Y-30332D01*
X93169Y-30319D01*
X93060Y-30315D01*
Y-29528D01*
X93169Y-29523D01*
X93276Y-29510D01*
X93381Y-29489D01*
X93482Y-29458D01*
X93581Y-29419D01*
X93678Y-29372D01*
X93772Y-29315D01*
X93863Y-29250D01*
X93952Y-29177D01*
X94038Y-29094D01*
Y-30748D01*
D02*
G37*
G36*
X170953Y-30020D02*
X170466Y-30029D01*
X169648Y-30107D01*
X169315Y-30175D01*
X169033Y-30263D01*
X168803Y-30370D01*
X168624Y-30496D01*
X168496Y-30642D01*
X168419Y-30807D01*
X168394Y-30992D01*
Y-27866D01*
X168419Y-27789D01*
X168496Y-27720D01*
X168624Y-27659D01*
X168803Y-27607D01*
X169033Y-27562D01*
X169315Y-27525D01*
X170031Y-27477D01*
X170953Y-27461D01*
Y-30020D01*
D02*
G37*
G36*
X165268Y-27866D02*
Y-30992D01*
X165242Y-30807D01*
X165166Y-30642D01*
X165038Y-30496D01*
X164858Y-30370D01*
X164628Y-30263D01*
X164347Y-30175D01*
X164014Y-30107D01*
X163630Y-30059D01*
X163195Y-30029D01*
X162709Y-30020D01*
Y-27461D01*
X165268Y-27866D01*
D02*
G37*
G36*
X200898Y-32665D02*
X200888Y-32576D01*
X200857Y-32497D01*
X200807Y-32426D01*
X200737Y-32365D01*
X200646Y-32314D01*
X200535Y-32272D01*
X200404Y-32239D01*
X200336Y-32228D01*
X200327Y-32230D01*
X200228Y-32256D01*
X200136Y-32289D01*
X200052Y-32329D01*
X199975Y-32377D01*
X199905Y-32432D01*
X199843Y-32495D01*
X199788Y-32564D01*
X199513Y-30934D01*
X199586Y-30982D01*
X199664Y-31026D01*
X199747Y-31064D01*
X199836Y-31097D01*
X199930Y-31125D01*
X200029Y-31148D01*
X200133Y-31166D01*
X200200Y-31174D01*
X200256Y-31169D01*
X200409Y-31144D01*
X200541Y-31108D01*
X200653Y-31063D01*
X200745Y-31008D01*
X200817Y-30942D01*
X200868Y-30867D01*
X200899Y-30781D01*
X200910Y-30685D01*
X200898Y-32665D01*
D02*
G37*
G36*
X48929Y-32272D02*
X48916Y-32180D01*
X48874Y-32099D01*
X48805Y-32027D01*
X48709Y-31964D01*
X48585Y-31911D01*
X48433Y-31868D01*
X48254Y-31835D01*
X48047Y-31811D01*
X47813Y-31796D01*
X47551Y-31791D01*
Y-30413D01*
X47813Y-30409D01*
X48254Y-30370D01*
X48433Y-30337D01*
X48585Y-30293D01*
X48709Y-30240D01*
X48805Y-30178D01*
X48874Y-30106D01*
X48916Y-30024D01*
X48929Y-29933D01*
Y-32272D01*
D02*
G37*
G36*
X81776Y-31177D02*
X81801Y-31244D01*
X81841Y-31303D01*
X81897Y-31354D01*
X81969Y-31398D01*
X82057Y-31433D01*
X82161Y-31461D01*
X82280Y-31480D01*
X82416Y-31492D01*
X82567Y-31496D01*
Y-32283D01*
X81779Y-32272D01*
X81767Y-31102D01*
X81776Y-31177D01*
D02*
G37*
G36*
X202473Y-31436D02*
X202487Y-31452D01*
X202936Y-31907D01*
X202379Y-32463D01*
X201901Y-31995D01*
X202468Y-31429D01*
X202473Y-31436D01*
D02*
G37*
G36*
X54165Y-31218D02*
X54144Y-31290D01*
X54145Y-31372D01*
X54168Y-31467D01*
X54214Y-31572D01*
X54282Y-31690D01*
X54373Y-31818D01*
X54485Y-31958D01*
X54777Y-32272D01*
X54220Y-32828D01*
X54058Y-32671D01*
X53767Y-32424D01*
X53638Y-32333D01*
X53521Y-32265D01*
X53416Y-32220D01*
X53321Y-32196D01*
X53238Y-32195D01*
X53167Y-32216D01*
X53107Y-32260D01*
X54208Y-31158D01*
X54165Y-31218D01*
D02*
G37*
G36*
X156637Y-33307D02*
X156586Y-33262D01*
X156527Y-33222D01*
X156460Y-33187D01*
X156384Y-33156D01*
X156299Y-33130D01*
X156206Y-33109D01*
X156104Y-33092D01*
X155994Y-33080D01*
X155749Y-33071D01*
Y-31890D01*
X155876Y-31887D01*
X156104Y-31868D01*
X156206Y-31852D01*
X156299Y-31831D01*
X156384Y-31805D01*
X156460Y-31774D01*
X156527Y-31739D01*
X156586Y-31698D01*
X156637Y-31653D01*
Y-33307D01*
D02*
G37*
G36*
X172189Y-31933D02*
X172278Y-32006D01*
X172370Y-32071D01*
X172464Y-32128D01*
X172560Y-32175D01*
X172659Y-32214D01*
X172761Y-32245D01*
X172865Y-32266D01*
X172973Y-32279D01*
X173082Y-32283D01*
Y-33071D01*
X172973Y-33075D01*
X172865Y-33088D01*
X172761Y-33110D01*
X172659Y-33140D01*
X172560Y-33179D01*
X172464Y-33227D01*
X172370Y-33283D01*
X172278Y-33348D01*
X172189Y-33422D01*
X172103Y-33504D01*
Y-31850D01*
X172189Y-31933D01*
D02*
G37*
G36*
X189312Y-32289D02*
X189300Y-32395D01*
X189299Y-32498D01*
X189310Y-32599D01*
X189331Y-32696D01*
X189364Y-32791D01*
X189407Y-32882D01*
X189461Y-32971D01*
X189526Y-33057D01*
X189603Y-33141D01*
X188902Y-33553D01*
X188825Y-33481D01*
X188743Y-33413D01*
X188657Y-33351D01*
X188567Y-33292D01*
X188471Y-33239D01*
X188371Y-33190D01*
X188266Y-33146D01*
X188041Y-33071D01*
X187922Y-33040D01*
X189334Y-32180D01*
X189312Y-32289D01*
D02*
G37*
G36*
X185366Y-32310D02*
X185353Y-32415D01*
X185351Y-32518D01*
X185361Y-32617D01*
X185381Y-32714D01*
X185413Y-32809D01*
X185455Y-32900D01*
X185509Y-32989D01*
X185575Y-33075D01*
X185651Y-33158D01*
X184937Y-33558D01*
X184861Y-33486D01*
X184780Y-33418D01*
X184694Y-33355D01*
X184604Y-33296D01*
X184508Y-33242D01*
X184408Y-33192D01*
X184304Y-33146D01*
X184081Y-33068D01*
X183962Y-33035D01*
X185391Y-32203D01*
X185366Y-32310D01*
D02*
G37*
G36*
X152761Y-31483D02*
X152849Y-31569D01*
X152951Y-31644D01*
X153067Y-31709D01*
X153197Y-31764D01*
X153340Y-31809D01*
X153498Y-31845D01*
X153670Y-31870D01*
X153856Y-31885D01*
X154055Y-31890D01*
Y-33071D01*
X153856Y-33076D01*
X153670Y-33091D01*
X153498Y-33116D01*
X153340Y-33151D01*
X153197Y-33196D01*
X153067Y-33252D01*
X152951Y-33317D01*
X152849Y-33392D01*
X152761Y-33477D01*
X152687Y-33573D01*
Y-31388D01*
X152761Y-31483D01*
D02*
G37*
G36*
X192916Y-32414D02*
X192927Y-32529D01*
X192946Y-32640D01*
X192972Y-32746D01*
X193007Y-32848D01*
X193049Y-32946D01*
X193100Y-33039D01*
X193158Y-33128D01*
X193225Y-33213D01*
X193299Y-33294D01*
X192742Y-33850D01*
X192662Y-33776D01*
X192577Y-33709D01*
X192488Y-33651D01*
X192395Y-33601D01*
X192297Y-33558D01*
X192195Y-33523D01*
X192089Y-33497D01*
X191978Y-33478D01*
X191863Y-33467D01*
X191744Y-33465D01*
X192913Y-32295D01*
X192916Y-32414D01*
D02*
G37*
G36*
X78594Y-32285D02*
X78563Y-32327D01*
X78535Y-32395D01*
X78511Y-32492D01*
X78490Y-32616D01*
X78474Y-32768D01*
X78452Y-33239D01*
X78511Y-34043D01*
X78535Y-34140D01*
X78563Y-34209D01*
X78594Y-34250D01*
X78630Y-34264D01*
X76488D01*
X76598Y-34250D01*
X76696Y-34209D01*
X76783Y-34140D01*
X76858Y-34043D01*
X76922Y-33920D01*
X76974Y-33768D01*
X77014Y-33589D01*
X77043Y-33382D01*
X77050Y-33288D01*
X77014Y-32947D01*
X76974Y-32768D01*
X76922Y-32616D01*
X76858Y-32492D01*
X76783Y-32395D01*
X76696Y-32327D01*
X76598Y-32285D01*
X76488Y-32272D01*
X78630D01*
X78594Y-32285D01*
D02*
G37*
G36*
X193802Y-34090D02*
X193812Y-34209D01*
X193827Y-34314D01*
X193848Y-34405D01*
X193876Y-34482D01*
X193910Y-34545D01*
X193950Y-34595D01*
X193996Y-34630D01*
X194048Y-34651D01*
X194106Y-34658D01*
X193024D01*
X193022Y-34651D01*
X193019Y-34630D01*
X193016Y-34545D01*
X193012Y-33957D01*
X193799D01*
X193802Y-34090D01*
D02*
G37*
G36*
X185929Y-34020D02*
X185941Y-34154D01*
X185961Y-34272D01*
X185988Y-34374D01*
X186024Y-34461D01*
X186067Y-34532D01*
X186118Y-34587D01*
X186177Y-34626D01*
X186244Y-34650D01*
X186319Y-34658D01*
X185150D01*
X185148Y-34650D01*
X185145Y-34626D01*
X185141Y-34461D01*
X185138Y-33870D01*
X185925D01*
X185929Y-34020D01*
D02*
G37*
G36*
X189768Y-34022D02*
X189779Y-34158D01*
X189799Y-34278D01*
X189827Y-34382D01*
X189862Y-34470D01*
X189906Y-34542D01*
X189957Y-34598D01*
X190016Y-34638D01*
X190083Y-34662D01*
X190157Y-34670D01*
X188583D01*
X188657Y-34662D01*
X188724Y-34638D01*
X188784Y-34598D01*
X188835Y-34542D01*
X188878Y-34470D01*
X188913Y-34382D01*
X188941Y-34278D01*
X188961Y-34158D01*
X188972Y-34022D01*
X188976Y-33870D01*
X189764D01*
X189768Y-34022D01*
D02*
G37*
G36*
X181894D02*
X181905Y-34158D01*
X181925Y-34278D01*
X181953Y-34382D01*
X181988Y-34470D01*
X182032Y-34542D01*
X182083Y-34598D01*
X182142Y-34638D01*
X182209Y-34662D01*
X182283Y-34670D01*
X180709D01*
X180783Y-34662D01*
X180850Y-34638D01*
X180909Y-34598D01*
X180961Y-34542D01*
X181004Y-34470D01*
X181039Y-34382D01*
X181067Y-34278D01*
X181087Y-34158D01*
X181098Y-34022D01*
X181102Y-33870D01*
X181890D01*
X181894Y-34022D01*
D02*
G37*
G36*
X165280Y-36526D02*
X165268Y-36414D01*
X165232Y-36314D01*
X165173Y-36225D01*
X165089Y-36148D01*
X164982Y-36083D01*
X164850Y-36030D01*
X164702Y-35991D01*
X164682Y-35995D01*
X164597Y-36022D01*
X164521Y-36053D01*
X164454Y-36089D01*
X164395Y-36129D01*
X164345Y-36175D01*
X164343Y-35944D01*
X164313Y-35941D01*
X164087Y-35936D01*
Y-34754D01*
X164313Y-34749D01*
X164332Y-34747D01*
X164330Y-34521D01*
X164381Y-34566D01*
X164440Y-34605D01*
X164508Y-34640D01*
X164584Y-34670D01*
X164669Y-34696D01*
X164693Y-34702D01*
X164695Y-34701D01*
X164850Y-34660D01*
X164982Y-34607D01*
X165089Y-34542D01*
X165173Y-34465D01*
X165232Y-34376D01*
X165268Y-34276D01*
X165280Y-34164D01*
Y-36526D01*
D02*
G37*
G36*
X177437Y-34257D02*
X177727Y-34502D01*
X177855Y-34591D01*
X177972Y-34658D01*
X178077Y-34702D01*
X178172Y-34725D01*
X178256D01*
X178328Y-34702D01*
X178389Y-34658D01*
X177276Y-35771D01*
X177320Y-35710D01*
X177343Y-35638D01*
Y-35554D01*
X177320Y-35459D01*
X177276Y-35354D01*
X177209Y-35237D01*
X177120Y-35109D01*
X177008Y-34969D01*
X176719Y-34658D01*
X177276Y-34101D01*
X177437Y-34257D01*
D02*
G37*
G36*
X204702Y-34455D02*
X204993Y-34702D01*
X205121Y-34793D01*
X205239Y-34861D01*
X205344Y-34906D01*
X205438Y-34930D01*
X205521Y-34931D01*
X205593Y-34910D01*
X205653Y-34866D01*
X204552Y-35968D01*
X204595Y-35908D01*
X204616Y-35836D01*
X204615Y-35753D01*
X204591Y-35659D01*
X204545Y-35554D01*
X204478Y-35436D01*
X204387Y-35308D01*
X204275Y-35168D01*
X203983Y-34855D01*
X204539Y-34298D01*
X204702Y-34455D01*
D02*
G37*
G36*
X81775Y-34819D02*
X81799Y-34886D01*
X81839Y-34945D01*
X81895Y-34996D01*
X81967Y-35039D01*
X82055Y-35075D01*
X82159Y-35102D01*
X82279Y-35122D01*
X82415Y-35134D01*
X82567Y-35138D01*
Y-35925D01*
X82415Y-35929D01*
X82279Y-35941D01*
X82159Y-35961D01*
X82055Y-35988D01*
X81967Y-36024D01*
X81895Y-36067D01*
X81839Y-36118D01*
X81799Y-36177D01*
X81775Y-36244D01*
X81767Y-36319D01*
Y-34744D01*
X81775Y-34819D01*
D02*
G37*
G36*
X201509Y-36799D02*
X201494Y-36801D01*
X201461Y-36821D01*
X201413Y-36859D01*
X201265Y-36990D01*
X201033Y-37215D01*
X200817Y-37464D01*
X200768Y-37533D01*
X200727Y-37597D01*
X200695Y-37656D01*
X200671Y-37711D01*
X200655Y-37761D01*
X200547Y-37579D01*
X199767Y-36799D01*
X199961Y-36588D01*
X199813Y-36337D01*
X199880Y-36349D01*
X199950Y-36350D01*
X200022Y-36340D01*
X200098Y-36319D01*
X200176Y-36287D01*
X200257Y-36243D01*
X200314Y-36206D01*
X200603Y-35892D01*
X201509Y-36799D01*
D02*
G37*
G36*
X111859Y-36703D02*
X111744Y-36693D01*
X111632Y-36692D01*
X111524Y-36701D01*
X111420Y-36720D01*
X111320Y-36748D01*
X111223Y-36785D01*
X111130Y-36832D01*
X111041Y-36888D01*
X110955Y-36954D01*
X110873Y-37029D01*
X110385Y-36403D01*
X110459Y-36325D01*
X110526Y-36241D01*
X110586Y-36153D01*
X110641Y-36060D01*
X110689Y-35963D01*
X110730Y-35861D01*
X110766Y-35754D01*
X110794Y-35643D01*
X110817Y-35527D01*
X110833Y-35406D01*
X111859Y-36703D01*
D02*
G37*
G36*
X206224Y-36807D02*
X206157Y-36830D01*
X206098Y-36870D01*
X206047Y-36925D01*
X206004Y-36996D01*
X205968Y-37082D01*
X205941Y-37185D01*
X205921Y-37303D01*
X205909Y-37437D01*
X205906Y-37586D01*
X205118D01*
X205114Y-37437D01*
X205102Y-37303D01*
X205083Y-37185D01*
X205055Y-37082D01*
X205020Y-36996D01*
X204976Y-36925D01*
X204925Y-36870D01*
X204866Y-36830D01*
X204799Y-36807D01*
X204724Y-36799D01*
X206299D01*
X206224Y-36807D01*
D02*
G37*
G36*
X120001Y-37283D02*
X120017Y-37509D01*
X120027Y-37564D01*
X120039Y-37609D01*
X120053Y-37644D01*
X120069Y-37669D01*
X120087Y-37684D01*
X120107Y-37689D01*
X119225D01*
X119222Y-37684D01*
X119220Y-37669D01*
X119219Y-37644D01*
X119213Y-37283D01*
X119213Y-37188D01*
X120000D01*
X120001Y-37283D01*
D02*
G37*
G36*
X116445Y-37689D02*
X115562D01*
X115582Y-37684D01*
X115601Y-37669D01*
X115617Y-37644D01*
X115631Y-37609D01*
X115642Y-37564D01*
X115652Y-37509D01*
X115660Y-37444D01*
X115668Y-37283D01*
X115669Y-37188D01*
X116457D01*
X116445Y-37689D01*
D02*
G37*
G36*
X110539D02*
X109656D01*
X109677Y-37684D01*
X109695Y-37669D01*
X109711Y-37644D01*
X109725Y-37609D01*
X109737Y-37564D01*
X109747Y-37509D01*
X109754Y-37444D01*
X109763Y-37283D01*
X109764Y-37188D01*
X110551D01*
X110539Y-37689D01*
D02*
G37*
G36*
X198328Y-36170D02*
X198417Y-36246D01*
X198502Y-36310D01*
X198584Y-36361D01*
X198661Y-36401D01*
X198735Y-36428D01*
X198806Y-36443D01*
X198872Y-36446D01*
X198935Y-36436D01*
X198995Y-36415D01*
X198427Y-37955D01*
X198416Y-37942D01*
X198386Y-37910D01*
X197478Y-36994D01*
X198236Y-36082D01*
X198328Y-36170D01*
D02*
G37*
G36*
X175987Y-37139D02*
X175998Y-37254D01*
X176016Y-37364D01*
X176043Y-37470D01*
X176078Y-37573D01*
X176120Y-37670D01*
X176171Y-37764D01*
X176229Y-37853D01*
X176296Y-37938D01*
X176370Y-38018D01*
X175813Y-38575D01*
X175733Y-38500D01*
X175648Y-38434D01*
X175559Y-38375D01*
X175465Y-38325D01*
X175368Y-38282D01*
X175266Y-38248D01*
X175160Y-38221D01*
X175049Y-38202D01*
X174934Y-38192D01*
X174815Y-38189D01*
X175984Y-37020D01*
X175987Y-37139D01*
D02*
G37*
G36*
X78594Y-36616D02*
X78563Y-36657D01*
X78535Y-36726D01*
X78511Y-36823D01*
X78490Y-36947D01*
X78474Y-37098D01*
X78452Y-37570D01*
X78511Y-38374D01*
X78535Y-38471D01*
X78563Y-38540D01*
X78594Y-38581D01*
X78630Y-38595D01*
X76488D01*
X76598Y-38581D01*
X76696Y-38540D01*
X76783Y-38471D01*
X76858Y-38374D01*
X76922Y-38250D01*
X76974Y-38099D01*
X77014Y-37920D01*
X77043Y-37713D01*
X77050Y-37619D01*
X77014Y-37277D01*
X76974Y-37098D01*
X76922Y-36947D01*
X76858Y-36823D01*
X76783Y-36726D01*
X76696Y-36657D01*
X76598Y-36616D01*
X76488Y-36602D01*
X78630D01*
X78594Y-36616D01*
D02*
G37*
G36*
X72693Y-37484D02*
X72777Y-37550D01*
X72866Y-37609D01*
X72960Y-37659D01*
X73058Y-37702D01*
X73159Y-37736D01*
X73266Y-37763D01*
X73376Y-37782D01*
X73491Y-37793D01*
X73610Y-37795D01*
X72441Y-38965D01*
X72438Y-38845D01*
X72427Y-38731D01*
X72409Y-38620D01*
X72382Y-38514D01*
X72348Y-38412D01*
X72305Y-38314D01*
X72255Y-38221D01*
X72196Y-38132D01*
X72130Y-38047D01*
X72055Y-37966D01*
X72612Y-37409D01*
X72693Y-37484D01*
D02*
G37*
G36*
X213292Y-37246D02*
X213364Y-38398D01*
X213407Y-38679D01*
X213460Y-38910D01*
X213523Y-39089D01*
X213595Y-39217D01*
X213676Y-39294D01*
X213768Y-39319D01*
X210248D01*
X210339Y-39294D01*
X210421Y-39217D01*
X210493Y-39089D01*
X210556Y-38910D01*
X210608Y-38679D01*
X210651Y-38398D01*
X210709Y-37681D01*
X210728Y-36760D01*
X213287D01*
X213292Y-37246D01*
D02*
G37*
G36*
X205909Y-38683D02*
X205921Y-38818D01*
X205941Y-38938D01*
X205968Y-39041D01*
X206004Y-39129D01*
X206047Y-39201D01*
X206098Y-39257D01*
X206157Y-39298D01*
X206224Y-39322D01*
X206299Y-39331D01*
X205248Y-39319D01*
X205118Y-38532D01*
X205906D01*
X205909Y-38683D01*
D02*
G37*
G36*
X176780Y-38729D02*
X176790Y-38855D01*
X176807Y-38967D01*
X176830Y-39063D01*
X176861Y-39145D01*
X176898Y-39212D01*
X176942Y-39264D01*
X176993Y-39301D01*
X177050Y-39324D01*
X177114Y-39331D01*
X175651D01*
X175715Y-39324D01*
X175772Y-39301D01*
X175823Y-39264D01*
X175867Y-39212D01*
X175904Y-39145D01*
X175935Y-39063D01*
X175958Y-38967D01*
X175975Y-38855D01*
X175985Y-38729D01*
X175989Y-38587D01*
X176776D01*
X176780Y-38729D01*
D02*
G37*
G36*
X172406Y-38684D02*
X172417Y-38820D01*
X172437Y-38939D01*
X172465Y-39043D01*
X172500Y-39131D01*
X172543Y-39203D01*
X172594Y-39259D01*
X172653Y-39299D01*
X172720Y-39323D01*
X172795Y-39331D01*
X171220D01*
X171295Y-39323D01*
X171362Y-39299D01*
X171421Y-39259D01*
X171472Y-39203D01*
X171516Y-39131D01*
X171551Y-39043D01*
X171579Y-38939D01*
X171598Y-38820D01*
X171610Y-38684D01*
X171614Y-38532D01*
X172401D01*
X172406Y-38684D01*
D02*
G37*
G36*
X145002Y-35722D02*
X145725Y-36334D01*
X146045Y-36557D01*
X146337Y-36724D01*
X146601Y-36835D01*
X146837Y-36891D01*
X147045Y-36891D01*
X147226Y-36836D01*
X147379Y-36725D01*
X144599Y-39505D01*
X144710Y-39352D01*
X144765Y-39171D01*
X144765Y-38963D01*
X144709Y-38727D01*
X144598Y-38462D01*
X144431Y-38171D01*
X144208Y-37851D01*
X143930Y-37503D01*
X143207Y-36725D01*
X144599Y-35333D01*
X145002Y-35722D01*
D02*
G37*
G36*
X81775Y-39051D02*
X81799Y-39118D01*
X81839Y-39177D01*
X81895Y-39228D01*
X81967Y-39272D01*
X82055Y-39307D01*
X82159Y-39335D01*
X82279Y-39354D01*
X82415Y-39366D01*
X82567Y-39370D01*
Y-40157D01*
X82415Y-40161D01*
X82279Y-40173D01*
X82159Y-40193D01*
X82055Y-40220D01*
X81967Y-40256D01*
X81895Y-40299D01*
X81839Y-40350D01*
X81799Y-40409D01*
X81775Y-40476D01*
X81767Y-40551D01*
Y-38976D01*
X81775Y-39051D01*
D02*
G37*
G36*
X147652Y-39874D02*
X147587Y-39945D01*
X147529Y-40063D01*
X147480Y-40228D01*
X147438Y-40441D01*
X147404Y-40701D01*
X147358Y-41362D01*
X147343Y-42212D01*
X144980D01*
X144976Y-41764D01*
X144885Y-40441D01*
X144843Y-40228D01*
X144793Y-40063D01*
X144736Y-39945D01*
X144671Y-39874D01*
X144599Y-39850D01*
X147724D01*
X147652Y-39874D01*
D02*
G37*
G36*
X78594Y-40947D02*
X78563Y-40988D01*
X78535Y-41057D01*
X78511Y-41153D01*
X78490Y-41277D01*
X78474Y-41429D01*
X78446Y-42049D01*
X78444Y-42311D01*
X77066D01*
X77060Y-42049D01*
X77014Y-41608D01*
X76974Y-41429D01*
X76922Y-41277D01*
X76858Y-41153D01*
X76783Y-41057D01*
X76696Y-40988D01*
X76598Y-40947D01*
X76488Y-40933D01*
X78630D01*
X78594Y-40947D01*
D02*
G37*
G36*
X141784Y-39878D02*
X141752Y-39960D01*
X141724Y-40098D01*
X141700Y-40291D01*
X141663Y-40842D01*
X141634Y-42606D01*
X138878D01*
X138876Y-42083D01*
X138728Y-39878D01*
X138693Y-39850D01*
X141819D01*
X141784Y-39878D01*
D02*
G37*
G36*
X118119Y-43367D02*
X118100Y-43383D01*
X118084Y-43409D01*
X118070Y-43445D01*
X118058Y-43491D01*
X118049Y-43547D01*
X118041Y-43614D01*
X118033Y-43778D01*
X118032Y-43875D01*
X117244D01*
X117256Y-43374D01*
X118139Y-43362D01*
X118119Y-43367D01*
D02*
G37*
G36*
X114476Y-43374D02*
X114479Y-43381D01*
X114480Y-43404D01*
X114484Y-43493D01*
X114488Y-44120D01*
X113701D01*
X113697Y-43977D01*
X113687Y-43848D01*
X113669Y-43735D01*
X113644Y-43637D01*
X113613Y-43553D01*
X113574Y-43485D01*
X113528Y-43432D01*
X113475Y-43393D01*
X113415Y-43370D01*
X113348Y-43362D01*
X114476Y-43374D01*
D02*
G37*
G36*
X122315Y-43382D02*
X122284Y-43404D01*
X122256Y-43443D01*
X122232Y-43496D01*
X122212Y-43565D01*
X122195Y-43649D01*
X122182Y-43749D01*
X122167Y-43993D01*
X122165Y-44139D01*
X121378D01*
X121376Y-43993D01*
X121348Y-43649D01*
X121332Y-43565D01*
X121311Y-43496D01*
X121287Y-43443D01*
X121260Y-43404D01*
X121228Y-43382D01*
X121193Y-43374D01*
X122350D01*
X122315Y-43382D01*
D02*
G37*
G36*
X120347Y-43382D02*
X120315Y-43405D01*
X120287Y-43445D01*
X120263Y-43500D01*
X120243Y-43571D01*
X120226Y-43657D01*
X120213Y-43760D01*
X120199Y-44012D01*
X120197Y-44161D01*
X119410D01*
X119408Y-44012D01*
X119380Y-43657D01*
X119363Y-43571D01*
X119343Y-43500D01*
X119319Y-43445D01*
X119291Y-43405D01*
X119260Y-43382D01*
X119225Y-43374D01*
X120382D01*
X120347Y-43382D01*
D02*
G37*
G36*
X218768Y-42927D02*
X218804Y-43028D01*
X218864Y-43116D01*
X218948Y-43193D01*
X219056Y-43258D01*
X219187Y-43311D01*
X219342Y-43352D01*
X219412Y-43364D01*
X219488Y-43347D01*
X219573Y-43321D01*
X219649Y-43290D01*
X219716Y-43254D01*
X219775Y-43214D01*
X219826Y-43169D01*
Y-43402D01*
X219949Y-43406D01*
Y-44587D01*
X219826Y-44587D01*
Y-44823D01*
X219775Y-44778D01*
X219716Y-44738D01*
X219649Y-44702D01*
X219573Y-44672D01*
X219488Y-44646D01*
X219395Y-44624D01*
X219344Y-44616D01*
X218956Y-44645D01*
X218874Y-44666D01*
X218815Y-44690D01*
X218779Y-44717D01*
X218767Y-44748D01*
X218756Y-42815D01*
X218768Y-42927D01*
D02*
G37*
G36*
X73172Y-44921D02*
X73086Y-44839D01*
X72997Y-44765D01*
X72906Y-44700D01*
X72812Y-44644D01*
X72715Y-44596D01*
X72616Y-44557D01*
X72514Y-44527D01*
X72410Y-44506D01*
X72303Y-44493D01*
X72193Y-44488D01*
Y-43701D01*
X72303Y-43696D01*
X72410Y-43683D01*
X72514Y-43662D01*
X72616Y-43632D01*
X72715Y-43593D01*
X72812Y-43545D01*
X72906Y-43489D01*
X72997Y-43424D01*
X73086Y-43350D01*
X73172Y-43268D01*
Y-44921D01*
D02*
G37*
G36*
X216896Y-44748D02*
X216795Y-44785D01*
X216707Y-44845D01*
X216630Y-44929D01*
X216565Y-45036D01*
X216512Y-45167D01*
X216470Y-45322D01*
X216441Y-45501D01*
X216434Y-45585D01*
X216436Y-45624D01*
X216451Y-45726D01*
X216470Y-45820D01*
X216494Y-45905D01*
X216521Y-45982D01*
X216553Y-46051D01*
X216589Y-46111D01*
X216629Y-46162D01*
X214979Y-46052D01*
X215028Y-46004D01*
X215072Y-45947D01*
X215110Y-45881D01*
X215144Y-45806D01*
X215172Y-45723D01*
X215195Y-45631D01*
X215213Y-45530D01*
X215226Y-45421D01*
X215236Y-45176D01*
X215244Y-45176D01*
X215248Y-44748D01*
X217008Y-44736D01*
X216896Y-44748D01*
D02*
G37*
G36*
X167720Y-44744D02*
X167654Y-44768D01*
X167594Y-44808D01*
X167543Y-44864D01*
X167500Y-44936D01*
X167464Y-45024D01*
X167437Y-45127D01*
X167417Y-45247D01*
X167405Y-45383D01*
X167402Y-45535D01*
X166614D01*
X166610Y-45383D01*
X166598Y-45247D01*
X166579Y-45127D01*
X166551Y-45024D01*
X166516Y-44936D01*
X166472Y-44864D01*
X166421Y-44808D01*
X166362Y-44768D01*
X166295Y-44744D01*
X166220Y-44736D01*
X167795D01*
X167720Y-44744D01*
D02*
G37*
G36*
X162721D02*
X162654Y-44768D01*
X162594Y-44808D01*
X162543Y-44864D01*
X162500Y-44936D01*
X162465Y-45024D01*
X162437Y-45127D01*
X162417Y-45247D01*
X162406Y-45383D01*
X162402Y-45535D01*
X161614D01*
X161610Y-45383D01*
X161598Y-45247D01*
X161579Y-45127D01*
X161551Y-45024D01*
X161516Y-44936D01*
X161472Y-44864D01*
X161421Y-44808D01*
X161362Y-44768D01*
X161295Y-44744D01*
X161221Y-44736D01*
X162795D01*
X162721Y-44744D01*
D02*
G37*
G36*
X156342Y-44745D02*
X156275Y-44769D01*
X156217Y-44809D01*
X156165Y-44866D01*
X156122Y-44938D01*
X156087Y-45026D01*
X156059Y-45129D01*
X156039Y-45249D01*
X156027Y-45384D01*
X156024Y-45535D01*
X155236D01*
X155248Y-44748D01*
X156417Y-44736D01*
X156342Y-44745D01*
D02*
G37*
G36*
X152720Y-44744D02*
X152654Y-44768D01*
X152594Y-44808D01*
X152543Y-44864D01*
X152500Y-44936D01*
X152464Y-45024D01*
X152437Y-45127D01*
X152417Y-45247D01*
X152406Y-45383D01*
X152401Y-45535D01*
X151614D01*
X151610Y-45383D01*
X151598Y-45247D01*
X151579Y-45127D01*
X151551Y-45024D01*
X151516Y-44936D01*
X151472Y-44864D01*
X151421Y-44808D01*
X151362Y-44768D01*
X151295Y-44744D01*
X151220Y-44736D01*
X152795D01*
X152720Y-44744D01*
D02*
G37*
G36*
X122349Y-44154D02*
X122433Y-44220D01*
X122522Y-44280D01*
X122616Y-44331D01*
X122713Y-44376D01*
X122815Y-44413D01*
X122922Y-44443D01*
X123033Y-44466D01*
X123149Y-44481D01*
X123269Y-44489D01*
X122049Y-45605D01*
X122051Y-45487D01*
X122045Y-45374D01*
X122030Y-45264D01*
X122007Y-45158D01*
X121975Y-45057D01*
X121934Y-44959D01*
X121885Y-44866D01*
X121827Y-44776D01*
X121761Y-44691D01*
X121686Y-44610D01*
X122269Y-44080D01*
X122349Y-44154D01*
D02*
G37*
G36*
X85575Y-44531D02*
X85664Y-44605D01*
X85755Y-44670D01*
X85849Y-44726D01*
X85946Y-44774D01*
X86045Y-44813D01*
X86147Y-44843D01*
X86251Y-44865D01*
X86358Y-44878D01*
X86468Y-44882D01*
Y-45669D01*
X86358Y-45674D01*
X86251Y-45687D01*
X86147Y-45708D01*
X86045Y-45739D01*
X85946Y-45778D01*
X85849Y-45825D01*
X85755Y-45882D01*
X85664Y-45946D01*
X85575Y-46020D01*
X85489Y-46102D01*
Y-44449D01*
X85575Y-44531D01*
D02*
G37*
G36*
X218767Y-44748D02*
X218770Y-44760D01*
X218772Y-44795D01*
X218774Y-45121D01*
X218779Y-45120D01*
X218782Y-45247D01*
X218805Y-45472D01*
X218825Y-45571D01*
X218850Y-45661D01*
X218882Y-45741D01*
X218919Y-45812D01*
X218961Y-45873D01*
X219010Y-45925D01*
X219064Y-45968D01*
X217438Y-46271D01*
X217469Y-46221D01*
X217496Y-46162D01*
X217520Y-46095D01*
X217541Y-46018D01*
X217558Y-45933D01*
X217584Y-45737D01*
X217589Y-45665D01*
X217575Y-45501D01*
X217545Y-45322D01*
X217504Y-45167D01*
X217451Y-45036D01*
X217386Y-44929D01*
X217309Y-44845D01*
X217220Y-44785D01*
X217120Y-44748D01*
X217008Y-44736D01*
X218767Y-44748D01*
D02*
G37*
G36*
X91341Y-45273D02*
X91387Y-45312D01*
X91535Y-45154D01*
X91541Y-45221D01*
X91556Y-45290D01*
X91580Y-45362D01*
X91614Y-45437D01*
X91656Y-45515D01*
X91678Y-45548D01*
X91761Y-45605D01*
X91879Y-45670D01*
X91987Y-45713D01*
X92084Y-45733D01*
X92169Y-45731D01*
X92244Y-45706D01*
X92309Y-45658D01*
X91773Y-46194D01*
X91199Y-46808D01*
X91179Y-46788D01*
X90934Y-47033D01*
X90972Y-46978D01*
X90989Y-46911D01*
X90984Y-46833D01*
X90957Y-46743D01*
X90909Y-46641D01*
X90839Y-46527D01*
X90814Y-46492D01*
X90768Y-46464D01*
X90689Y-46423D01*
X90613Y-46392D01*
X90540Y-46371D01*
X90469Y-46360D01*
X90401Y-46357D01*
X90562Y-46186D01*
X90344Y-45953D01*
X91179Y-45118D01*
X91341Y-45273D01*
D02*
G37*
G36*
X81561Y-46815D02*
X81563Y-46860D01*
X81574Y-46910D01*
X81594Y-46963D01*
X81622Y-47020D01*
X81659Y-47081D01*
X81705Y-47145D01*
X81760Y-47213D01*
X81897Y-47359D01*
X81340Y-47916D01*
X81265Y-47844D01*
X81127Y-47726D01*
X81063Y-47681D01*
X81003Y-47644D01*
X80946Y-47616D01*
X80893Y-47597D01*
X80844Y-47586D01*
X80798Y-47585D01*
X80756Y-47592D01*
X81568Y-46772D01*
X81561Y-46815D01*
D02*
G37*
G36*
X112706Y-46327D02*
X112653Y-46372D01*
X112606Y-46426D01*
X112565Y-46489D01*
X112529Y-46562D01*
X112499Y-46643D01*
X112474Y-46733D01*
X112454Y-46833D01*
X112441Y-46941D01*
X112433Y-47049D01*
X112435Y-47190D01*
X112483Y-47757D01*
X112524Y-47987D01*
X112577Y-48182D01*
X112642Y-48342D01*
X112719Y-48466D01*
X112808Y-48554D01*
X112908Y-48607D01*
X113020Y-48625D01*
X110658D01*
X110770Y-48607D01*
X110871Y-48554D01*
X110959Y-48466D01*
X111036Y-48342D01*
X111101Y-48182D01*
X111154Y-47987D01*
X111195Y-47757D01*
X111225Y-47491D01*
X111247Y-46890D01*
X111247Y-46859D01*
X111220Y-46526D01*
X111204Y-46432D01*
X111184Y-46347D01*
X111161Y-46270D01*
X111134Y-46202D01*
X111103Y-46142D01*
X111069Y-46091D01*
X112706Y-46327D01*
D02*
G37*
G36*
X130824Y-47073D02*
X130902Y-47296D01*
X130948Y-47401D01*
X130998Y-47501D01*
X131052Y-47596D01*
X131100Y-47669D01*
X131113Y-47678D01*
X131205Y-47732D01*
X131292Y-47769D01*
X131374Y-47789D01*
X131450Y-47793D01*
X131520Y-47779D01*
X131585Y-47749D01*
X131644Y-47703D01*
X131192Y-48145D01*
X130914Y-48643D01*
X130831Y-48567D01*
X130792Y-48538D01*
X130767Y-48562D01*
X130768Y-48551D01*
X130757Y-48528D01*
X130734Y-48495D01*
X130733Y-48495D01*
X130656Y-48447D01*
X130564Y-48405D01*
X130470Y-48373D01*
X130373Y-48353D01*
X130274Y-48344D01*
X130171Y-48346D01*
X130066Y-48359D01*
X129958Y-48383D01*
X130791Y-46954D01*
X130824Y-47073D01*
D02*
G37*
G36*
X118739Y-47714D02*
X118962Y-47668D01*
X118920Y-47719D01*
X118882Y-47779D01*
X118848Y-47846D01*
X118819Y-47923D01*
X118795Y-48008D01*
X118774Y-48101D01*
X118765Y-48161D01*
X118768Y-48206D01*
X118781Y-48297D01*
X118814Y-48456D01*
X118834Y-48524D01*
X118856Y-48584D01*
X117566Y-48830D01*
X117639Y-48805D01*
X117705Y-48759D01*
X117762Y-48692D01*
X117813Y-48605D01*
X117855Y-48496D01*
X117890Y-48367D01*
X117909Y-48257D01*
X117902Y-48232D01*
X117875Y-48164D01*
X117841Y-48103D01*
X117801Y-48049D01*
X117755Y-48004D01*
X117703Y-47966D01*
X117644Y-47936D01*
X117942Y-47875D01*
X117951Y-47641D01*
X118739Y-47641D01*
X118739Y-47714D01*
D02*
G37*
G36*
X107935Y-50509D02*
X108030Y-50590D01*
X108120Y-50656D01*
X108204Y-50706D01*
X108282Y-50742D01*
X108355Y-50762D01*
X108423Y-50767D01*
X108484Y-50757D01*
X108540Y-50732D01*
X108591Y-50692D01*
X107680Y-51603D01*
X107697Y-51576D01*
X107701Y-51541D01*
X107692Y-51498D01*
X107671Y-51446D01*
X107637Y-51387D01*
X107590Y-51320D01*
X107531Y-51244D01*
X107375Y-51070D01*
X107278Y-50970D01*
X107834Y-50414D01*
X107935Y-50509D01*
D02*
G37*
G36*
X113685Y-51713D02*
X113660Y-51696D01*
X113621Y-51680D01*
X113569Y-51667D01*
X113502Y-51655D01*
X113326Y-51637D01*
X113095Y-51626D01*
X112808Y-51623D01*
X112808Y-50835D01*
X112993Y-50833D01*
X113435Y-50804D01*
X113545Y-50787D01*
X113635Y-50766D01*
X113706Y-50741D01*
X113758Y-50712D01*
X113791Y-50680D01*
X113804Y-50643D01*
X113685Y-51713D01*
D02*
G37*
G36*
X162406Y-50945D02*
X162419Y-51052D01*
X162441Y-51156D01*
X162471Y-51258D01*
X162510Y-51357D01*
X162557Y-51454D01*
X162614Y-51548D01*
X162679Y-51639D01*
X162752Y-51728D01*
X162835Y-51814D01*
X161181D01*
X161263Y-51728D01*
X161337Y-51639D01*
X161402Y-51548D01*
X161458Y-51454D01*
X161506Y-51357D01*
X161545Y-51258D01*
X161575Y-51156D01*
X161597Y-51052D01*
X161610Y-50945D01*
X161614Y-50835D01*
X162402D01*
X162406Y-50945D01*
D02*
G37*
G36*
X102884Y-50644D02*
X102989Y-50731D01*
X103088Y-50802D01*
X103181Y-50856D01*
X103268Y-50893D01*
X103349Y-50914D01*
X103425Y-50917D01*
X103495Y-50903D01*
X103559Y-50873D01*
X103618Y-50826D01*
X102504Y-51939D01*
X102552Y-51881D01*
X102582Y-51817D01*
X102595Y-51747D01*
X102592Y-51671D01*
X102572Y-51589D01*
X102535Y-51502D01*
X102481Y-51409D01*
X102410Y-51310D01*
X102322Y-51206D01*
X102217Y-51096D01*
X102774Y-50539D01*
X102884Y-50644D01*
D02*
G37*
G36*
X96065Y-50221D02*
X96020Y-50317D01*
X96000Y-50422D01*
X96005Y-50536D01*
X96035Y-50658D01*
X96090Y-50788D01*
X96171Y-50927D01*
X96276Y-51074D01*
X96406Y-51230D01*
X96562Y-51393D01*
X95727Y-52228D01*
X95093Y-51192D01*
X96136Y-50132D01*
X96065Y-50221D01*
D02*
G37*
G36*
X127689Y-48157D02*
X127783Y-49378D01*
X127865Y-49861D01*
X127970Y-50259D01*
X128099Y-50572D01*
X128252Y-50799D01*
X128428Y-50941D01*
X128627Y-50999D01*
X128850Y-50971D01*
X124142Y-52388D01*
X124365Y-52277D01*
X124565Y-52086D01*
X124740Y-51814D01*
X124893Y-51461D01*
X125022Y-51028D01*
X125127Y-50515D01*
X125209Y-49921D01*
X125303Y-48491D01*
X125315Y-47655D01*
X127677Y-47419D01*
X127689Y-48157D01*
D02*
G37*
G36*
X106260Y-52048D02*
X106192Y-52117D01*
X106040Y-52292D01*
X106007Y-52338D01*
X105983Y-52379D01*
X105967Y-52415D01*
X105960Y-52444D01*
X105962Y-52468D01*
X105973Y-52487D01*
X105357Y-51854D01*
X105359Y-51849D01*
X105368Y-51837D01*
X105385Y-51818D01*
X105636Y-51558D01*
X105703Y-51491D01*
X106260Y-52048D01*
D02*
G37*
G36*
X108933Y-52839D02*
X108874Y-52791D01*
X108810Y-52761D01*
X108740Y-52747D01*
X108664Y-52751D01*
X108583Y-52771D01*
X108496Y-52808D01*
X108403Y-52862D01*
X108304Y-52933D01*
X108199Y-53021D01*
X108089Y-53125D01*
X107533Y-52569D01*
X107637Y-52459D01*
X107725Y-52354D01*
X107796Y-52255D01*
X107850Y-52162D01*
X107887Y-52075D01*
X107907Y-51994D01*
X107910Y-51918D01*
X107897Y-51848D01*
X107867Y-51784D01*
X107819Y-51725D01*
X108933Y-52839D01*
D02*
G37*
G36*
X135477Y-51263D02*
X135398Y-51312D01*
X135328Y-51395D01*
X135267Y-51510D01*
X135216Y-51658D01*
X135174Y-51840D01*
X135141Y-52054D01*
X135118Y-52301D01*
X135099Y-52894D01*
X133918D01*
X133913Y-52581D01*
X133876Y-52054D01*
X133843Y-51840D01*
X133801Y-51658D01*
X133750Y-51510D01*
X133689Y-51395D01*
X133619Y-51312D01*
X133540Y-51263D01*
X133451Y-51246D01*
X135566D01*
X135477Y-51263D01*
D02*
G37*
G36*
X107916Y-53299D02*
X107812Y-53407D01*
X107650Y-53602D01*
X107593Y-53689D01*
X107550Y-53769D01*
X107523Y-53842D01*
X107511Y-53908D01*
X107514Y-53967D01*
X107533Y-54019D01*
X107567Y-54064D01*
X106749Y-53246D01*
X106765Y-53250D01*
X106790Y-53243D01*
X106826Y-53223D01*
X106872Y-53191D01*
X106928Y-53146D01*
X107070Y-53021D01*
X107359Y-52742D01*
X107916Y-53299D01*
D02*
G37*
G36*
X95033Y-52924D02*
X95303Y-53155D01*
X95376Y-53205D01*
X95441Y-53240D01*
X95497Y-53262D01*
X95544Y-53271D01*
X95583Y-53265D01*
X95613Y-53246D01*
X94795Y-54064D01*
X94814Y-54033D01*
X94820Y-53995D01*
X94812Y-53947D01*
X94790Y-53891D01*
X94754Y-53827D01*
X94705Y-53754D01*
X94641Y-53672D01*
X94474Y-53483D01*
X94369Y-53376D01*
X94926Y-52820D01*
X95033Y-52924D01*
D02*
G37*
G36*
X85846Y-51628D02*
X85905Y-52300D01*
X86004Y-52892D01*
X86142Y-53405D01*
X86319Y-53840D01*
X86535Y-54195D01*
X86791Y-54472D01*
X87087Y-54669D01*
X87421Y-54788D01*
X87795Y-54827D01*
X79921D01*
X80295Y-54788D01*
X80630Y-54669D01*
X80925Y-54472D01*
X81181Y-54195D01*
X81398Y-53840D01*
X81575Y-53405D01*
X81713Y-52892D01*
X81811Y-52300D01*
X81870Y-51628D01*
X81890Y-50878D01*
X85827D01*
X85846Y-51628D01*
D02*
G37*
G36*
X134624Y-54080D02*
X134536Y-54172D01*
X134393Y-54348D01*
X134337Y-54432D01*
X134292Y-54513D01*
X134258Y-54592D01*
X134235Y-54668D01*
X134222Y-54741D01*
X134219Y-54812D01*
X134228Y-54880D01*
X132857Y-53957D01*
X132913Y-53942D01*
X132973Y-53920D01*
X133037Y-53889D01*
X133105Y-53849D01*
X133177Y-53802D01*
X133334Y-53681D01*
X133418Y-53607D01*
X133598Y-53436D01*
X134624Y-54080D01*
D02*
G37*
G36*
X75495Y-48725D02*
X75593Y-50197D01*
X75629Y-50385D01*
X75671Y-50538D01*
X75718Y-50656D01*
X75771Y-50738D01*
X74586D01*
X74803Y-51575D01*
X73524Y-55413D01*
X73498Y-54927D01*
X73421Y-54492D01*
X73293Y-54108D01*
X73114Y-53776D01*
X72884Y-53494D01*
X72602Y-53264D01*
X72270Y-53085D01*
X71886Y-52957D01*
X71451Y-52880D01*
X70965Y-52854D01*
X71555Y-50295D01*
X72041Y-50282D01*
X72476Y-50240D01*
X72860Y-50171D01*
X73193Y-50075D01*
X73474Y-49951D01*
X73705Y-49799D01*
X73884Y-49620D01*
X74012Y-49413D01*
X74089Y-49179D01*
X74096Y-49099D01*
X74114Y-48325D01*
X75492D01*
X75495Y-48725D01*
D02*
G37*
G36*
X37230Y-48222D02*
X37307Y-48658D01*
X37435Y-49041D01*
X37614Y-49374D01*
X37844Y-49656D01*
X38126Y-49886D01*
X38459Y-50065D01*
X38842Y-50193D01*
X39278Y-50270D01*
X39764Y-50295D01*
Y-52854D01*
X39278Y-52880D01*
X38842Y-52957D01*
X38459Y-53085D01*
X38126Y-53264D01*
X37844Y-53494D01*
X37614Y-53776D01*
X37435Y-54108D01*
X37307Y-54492D01*
X37230Y-54927D01*
X37205Y-55413D01*
X34646Y-51575D01*
X37205Y-47736D01*
X37230Y-48222D01*
D02*
G37*
G36*
X93641Y-54316D02*
X93911Y-54547D01*
X93984Y-54597D01*
X94049Y-54632D01*
X94105Y-54654D01*
X94152Y-54662D01*
X94191Y-54657D01*
X94221Y-54638D01*
X93403Y-55456D01*
X93423Y-55426D01*
X93428Y-55387D01*
X93420Y-55339D01*
X93398Y-55283D01*
X93362Y-55219D01*
X93313Y-55146D01*
X93249Y-55064D01*
X93082Y-54875D01*
X92977Y-54768D01*
X93534Y-54212D01*
X93641Y-54316D01*
D02*
G37*
G36*
X110777Y-56160D02*
X110672Y-56267D01*
X110442Y-56538D01*
X110392Y-56611D01*
X110356Y-56675D01*
X110334Y-56731D01*
X110326Y-56779D01*
X110332Y-56817D01*
X110351Y-56848D01*
X109533Y-56030D01*
X109563Y-56049D01*
X109602Y-56054D01*
X109650Y-56046D01*
X109705Y-56024D01*
X109770Y-55988D01*
X109843Y-55939D01*
X109924Y-55876D01*
X110113Y-55708D01*
X110220Y-55603D01*
X110777Y-56160D01*
D02*
G37*
G36*
X116603Y-57215D02*
X116591Y-57142D01*
X116555Y-57077D01*
X116496Y-57019D01*
X116412Y-56969D01*
X116305Y-56926D01*
X116174Y-56892D01*
X116020Y-56865D01*
X115841Y-56845D01*
X115413Y-56830D01*
Y-56043D01*
X115639Y-56039D01*
X116020Y-56008D01*
X116174Y-55981D01*
X116305Y-55946D01*
X116412Y-55904D01*
X116496Y-55854D01*
X116555Y-55796D01*
X116591Y-55731D01*
X116603Y-55657D01*
Y-57215D01*
D02*
G37*
G36*
X121988Y-57479D02*
X121870Y-57477D01*
X121756Y-57484D01*
X121646Y-57499D01*
X121540Y-57523D01*
X121439Y-57555D01*
X121341Y-57595D01*
X121248Y-57645D01*
X121158Y-57702D01*
X121134Y-57722D01*
X121121Y-57737D01*
X121050Y-57836D01*
X120996Y-57929D01*
X120959Y-58016D01*
X120939Y-58098D01*
X120935Y-58173D01*
X120949Y-58243D01*
X120979Y-58308D01*
X121026Y-58366D01*
X119913Y-57253D01*
X119971Y-57300D01*
X120036Y-57330D01*
X120106Y-57344D01*
X120181Y-57340D01*
X120263Y-57320D01*
X120350Y-57283D01*
X120443Y-57229D01*
X120542Y-57158D01*
X120575Y-57130D01*
X120600Y-57098D01*
X120659Y-57010D01*
X120711Y-56916D01*
X120756Y-56818D01*
X120793Y-56716D01*
X120822Y-56610D01*
X120844Y-56499D01*
X120859Y-56383D01*
X120867Y-56263D01*
X121988Y-57479D01*
D02*
G37*
G36*
X112169Y-57552D02*
X112065Y-57659D01*
X111834Y-57929D01*
X111784Y-58003D01*
X111748Y-58067D01*
X111726Y-58123D01*
X111718Y-58170D01*
X111724Y-58209D01*
X111743Y-58240D01*
X110925Y-57421D01*
X110955Y-57441D01*
X110994Y-57446D01*
X111041Y-57438D01*
X111097Y-57416D01*
X111162Y-57380D01*
X111235Y-57331D01*
X111317Y-57268D01*
X111505Y-57100D01*
X111612Y-56995D01*
X112169Y-57552D01*
D02*
G37*
G36*
X140002Y-58209D02*
X139640Y-58587D01*
X139334Y-58943D01*
X139083Y-59277D01*
X138887Y-59588D01*
X138747Y-59877D01*
X138663Y-60143D01*
X138634Y-60387D01*
X138661Y-60609D01*
X138743Y-60808D01*
X138880Y-60984D01*
X135278Y-57382D01*
X135455Y-57520D01*
X135654Y-57602D01*
X135875Y-57628D01*
X136119Y-57599D01*
X136385Y-57515D01*
X136674Y-57375D01*
X136985Y-57179D01*
X137319Y-56928D01*
X137675Y-56622D01*
X138054Y-56260D01*
X140002Y-58209D01*
D02*
G37*
G36*
X64301Y-57381D02*
X64273Y-57474D01*
Y-57581D01*
X64301Y-57702D01*
X64358Y-57837D01*
X64444Y-57987D01*
X64558Y-58151D01*
X64700Y-58329D01*
X65071Y-58728D01*
X64358Y-59441D01*
X64151Y-59241D01*
X63781Y-58928D01*
X63617Y-58814D01*
X63467Y-58728D01*
X63332Y-58671D01*
X63211Y-58643D01*
X63104D01*
X63011Y-58671D01*
X62933Y-58728D01*
X64358Y-57303D01*
X64301Y-57381D01*
D02*
G37*
G36*
X132902Y-57727D02*
X133513Y-58254D01*
X133677Y-58368D01*
X133822Y-58451D01*
X133947Y-58503D01*
X134052Y-58524D01*
X134138Y-58514D01*
X134204Y-58473D01*
X131693Y-60984D01*
X131734Y-60918D01*
X131744Y-60832D01*
X131723Y-60727D01*
X131671Y-60602D01*
X131588Y-60457D01*
X131474Y-60293D01*
X131330Y-60109D01*
X130948Y-59682D01*
X130710Y-59439D01*
X132659Y-57490D01*
X132902Y-57727D01*
D02*
G37*
G36*
X161799Y-61417D02*
X161680Y-61420D01*
X161565Y-61431D01*
X161455Y-61449D01*
X161348Y-61476D01*
X161246Y-61511D01*
X161149Y-61553D01*
X161055Y-61604D01*
X160966Y-61662D01*
X160881Y-61729D01*
X160801Y-61803D01*
X160244Y-61246D01*
X160319Y-61166D01*
X160385Y-61081D01*
X160443Y-60992D01*
X160494Y-60899D01*
X160537Y-60801D01*
X160571Y-60699D01*
X160598Y-60593D01*
X160617Y-60482D01*
X160627Y-60367D01*
X160630Y-60248D01*
X161799Y-61417D01*
D02*
G37*
G36*
X111276Y-62621D02*
X111208Y-62690D01*
X111059Y-62864D01*
X111027Y-62911D01*
X111003Y-62953D01*
X110988Y-62988D01*
X110983Y-63019D01*
X110986Y-63043D01*
X110998Y-63062D01*
X110278Y-62343D01*
X110297Y-62354D01*
X110322Y-62357D01*
X110352Y-62352D01*
X110388Y-62337D01*
X110429Y-62314D01*
X110476Y-62282D01*
X110528Y-62240D01*
X110650Y-62132D01*
X110719Y-62064D01*
X111276Y-62621D01*
D02*
G37*
G36*
X79276Y-61067D02*
X79365Y-61140D01*
X79456Y-61205D01*
X79550Y-61261D01*
X79647Y-61309D01*
X79746Y-61348D01*
X79848Y-61378D01*
X79952Y-61400D01*
X80059Y-61413D01*
X80169Y-61417D01*
Y-62205D01*
X80059Y-62209D01*
X79952Y-62222D01*
X79848Y-62244D01*
X79746Y-62274D01*
X79647Y-62313D01*
X79550Y-62361D01*
X79456Y-62417D01*
X79365Y-62482D01*
X79276Y-62555D01*
X79190Y-62638D01*
Y-60984D01*
X79276Y-61067D01*
D02*
G37*
G36*
X91556Y-61972D02*
X91661Y-62060D01*
X91759Y-62130D01*
X91852Y-62185D01*
X91940Y-62222D01*
X92021Y-62242D01*
X92097Y-62245D01*
X92167Y-62232D01*
X92231Y-62201D01*
X92290Y-62154D01*
X91176Y-63268D01*
X91223Y-63209D01*
X91254Y-63145D01*
X91267Y-63075D01*
X91264Y-62999D01*
X91244Y-62918D01*
X91206Y-62830D01*
X91152Y-62737D01*
X91082Y-62639D01*
X90994Y-62534D01*
X90889Y-62424D01*
X91446Y-61867D01*
X91556Y-61972D01*
D02*
G37*
G36*
X110714Y-65545D02*
X110157Y-66102D01*
X110088Y-66034D01*
X109913Y-65883D01*
X109866Y-65850D01*
X109825Y-65825D01*
X109790Y-65810D01*
X109760Y-65803D01*
X109736Y-65805D01*
X109718Y-65815D01*
X110351Y-65200D01*
X110714Y-65545D01*
D02*
G37*
G36*
X94221Y-67410D02*
X94191Y-67390D01*
X94152Y-67385D01*
X94105Y-67393D01*
X94049Y-67415D01*
X93984Y-67451D01*
X93911Y-67500D01*
X93830Y-67563D01*
X93641Y-67731D01*
X93534Y-67836D01*
X92977Y-67279D01*
X93082Y-67172D01*
X93313Y-66902D01*
X93362Y-66829D01*
X93398Y-66764D01*
X93420Y-66708D01*
X93428Y-66661D01*
X93423Y-66622D01*
X93403Y-66591D01*
X94221Y-67410D01*
D02*
G37*
G36*
X122321Y-66469D02*
X122657Y-66757D01*
X122718Y-66796D01*
X122769Y-66822D01*
X122812Y-66835D01*
X122846Y-66835D01*
X122870Y-66822D01*
X122052Y-67640D01*
X122077Y-67604D01*
X122088Y-67559D01*
X122085Y-67507D01*
X122067Y-67447D01*
X122035Y-67379D01*
X121988Y-67303D01*
X121927Y-67219D01*
X121852Y-67128D01*
X121658Y-66921D01*
X122214Y-66364D01*
X122321Y-66469D01*
D02*
G37*
G36*
X109505Y-67120D02*
X108948Y-67677D01*
X108842Y-67576D01*
X108742Y-67492D01*
X108648Y-67423D01*
X108559Y-67370D01*
X108475Y-67334D01*
X108398Y-67313D01*
X108326Y-67308D01*
X108259Y-67320D01*
X108198Y-67347D01*
X108143Y-67390D01*
X108959Y-66591D01*
X109505Y-67120D01*
D02*
G37*
G36*
X120923Y-68197D02*
X121098Y-68349D01*
X121144Y-68382D01*
X121186Y-68406D01*
X121221Y-68422D01*
X121251Y-68429D01*
X121274Y-68427D01*
X121293Y-68416D01*
X120660Y-69032D01*
X120297Y-68686D01*
X120854Y-68129D01*
X120923Y-68197D01*
D02*
G37*
G36*
X108132Y-68532D02*
X107576Y-69088D01*
X107467Y-68985D01*
X107364Y-68899D01*
X107267Y-68829D01*
X107176Y-68775D01*
X107090Y-68738D01*
X107011Y-68718D01*
X106937Y-68714D01*
X106868Y-68727D01*
X106806Y-68756D01*
X106749Y-68801D01*
X107567Y-67983D01*
X108132Y-68532D01*
D02*
G37*
G36*
X64301Y-67381D02*
X64273Y-67474D01*
Y-67581D01*
X64301Y-67702D01*
X64358Y-67837D01*
X64444Y-67987D01*
X64558Y-68151D01*
X64700Y-68329D01*
X65071Y-68728D01*
X64358Y-69441D01*
X64151Y-69241D01*
X63781Y-68928D01*
X63617Y-68814D01*
X63467Y-68728D01*
X63332Y-68671D01*
X63211Y-68643D01*
X63104D01*
X63011Y-68671D01*
X62933Y-68728D01*
X64358Y-67303D01*
X64301Y-67381D01*
D02*
G37*
G36*
X135250Y-69736D02*
X135145Y-69844D01*
X134915Y-70114D01*
X134865Y-70187D01*
X134829Y-70251D01*
X134807Y-70307D01*
X134799Y-70355D01*
X134805Y-70394D01*
X134824Y-70424D01*
X134006Y-69606D01*
X134036Y-69625D01*
X134075Y-69631D01*
X134122Y-69622D01*
X134178Y-69600D01*
X134243Y-69565D01*
X134316Y-69515D01*
X134397Y-69452D01*
X134586Y-69284D01*
X134693Y-69180D01*
X135250Y-69736D01*
D02*
G37*
G36*
X52043Y-68767D02*
X52045Y-68778D01*
X52047Y-68808D01*
X52054Y-69261D01*
X52055Y-69775D01*
X51047D01*
X51042Y-69582D01*
X51027Y-69410D01*
X51002Y-69257D01*
X50967Y-69125D01*
X50921Y-69012D01*
X50866Y-68921D01*
X50800Y-68849D01*
X50725Y-68798D01*
X50639Y-68766D01*
X50543Y-68756D01*
X52043Y-68767D01*
D02*
G37*
G36*
X136781Y-71268D02*
X136216Y-71816D01*
X135398Y-70998D01*
X135454Y-71043D01*
X135517Y-71073D01*
X135585Y-71085D01*
X135659Y-71081D01*
X135739Y-71061D01*
X135825Y-71024D01*
X135916Y-70970D01*
X136013Y-70900D01*
X136116Y-70814D01*
X136224Y-70711D01*
X136781Y-71268D01*
D02*
G37*
G36*
X118114Y-70676D02*
X118384Y-70907D01*
X118457Y-70957D01*
X118521Y-70992D01*
X118578Y-71014D01*
X118625Y-71022D01*
X118664Y-71017D01*
X118694Y-70998D01*
X117876Y-71816D01*
X117895Y-71785D01*
X117901Y-71747D01*
X117893Y-71699D01*
X117871Y-71643D01*
X117835Y-71579D01*
X117785Y-71506D01*
X117722Y-71424D01*
X117554Y-71236D01*
X117450Y-71128D01*
X118007Y-70572D01*
X118114Y-70676D01*
D02*
G37*
G36*
X94052Y-72977D02*
X93978Y-73066D01*
X93913Y-73157D01*
X93857Y-73251D01*
X93809Y-73348D01*
X93770Y-73447D01*
X93740Y-73549D01*
X93718Y-73653D01*
X93705Y-73760D01*
X93701Y-73869D01*
X92913D01*
X92909Y-73760D01*
X92896Y-73653D01*
X92874Y-73549D01*
X92844Y-73447D01*
X92805Y-73348D01*
X92757Y-73251D01*
X92701Y-73157D01*
X92636Y-73066D01*
X92563Y-72977D01*
X92480Y-72891D01*
X94134D01*
X94052Y-72977D01*
D02*
G37*
G36*
X110110Y-72114D02*
X110138Y-72120D01*
X110179Y-72126D01*
X110301Y-72136D01*
X110706Y-72145D01*
X110841Y-72146D01*
Y-73721D01*
X110289Y-73750D01*
X110335Y-74114D01*
X108760Y-74715D01*
X108759Y-74581D01*
X108725Y-74105D01*
X108712Y-74048D01*
X108697Y-74005D01*
X108681Y-73974D01*
X108662Y-73956D01*
X110095Y-73586D01*
Y-72106D01*
X110110Y-72114D01*
D02*
G37*
G36*
X93705Y-74180D02*
X93717Y-74316D01*
X93736Y-74435D01*
X93764Y-74539D01*
X93799Y-74627D01*
X93843Y-74699D01*
X93894Y-74755D01*
X93953Y-74795D01*
X94020Y-74819D01*
X94095Y-74827D01*
X92520D01*
X92594Y-74819D01*
X92661Y-74795D01*
X92721Y-74755D01*
X92772Y-74699D01*
X92815Y-74627D01*
X92850Y-74539D01*
X92878Y-74435D01*
X92898Y-74316D01*
X92909Y-74180D01*
X92913Y-74028D01*
X93701D01*
X93705Y-74180D01*
D02*
G37*
G36*
X118146Y-74870D02*
X118087Y-74822D01*
X118024Y-74792D01*
X117954Y-74778D01*
X117879Y-74781D01*
X117798Y-74800D01*
X117712Y-74836D01*
X117620Y-74889D01*
X117522Y-74959D01*
X117419Y-75045D01*
X117311Y-75148D01*
X116754Y-74591D01*
X116857Y-74483D01*
X116943Y-74380D01*
X117013Y-74282D01*
X117066Y-74190D01*
X117102Y-74104D01*
X117122Y-74023D01*
X117124Y-73948D01*
X117110Y-73879D01*
X117080Y-73815D01*
X117032Y-73756D01*
X118146Y-74870D01*
D02*
G37*
G36*
X54747Y-74303D02*
X55119Y-74619D01*
X55284Y-74734D01*
X55433Y-74821D01*
X55569Y-74879D01*
X55690Y-74909D01*
X55796Y-74910D01*
X55888Y-74883D01*
X55965Y-74827D01*
X54552Y-76240D01*
X54607Y-76163D01*
X54635Y-76071D01*
X54633Y-75965D01*
X54604Y-75844D01*
X54546Y-75709D01*
X54459Y-75559D01*
X54344Y-75395D01*
X54200Y-75216D01*
X53827Y-74815D01*
X54540Y-74102D01*
X54747Y-74303D01*
D02*
G37*
G36*
X110290Y-74922D02*
X110967Y-75508D01*
X111052Y-75559D01*
X111121Y-75588D01*
X111172Y-75595D01*
X111206Y-75580D01*
X109832Y-76955D01*
X109847Y-76920D01*
X109840Y-76869D01*
X109811Y-76800D01*
X109760Y-76715D01*
X109687Y-76613D01*
X109591Y-76495D01*
X109174Y-76038D01*
X108991Y-75852D01*
X110104Y-74739D01*
X110290Y-74922D01*
D02*
G37*
G36*
X115435Y-78694D02*
X115330Y-78805D01*
X115243Y-78909D01*
X115172Y-79008D01*
X115118Y-79101D01*
X115080Y-79188D01*
X115060Y-79269D01*
X115057Y-79345D01*
X115070Y-79415D01*
X115101Y-79479D01*
X115148Y-79538D01*
X114034Y-78425D01*
X114093Y-78472D01*
X114157Y-78502D01*
X114227Y-78516D01*
X114303Y-78512D01*
X114385Y-78492D01*
X114472Y-78455D01*
X114565Y-78401D01*
X114664Y-78330D01*
X114768Y-78242D01*
X114878Y-78138D01*
X115435Y-78694D01*
D02*
G37*
G36*
X64301Y-77381D02*
X64273Y-77474D01*
Y-77581D01*
X64301Y-77702D01*
X64358Y-77837D01*
X64444Y-77987D01*
X64558Y-78151D01*
X64700Y-78329D01*
X65071Y-78728D01*
X64358Y-79441D01*
X64151Y-79241D01*
X63781Y-78928D01*
X63617Y-78814D01*
X63467Y-78728D01*
X63332Y-78671D01*
X63211Y-78643D01*
X63104D01*
X63011Y-78671D01*
X62933Y-78728D01*
X64358Y-77303D01*
X64301Y-77381D01*
D02*
G37*
G36*
X118917Y-77990D02*
X118886Y-78054D01*
X118872Y-78124D01*
X118875Y-78199D01*
X118895Y-78280D01*
X118931Y-78366D01*
X118984Y-78458D01*
X118997Y-78477D01*
X119016Y-78491D01*
X119109Y-78545D01*
X119196Y-78582D01*
X119278Y-78602D01*
X119354Y-78605D01*
X119424Y-78592D01*
X119488Y-78562D01*
X119546Y-78514D01*
X118433Y-79628D01*
X118480Y-79569D01*
X118510Y-79505D01*
X118524Y-79435D01*
X118521Y-79359D01*
X118500Y-79278D01*
X118463Y-79190D01*
X118409Y-79097D01*
X118395Y-79078D01*
X118377Y-79065D01*
X118285Y-79012D01*
X118199Y-78976D01*
X118118Y-78956D01*
X118043Y-78954D01*
X117973Y-78968D01*
X117909Y-78998D01*
X117851Y-79045D01*
X118964Y-77932D01*
X118917Y-77990D01*
D02*
G37*
G36*
X52043Y-78768D02*
X52045Y-78778D01*
X52047Y-78808D01*
X52054Y-79261D01*
X52055Y-79775D01*
X51047D01*
X51042Y-79582D01*
X51027Y-79409D01*
X51002Y-79257D01*
X50967Y-79125D01*
X50921Y-79013D01*
X50866Y-78921D01*
X50800Y-78849D01*
X50725Y-78798D01*
X50639Y-78766D01*
X50543Y-78755D01*
X52043Y-78768D01*
D02*
G37*
G36*
X117302Y-79594D02*
X116842Y-80071D01*
X116285Y-79515D01*
X116374Y-79422D01*
X116510Y-79255D01*
X116559Y-79180D01*
X116594Y-79110D01*
X116616Y-79046D01*
X116625Y-78987D01*
X116621Y-78935D01*
X116603Y-78888D01*
X116572Y-78846D01*
X117302Y-79594D01*
D02*
G37*
G36*
X118694Y-80986D02*
X118642Y-80944D01*
X118583Y-80919D01*
X118518Y-80910D01*
X118447Y-80917D01*
X118370Y-80940D01*
X118287Y-80979D01*
X118197Y-81034D01*
X118101Y-81105D01*
X117999Y-81192D01*
X117930Y-81258D01*
X117860Y-81331D01*
X117774Y-81435D01*
X117704Y-81532D01*
X117652Y-81624D01*
X117615Y-81710D01*
X117596Y-81791D01*
X117593Y-81866D01*
X117607Y-81936D01*
X117638Y-82000D01*
X117685Y-82058D01*
X116976Y-81349D01*
X115391D01*
X115494Y-81215D01*
X115845Y-80697D01*
X115882Y-80624D01*
X115909Y-80561D01*
X115926Y-80509D01*
X115931Y-80466D01*
X116718D01*
X116724Y-80509D01*
X116740Y-80561D01*
X116767Y-80624D01*
X116805Y-80697D01*
X116913Y-80874D01*
X116990Y-80985D01*
X117006Y-80978D01*
X117098Y-80925D01*
X117195Y-80855D01*
X117298Y-80769D01*
X117369Y-80701D01*
X117876Y-80168D01*
X118694Y-80986D01*
D02*
G37*
G36*
X106267Y-81890D02*
X106120Y-81893D01*
X105988Y-81905D01*
X105871Y-81923D01*
X105770Y-81950D01*
X105684Y-81983D01*
X105614Y-82024D01*
X105560Y-82073D01*
X105520Y-82129D01*
X105496Y-82192D01*
X105488Y-82263D01*
X105500Y-81114D01*
X105508Y-81112D01*
X105531Y-81110D01*
X105692Y-81105D01*
X106267Y-81102D01*
Y-81890D01*
D02*
G37*
G36*
X91363Y-82459D02*
X91355Y-82394D01*
X91332Y-82337D01*
X91294Y-82286D01*
X91242Y-82242D01*
X91175Y-82205D01*
X91093Y-82174D01*
X90997Y-82151D01*
X90886Y-82134D01*
X90759Y-82124D01*
X90619Y-82120D01*
Y-81333D01*
X90758Y-81331D01*
X90992Y-81313D01*
X91087Y-81298D01*
X91168Y-81278D01*
X91233Y-81254D01*
X91285Y-81226D01*
X91321Y-81193D01*
X91343Y-81156D01*
X91351Y-81114D01*
X91363Y-82459D01*
D02*
G37*
G36*
X87421Y-78756D02*
X87086Y-78874D01*
X86791Y-79072D01*
X86535Y-79348D01*
X86319Y-79703D01*
X86142Y-80138D01*
X86004Y-80651D01*
X85905Y-81243D01*
X85859Y-81772D01*
X85905Y-82300D01*
X86004Y-82892D01*
X86142Y-83406D01*
X86319Y-83840D01*
X86535Y-84195D01*
X86791Y-84472D01*
X87086Y-84669D01*
X87421Y-84788D01*
X87795Y-84827D01*
X79921D01*
X80295Y-84788D01*
X80630Y-84669D01*
X80925Y-84472D01*
X81181Y-84195D01*
X81397Y-83840D01*
X81575Y-83406D01*
X81713Y-82892D01*
X81811Y-82300D01*
X81857Y-81772D01*
X81811Y-81243D01*
X81713Y-80651D01*
X81575Y-80138D01*
X81397Y-79703D01*
X81181Y-79348D01*
X80925Y-79072D01*
X80630Y-78874D01*
X80295Y-78756D01*
X79921Y-78716D01*
X87795D01*
X87421Y-78756D01*
D02*
G37*
G36*
X144040Y-83311D02*
X144129Y-83384D01*
X144220Y-83449D01*
X144314Y-83505D01*
X144411Y-83553D01*
X144510Y-83592D01*
X144612Y-83622D01*
X144716Y-83644D01*
X144823Y-83657D01*
X144932Y-83661D01*
Y-84449D01*
X144823Y-84453D01*
X144716Y-84466D01*
X144612Y-84488D01*
X144510Y-84518D01*
X144411Y-84557D01*
X144314Y-84605D01*
X144220Y-84661D01*
X144129Y-84726D01*
X144040Y-84800D01*
X143954Y-84882D01*
Y-83228D01*
X144040Y-83311D01*
D02*
G37*
G36*
X118190Y-85296D02*
X118195Y-85292D01*
X118274Y-85218D01*
X118861Y-85745D01*
X118786Y-85826D01*
X118757Y-85864D01*
X119028Y-86134D01*
X118970Y-86087D01*
X118906Y-86057D01*
X118836Y-86043D01*
X118760Y-86047D01*
X118678Y-86067D01*
X118614Y-86095D01*
X118573Y-86191D01*
X118542Y-86293D01*
X118519Y-86399D01*
X118505Y-86508D01*
X118499Y-86622D01*
X118502Y-86739D01*
X117275Y-85631D01*
X117395Y-85622D01*
X117511Y-85606D01*
X117622Y-85583D01*
X117728Y-85553D01*
X117831Y-85515D01*
X117928Y-85470D01*
X117943Y-85462D01*
X117945Y-85458D01*
X117982Y-85371D01*
X118003Y-85290D01*
X118006Y-85214D01*
X117992Y-85144D01*
X117962Y-85079D01*
X117915Y-85021D01*
X118190Y-85296D01*
D02*
G37*
G36*
X54747Y-84303D02*
X55119Y-84619D01*
X55284Y-84734D01*
X55433Y-84821D01*
X55569Y-84879D01*
X55690Y-84909D01*
X55796Y-84910D01*
X55888Y-84883D01*
X55965Y-84827D01*
X54552Y-86241D01*
X54607Y-86163D01*
X54635Y-86071D01*
X54633Y-85965D01*
X54604Y-85844D01*
X54546Y-85709D01*
X54459Y-85559D01*
X54344Y-85395D01*
X54200Y-85216D01*
X53827Y-84815D01*
X54540Y-84102D01*
X54747Y-84303D01*
D02*
G37*
G36*
X109758Y-86611D02*
X109640Y-86607D01*
X109527Y-86611D01*
X109418Y-86625D01*
X109312Y-86647D01*
X109211Y-86678D01*
X109114Y-86718D01*
X109020Y-86766D01*
X108931Y-86824D01*
X108846Y-86890D01*
X108764Y-86965D01*
X108244Y-86371D01*
X108318Y-86292D01*
X108385Y-86207D01*
X108444Y-86119D01*
X108497Y-86026D01*
X108542Y-85928D01*
X108581Y-85826D01*
X108612Y-85719D01*
X108636Y-85608D01*
X108653Y-85492D01*
X108663Y-85372D01*
X109758Y-86611D01*
D02*
G37*
G36*
X130655Y-85739D02*
X130672Y-85753D01*
X130737Y-85813D01*
X131179Y-86249D01*
X130622Y-86806D01*
X130519Y-86708D01*
X130422Y-86625D01*
X130331Y-86558D01*
X130245Y-86506D01*
X130164Y-86470D01*
X130090Y-86449D01*
X130021Y-86444D01*
X129957Y-86453D01*
X129899Y-86479D01*
X129847Y-86519D01*
X130648Y-85735D01*
X130655Y-85739D01*
D02*
G37*
G36*
X125652Y-85175D02*
X125621Y-85239D01*
X125607Y-85309D01*
X125610Y-85384D01*
X125629Y-85465D01*
X125665Y-85551D01*
X125714Y-85636D01*
X125721Y-85640D01*
X125814Y-85691D01*
X125912Y-85733D01*
X126014Y-85768D01*
X126120Y-85795D01*
X126231Y-85813D01*
X126345Y-85824D01*
X126465Y-85827D01*
X125295Y-86996D01*
X125293Y-86877D01*
X125282Y-86762D01*
X125263Y-86651D01*
X125236Y-86545D01*
X125202Y-86443D01*
X125159Y-86346D01*
X125109Y-86252D01*
X125105Y-86246D01*
X125020Y-86197D01*
X124933Y-86161D01*
X124853Y-86141D01*
X124777Y-86138D01*
X124708Y-86152D01*
X124644Y-86183D01*
X124585Y-86230D01*
X125699Y-85117D01*
X125652Y-85175D01*
D02*
G37*
G36*
X103925Y-88496D02*
X103774Y-88500D01*
X103639Y-88512D01*
X103519Y-88532D01*
X103415Y-88559D01*
X103327Y-88595D01*
X103255Y-88638D01*
X103199Y-88689D01*
X103159Y-88748D01*
X103134Y-88815D01*
X103126Y-88890D01*
X103138Y-87721D01*
X103146Y-87718D01*
X103169Y-87716D01*
X103334Y-87712D01*
X103925Y-87709D01*
Y-88496D01*
D02*
G37*
G36*
X64301Y-87381D02*
X64273Y-87474D01*
Y-87581D01*
X64301Y-87702D01*
X64358Y-87837D01*
X64444Y-87987D01*
X64558Y-88151D01*
X64700Y-88329D01*
X65071Y-88728D01*
X64358Y-89441D01*
X64151Y-89241D01*
X63781Y-88928D01*
X63617Y-88814D01*
X63467Y-88728D01*
X63332Y-88671D01*
X63211Y-88643D01*
X63104D01*
X63011Y-88671D01*
X62933Y-88728D01*
X64358Y-87303D01*
X64301Y-87381D01*
D02*
G37*
G36*
X52043Y-88767D02*
X52045Y-88778D01*
X52047Y-88808D01*
X52054Y-89261D01*
X52055Y-89775D01*
X51047D01*
X51042Y-89582D01*
X51027Y-89410D01*
X51002Y-89257D01*
X50967Y-89125D01*
X50921Y-89012D01*
X50866Y-88921D01*
X50800Y-88849D01*
X50725Y-88798D01*
X50639Y-88766D01*
X50543Y-88756D01*
X52043Y-88767D01*
D02*
G37*
G36*
X194095Y-90551D02*
X173228D01*
Y-69291D01*
X194095D01*
Y-90551D01*
D02*
G37*
G36*
X101542Y-89895D02*
X101560Y-90071D01*
X101592Y-90247D01*
X101635Y-90420D01*
X101691Y-90592D01*
X101760Y-90762D01*
X101841Y-90931D01*
X101934Y-91098D01*
X102040Y-91264D01*
X102158Y-91427D01*
X101979D01*
X102030Y-91509D01*
X102146Y-91668D01*
X100137D01*
X100253Y-91509D01*
X100304Y-91427D01*
X100125D01*
X100243Y-91264D01*
X100349Y-91098D01*
X100443Y-90931D01*
X100524Y-90762D01*
X100592Y-90592D01*
X100648Y-90420D01*
X100692Y-90247D01*
X100723Y-90071D01*
X100742Y-89895D01*
X100748Y-89717D01*
X101535D01*
X101542Y-89895D01*
D02*
G37*
G36*
X99158Y-94035D02*
X99132Y-93792D01*
X99055Y-93574D01*
X98927Y-93383D01*
X98747Y-93216D01*
X98515Y-93075D01*
X98232Y-92960D01*
X97898Y-92871D01*
X97512Y-92807D01*
X97075Y-92768D01*
X96587Y-92756D01*
Y-90196D01*
X97075Y-90184D01*
X97512Y-90145D01*
X97898Y-90081D01*
X98232Y-89992D01*
X98515Y-89877D01*
X98747Y-89736D01*
X98927Y-89569D01*
X99055Y-89377D01*
X99132Y-89160D01*
X99158Y-88917D01*
Y-94035D01*
D02*
G37*
G36*
X85051Y-92904D02*
X85087Y-93308D01*
X85145Y-93664D01*
X85228Y-93972D01*
X85334Y-94234D01*
X85464Y-94447D01*
X85618Y-94613D01*
X85795Y-94732D01*
X85996Y-94803D01*
X86220Y-94827D01*
X81496D01*
X81720Y-94803D01*
X81921Y-94732D01*
X82098Y-94613D01*
X82252Y-94447D01*
X82382Y-94234D01*
X82488Y-93972D01*
X82571Y-93664D01*
X82630Y-93308D01*
X82665Y-92904D01*
X82677Y-92453D01*
X85039D01*
X85051Y-92904D01*
D02*
G37*
G36*
X54747Y-94303D02*
X55119Y-94619D01*
X55284Y-94734D01*
X55433Y-94821D01*
X55569Y-94879D01*
X55690Y-94909D01*
X55796Y-94910D01*
X55888Y-94883D01*
X55965Y-94827D01*
X54552Y-96241D01*
X54607Y-96163D01*
X54635Y-96071D01*
X54633Y-95965D01*
X54604Y-95844D01*
X54546Y-95709D01*
X54459Y-95559D01*
X54344Y-95395D01*
X54200Y-95216D01*
X53827Y-94815D01*
X54540Y-94103D01*
X54747Y-94303D01*
D02*
G37*
G36*
X133165Y-89461D02*
X133283Y-89795D01*
X133481Y-90091D01*
X133757Y-90346D01*
X134113Y-90563D01*
X134547Y-90740D01*
X135061Y-90878D01*
X135653Y-90976D01*
X136324Y-91035D01*
X137075Y-91055D01*
Y-94992D01*
X136324Y-95012D01*
X135653Y-95071D01*
X135061Y-95169D01*
X134547Y-95307D01*
X134113Y-95484D01*
X133757Y-95701D01*
X133481Y-95957D01*
X133283Y-96252D01*
X133165Y-96587D01*
X133126Y-96961D01*
Y-89087D01*
X133165Y-89461D01*
D02*
G37*
G36*
X41437Y-98768D02*
X41412Y-98631D01*
X41335Y-98510D01*
X41207Y-98402D01*
X41028Y-98309D01*
X40797Y-98230D01*
X40516Y-98166D01*
X40183Y-98116D01*
X39799Y-98080D01*
X38878Y-98051D01*
Y-95492D01*
X39364Y-95485D01*
X40183Y-95428D01*
X40516Y-95377D01*
X40797Y-95313D01*
X41028Y-95234D01*
X41207Y-95141D01*
X41335Y-95034D01*
X41412Y-94912D01*
X41437Y-94776D01*
Y-98768D01*
D02*
G37*
G36*
X123074Y-96892D02*
X123050Y-96987D01*
X123053Y-97096D01*
X123084Y-97218D01*
X123143Y-97353D01*
X123229Y-97503D01*
X123343Y-97666D01*
X123484Y-97842D01*
X123850Y-98236D01*
X123228Y-99039D01*
X123016Y-98835D01*
X122639Y-98513D01*
X122473Y-98396D01*
X122323Y-98309D01*
X122188Y-98252D01*
X122069Y-98223D01*
X121965Y-98224D01*
X121876Y-98255D01*
X121803Y-98315D01*
X123126Y-96811D01*
X123074Y-96892D01*
D02*
G37*
G36*
X113081Y-96980D02*
X113052Y-97072D01*
Y-97179D01*
X113081Y-97300D01*
X113138Y-97436D01*
X113223Y-97585D01*
X113337Y-97749D01*
X113480Y-97927D01*
X113850Y-98327D01*
X113138Y-99039D01*
X112931Y-98840D01*
X112560Y-98526D01*
X112396Y-98412D01*
X112247Y-98327D01*
X112111Y-98270D01*
X111990Y-98241D01*
X111883D01*
X111791Y-98270D01*
X111712Y-98327D01*
X113138Y-96901D01*
X113081Y-96980D01*
D02*
G37*
G36*
X219089Y-107193D02*
X219049Y-107252D01*
X219013Y-107320D01*
X218983Y-107396D01*
X218957Y-107481D01*
X218935Y-107573D01*
X218919Y-107675D01*
X218907Y-107785D01*
X218898Y-108031D01*
X217717D01*
X217714Y-107904D01*
X217695Y-107675D01*
X217679Y-107573D01*
X217657Y-107481D01*
X217632Y-107396D01*
X217601Y-107320D01*
X217565Y-107252D01*
X217525Y-107193D01*
X217480Y-107143D01*
X219134D01*
X219089Y-107193D01*
D02*
G37*
G36*
X216628Y-107292D02*
X216588Y-107351D01*
X216553Y-107418D01*
X216522Y-107494D01*
X216496Y-107579D01*
X216475Y-107672D01*
X216458Y-107773D01*
X216449Y-107861D01*
X216461Y-107995D01*
X216490Y-108174D01*
X216531Y-108329D01*
X216585Y-108460D01*
X216650Y-108567D01*
X216726Y-108651D01*
X216815Y-108711D01*
X216915Y-108747D01*
X217028Y-108760D01*
X215248Y-108748D01*
X215250Y-108736D01*
X215251Y-108701D01*
X215254Y-108022D01*
X215253Y-108002D01*
X215235Y-107773D01*
X215218Y-107672D01*
X215197Y-107579D01*
X215171Y-107494D01*
X215140Y-107418D01*
X215105Y-107351D01*
X215065Y-107292D01*
X215020Y-107241D01*
X216673D01*
X216628Y-107292D01*
D02*
G37*
G36*
X202406Y-108113D02*
X202417Y-108248D01*
X202437Y-108368D01*
X202465Y-108472D01*
X202500Y-108560D01*
X202543Y-108632D01*
X202594Y-108688D01*
X202654Y-108728D01*
X202720Y-108752D01*
X202795Y-108760D01*
X201220D01*
X201295Y-108752D01*
X201362Y-108728D01*
X201421Y-108688D01*
X201472Y-108632D01*
X201516Y-108560D01*
X201551Y-108472D01*
X201579Y-108368D01*
X201598Y-108248D01*
X201610Y-108113D01*
X201614Y-107961D01*
X202401D01*
X202406Y-108113D01*
D02*
G37*
G36*
X197406D02*
X197417Y-108248D01*
X197437Y-108368D01*
X197465Y-108472D01*
X197500Y-108560D01*
X197543Y-108632D01*
X197594Y-108688D01*
X197653Y-108728D01*
X197720Y-108752D01*
X197795Y-108760D01*
X196220D01*
X196295Y-108752D01*
X196362Y-108728D01*
X196421Y-108688D01*
X196472Y-108632D01*
X196516Y-108560D01*
X196551Y-108472D01*
X196579Y-108368D01*
X196598Y-108248D01*
X196610Y-108113D01*
X196614Y-107961D01*
X197401D01*
X197406Y-108113D01*
D02*
G37*
G36*
X157517Y-107934D02*
X157532Y-108107D01*
X157557Y-108260D01*
X157592Y-108393D01*
X157638Y-108505D01*
X157693Y-108597D01*
X157759Y-108668D01*
X157834Y-108719D01*
X157920Y-108750D01*
X158016Y-108760D01*
X156000D01*
X156096Y-108750D01*
X156181Y-108719D01*
X156257Y-108668D01*
X156323Y-108597D01*
X156378Y-108505D01*
X156423Y-108393D01*
X156458Y-108260D01*
X156484Y-108107D01*
X156499Y-107934D01*
X156504Y-107740D01*
X157512D01*
X157517Y-107934D01*
D02*
G37*
G36*
X218779Y-109758D02*
X218815Y-109858D01*
X218874Y-109947D01*
X218956Y-110024D01*
X219063Y-110089D01*
X219193Y-110142D01*
X219254Y-110158D01*
X219277Y-110151D01*
X219353Y-110120D01*
X219421Y-110085D01*
X219480Y-110045D01*
X219531Y-110000D01*
Y-110213D01*
X219724Y-110230D01*
X219949Y-110236D01*
Y-111417D01*
X219724Y-111423D01*
X219531Y-111440D01*
Y-111653D01*
X219480Y-111609D01*
X219421Y-111568D01*
X219353Y-111533D01*
X219277Y-111502D01*
X219254Y-111495D01*
X219193Y-111512D01*
X219063Y-111565D01*
X218956Y-111630D01*
X218874Y-111707D01*
X218815Y-111795D01*
X218779Y-111896D01*
X218767Y-112008D01*
Y-111422D01*
X218642Y-111417D01*
Y-110236D01*
X218767Y-110234D01*
Y-109646D01*
X218779Y-109758D01*
D02*
G37*
G36*
X148858Y-111867D02*
X148797Y-111933D01*
X148742Y-112006D01*
X148694Y-112084D01*
X148652Y-112168D01*
X148616Y-112259D01*
X148587Y-112355D01*
X148565Y-112457D01*
X148548Y-112566D01*
X148539Y-112680D01*
X148535Y-112801D01*
X147528Y-112801D01*
X147524Y-112680D01*
X147515Y-112566D01*
X147499Y-112457D01*
X147476Y-112355D01*
X147447Y-112259D01*
X147411Y-112168D01*
X147369Y-112084D01*
X147321Y-112006D01*
X147266Y-111933D01*
X147205Y-111867D01*
X148858Y-111867D01*
D02*
G37*
G36*
X148540Y-113566D02*
X148554Y-113737D01*
X148578Y-113888D01*
X148610Y-114019D01*
X148653Y-114130D01*
X148704Y-114221D01*
X148765Y-114291D01*
X148835Y-114342D01*
X148915Y-114372D01*
X149004Y-114382D01*
X147059D01*
X147148Y-114372D01*
X147228Y-114342D01*
X147298Y-114291D01*
X147359Y-114221D01*
X147411Y-114130D01*
X147453Y-114019D01*
X147485Y-113888D01*
X147509Y-113737D01*
X147523Y-113566D01*
X147528Y-113374D01*
X148535D01*
X148540Y-113566D01*
D02*
G37*
G36*
X143122Y-116327D02*
X143110Y-116254D01*
X143075Y-116189D01*
X143016Y-116132D01*
X142933Y-116082D01*
X142827Y-116040D01*
X142697Y-116006D01*
X142543Y-115979D01*
X142378Y-115961D01*
X142321Y-115966D01*
X142219Y-115983D01*
X142126Y-116004D01*
X142042Y-116030D01*
X141965Y-116061D01*
X141898Y-116096D01*
X141839Y-116136D01*
X141788Y-116181D01*
Y-114528D01*
X141839Y-114572D01*
X141898Y-114613D01*
X141965Y-114648D01*
X142042Y-114679D01*
X142126Y-114705D01*
X142219Y-114726D01*
X142321Y-114743D01*
X142347Y-114745D01*
X142543Y-114729D01*
X142697Y-114703D01*
X142827Y-114668D01*
X142933Y-114626D01*
X143016Y-114577D01*
X143075Y-114520D01*
X143110Y-114455D01*
X143122Y-114382D01*
Y-116327D01*
D02*
G37*
G36*
X151556Y-114171D02*
X151541Y-114189D01*
X151529Y-114219D01*
X151518Y-114261D01*
X151509Y-114315D01*
X151502Y-114381D01*
X151491Y-114548D01*
X151488Y-114764D01*
X150480D01*
X150479Y-114650D01*
X150450Y-114261D01*
X150440Y-114219D01*
X150427Y-114189D01*
X150413Y-114171D01*
X150397Y-114165D01*
X151571D01*
X151556Y-114171D01*
D02*
G37*
G36*
X212920Y-114175D02*
X212834Y-114206D01*
X212759Y-114257D01*
X212693Y-114328D01*
X212638Y-114420D01*
X212592Y-114532D01*
X212557Y-114664D01*
X212532Y-114818D01*
X212517Y-114991D01*
X212512Y-115185D01*
X211504D01*
X211499Y-114991D01*
X211484Y-114818D01*
X211458Y-114664D01*
X211423Y-114532D01*
X211378Y-114420D01*
X211322Y-114328D01*
X211257Y-114257D01*
X211181Y-114206D01*
X211096Y-114175D01*
X211000Y-114165D01*
X213016D01*
X212920Y-114175D01*
D02*
G37*
G36*
X207920D02*
X207834Y-114206D01*
X207759Y-114257D01*
X207693Y-114328D01*
X207638Y-114420D01*
X207592Y-114532D01*
X207557Y-114664D01*
X207532Y-114818D01*
X207517Y-114991D01*
X207512Y-115185D01*
X206504D01*
X206499Y-114991D01*
X206484Y-114818D01*
X206458Y-114664D01*
X206423Y-114532D01*
X206378Y-114420D01*
X206323Y-114328D01*
X206257Y-114257D01*
X206181Y-114206D01*
X206096Y-114175D01*
X206000Y-114165D01*
X208016D01*
X207920Y-114175D01*
D02*
G37*
G36*
X192920D02*
X192834Y-114206D01*
X192759Y-114257D01*
X192693Y-114328D01*
X192638Y-114420D01*
X192592Y-114532D01*
X192557Y-114664D01*
X192532Y-114818D01*
X192517Y-114991D01*
X192512Y-115185D01*
X191504D01*
X191499Y-114991D01*
X191484Y-114818D01*
X191458Y-114664D01*
X191423Y-114532D01*
X191378Y-114420D01*
X191323Y-114328D01*
X191257Y-114257D01*
X191181Y-114206D01*
X191096Y-114175D01*
X191000Y-114165D01*
X193016D01*
X192920Y-114175D01*
D02*
G37*
G36*
X182920D02*
X182834Y-114206D01*
X182759Y-114257D01*
X182693Y-114328D01*
X182638Y-114420D01*
X182592Y-114532D01*
X182557Y-114664D01*
X182532Y-114818D01*
X182517Y-114991D01*
X182512Y-115185D01*
X181504D01*
X181499Y-114991D01*
X181484Y-114818D01*
X181458Y-114664D01*
X181423Y-114532D01*
X181378Y-114420D01*
X181323Y-114328D01*
X181257Y-114257D01*
X181181Y-114206D01*
X181096Y-114175D01*
X181000Y-114165D01*
X183016D01*
X182920Y-114175D01*
D02*
G37*
G36*
X167920D02*
X167834Y-114206D01*
X167759Y-114257D01*
X167693Y-114328D01*
X167638Y-114420D01*
X167592Y-114532D01*
X167557Y-114664D01*
X167532Y-114818D01*
X167517Y-114991D01*
X167512Y-115185D01*
X166504D01*
X166499Y-114991D01*
X166484Y-114818D01*
X166458Y-114664D01*
X166423Y-114532D01*
X166378Y-114420D01*
X166323Y-114328D01*
X166257Y-114257D01*
X166181Y-114206D01*
X166096Y-114175D01*
X166000Y-114165D01*
X168016D01*
X167920Y-114175D01*
D02*
G37*
G36*
X157594Y-114092D02*
X157600Y-114165D01*
X158095D01*
X157999Y-114175D01*
X157913Y-114206D01*
X157837Y-114257D01*
X157772Y-114328D01*
X157717Y-114420D01*
X157675Y-114523D01*
X157707Y-114603D01*
X157749Y-114688D01*
X157797Y-114766D01*
X157852Y-114838D01*
X157913Y-114905D01*
X157603D01*
X157596Y-114991D01*
X157591Y-115185D01*
X156583D01*
X156578Y-114991D01*
X156570Y-114905D01*
X156260D01*
X156321Y-114838D01*
X156376Y-114766D01*
X156424Y-114688D01*
X156466Y-114603D01*
X156498Y-114523D01*
X156457Y-114420D01*
X156401Y-114328D01*
X156336Y-114257D01*
X156260Y-114206D01*
X156175Y-114175D01*
X156079Y-114165D01*
X156573D01*
X156579Y-114092D01*
X156583Y-113971D01*
X157591D01*
X157594Y-114092D01*
D02*
G37*
G36*
X149014Y-114471D02*
X149044Y-114551D01*
X149094Y-114621D01*
X149165Y-114682D01*
X149256Y-114733D01*
X149367Y-114776D01*
X149498Y-114808D01*
X149649Y-114832D01*
X149820Y-114846D01*
X150012Y-114850D01*
Y-115858D01*
X149820Y-115863D01*
X149649Y-115877D01*
X149498Y-115900D01*
X149367Y-115933D01*
X149256Y-115975D01*
X149165Y-116027D01*
X149094Y-116088D01*
X149044Y-116158D01*
X149014Y-116238D01*
X149004Y-116327D01*
Y-114382D01*
X149014Y-114471D01*
D02*
G37*
G36*
X162271Y-114092D02*
X162279Y-114165D01*
X162693D01*
X162612Y-114174D01*
X162539Y-114203D01*
X162474Y-114250D01*
X162418Y-114316D01*
X162371Y-114401D01*
X162335Y-114498D01*
X162378Y-114653D01*
X162442Y-114828D01*
X162520Y-114997D01*
X162613Y-115160D01*
X162720Y-115317D01*
X162806Y-115424D01*
X162897Y-115499D01*
X162984Y-115559D01*
X163072Y-115611D01*
X163159Y-115655D01*
X163247Y-115692D01*
X163335Y-115720D01*
X163423Y-115741D01*
X163511Y-115755D01*
X162214Y-116781D01*
X162220Y-116692D01*
X162217Y-116602D01*
X162203Y-116513D01*
X162180Y-116424D01*
X162147Y-116336D01*
X162115Y-116271D01*
X162045Y-116236D01*
X161902Y-116193D01*
X161760Y-116179D01*
X161617Y-116193D01*
X161475Y-116236D01*
X161332Y-116307D01*
X161190Y-116407D01*
X161047Y-116535D01*
X160543Y-115614D01*
X160679Y-115469D01*
X160800Y-115317D01*
X160907Y-115160D01*
X160999Y-114997D01*
X161078Y-114828D01*
X161142Y-114653D01*
X161185Y-114498D01*
X161149Y-114401D01*
X161101Y-114316D01*
X161046Y-114250D01*
X160981Y-114203D01*
X160908Y-114174D01*
X160827Y-114165D01*
X161241D01*
X161249Y-114092D01*
X161256Y-113894D01*
X162264D01*
X162271Y-114092D01*
D02*
G37*
G36*
X172748Y-130327D02*
X172547Y-130535D01*
X172231Y-130907D01*
X172116Y-131071D01*
X172029Y-131221D01*
X171971Y-131356D01*
X171941Y-131477D01*
X171940Y-131583D01*
X171967Y-131675D01*
X172023Y-131752D01*
X170610Y-130339D01*
X170687Y-130395D01*
X170779Y-130422D01*
X170885Y-130421D01*
X171006Y-130391D01*
X171141Y-130333D01*
X171291Y-130246D01*
X171456Y-130131D01*
X171634Y-129987D01*
X172035Y-129614D01*
X172748Y-130327D01*
D02*
G37*
G36*
X147059Y-130721D02*
X146858Y-130928D01*
X146542Y-131300D01*
X146427Y-131465D01*
X146340Y-131614D01*
X146282Y-131750D01*
X146252Y-131871D01*
X146251Y-131977D01*
X146278Y-132069D01*
X146334Y-132146D01*
X144921Y-130733D01*
X144998Y-130789D01*
X145090Y-130816D01*
X145196Y-130815D01*
X145317Y-130785D01*
X145452Y-130727D01*
X145602Y-130640D01*
X145766Y-130525D01*
X145945Y-130381D01*
X146346Y-130008D01*
X147059Y-130721D01*
D02*
G37*
G36*
X141067Y-132898D02*
X141057Y-132802D01*
X141026Y-132716D01*
X140975Y-132641D01*
X140904Y-132575D01*
X140812Y-132520D01*
X140700Y-132474D01*
X140568Y-132439D01*
X140415Y-132414D01*
X140241Y-132399D01*
X140223Y-132398D01*
X140125Y-132407D01*
X140016Y-132423D01*
X139914Y-132445D01*
X139818Y-132474D01*
X139727Y-132510D01*
X139643Y-132552D01*
X139565Y-132600D01*
X139492Y-132655D01*
X139426Y-132717D01*
Y-131063D01*
X139492Y-131124D01*
X139565Y-131179D01*
X139643Y-131228D01*
X139727Y-131270D01*
X139818Y-131305D01*
X139914Y-131334D01*
X140016Y-131357D01*
X140125Y-131373D01*
X140223Y-131381D01*
X140241Y-131381D01*
X140415Y-131366D01*
X140568Y-131341D01*
X140700Y-131305D01*
X140812Y-131260D01*
X140904Y-131204D01*
X140975Y-131139D01*
X141026Y-131063D01*
X141057Y-130978D01*
X141067Y-130882D01*
Y-132898D01*
D02*
G37*
G36*
X201185Y-130023D02*
X201197Y-130113D01*
X201218Y-130203D01*
X201248Y-130292D01*
X201287Y-130381D01*
X201334Y-130470D01*
X201391Y-130558D01*
X201456Y-130646D01*
X201530Y-130734D01*
X201613Y-130821D01*
X200900Y-131534D01*
X200813Y-131451D01*
X200725Y-131377D01*
X200637Y-131312D01*
X200549Y-131255D01*
X200460Y-131208D01*
X200371Y-131169D01*
X200282Y-131139D01*
X200192Y-131118D01*
X200102Y-131106D01*
X200012Y-131102D01*
X201181Y-129933D01*
X201185Y-130023D01*
D02*
G37*
G36*
X155337Y-129814D02*
X155707Y-130127D01*
X155871Y-130241D01*
X156021Y-130327D01*
X156156Y-130384D01*
X156278Y-130412D01*
X156384D01*
X156477Y-130384D01*
X156555Y-130327D01*
X155130Y-131752D01*
X155187Y-131674D01*
X155216Y-131581D01*
Y-131474D01*
X155187Y-131353D01*
X155130Y-131218D01*
X155045Y-131068D01*
X154931Y-130904D01*
X154788Y-130726D01*
X154418Y-130327D01*
X155130Y-129614D01*
X155337Y-129814D01*
D02*
G37*
G36*
X203075Y-132307D02*
X203065Y-132211D01*
X203034Y-132126D01*
X202983Y-132050D01*
X202912Y-131985D01*
X202820Y-131929D01*
X202708Y-131884D01*
X202575Y-131849D01*
X202422Y-131823D01*
X202249Y-131808D01*
X202055Y-131803D01*
Y-130795D01*
X202249Y-130790D01*
X202422Y-130775D01*
X202575Y-130750D01*
X202708Y-130715D01*
X202820Y-130669D01*
X202912Y-130614D01*
X202983Y-130548D01*
X203034Y-130473D01*
X203065Y-130387D01*
X203075Y-130291D01*
Y-132307D01*
D02*
G37*
G36*
X176503Y-133057D02*
X176417Y-133088D01*
X176341Y-133139D01*
X176276Y-133210D01*
X176221Y-133302D01*
X176175Y-133414D01*
X176140Y-133547D01*
X176115Y-133700D01*
X176103Y-133836D01*
X176107Y-133891D01*
X176123Y-133999D01*
X176146Y-134102D01*
X176175Y-134198D01*
X176211Y-134288D01*
X176253Y-134373D01*
X176301Y-134451D01*
X176356Y-134523D01*
X176417Y-134590D01*
X174764D01*
X174825Y-134523D01*
X174880Y-134451D01*
X174928Y-134373D01*
X174970Y-134288D01*
X175006Y-134198D01*
X175035Y-134102D01*
X175058Y-133999D01*
X175074Y-133891D01*
X175078Y-133836D01*
X175066Y-133700D01*
X175041Y-133547D01*
X175006Y-133414D01*
X174961Y-133302D01*
X174905Y-133210D01*
X174840Y-133139D01*
X174764Y-133088D01*
X174678Y-133057D01*
X174583Y-133047D01*
X176598D01*
X176503Y-133057D01*
D02*
G37*
G36*
X203075Y-137697D02*
X203063Y-137585D01*
X203028Y-137484D01*
X202968Y-137396D01*
X202884Y-137319D01*
X202777Y-137254D01*
X202646Y-137201D01*
X202491Y-137159D01*
X202312Y-137130D01*
X202226Y-137122D01*
X202163Y-137128D01*
X202062Y-137144D01*
X201969Y-137165D01*
X201884Y-137191D01*
X201808Y-137222D01*
X201741Y-137258D01*
X201681Y-137298D01*
X201631Y-137343D01*
Y-135689D01*
X201681Y-135734D01*
X201741Y-135774D01*
X201808Y-135809D01*
X201884Y-135840D01*
X201969Y-135866D01*
X202062Y-135887D01*
X202163Y-135904D01*
X202218Y-135910D01*
X202312Y-135902D01*
X202491Y-135872D01*
X202646Y-135831D01*
X202777Y-135778D01*
X202884Y-135713D01*
X202968Y-135636D01*
X203028Y-135547D01*
X203063Y-135447D01*
X203075Y-135335D01*
Y-137697D01*
D02*
G37*
G36*
X151699Y-132573D02*
X151776Y-133008D01*
X151903Y-133392D01*
X151936Y-133453D01*
X151956D01*
X151940Y-133460D01*
X152083Y-133724D01*
X152313Y-134006D01*
X152594Y-134236D01*
X152927Y-134415D01*
X153311Y-134543D01*
X153746Y-134620D01*
X154232Y-134646D01*
X150394Y-137205D01*
X146555Y-134646D01*
X147041Y-134620D01*
X147476Y-134543D01*
X147860Y-134415D01*
X148193Y-134236D01*
X148474Y-134006D01*
X148705Y-133724D01*
X148847Y-133460D01*
X148831Y-133453D01*
X148851D01*
X148884Y-133392D01*
X149012Y-133008D01*
X149089Y-132573D01*
X149114Y-132087D01*
X151673D01*
X151699Y-132573D01*
D02*
G37*
G36*
X194378Y-135348D02*
X194413Y-135449D01*
X194473Y-135537D01*
X194557Y-135614D01*
X194664Y-135679D01*
X194795Y-135732D01*
X194851Y-135747D01*
X194868Y-135742D01*
X194944Y-135711D01*
X195011Y-135676D01*
X195071Y-135635D01*
X195121Y-135591D01*
Y-135802D01*
X195129Y-135803D01*
X195332Y-135821D01*
X195559Y-135827D01*
Y-137008D01*
X195332Y-137014D01*
X195129Y-137031D01*
X195121Y-137033D01*
Y-137244D01*
X195071Y-137199D01*
X195011Y-137159D01*
X194944Y-137124D01*
X194868Y-137093D01*
X194851Y-137088D01*
X194795Y-137102D01*
X194664Y-137155D01*
X194557Y-137221D01*
X194473Y-137297D01*
X194413Y-137386D01*
X194378Y-137486D01*
X194366Y-137598D01*
Y-137013D01*
X194233Y-137008D01*
Y-135827D01*
X194360Y-135824D01*
X194366Y-135824D01*
Y-135236D01*
X194378Y-135348D01*
D02*
G37*
%LPC*%
G36*
X181377Y135878D02*
X180828Y135878D01*
X180712Y135855D01*
X180593D01*
X180055Y135748D01*
X179946Y135702D01*
X179829Y135679D01*
X179323Y135469D01*
X179224Y135403D01*
X179114Y135358D01*
X178658Y135053D01*
X178575Y134969D01*
X178476Y134904D01*
X178282Y134710D01*
X178282Y134710D01*
X178282Y134710D01*
X178282Y134710D01*
X178282Y134710D01*
X178088Y134516D01*
X178023Y134417D01*
X177939Y134333D01*
X177634Y133877D01*
X177589Y133768D01*
X177523Y133669D01*
X177313Y133163D01*
X177290Y133046D01*
X177244Y132937D01*
X177137Y132399D01*
Y132280D01*
X177114Y132164D01*
X177114Y131615D01*
X177137Y131499D01*
X177137Y131380D01*
X177244Y130843D01*
X177290Y130733D01*
X177313Y130617D01*
X177523Y130110D01*
X177589Y130011D01*
X177634Y129902D01*
X177939Y129446D01*
X178023Y129362D01*
X178088Y129263D01*
X178282Y129070D01*
X178282Y129070D01*
X178476Y128876D01*
X178575Y128810D01*
X178659Y128726D01*
X179115Y128421D01*
X179224Y128376D01*
X179323Y128310D01*
X179829Y128100D01*
X179946Y128077D01*
X180055Y128032D01*
X180593Y127925D01*
X180712D01*
X180828Y127902D01*
X181377Y127902D01*
X181493Y127925D01*
X181611D01*
X182149Y128032D01*
X182259Y128077D01*
X182375Y128100D01*
X182882Y128310D01*
X182980Y128376D01*
X183090Y128421D01*
X183546Y128726D01*
X183630Y128810D01*
X183728Y128876D01*
X183922Y129070D01*
X183922Y129070D01*
X183922Y129070D01*
X184116Y129264D01*
X184182Y129362D01*
X184266Y129446D01*
X184571Y129902D01*
X184616Y130012D01*
X184682Y130110D01*
X184892Y130617D01*
X184915Y130733D01*
X184960Y130843D01*
X185067Y131381D01*
Y131499D01*
X185090Y131615D01*
X185090Y132164D01*
X185067Y132280D01*
Y132399D01*
X184960Y132937D01*
X184915Y133046D01*
X184892Y133163D01*
X184682Y133669D01*
X184616Y133768D01*
X184571Y133877D01*
X184266Y134333D01*
X184182Y134417D01*
X184116Y134516D01*
X183922Y134710D01*
X183922Y134710D01*
X183729Y134904D01*
X183630Y134969D01*
X183546Y135053D01*
X183090Y135358D01*
X182981Y135404D01*
X182882Y135469D01*
X182375Y135679D01*
X182259Y135702D01*
X182149Y135748D01*
X181611Y135855D01*
X181493D01*
X181377Y135878D01*
D02*
G37*
G36*
X167597D02*
X167049Y135878D01*
X166932Y135855D01*
X166814D01*
X166276Y135748D01*
X166166Y135702D01*
X166050Y135679D01*
X165543Y135469D01*
X165445Y135403D01*
X165335Y135358D01*
X164879Y135053D01*
X164795Y134969D01*
X164697Y134904D01*
X164503Y134710D01*
X164503Y134710D01*
X164503Y134710D01*
X164503Y134710D01*
X164503Y134710D01*
X164309Y134516D01*
X164243Y134417D01*
X164159Y134333D01*
X163854Y133877D01*
X163809Y133768D01*
X163743Y133669D01*
X163533Y133163D01*
X163510Y133046D01*
X163465Y132937D01*
X163358Y132399D01*
Y132280D01*
X163335Y132164D01*
X163335Y131615D01*
X163358Y131499D01*
X163358Y131380D01*
X163465Y130843D01*
X163510Y130733D01*
X163533Y130617D01*
X163743Y130110D01*
X163809Y130011D01*
X163854Y129902D01*
X164159Y129446D01*
X164243Y129362D01*
X164309Y129263D01*
X164503Y129070D01*
X164503Y129070D01*
X164697Y128876D01*
X164795Y128810D01*
X164879Y128726D01*
X165335Y128421D01*
X165445Y128376D01*
X165543Y128310D01*
X166050Y128100D01*
X166166Y128077D01*
X166276Y128032D01*
X166814Y127925D01*
X166932D01*
X167049Y127902D01*
X167597Y127902D01*
X167713Y127925D01*
X167832D01*
X168370Y128032D01*
X168479Y128077D01*
X168596Y128100D01*
X169102Y128310D01*
X169201Y128376D01*
X169310Y128421D01*
X169766Y128726D01*
X169850Y128810D01*
X169949Y128876D01*
X170143Y129070D01*
X170143Y129070D01*
X170143Y129070D01*
X170337Y129264D01*
X170403Y129362D01*
X170486Y129446D01*
X170791Y129902D01*
X170836Y130012D01*
X170902Y130110D01*
X171112Y130617D01*
X171135Y130733D01*
X171181Y130843D01*
X171288Y131381D01*
Y131499D01*
X171311Y131615D01*
X171311Y132164D01*
X171288Y132280D01*
Y132399D01*
X171181Y132937D01*
X171135Y133046D01*
X171112Y133163D01*
X170903Y133669D01*
X170836Y133768D01*
X170791Y133877D01*
X170486Y134333D01*
X170403Y134417D01*
X170337Y134516D01*
X170143Y134710D01*
X170143Y134710D01*
X169949Y134904D01*
X169850Y134969D01*
X169766Y135053D01*
X169311Y135358D01*
X169201Y135404D01*
X169102Y135469D01*
X168596Y135679D01*
X168479Y135702D01*
X168370Y135748D01*
X167832Y135855D01*
X167713D01*
X167597Y135878D01*
D02*
G37*
G36*
X153817D02*
X153269Y135878D01*
X153153Y135855D01*
X153034D01*
X152496Y135748D01*
X152387Y135702D01*
X152270Y135679D01*
X151764Y135469D01*
X151665Y135403D01*
X151556Y135358D01*
X151100Y135053D01*
X151016Y134969D01*
X150917Y134904D01*
X150723Y134710D01*
X150723Y134710D01*
X150723Y134710D01*
X150723Y134710D01*
X150723Y134710D01*
X150529Y134516D01*
X150463Y134417D01*
X150380Y134333D01*
X150075Y133877D01*
X150030Y133768D01*
X149964Y133669D01*
X149754Y133163D01*
X149731Y133046D01*
X149685Y132937D01*
X149578Y132399D01*
Y132280D01*
X149555Y132164D01*
X149555Y131615D01*
X149578Y131499D01*
X149578Y131380D01*
X149685Y130843D01*
X149731Y130733D01*
X149754Y130617D01*
X149964Y130110D01*
X150030Y130011D01*
X150075Y129902D01*
X150380Y129446D01*
X150463Y129362D01*
X150529Y129263D01*
X150723Y129070D01*
X150723Y129070D01*
X150917Y128876D01*
X151016Y128810D01*
X151100Y128726D01*
X151556Y128421D01*
X151665Y128376D01*
X151764Y128310D01*
X152270Y128100D01*
X152387Y128077D01*
X152496Y128032D01*
X153034Y127925D01*
X153153D01*
X153269Y127902D01*
X153817Y127902D01*
X153934Y127925D01*
X154052D01*
X154590Y128032D01*
X154700Y128077D01*
X154816Y128100D01*
X155323Y128310D01*
X155421Y128376D01*
X155531Y128421D01*
X155987Y128726D01*
X156071Y128810D01*
X156169Y128876D01*
X156363Y129070D01*
X156363Y129070D01*
X156363Y129070D01*
X156557Y129264D01*
X156623Y129362D01*
X156707Y129446D01*
X157012Y129902D01*
X157057Y130012D01*
X157123Y130110D01*
X157333Y130617D01*
X157356Y130733D01*
X157401Y130843D01*
X157508Y131381D01*
Y131499D01*
X157531Y131615D01*
X157531Y132164D01*
X157508Y132280D01*
Y132399D01*
X157401Y132937D01*
X157356Y133046D01*
X157333Y133163D01*
X157123Y133669D01*
X157057Y133768D01*
X157012Y133877D01*
X156707Y134333D01*
X156623Y134417D01*
X156557Y134516D01*
X156363Y134710D01*
X156363Y134710D01*
X156169Y134904D01*
X156071Y134969D01*
X155987Y135053D01*
X155531Y135358D01*
X155421Y135404D01*
X155323Y135469D01*
X154816Y135679D01*
X154700Y135702D01*
X154590Y135748D01*
X154052Y135855D01*
X153934D01*
X153817Y135878D01*
D02*
G37*
G36*
X75077D02*
X74529Y135878D01*
X74413Y135855D01*
X74294D01*
X73756Y135748D01*
X73646Y135702D01*
X73530Y135679D01*
X73023Y135469D01*
X72925Y135403D01*
X72815Y135358D01*
X72359Y135053D01*
X72276Y134969D01*
X72177Y134904D01*
X71983Y134710D01*
X71983Y134710D01*
X71983Y134710D01*
X71983Y134710D01*
X71983Y134710D01*
X71789Y134516D01*
X71723Y134417D01*
X71639Y134333D01*
X71335Y133877D01*
X71289Y133768D01*
X71223Y133669D01*
X71013Y133163D01*
X70990Y133046D01*
X70945Y132937D01*
X70838Y132399D01*
Y132280D01*
X70815Y132164D01*
X70815Y131615D01*
X70838Y131499D01*
X70838Y131380D01*
X70945Y130843D01*
X70990Y130733D01*
X71014Y130617D01*
X71223Y130110D01*
X71289Y130011D01*
X71335Y129902D01*
X71639Y129446D01*
X71723Y129362D01*
X71789Y129263D01*
X71983Y129070D01*
X71983Y129070D01*
X72177Y128876D01*
X72276Y128810D01*
X72359Y128726D01*
X72815Y128421D01*
X72925Y128376D01*
X73024Y128310D01*
X73530Y128100D01*
X73646Y128077D01*
X73756Y128032D01*
X74294Y127925D01*
X74413D01*
X74529Y127902D01*
X75077Y127902D01*
X75194Y127925D01*
X75312D01*
X75850Y128032D01*
X75960Y128077D01*
X76076Y128100D01*
X76582Y128310D01*
X76681Y128376D01*
X76791Y128421D01*
X77247Y128726D01*
X77331Y128810D01*
X77429Y128876D01*
X77623Y129070D01*
X77623Y129070D01*
X77623Y129070D01*
X77817Y129264D01*
X77883Y129362D01*
X77967Y129446D01*
X78272Y129902D01*
X78317Y130012D01*
X78383Y130110D01*
X78593Y130617D01*
X78616Y130733D01*
X78661Y130843D01*
X78768Y131381D01*
Y131499D01*
X78791Y131615D01*
X78791Y132164D01*
X78768Y132280D01*
Y132399D01*
X78661Y132937D01*
X78616Y133046D01*
X78593Y133163D01*
X78383Y133669D01*
X78317Y133768D01*
X78272Y133877D01*
X77967Y134333D01*
X77883Y134417D01*
X77817Y134516D01*
X77623Y134710D01*
X77623Y134710D01*
X77429Y134904D01*
X77331Y134969D01*
X77247Y135053D01*
X76791Y135358D01*
X76681Y135404D01*
X76583Y135469D01*
X76076Y135679D01*
X75960Y135702D01*
X75850Y135748D01*
X75312Y135855D01*
X75194D01*
X75077Y135878D01*
D02*
G37*
G36*
X61298D02*
X60749Y135878D01*
X60633Y135855D01*
X60514D01*
X59977Y135748D01*
X59867Y135702D01*
X59751Y135679D01*
X59244Y135469D01*
X59145Y135403D01*
X59036Y135358D01*
X58580Y135053D01*
X58496Y134969D01*
X58397Y134904D01*
X58204Y134710D01*
X58204Y134710D01*
X58204Y134710D01*
X58204Y134710D01*
X58204Y134710D01*
X58010Y134516D01*
X57944Y134417D01*
X57860Y134333D01*
X57555Y133877D01*
X57510Y133768D01*
X57444Y133669D01*
X57234Y133163D01*
X57211Y133046D01*
X57165Y132937D01*
X57059Y132399D01*
Y132280D01*
X57035Y132164D01*
X57035Y131615D01*
X57059Y131499D01*
X57059Y131380D01*
X57165Y130843D01*
X57211Y130733D01*
X57234Y130617D01*
X57444Y130110D01*
X57510Y130011D01*
X57555Y129902D01*
X57860Y129446D01*
X57944Y129362D01*
X58010Y129263D01*
X58204Y129070D01*
X58204Y129070D01*
X58397Y128876D01*
X58496Y128810D01*
X58580Y128726D01*
X59036Y128421D01*
X59145Y128376D01*
X59244Y128310D01*
X59751Y128100D01*
X59867Y128077D01*
X59977Y128032D01*
X60514Y127925D01*
X60633D01*
X60749Y127902D01*
X61298Y127902D01*
X61414Y127925D01*
X61533D01*
X62071Y128032D01*
X62180Y128077D01*
X62296Y128100D01*
X62803Y128310D01*
X62902Y128376D01*
X63011Y128421D01*
X63467Y128726D01*
X63551Y128810D01*
X63650Y128876D01*
X63844Y129070D01*
X63844Y129070D01*
X63844Y129070D01*
X64038Y129264D01*
X64103Y129362D01*
X64187Y129446D01*
X64492Y129902D01*
X64537Y130012D01*
X64603Y130110D01*
X64813Y130617D01*
X64836Y130733D01*
X64882Y130843D01*
X64989Y131381D01*
Y131499D01*
X65012Y131615D01*
X65012Y132164D01*
X64989Y132280D01*
Y132399D01*
X64882Y132937D01*
X64836Y133046D01*
X64813Y133163D01*
X64603Y133669D01*
X64537Y133768D01*
X64492Y133877D01*
X64187Y134333D01*
X64103Y134417D01*
X64038Y134516D01*
X63844Y134710D01*
X63844Y134710D01*
X63650Y134904D01*
X63551Y134969D01*
X63467Y135053D01*
X63011Y135358D01*
X62902Y135404D01*
X62803Y135469D01*
X62296Y135679D01*
X62180Y135702D01*
X62071Y135748D01*
X61533Y135855D01*
X61414D01*
X61298Y135878D01*
D02*
G37*
G36*
X47518D02*
X46970Y135878D01*
X46854Y135855D01*
X46735D01*
X46197Y135748D01*
X46087Y135702D01*
X45971Y135679D01*
X45464Y135469D01*
X45366Y135403D01*
X45256Y135358D01*
X44800Y135053D01*
X44716Y134969D01*
X44618Y134904D01*
X44424Y134710D01*
X44424Y134710D01*
X44424Y134710D01*
X44424Y134710D01*
X44424Y134710D01*
X44230Y134516D01*
X44164Y134417D01*
X44080Y134333D01*
X43776Y133877D01*
X43730Y133768D01*
X43664Y133669D01*
X43455Y133163D01*
X43431Y133046D01*
X43386Y132937D01*
X43279Y132399D01*
Y132280D01*
X43256Y132164D01*
X43256Y131615D01*
X43279Y131499D01*
X43279Y131380D01*
X43386Y130843D01*
X43431Y130733D01*
X43455Y130617D01*
X43664Y130110D01*
X43730Y130011D01*
X43776Y129902D01*
X44080Y129446D01*
X44164Y129362D01*
X44230Y129263D01*
X44424Y129070D01*
X44424Y129070D01*
X44618Y128876D01*
X44717Y128810D01*
X44800Y128726D01*
X45256Y128421D01*
X45366Y128376D01*
X45465Y128310D01*
X45971Y128100D01*
X46088Y128077D01*
X46197Y128032D01*
X46735Y127925D01*
X46854D01*
X46970Y127902D01*
X47518Y127902D01*
X47635Y127925D01*
X47753D01*
X48291Y128032D01*
X48401Y128077D01*
X48517Y128100D01*
X49024Y128310D01*
X49122Y128376D01*
X49232Y128421D01*
X49688Y128726D01*
X49771Y128810D01*
X49870Y128876D01*
X50064Y129070D01*
X50064Y129070D01*
X50064Y129070D01*
X50258Y129264D01*
X50324Y129362D01*
X50408Y129446D01*
X50712Y129902D01*
X50758Y130012D01*
X50824Y130110D01*
X51034Y130617D01*
X51057Y130733D01*
X51102Y130843D01*
X51209Y131381D01*
Y131499D01*
X51232Y131615D01*
X51232Y132164D01*
X51209Y132280D01*
Y132399D01*
X51102Y132937D01*
X51057Y133046D01*
X51034Y133163D01*
X50824Y133669D01*
X50758Y133768D01*
X50712Y133877D01*
X50408Y134333D01*
X50324Y134417D01*
X50258Y134516D01*
X50064Y134710D01*
X50064Y134710D01*
X49870Y134904D01*
X49772Y134969D01*
X49688Y135053D01*
X49232Y135358D01*
X49122Y135404D01*
X49024Y135469D01*
X48517Y135679D01*
X48401Y135702D01*
X48291Y135748D01*
X47753Y135855D01*
X47635D01*
X47518Y135878D01*
D02*
G37*
G36*
X223354Y135252D02*
X222941D01*
Y126484D01*
X231709D01*
Y126897D01*
X231352Y128688D01*
X230654Y130374D01*
X229640Y131892D01*
X228349Y133183D01*
X226831Y134197D01*
X225144Y134896D01*
X223354Y135252D01*
D02*
G37*
G36*
X221941D02*
X221528D01*
X219738Y134896D01*
X218051Y134197D01*
X216533Y133183D01*
X215242Y131892D01*
X214228Y130374D01*
X213529Y128688D01*
X213173Y126897D01*
Y126484D01*
X221941D01*
Y135252D01*
D02*
G37*
G36*
X14692D02*
X14280D01*
Y126484D01*
X23047D01*
Y126897D01*
X22691Y128688D01*
X21993Y130374D01*
X20978Y131892D01*
X19687Y133183D01*
X18169Y134197D01*
X16483Y134896D01*
X14692Y135252D01*
D02*
G37*
G36*
X13280D02*
X12867D01*
X11076Y134896D01*
X9390Y134197D01*
X7872Y133183D01*
X6581Y131892D01*
X5567Y130374D01*
X4868Y128688D01*
X4512Y126897D01*
Y126484D01*
X13280D01*
Y135252D01*
D02*
G37*
G36*
X231709Y125484D02*
X222941D01*
Y116717D01*
X223354D01*
X225144Y117073D01*
X226831Y117771D01*
X228349Y118786D01*
X229640Y120076D01*
X230654Y121594D01*
X231352Y123281D01*
X231709Y125072D01*
Y125484D01*
D02*
G37*
G36*
X221941D02*
X213173D01*
Y125072D01*
X213529Y123281D01*
X214228Y121594D01*
X215242Y120076D01*
X216533Y118786D01*
X218051Y117771D01*
X219738Y117073D01*
X221528Y116717D01*
X221941D01*
Y125484D01*
D02*
G37*
G36*
X23047D02*
X14280D01*
Y116717D01*
X14692D01*
X16483Y117073D01*
X18169Y117771D01*
X19687Y118786D01*
X20978Y120076D01*
X21993Y121594D01*
X22691Y123281D01*
X23047Y125072D01*
Y125484D01*
D02*
G37*
G36*
X13280D02*
X4512D01*
Y125072D01*
X4868Y123281D01*
X5567Y121594D01*
X6581Y120076D01*
X7872Y118786D01*
X9390Y117771D01*
X11076Y117073D01*
X12867Y116717D01*
X13280D01*
Y125484D01*
D02*
G37*
G36*
X83465Y112425D02*
X59843Y112425D01*
X59647Y112425D01*
X59647Y112425D01*
X59647Y112425D01*
X59402Y112376D01*
X59186Y112333D01*
X59186Y112333D01*
X59186Y112333D01*
X58824Y112183D01*
X58824Y112183D01*
X58824D01*
X58692Y112095D01*
X58434Y111922D01*
X58433Y111922D01*
X58433Y111922D01*
X58157Y111645D01*
X57895Y111255D01*
Y111255D01*
X57895Y111255D01*
X57746Y110893D01*
X57746Y110893D01*
X57746Y110893D01*
X57703Y110678D01*
X57654Y110432D01*
X57654Y110432D01*
X57654Y110432D01*
X57654Y110236D01*
X57654Y110236D01*
Y43307D01*
X57654Y43112D01*
X57654Y43112D01*
X57654Y43111D01*
X57709Y42837D01*
X57746Y42651D01*
X57746Y42651D01*
X57746Y42651D01*
X57895Y42289D01*
X57895Y42289D01*
D01*
X57897Y42286D01*
X58156Y41898D01*
X58156Y41898D01*
X58156Y41898D01*
X58433Y41621D01*
X58433Y41621D01*
X58433Y41621D01*
X58610Y41503D01*
X58824Y41360D01*
X58824Y41360D01*
X58824Y41360D01*
X59186Y41210D01*
X59186Y41210D01*
X59186Y41210D01*
X59280Y41192D01*
X59647Y41119D01*
X59647Y41119D01*
X59647Y41119D01*
X59842Y41119D01*
X59842D01*
X59842Y41119D01*
X83660D01*
X83937Y41173D01*
X84121Y41210D01*
X84483Y41360D01*
X84483Y41360D01*
X84483D01*
X84614Y41448D01*
X84874Y41621D01*
X84874Y41621D01*
X84874Y41621D01*
X85150Y41898D01*
X85262Y42065D01*
X85412Y42289D01*
X85561Y42650D01*
X85653Y43111D01*
Y43111D01*
D01*
Y43307D01*
Y65725D01*
X87597D01*
X88058Y65817D01*
X88420Y65966D01*
X88420D01*
X88681Y66141D01*
X88811Y66227D01*
Y66227D01*
X88811D01*
X89087Y66504D01*
X89297Y66817D01*
X89349Y66895D01*
X89498Y67257D01*
X89498Y67257D01*
X89498Y67257D01*
X89535Y67443D01*
X89590Y67718D01*
X89590Y67718D01*
X89590Y67718D01*
X89590Y67913D01*
X89590Y67913D01*
X89590Y85630D01*
X89590Y85826D01*
X89590Y85826D01*
X89590Y85826D01*
X89541Y86070D01*
X89498Y86286D01*
X89498Y86286D01*
X89498Y86286D01*
X89349Y86648D01*
X89349Y86648D01*
Y86648D01*
X89087Y87039D01*
X88811Y87316D01*
X88420Y87577D01*
X88420D01*
X88420Y87577D01*
X88058Y87727D01*
X88058D01*
X88058Y87727D01*
X87903Y87758D01*
X87597Y87818D01*
X87597D01*
X87597D01*
X87402Y87818D01*
X87402Y87818D01*
X85653D01*
X85653Y110236D01*
X85653Y110432D01*
X85653Y110432D01*
X85653Y110432D01*
X85601Y110694D01*
X85561Y110893D01*
X85561Y110893D01*
X85561Y110893D01*
X85412Y111255D01*
X85412Y111255D01*
X85412Y111255D01*
X85280Y111451D01*
X85150Y111645D01*
X85150Y111645D01*
X85150Y111645D01*
X84873Y111922D01*
X84873D01*
Y111922D01*
X84483Y112183D01*
X84121Y112333D01*
X84121Y112333D01*
X84121Y112333D01*
X83965Y112364D01*
X83660Y112425D01*
X83660Y112425D01*
X83660Y112425D01*
X83465Y112425D01*
X83465Y112425D01*
D02*
G37*
G36*
X223354Y36827D02*
X222941D01*
Y28059D01*
X231709D01*
Y28472D01*
X231352Y30262D01*
X230654Y31949D01*
X229640Y33467D01*
X228349Y34758D01*
X226831Y35772D01*
X225144Y36471D01*
X223354Y36827D01*
D02*
G37*
G36*
X221941D02*
X221528D01*
X219738Y36471D01*
X218051Y35772D01*
X216533Y34758D01*
X215242Y33467D01*
X214228Y31949D01*
X213529Y30262D01*
X213173Y28472D01*
Y28059D01*
X221941D01*
Y36827D01*
D02*
G37*
G36*
X14692D02*
X14280D01*
Y28059D01*
X23047D01*
Y28472D01*
X22691Y30262D01*
X21993Y31949D01*
X20978Y33467D01*
X19687Y34758D01*
X18169Y35772D01*
X16483Y36471D01*
X14692Y36827D01*
D02*
G37*
G36*
X13280D02*
X12867D01*
X11076Y36471D01*
X9390Y35772D01*
X7872Y34758D01*
X6581Y33467D01*
X5567Y31949D01*
X4868Y30262D01*
X4512Y28472D01*
Y28059D01*
X13280D01*
Y36827D01*
D02*
G37*
G36*
X231709Y27059D02*
X222941D01*
Y18291D01*
X223354D01*
X225144Y18647D01*
X226831Y19346D01*
X228349Y20360D01*
X229640Y21651D01*
X230654Y23169D01*
X231352Y24856D01*
X231709Y26646D01*
Y27059D01*
D02*
G37*
G36*
X221941D02*
X213173D01*
Y26646D01*
X213529Y24856D01*
X214228Y23169D01*
X215242Y21651D01*
X216533Y20360D01*
X218051Y19346D01*
X219738Y18647D01*
X221528Y18291D01*
X221941D01*
Y27059D01*
D02*
G37*
G36*
X23047D02*
X14280D01*
Y18291D01*
X14692D01*
X16483Y18647D01*
X18169Y19346D01*
X19687Y20360D01*
X20978Y21651D01*
X21993Y23169D01*
X22691Y24856D01*
X23047Y26646D01*
Y27059D01*
D02*
G37*
G36*
X13280D02*
X4512D01*
Y26646D01*
X4868Y24856D01*
X5567Y23169D01*
X6581Y21651D01*
X7872Y20360D01*
X9390Y19346D01*
X11076Y18647D01*
X12867Y18291D01*
X13280D01*
Y27059D01*
D02*
G37*
G36*
X167597Y25642D02*
X167049Y25642D01*
X166932Y25618D01*
X166814D01*
X166276Y25512D01*
X166166Y25466D01*
X166050Y25443D01*
X165543Y25233D01*
X165445Y25167D01*
X165335Y25122D01*
X164879Y24817D01*
X164795Y24733D01*
X164697Y24667D01*
X164503Y24474D01*
X164503Y24474D01*
X164503Y24474D01*
X164503Y24474D01*
X164503Y24473D01*
X164309Y24280D01*
X164243Y24181D01*
X164159Y24097D01*
X163854Y23641D01*
X163809Y23532D01*
X163743Y23433D01*
X163533Y22926D01*
X163510Y22810D01*
X163465Y22700D01*
X163358Y22163D01*
Y22044D01*
X163335Y21928D01*
X163335Y21379D01*
X163358Y21263D01*
X163358Y21144D01*
X163465Y20606D01*
X163510Y20497D01*
X163533Y20381D01*
X163743Y19874D01*
X163809Y19775D01*
X163854Y19666D01*
X164159Y19210D01*
X164243Y19126D01*
X164309Y19027D01*
X164503Y18833D01*
X164503Y18833D01*
X164697Y18640D01*
X164795Y18574D01*
X164879Y18490D01*
X165335Y18185D01*
X165445Y18140D01*
X165543Y18074D01*
X166050Y17864D01*
X166166Y17841D01*
X166276Y17796D01*
X166814Y17689D01*
X166932D01*
X167049Y17665D01*
X167597Y17665D01*
X167713Y17688D01*
X167832D01*
X168370Y17796D01*
X168479Y17841D01*
X168596Y17864D01*
X169102Y18074D01*
X169201Y18140D01*
X169310Y18185D01*
X169766Y18490D01*
X169850Y18574D01*
X169949Y18640D01*
X170143Y18833D01*
X170143Y18833D01*
X170143Y18834D01*
X170337Y19027D01*
X170403Y19126D01*
X170486Y19210D01*
X170791Y19666D01*
X170836Y19775D01*
X170902Y19874D01*
X171112Y20381D01*
X171135Y20497D01*
X171181Y20606D01*
X171288Y21144D01*
Y21263D01*
X171311Y21379D01*
X171311Y21928D01*
X171288Y22044D01*
Y22163D01*
X171181Y22701D01*
X171135Y22810D01*
X171112Y22926D01*
X170903Y23433D01*
X170836Y23532D01*
X170791Y23641D01*
X170486Y24097D01*
X170403Y24181D01*
X170337Y24280D01*
X170143Y24474D01*
X170143Y24474D01*
X169949Y24667D01*
X169850Y24733D01*
X169766Y24817D01*
X169311Y25122D01*
X169201Y25167D01*
X169102Y25233D01*
X168596Y25443D01*
X168479Y25466D01*
X168370Y25512D01*
X167832Y25618D01*
X167713D01*
X167597Y25642D01*
D02*
G37*
G36*
X153817D02*
X153269Y25642D01*
X153153Y25618D01*
X153034D01*
X152496Y25512D01*
X152387Y25466D01*
X152270Y25443D01*
X151764Y25233D01*
X151665Y25167D01*
X151556Y25122D01*
X151100Y24817D01*
X151016Y24733D01*
X150917Y24667D01*
X150723Y24474D01*
X150723Y24474D01*
X150723Y24474D01*
X150723Y24474D01*
X150723Y24473D01*
X150529Y24280D01*
X150463Y24181D01*
X150380Y24097D01*
X150075Y23641D01*
X150030Y23532D01*
X149964Y23433D01*
X149754Y22926D01*
X149731Y22810D01*
X149685Y22700D01*
X149578Y22163D01*
Y22044D01*
X149555Y21928D01*
X149555Y21379D01*
X149578Y21263D01*
X149578Y21144D01*
X149685Y20606D01*
X149731Y20497D01*
X149754Y20381D01*
X149964Y19874D01*
X150030Y19775D01*
X150075Y19666D01*
X150380Y19210D01*
X150463Y19126D01*
X150529Y19027D01*
X150723Y18833D01*
X150723Y18833D01*
X150917Y18640D01*
X151016Y18574D01*
X151100Y18490D01*
X151556Y18185D01*
X151665Y18140D01*
X151764Y18074D01*
X152270Y17864D01*
X152387Y17841D01*
X152496Y17796D01*
X153034Y17689D01*
X153153D01*
X153269Y17665D01*
X153817Y17665D01*
X153934Y17688D01*
X154052D01*
X154590Y17796D01*
X154700Y17841D01*
X154816Y17864D01*
X155323Y18074D01*
X155421Y18140D01*
X155531Y18185D01*
X155987Y18490D01*
X156071Y18574D01*
X156169Y18640D01*
X156363Y18833D01*
X156363Y18833D01*
X156363Y18834D01*
X156557Y19027D01*
X156623Y19126D01*
X156707Y19210D01*
X157012Y19666D01*
X157057Y19775D01*
X157123Y19874D01*
X157333Y20381D01*
X157356Y20497D01*
X157401Y20606D01*
X157508Y21144D01*
Y21263D01*
X157531Y21379D01*
X157531Y21928D01*
X157508Y22044D01*
Y22163D01*
X157401Y22701D01*
X157356Y22810D01*
X157333Y22926D01*
X157123Y23433D01*
X157057Y23532D01*
X157012Y23641D01*
X156707Y24097D01*
X156623Y24181D01*
X156557Y24280D01*
X156363Y24474D01*
X156363Y24474D01*
X156169Y24667D01*
X156071Y24733D01*
X155987Y24817D01*
X155531Y25122D01*
X155421Y25167D01*
X155323Y25233D01*
X154816Y25443D01*
X154700Y25466D01*
X154590Y25512D01*
X154052Y25618D01*
X153934D01*
X153817Y25642D01*
D02*
G37*
%LPD*%
D11*
X134509Y-53361D02*
Y-50789D01*
X134578Y-50720D01*
X133071Y-54799D02*
X134509Y-53361D01*
X133071Y-55118D02*
Y-54799D01*
X140945Y-115354D02*
X144095D01*
X197244Y-35925D02*
X198571Y-37252D01*
X199282D01*
X199508Y-37478D01*
X197244Y-35925D02*
Y-35827D01*
X200149Y-37252D02*
X201575Y-35827D01*
X199734Y-37252D02*
X200149D01*
X199508Y-37478D02*
X199734Y-37252D01*
X201181Y-17323D02*
X205709D01*
X205906Y-17126D01*
X191929Y-17323D02*
X196457D01*
X191732Y-17126D02*
X191929Y-17323D01*
X191634Y-136417D02*
X195965D01*
X191634Y-136417D02*
X191634Y-136417D01*
X205709Y-136516D02*
X205807Y-136417D01*
X200787Y-136516D02*
X205709D01*
X215846Y-110301D02*
X217008Y-111462D01*
X215846Y-110301D02*
Y-106398D01*
X218189Y-110281D02*
Y-108753D01*
X218307Y-108635D02*
Y-106299D01*
X217643Y-110827D02*
X218189Y-110281D01*
Y-108753D02*
X218307Y-108635D01*
X217008Y-111462D02*
X217643Y-110827D01*
X220374D01*
X218189Y-43996D02*
Y-43214D01*
Y-46732D02*
Y-43996D01*
X217008Y-42815D02*
Y-42033D01*
Y-42815D02*
X218189Y-43996D01*
X220669D01*
X218406Y-46949D02*
X218504Y-47047D01*
Y-47244D02*
Y-47047D01*
X218189Y-46732D02*
X218406Y-46949D01*
X217008Y-42033D02*
X218189Y-43214D01*
X215748Y-46949D02*
X215827Y-46870D01*
Y-43214D01*
X217008Y-42033D01*
X166820Y-35345D02*
X166831Y-35335D01*
X163505Y-35345D02*
X166820D01*
X163494Y-35355D02*
X163505Y-35345D01*
X150787Y-32480D02*
X157480D01*
X150787Y-32480D02*
X150787Y-32480D01*
X111839Y-45543D02*
X112008Y-45374D01*
X111839Y-48819D02*
Y-45543D01*
X127046Y-75992D02*
Y-71816D01*
X123566Y-68336D02*
X127046Y-71816D01*
X92260Y-47033D02*
X92309D01*
X90404Y-45177D02*
X92260Y-47033D01*
X90354Y-45177D02*
X90404D01*
X74508Y-29921D02*
X77559Y-26870D01*
Y-26772D01*
X74410Y-29921D02*
X74508D01*
X95065Y-50731D02*
Y-49817D01*
Y-50731D02*
X97701Y-53368D01*
D12*
X88589Y-29921D02*
X94882D01*
X85439Y-26772D02*
X88589Y-29921D01*
X130900Y-86528D02*
X146112D01*
X112668Y-62343D02*
X112841Y-62170D01*
X130618D01*
X110998Y-62343D02*
X112668D01*
X111414Y-65824D02*
X113493Y-63744D01*
X129832D01*
X110229Y-63112D02*
X110998Y-62343D01*
X115017Y-70548D02*
X115124Y-70655D01*
X108296Y-70548D02*
X115017D01*
X115874Y-70655D02*
X117534D01*
X106010Y-72835D02*
X108296Y-70548D01*
X115124Y-70655D02*
X115959D01*
X114082Y-68973D02*
X114973Y-68082D01*
X117871D02*
X120508Y-70719D01*
X113429Y-67399D02*
X114321Y-66508D01*
X114973Y-68082D02*
X117871D01*
X118524Y-66508D02*
X120424Y-68408D01*
X114321Y-66508D02*
X118524D01*
X108350Y-66522D02*
X109226Y-67399D01*
X120424Y-68408D02*
X120575D01*
X109226Y-67399D02*
X113429D01*
X108017Y-68973D02*
X114082D01*
X106331Y-67287D02*
X108017Y-68973D01*
X108071Y-63459D02*
X110435Y-65824D01*
X111414D01*
X120575Y-68408D02*
X121495Y-69327D01*
X181496Y-35827D02*
Y-33202D01*
X180709Y-32414D02*
X181496Y-33202D01*
X180709Y-32414D02*
Y-31988D01*
X188189Y-32283D02*
Y-31890D01*
X189370Y-35827D02*
Y-33465D01*
X188189Y-32283D02*
X189370Y-33465D01*
X113898Y-40532D02*
X114094Y-40728D01*
Y-44120D02*
Y-40728D01*
Y-44120D02*
X114370Y-44396D01*
Y-46677D02*
X115748Y-48055D01*
X114370Y-46677D02*
Y-44396D01*
Y-44567D02*
X116946D01*
X86825Y-45276D02*
X96309Y-54760D01*
X84646Y-45276D02*
X86825D01*
X86403Y-47638D02*
X95066Y-56300D01*
X81618Y-47638D02*
X86403D01*
X63779Y-29134D02*
Y-26772D01*
Y-29134D02*
X73622Y-38976D01*
X66043Y-44094D02*
X74016D01*
X53160Y-31211D02*
X66043Y-44094D01*
X103323Y-51922D02*
Y-51644D01*
X103269Y-51976D02*
X103323Y-51922D01*
X80709Y-39764D02*
X91442D01*
X103323Y-51644D01*
X103290Y-49264D02*
X104454D01*
X89557Y-35531D02*
X103290Y-49264D01*
X103942Y-47689D02*
X105106D01*
X88143Y-31890D02*
X103942Y-47689D01*
X105106D02*
X107556Y-50138D01*
X104454Y-49264D02*
X105981Y-50791D01*
X80807Y-35531D02*
X89557D01*
X81398Y-31890D02*
X88143D01*
X104661Y-53368D02*
Y-53089D01*
X107556Y-50692D02*
X108467Y-51603D01*
X107556Y-50692D02*
Y-50138D01*
X108467Y-51603D02*
X109055D01*
X105981Y-51769D02*
Y-50791D01*
X104661Y-53089D02*
X105981Y-51769D01*
X80709Y-35433D02*
X80807Y-35531D01*
X92133Y-63112D02*
X92133D01*
X90833Y-61811D02*
X92133Y-63112D01*
X78347Y-61811D02*
X90833D01*
X106403Y-54255D02*
X109055Y-51603D01*
X80709Y-31201D02*
X81398Y-31890D01*
X80709Y-31201D02*
Y-31102D01*
X108837Y-57544D02*
X111565Y-54816D01*
X114062D01*
X108137Y-55738D02*
Y-55738D01*
X113751Y-51229D02*
X115748Y-49232D01*
X108137Y-55738D02*
X108745Y-55130D01*
X108745D01*
X110283Y-58603D02*
X110562D01*
X108745Y-55130D02*
X112646Y-51229D01*
X113751D01*
X110562Y-58603D02*
X112728Y-56436D01*
X117321D01*
X108254Y-66522D02*
X108350D01*
X106053Y-67287D02*
X106331D01*
X94826Y-65804D02*
X94826Y-65804D01*
X94325Y-81727D02*
X95276Y-82677D01*
X90619Y-81727D02*
X94325D01*
X90158Y-81265D02*
Y-70655D01*
X94917Y-65895D01*
X99797Y-75197D02*
X102756D01*
X94989Y-70389D02*
Y-68492D01*
Y-70389D02*
X99797Y-75197D01*
X94989Y-68492D02*
X95287Y-68194D01*
Y-68194D02*
X95973Y-67508D01*
X95287Y-68194D02*
Y-68194D01*
X95973Y-67508D02*
X95973D01*
X102756Y-75197D02*
X103937Y-76378D01*
X93307Y-75197D02*
Y-72047D01*
Y-75197D02*
X94488Y-76378D01*
X95276D01*
X101575Y-72047D02*
X102001D01*
X102788Y-72835D01*
X106010D01*
X102756Y-83465D02*
X104724Y-81496D01*
X107054Y-80709D02*
X107480D01*
X104724Y-81496D02*
X106267D01*
X107054Y-80709D01*
X90158Y-81265D02*
X90619Y-81727D01*
X55118Y-18898D02*
X59847D01*
X52362Y-21654D02*
X55118Y-18898D01*
X80430Y-46457D02*
X80437D01*
X81618Y-47638D01*
X79921Y-21654D02*
X84646D01*
X77165Y-18898D02*
X79921Y-21654D01*
X49311Y-26083D02*
Y-24902D01*
X46063Y-21654D02*
X49311Y-24902D01*
Y-26083D02*
X50000Y-26772D01*
X101142Y-92461D02*
Y-89717D01*
Y-93024D02*
Y-92461D01*
X118151Y-51005D02*
X120472Y-48684D01*
X119803Y-45203D02*
Y-40532D01*
Y-45203D02*
X120472Y-45872D01*
Y-48684D02*
Y-45872D01*
X121772Y-44139D02*
X123228Y-45595D01*
Y-45669D02*
Y-45595D01*
X121772Y-44139D02*
Y-40532D01*
X119606Y-40335D02*
X119803Y-40532D01*
X132323Y-48521D02*
X132351Y-48493D01*
X129646Y-47244D02*
X130072D01*
X131349Y-48521D02*
X132323D01*
X130072Y-47244D02*
X131349Y-48521D01*
X109739Y-85433D02*
X109843D01*
X107070Y-88102D02*
X109739Y-85433D01*
X101142Y-89717D02*
X102756Y-88102D01*
X107070D01*
X117534Y-70655D02*
X119390Y-72512D01*
X119390D01*
X184252Y-32316D02*
X185531Y-33595D01*
Y-35138D02*
X186221Y-35827D01*
X185531Y-35138D02*
Y-33595D01*
X184252Y-32316D02*
Y-31890D01*
X191732Y-32283D02*
X193405Y-33957D01*
Y-35138D02*
X194095Y-35827D01*
X193405Y-35138D02*
Y-33957D01*
X173622Y-24803D02*
X173622D01*
X170472Y-21654D02*
X173622Y-24803D01*
X166929D02*
Y-24409D01*
X164173Y-21654D02*
X166929Y-24409D01*
X159843Y-24803D02*
X159843D01*
X156693Y-21654D02*
X159843Y-24803D01*
X171260Y-32677D02*
X175295D01*
X178347Y-35827D02*
Y-35728D01*
X175295Y-32677D02*
X178347Y-35728D01*
X171260Y-37434D02*
Y-37008D01*
X172008Y-42033D02*
Y-38182D01*
X171260Y-37434D02*
X172008Y-38182D01*
X176383Y-41408D02*
Y-38587D01*
Y-41408D02*
X177008Y-42033D01*
X174803Y-37008D02*
X176383Y-38587D01*
X174803Y-37008D02*
Y-37008D01*
X177953Y-21654D02*
X177953Y-21654D01*
Y-25492D02*
Y-21654D01*
X186221Y-24803D02*
Y-24377D01*
X184252Y-21654D02*
X185433Y-22835D01*
Y-23590D02*
Y-22835D01*
Y-23590D02*
X186221Y-24377D01*
X205512Y-39583D02*
X207008Y-41079D01*
X205512Y-39583D02*
Y-35827D01*
X207008Y-42033D02*
Y-41079D01*
X202658Y-32972D02*
X205512Y-35827D01*
X202658Y-32972D02*
Y-32185D01*
X201969Y-31496D02*
X202658Y-32185D01*
X119617Y-58594D02*
X119685D01*
X121980Y-56299D01*
X122047D01*
X117321Y-56436D02*
X117390Y-56367D01*
X114062Y-54816D02*
X116062Y-52816D01*
X119108Y-84941D02*
Y-84856D01*
X117323Y-86811D02*
Y-86727D01*
X119108Y-84941D01*
X111814Y-35531D02*
X112008D01*
X110158Y-40335D02*
Y-37188D01*
X111814Y-35531D01*
X109961Y-40532D02*
X110158Y-40335D01*
X80709Y-26772D02*
X85439D01*
X59847Y-18898D02*
X77165D01*
X59842Y-21654D02*
Y-18902D01*
X59847Y-18898D01*
X66142Y-25886D02*
X66929Y-26673D01*
X66142Y-25886D02*
Y-21654D01*
X66929Y-26772D02*
Y-26673D01*
X66142Y-21654D02*
X73622D01*
X113990Y-79582D02*
X115925Y-77648D01*
Y-75977D01*
X117998Y-73904D01*
X113990Y-79738D02*
Y-79582D01*
X117998Y-73904D02*
Y-73904D01*
Y-78358D02*
Y-78080D01*
X116563Y-80228D02*
Y-79793D01*
X116325Y-82073D02*
Y-80466D01*
X116563Y-80228D01*
Y-79793D02*
X117998Y-78358D01*
Y-78080D02*
X119251Y-79332D01*
Y-79378D02*
Y-79332D01*
X119158Y-79472D02*
X119251Y-79378D01*
X117998Y-78080D02*
Y-78080D01*
X116557Y-82073D02*
X119158Y-79472D01*
X119390D01*
X116325Y-82073D02*
X116557D01*
X143110Y-84055D02*
X145866D01*
X146112Y-86528D02*
X158600Y-99016D01*
X159252Y-97441D02*
X192126D01*
X145866Y-84055D02*
X159252Y-97441D01*
X158600Y-99016D02*
X191437D01*
X197008Y-111462D02*
Y-104587D01*
X191437Y-99016D02*
X197008Y-104587D01*
X202008Y-111462D02*
Y-107323D01*
X192126Y-97441D02*
X202008Y-107323D01*
X124872Y-85404D02*
X126476Y-87008D01*
X124872Y-85125D02*
X124958Y-85039D01*
X124872Y-85404D02*
Y-85125D01*
X129412Y-85039D02*
X130900Y-86528D01*
X129134Y-85039D02*
X129412D01*
X162008Y-42033D02*
X162008Y-42033D01*
Y-52658D02*
Y-42033D01*
X148898Y-69212D02*
X167008Y-51102D01*
X135217Y-69212D02*
X148898D01*
X167008Y-51102D02*
Y-42033D01*
X136705Y-70787D02*
X151260D01*
X161811Y-60236D01*
X134702Y-72512D02*
X134980D01*
X136705Y-70787D01*
X133310Y-71120D02*
X135217Y-69212D01*
X133310Y-71120D02*
X133310D01*
X130618Y-62170D02*
X134511Y-66063D01*
X133725Y-67637D02*
X142317D01*
X134511Y-66063D02*
X141665D01*
X142317Y-67637D02*
X155630Y-54325D01*
X129832Y-63744D02*
X133725Y-67637D01*
X121464Y-66170D02*
X123566Y-68273D01*
Y-68336D02*
Y-68273D01*
X121495Y-69327D02*
X121900D01*
X121464Y-66170D02*
Y-66107D01*
X141665Y-66063D02*
X152008Y-55720D01*
Y-42033D01*
X155630Y-43411D02*
X157008Y-42033D01*
X155630Y-54325D02*
Y-43411D01*
X117873Y-51005D02*
X118151D01*
X116062Y-52816D02*
X117873Y-51005D01*
X115748Y-49232D02*
Y-48055D01*
X118345Y-48584D02*
Y-47085D01*
X117983Y-48946D02*
X118345Y-48584D01*
X118110Y-46850D02*
X118345Y-47085D01*
X116755Y-36496D02*
X118914D01*
X119606Y-37188D01*
X115866Y-40532D02*
X116063Y-40335D01*
Y-37188D01*
X116755Y-36496D01*
X119606Y-40335D02*
Y-37188D01*
X116946Y-44567D02*
X117638Y-43875D01*
Y-40728D02*
X117835Y-40532D01*
X117638Y-43875D02*
Y-40728D01*
D15*
X53150Y-26772D02*
X56693D01*
D17*
X124958Y-66944D02*
D03*
X123566Y-68336D02*
D03*
X122174Y-69728D02*
D03*
X120782Y-71120D02*
D03*
X119390Y-72512D02*
D03*
X117998Y-73904D02*
D03*
X129134Y-85039D02*
D03*
X133310Y-80863D02*
D03*
X134702Y-79472D02*
D03*
X136094Y-78080D02*
D03*
X131918Y-82256D02*
D03*
X130526Y-83647D02*
D03*
X92133Y-58936D02*
D03*
X93525Y-57544D02*
D03*
X94917Y-56152D02*
D03*
X96309Y-54760D02*
D03*
X97701Y-53368D02*
D03*
X99093Y-51976D02*
D03*
X110229Y-63112D02*
D03*
X108837Y-64504D02*
D03*
X107445Y-65895D02*
D03*
X106053Y-67287D02*
D03*
X104661Y-68679D02*
D03*
X103269Y-70071D02*
D03*
D18*
X117998Y-78080D02*
D03*
X119390Y-79472D02*
D03*
X120782Y-80863D02*
D03*
X122174Y-82256D02*
D03*
X123566Y-83647D02*
D03*
X124958Y-85039D02*
D03*
X136094Y-73904D02*
D03*
X134702Y-72512D02*
D03*
X133310Y-71120D02*
D03*
X131918Y-69728D02*
D03*
X130526Y-68336D02*
D03*
X129134Y-66944D02*
D03*
X108837Y-57544D02*
D03*
X107445Y-56152D02*
D03*
X103269Y-51976D02*
D03*
X104661Y-53368D02*
D03*
X106053Y-54760D02*
D03*
X110229Y-58936D02*
D03*
X99093Y-70071D02*
D03*
X97701Y-68679D02*
D03*
X96309Y-67287D02*
D03*
X94917Y-65895D02*
D03*
X93525Y-64504D02*
D03*
X92133Y-63112D02*
D03*
D19*
X127046Y-75992D02*
D03*
D20*
X101181Y-61024D02*
D03*
D21*
X109055Y-51603D02*
D03*
X111839Y-48819D02*
D03*
X115959Y-70655D02*
D03*
X113175Y-73439D02*
D03*
D22*
X205118Y-31496D02*
D03*
X80709Y-35433D02*
D03*
Y-39764D02*
D03*
X189370Y-35827D02*
D03*
X197244D02*
D03*
X142126Y-131890D02*
D03*
X175591D02*
D03*
X80709Y-26772D02*
D03*
X53150Y-31102D02*
D03*
X50000Y-26772D02*
D03*
X80709Y-31102D02*
D03*
X66929Y-26772D02*
D03*
X181496Y-35827D02*
D03*
D23*
X201969Y-31496D02*
D03*
X77559Y-35433D02*
D03*
Y-39764D02*
D03*
X186221Y-35827D02*
D03*
X194095D02*
D03*
X145276Y-131890D02*
D03*
X178740D02*
D03*
X77559Y-26772D02*
D03*
X50000Y-31102D02*
D03*
X53150Y-26772D02*
D03*
X77559Y-31102D02*
D03*
X63779Y-26772D02*
D03*
X178347Y-35827D02*
D03*
D24*
X201575D02*
D03*
X205512D02*
D03*
X146260Y-32776D02*
D03*
X142323D02*
D03*
X144095Y-115354D02*
D03*
X148031D02*
D03*
D25*
X92309Y-47033D02*
D03*
X95093Y-49817D02*
D03*
X116325Y-82073D02*
D03*
X119108Y-84856D02*
D03*
X113990Y-79738D02*
D03*
X111206Y-76955D02*
D03*
D26*
X166831Y-29429D02*
D03*
Y-35335D02*
D03*
X164173Y-131890D02*
D03*
X170472D02*
D03*
X150394D02*
D03*
X156693D02*
D03*
X177953Y-21654D02*
D03*
X184252D02*
D03*
X164173D02*
D03*
X170472D02*
D03*
X156693D02*
D03*
X150394D02*
D03*
X73622Y-21654D02*
D03*
X79921D02*
D03*
X59842D02*
D03*
X66142D02*
D03*
X46063D02*
D03*
X52362D02*
D03*
D27*
X191634Y-136417D02*
D03*
X205807D02*
D03*
Y-131299D02*
D03*
X191634D02*
D03*
X205906Y-22244D02*
D03*
X191732D02*
D03*
Y-17126D02*
D03*
X205906D02*
D03*
D28*
X152008Y-111462D02*
D03*
Y-42033D02*
D03*
X157008Y-111462D02*
D03*
Y-42033D02*
D03*
X162008Y-111462D02*
D03*
Y-42033D02*
D03*
X167008Y-111462D02*
D03*
Y-42033D02*
D03*
X172008Y-111462D02*
D03*
Y-42033D02*
D03*
X177008Y-111462D02*
D03*
Y-42033D02*
D03*
X182008Y-111462D02*
D03*
Y-42033D02*
D03*
X187008Y-111462D02*
D03*
Y-42033D02*
D03*
X192008Y-111462D02*
D03*
Y-42033D02*
D03*
X197008Y-111462D02*
D03*
Y-42033D02*
D03*
X202008Y-111462D02*
D03*
Y-42033D02*
D03*
X207008Y-111462D02*
D03*
Y-42033D02*
D03*
X212008Y-111462D02*
D03*
Y-42033D02*
D03*
X217008Y-111462D02*
D03*
Y-42033D02*
D03*
D29*
X176831Y-86787D02*
D03*
Y-80094D02*
D03*
Y-73401D02*
D03*
X183524D02*
D03*
Y-80094D02*
D03*
Y-86787D02*
D03*
X190217D02*
D03*
Y-80094D02*
D03*
Y-73401D02*
D03*
D30*
X134578Y-50720D02*
D03*
X117390Y-56367D02*
D03*
D31*
X132351Y-48493D02*
D03*
X119617Y-58594D02*
D03*
D32*
X127066Y-53050D02*
D03*
X135139Y-61123D02*
D03*
D33*
X94095Y-77165D02*
D03*
D34*
X102756D02*
D03*
X94095Y-83464D02*
D03*
X102756Y-83465D02*
D03*
D35*
X131142Y-93024D02*
D03*
X121142D02*
D03*
X111142D02*
D03*
X101142D02*
D03*
D36*
X117983Y-48946D02*
D03*
X116062Y-52816D02*
D03*
X114113Y-50867D02*
D03*
D37*
X59449Y-56772D02*
D03*
Y-66772D02*
D03*
Y-76772D02*
D03*
Y-86772D02*
D03*
Y-96772D02*
D03*
X83858Y-56772D02*
D03*
X83858Y-66772D02*
D03*
Y-76772D02*
D03*
Y-86772D02*
D03*
Y-96772D02*
D03*
D38*
X150787Y-32480D02*
D03*
Y-28740D02*
D03*
Y-36220D02*
D03*
X159449D02*
D03*
Y-28740D02*
D03*
D39*
X46740Y-56772D02*
D03*
Y-66772D02*
D03*
Y-76772D02*
D03*
Y-86772D02*
D03*
Y-96772D02*
D03*
D40*
X140256Y-38287D02*
D03*
X146161D02*
D03*
D41*
X104055Y-40532D02*
D03*
X107205D02*
D03*
X126496D02*
D03*
X129646D02*
D03*
D42*
X109961D02*
D03*
X111929D02*
D03*
X113898D02*
D03*
X115866D02*
D03*
X123740D02*
D03*
X121772D02*
D03*
X119803D02*
D03*
X117835D02*
D03*
D72*
X112992Y-85405D02*
X116325Y-82073D01*
X112992Y-85433D02*
X114567Y-83858D01*
X112992Y-85433D02*
Y-85405D01*
X83858Y-91642D02*
X84024Y-91476D01*
X83858Y-96772D02*
Y-91642D01*
X146161Y-43602D02*
Y-38287D01*
X146063Y-43701D02*
X146161Y-43602D01*
X126496Y-50253D02*
X127205Y-50962D01*
X127066Y-53050D02*
X127205Y-52911D01*
X126496Y-50253D02*
Y-40532D01*
X127205Y-52911D02*
Y-50962D01*
D73*
X131685Y-58465D02*
X134343Y-61123D01*
X130013Y-56792D02*
X131685Y-58465D01*
X130013Y-56792D02*
Y-56784D01*
X131685Y-58465D02*
X131693D01*
X131890Y-58661D01*
X134343Y-61123D02*
X135139D01*
X139173Y-34657D02*
Y-30894D01*
X140442Y-29626D01*
X144204D02*
X146260Y-31682D01*
X140059Y-38091D02*
X140256Y-38287D01*
X140059Y-38091D02*
Y-35543D01*
X139173Y-34657D02*
X140059Y-35543D01*
X140442Y-29626D02*
X144204D01*
X135139Y-61123D02*
X140256Y-56006D01*
Y-38287D01*
D74*
X47244Y-62008D02*
Y-59842D01*
Y-56811D01*
X47205Y-56772D02*
X47244Y-56811D01*
X46740Y-56772D02*
X47205D01*
X131142Y-93024D02*
X137118D01*
X83858Y-56772D02*
Y-50787D01*
X83858Y-50787D01*
X83858Y-86772D02*
Y-76772D01*
D75*
X128850Y-103949D02*
X153949D01*
X122736Y-97835D02*
X128850Y-103949D01*
X69252Y-96005D02*
Y-73622D01*
X71047Y-95262D02*
X95833Y-120047D01*
X63866Y-98236D02*
X92858Y-127228D01*
X95089Y-121843D02*
X177370D01*
X93602Y-125433D02*
X200945D01*
X67457Y-96749D02*
Y-81827D01*
Y-96749D02*
X94345Y-123638D01*
X71047Y-95262D02*
Y-65417D01*
X65661Y-97493D02*
X93602Y-125433D01*
X63866Y-98236D02*
Y-98236D01*
X65661Y-97493D02*
Y-90031D01*
X92858Y-127228D02*
X201689D01*
X69252Y-96005D02*
X95089Y-121843D01*
X94345Y-123638D02*
X185024D01*
X95833Y-120047D02*
X164598D01*
X62402Y-96772D02*
X63866Y-98236D01*
X191929Y-22047D02*
X196850D01*
X191732Y-22244D02*
X191929Y-22047D01*
X199016Y-31693D02*
X201772D01*
X198819Y-31890D02*
X199016Y-31693D01*
X201772D02*
X201969Y-31496D01*
X56496Y-96772D02*
X59449D01*
X51551Y-91827D02*
Y-88276D01*
X46740Y-86772D02*
X50047D01*
X51551Y-91827D02*
X56496Y-96772D01*
X50047Y-86772D02*
X51551Y-88276D01*
X50047Y-76772D02*
X51551Y-78276D01*
Y-81827D02*
X56496Y-86772D01*
X59449D01*
X46740Y-76772D02*
X50047D01*
X51551Y-81827D02*
Y-78276D01*
X50047Y-66772D02*
X51551Y-68276D01*
Y-71827D02*
Y-68276D01*
Y-71827D02*
X56496Y-76772D01*
X46740Y-66772D02*
X50047D01*
X56496Y-76772D02*
X59449D01*
X200000Y-129921D02*
X201378Y-131299D01*
X205807D01*
X148031Y-115354D02*
X150394D01*
X150984Y-114764D01*
X148031Y-115354D02*
Y-111024D01*
X150984Y-114764D02*
Y-112486D01*
X152008Y-111462D01*
X148031Y-111024D02*
X148031Y-111024D01*
X157087Y-115748D02*
Y-111541D01*
X157008Y-111462D02*
X157087Y-111541D01*
X161760Y-115110D02*
X163386Y-116736D01*
Y-116929D02*
Y-116736D01*
X138583Y-131890D02*
X142126D01*
X175591Y-135433D02*
Y-131890D01*
X212008Y-116909D02*
Y-111462D01*
X201689Y-127228D02*
X212008Y-116909D01*
X62402Y-56772D02*
X71047Y-65417D01*
X63866Y-68236D02*
Y-68236D01*
Y-68236D02*
X69252Y-73622D01*
X62402Y-66772D02*
X63866Y-68236D01*
Y-78236D02*
X67457Y-81827D01*
X63866Y-78236D02*
Y-78236D01*
X62402Y-76772D02*
X63866Y-78236D01*
X62402Y-86772D02*
X65661Y-90031D01*
X59449Y-96772D02*
X62402D01*
X59449Y-86772D02*
X62402D01*
X59449Y-76772D02*
X62402D01*
X164598Y-120047D02*
X167008Y-117638D01*
Y-111462D01*
X177370Y-121843D02*
X182008Y-117205D01*
Y-111462D01*
X192008Y-116654D02*
Y-111462D01*
X185024Y-123638D02*
X192008Y-116654D01*
X207008Y-119370D02*
Y-111462D01*
X200945Y-125433D02*
X207008Y-119370D01*
X145276Y-131791D02*
X148043Y-129024D01*
X153827D01*
X156693Y-131890D01*
X133063Y-118252D02*
X158618D01*
X111142Y-96331D02*
X133063Y-118252D01*
X158618D02*
X161760Y-115110D01*
X170472Y-131890D02*
X172945Y-129417D01*
X178161Y-131311D02*
X178740Y-131890D01*
X178161Y-131311D02*
Y-130371D01*
X177208Y-129417D02*
X178161Y-130371D01*
X172945Y-129417D02*
X177208D01*
X145276Y-131890D02*
Y-131791D01*
X59449Y-66772D02*
X62402D01*
X59449Y-56772D02*
X62402D01*
X161760Y-115110D02*
Y-111710D01*
X162008Y-111462D01*
X111142Y-96331D02*
Y-93024D01*
X153949Y-103949D02*
X157008Y-107008D01*
Y-111462D02*
Y-107008D01*
X122646Y-97835D02*
Y-94528D01*
Y-97835D02*
X122736D01*
X121142Y-93024D02*
X122646Y-94528D01*
D76*
X183903Y-28248D02*
X205211D01*
X35925Y-31326D02*
Y-25719D01*
Y-51575D02*
Y-31326D01*
X74803Y-88189D02*
X78090Y-91476D01*
X84024D01*
X35925Y-51575D02*
X74803D01*
Y-88189D02*
Y-51575D01*
X35925Y-96737D02*
Y-51575D01*
X101142Y-92461D02*
Y-92204D01*
X100413Y-91476D02*
X101142Y-92204D01*
X84024Y-91476D02*
X100413D01*
X166593Y-28740D02*
X183410D01*
X183903Y-28248D01*
X205211D02*
X207057D01*
X205211Y-31403D02*
Y-28248D01*
X205118Y-31496D02*
X205211Y-31403D01*
X162379Y-135925D02*
X163878Y-134426D01*
X150394Y-135925D02*
X162379D01*
X163878Y-134426D02*
Y-132185D01*
X164173Y-131890D01*
X150394Y-135925D02*
Y-131890D01*
X68996Y-135925D02*
X150394D01*
X212008Y-42033D02*
Y-36196D01*
X208957Y-33144D02*
X212008Y-36196D01*
X35925Y-102854D02*
X68996Y-135925D01*
X35925Y-102854D02*
Y-96737D01*
X35959Y-96772D01*
X46740D01*
X35925Y-25719D02*
X45207Y-16437D01*
X87766D01*
X98002Y-26673D02*
X135571D01*
X87766Y-16437D02*
X98002Y-26673D01*
X140590Y-21654D02*
X150394D01*
X135571Y-26673D02*
X140590Y-21654D01*
X157480Y-28740D02*
X159449D01*
X150394Y-21654D02*
X157480Y-28740D01*
X159449D02*
X166593D01*
Y-29192D02*
Y-28740D01*
Y-29192D02*
X166831Y-29429D01*
X208957Y-33144D02*
Y-30148D01*
X207057Y-28248D02*
X208957Y-30148D01*
D77*
X77755Y-45373D02*
Y-42421D01*
Y-39764D01*
Y-42421D02*
X91455D01*
X95177Y-46143D01*
Y-47800D02*
Y-46143D01*
X77755Y-39764D02*
Y-35433D01*
Y-31298D01*
X74803Y-48325D02*
X77755Y-45373D01*
X77559Y-31102D02*
X77755Y-31298D01*
X74803Y-51575D02*
Y-48325D01*
X95093Y-47884D02*
X95177Y-47800D01*
X95093Y-49789D02*
Y-47884D01*
X35925Y-31326D02*
X36149Y-31102D01*
X50000D01*
X150197Y-35630D02*
X150787Y-36220D01*
X146929Y-33701D02*
X148858Y-35630D01*
X146929Y-33701D02*
Y-33445D01*
X146260Y-32776D02*
X146929Y-33445D01*
X148858Y-35630D02*
X150197D01*
D78*
X142323Y-33352D02*
X143209Y-34238D01*
X142323Y-33352D02*
Y-32776D01*
X143209Y-35335D02*
Y-34238D01*
Y-35335D02*
X146161Y-38287D01*
X146260Y-31682D02*
Y-31511D01*
Y-32776D02*
Y-31682D01*
Y-31511D02*
X148735Y-29035D01*
X150492D01*
X150787Y-28740D01*
D79*
X126102Y-40138D02*
X126496Y-40532D01*
X121656Y-32776D02*
X126102Y-37222D01*
X110866Y-32776D02*
X121656D01*
X109252Y-34390D02*
X110866Y-32776D01*
X107598Y-36892D02*
X109252Y-35239D01*
Y-34390D01*
X126102Y-40138D02*
Y-37222D01*
X107598Y-40138D02*
Y-36892D01*
X107205Y-40532D02*
X107598Y-40138D01*
X109252Y-72933D02*
X111834D01*
X112340Y-73439D01*
X113175D01*
X109252Y-72933D02*
X109547Y-73228D01*
Y-75295D02*
X111206Y-76955D01*
X109547Y-75295D02*
Y-73228D01*
D80*
X191339Y-76772D02*
D03*
X189110D02*
D03*
X191339Y-83465D02*
D03*
X189110D02*
D03*
X186882Y-72315D02*
D03*
Y-74543D02*
D03*
Y-76772D02*
D03*
Y-79004D02*
D03*
Y-81232D02*
D03*
Y-83465D02*
D03*
Y-85693D02*
D03*
Y-87921D02*
D03*
X184650Y-76772D02*
D03*
X182421D02*
D03*
X184650Y-83465D02*
D03*
X182421D02*
D03*
X180189Y-72315D02*
D03*
Y-74543D02*
D03*
Y-76772D02*
D03*
Y-79004D02*
D03*
Y-81232D02*
D03*
Y-83465D02*
D03*
Y-85693D02*
D03*
Y-87921D02*
D03*
X177961Y-76772D02*
D03*
X175732D02*
D03*
X177961Y-83465D02*
D03*
X175732D02*
D03*
D81*
X222441Y-27559D02*
D03*
X13780Y-125984D02*
D03*
Y-27559D02*
D03*
X222441Y-125984D02*
D03*
D82*
X105473Y-34843D02*
D03*
X128228D02*
D03*
D83*
X99843Y-20472D02*
D03*
X133858D02*
D03*
X99843Y-36929D02*
D03*
X133858D02*
D03*
D84*
X13780Y27559D02*
D03*
Y125984D02*
D03*
X222441D02*
D03*
Y27559D02*
D03*
D85*
X131890Y-58661D02*
D03*
X130013Y-56784D02*
D03*
X114567Y-83858D02*
D03*
X112992Y-85433D02*
D03*
X94882Y-29921D02*
D03*
X133071Y-55118D02*
D03*
X47244Y-59842D02*
D03*
Y-62008D02*
D03*
X134524Y-93024D02*
D03*
X137118D02*
D03*
X140945Y-115354D02*
D03*
X83858Y-53150D02*
D03*
Y-50787D02*
D03*
X83858Y-83359D02*
D03*
Y-80341D02*
D03*
X180709Y-31988D02*
D03*
X188189Y-31890D02*
D03*
X199508Y-37478D02*
D03*
X201181Y-17323D02*
D03*
X196457D02*
D03*
X195965Y-136417D02*
D03*
X200787Y-136516D02*
D03*
X215846Y-106398D02*
D03*
X220374Y-110827D02*
D03*
X218307Y-106299D02*
D03*
X220669Y-43996D02*
D03*
X218406Y-46949D02*
D03*
X215748D02*
D03*
X163494Y-35355D02*
D03*
X157480Y-32480D02*
D03*
X97441Y-61024D02*
D03*
X101378Y-64961D02*
D03*
X105315Y-61024D02*
D03*
X101378Y-57087D02*
D03*
X112008Y-45374D02*
D03*
X90354Y-45177D02*
D03*
X74410Y-29921D02*
D03*
X74016Y-44094D02*
D03*
X73622Y-38976D02*
D03*
X78347Y-61811D02*
D03*
X93307Y-72047D02*
D03*
X101575D02*
D03*
X107480Y-80709D02*
D03*
X84646Y-45276D02*
D03*
Y-21654D02*
D03*
X80430Y-46457D02*
D03*
X123228Y-45669D02*
D03*
X129646Y-47244D02*
D03*
X146063Y-43701D02*
D03*
X109843Y-85433D02*
D03*
X184252Y-31890D02*
D03*
X191732Y-32283D02*
D03*
X173622Y-24803D02*
D03*
X166929D02*
D03*
X159843D02*
D03*
X171260Y-32677D02*
D03*
Y-37008D02*
D03*
X174803D02*
D03*
X177953Y-25492D02*
D03*
X186221Y-24803D02*
D03*
X196850Y-22047D02*
D03*
X198819Y-31890D02*
D03*
X200000Y-129921D02*
D03*
X148031Y-111024D02*
D03*
X157087Y-115748D02*
D03*
X163386Y-116929D02*
D03*
X138583Y-131890D02*
D03*
X175591Y-135433D02*
D03*
X122047Y-56299D02*
D03*
X117323Y-86811D02*
D03*
X109252Y-72933D02*
D03*
X112008Y-35531D02*
D03*
X143110Y-84055D02*
D03*
X126476Y-87008D02*
D03*
X162008Y-52658D02*
D03*
X161811Y-60236D02*
D03*
X121464Y-66107D02*
D03*
X118110Y-46850D02*
D03*
X56693Y-26772D02*
D03*
X13780Y33858D02*
D03*
X16929Y33014D02*
D03*
X20079Y27559D02*
D03*
X19235Y30709D02*
D03*
X16929Y22104D02*
D03*
X13780Y21260D02*
D03*
X19235Y24409D02*
D03*
X8324D02*
D03*
X7480Y27559D02*
D03*
X10630Y22104D02*
D03*
Y33014D02*
D03*
X8324Y30709D02*
D03*
X13780Y132283D02*
D03*
X16929Y131439D02*
D03*
X20079Y125984D02*
D03*
X19235Y129134D02*
D03*
X16929Y120529D02*
D03*
X13780Y119685D02*
D03*
X19235Y122835D02*
D03*
X8324D02*
D03*
X7480Y125984D02*
D03*
X10630Y120529D02*
D03*
Y131439D02*
D03*
X8324Y129134D02*
D03*
X222441Y132283D02*
D03*
X225591Y131439D02*
D03*
X228740Y125984D02*
D03*
X227896Y129134D02*
D03*
X225591Y120529D02*
D03*
X222441Y119685D02*
D03*
X227896Y122835D02*
D03*
X216986D02*
D03*
X216142Y125984D02*
D03*
X219291Y120529D02*
D03*
Y131439D02*
D03*
X216986Y129134D02*
D03*
X222441Y33858D02*
D03*
X225591Y33014D02*
D03*
X228740Y27559D02*
D03*
X227896Y30709D02*
D03*
X225591Y22104D02*
D03*
X222441Y21260D02*
D03*
X227896Y24409D02*
D03*
X216986D02*
D03*
X216142Y27559D02*
D03*
X219291Y22104D02*
D03*
Y33014D02*
D03*
X216986Y30709D02*
D03*
M02*
