G04*
G04 #@! TF.GenerationSoftware,Altium Limited,Altium Designer,24.4.1 (13)*
G04*
G04 Layer_Color=65535*
%FSLAX25Y25*%
%MOIN*%
G70*
G04*
G04 #@! TF.SameCoordinates,92744E20-E44E-4A28-8DA4-2BCC43480402*
G04*
G04*
G04 #@! TF.FilePolarity,Positive*
G04*
G01*
G75*
%ADD10C,0.00984*%
%ADD11C,0.01181*%
%ADD12C,0.00787*%
%ADD13C,0.00394*%
%ADD14C,0.00591*%
%ADD15C,0.01000*%
%ADD16C,0.00500*%
G36*
X46240Y-48772D02*
X46562D01*
X47157Y-49018D01*
X47612Y-49473D01*
X47858Y-50068D01*
Y-50711D01*
X47612Y-51306D01*
X47157Y-51761D01*
X46562Y-52008D01*
X46240D01*
X45918D01*
X45324Y-51761D01*
X44868Y-51306D01*
X44622Y-50711D01*
Y-50068D01*
X44868Y-49473D01*
X45324Y-49018D01*
X45918Y-48772D01*
X46240D01*
D01*
D02*
G37*
G36*
X93142Y-93524D02*
Y-93202D01*
X93388Y-92607D01*
X93843Y-92152D01*
X94438Y-91906D01*
X95082D01*
X95676Y-92152D01*
X96131Y-92607D01*
X96378Y-93202D01*
Y-93524D01*
Y-93845D01*
X96131Y-94440D01*
X95676Y-94895D01*
X95082Y-95142D01*
X94438D01*
X93843Y-94895D01*
X93388Y-94440D01*
X93142Y-93845D01*
Y-93524D01*
D01*
D02*
G37*
G36*
X50000Y-22539D02*
X48425Y-21654D01*
X50000Y-20768D01*
Y-22539D01*
D02*
G37*
G36*
X63779D02*
X62205Y-21654D01*
X63779Y-20768D01*
Y-22539D01*
D02*
G37*
G36*
X77559D02*
X75984Y-21654D01*
X77559Y-20768D01*
Y-22539D01*
D02*
G37*
G36*
X152756Y-131004D02*
X154331Y-131890D01*
X152756Y-132776D01*
Y-131004D01*
D02*
G37*
G36*
X166535D02*
X168110Y-131890D01*
X166535Y-132776D01*
Y-131004D01*
D02*
G37*
G36*
X131415Y-56217D02*
X131903Y-57957D01*
X130163Y-57469D01*
X131415Y-56217D01*
D02*
G37*
G36*
X152756Y-20768D02*
X154331Y-21654D01*
X152756Y-22539D01*
Y-20768D01*
D02*
G37*
G36*
X166535D02*
X168110Y-21654D01*
X166535Y-22539D01*
Y-20768D01*
D02*
G37*
G36*
X180315D02*
X181890Y-21654D01*
X180315Y-22539D01*
Y-20768D01*
D02*
G37*
D10*
X89424Y-62137D02*
G03*
X89424Y-62137I-492J0D01*
G01*
X150295Y-25197D02*
G03*
X150295Y-25197I-394J0D01*
G01*
X126425Y-63743D02*
G03*
X126425Y-63743I-492J0D01*
G01*
D11*
X87005Y-100317D02*
G03*
X87005Y-100317I-591J0D01*
G01*
D12*
X130630Y-45669D02*
G03*
X130630Y-45669I-394J0D01*
G01*
X132703Y-53120D02*
X135069Y-55486D01*
X127135Y-58687D02*
X129502Y-61054D01*
X90158Y-87008D02*
Y-73622D01*
X106693D01*
Y-87008D02*
Y-73622D01*
X90158Y-87008D02*
X106693D01*
X154528Y-26378D02*
X155709D01*
X154528Y-38583D02*
X155709D01*
X154528D02*
Y-26378D01*
X155709Y-38583D02*
Y-26378D01*
X3055Y-110794D02*
Y-108826D01*
X3711Y-109482D01*
X4367Y-108826D01*
Y-110794D01*
X6335D02*
X5023D01*
X6335Y-109482D01*
Y-109154D01*
X6007Y-108826D01*
X5351D01*
X5023Y-109154D01*
X6991Y-109482D02*
X8303Y-110794D01*
X7647Y-110138D01*
X8303Y-109482D01*
X6991Y-110794D01*
X8959Y-109154D02*
X9287Y-108826D01*
X9943D01*
X10271Y-109154D01*
Y-109482D01*
X9943Y-109810D01*
X9615D01*
X9943D01*
X10271Y-110138D01*
Y-110466D01*
X9943Y-110794D01*
X9287D01*
X8959Y-110466D01*
X10927Y-110794D02*
Y-110466D01*
X11255D01*
Y-110794D01*
X10927D01*
X13878Y-108826D02*
X12566D01*
Y-109810D01*
X13223Y-109482D01*
X13551D01*
X13878Y-109810D01*
Y-110466D01*
X13551Y-110794D01*
X12894D01*
X12566Y-110466D01*
X16502Y-109482D02*
X17814Y-110794D01*
X17158Y-110138D01*
X17814Y-109482D01*
X16502Y-110794D01*
X21422D02*
Y-108826D01*
X20438Y-109810D01*
X21750D01*
X22406Y-111450D02*
Y-109482D01*
X23390D01*
X23718Y-109810D01*
Y-110466D01*
X23390Y-110794D01*
X22406D01*
X25686Y-109482D02*
X24702D01*
X24374Y-109810D01*
Y-110466D01*
X24702Y-110794D01*
X25686D01*
X26342D02*
X27325D01*
X27654Y-110466D01*
X27325Y-110138D01*
X26669D01*
X26342Y-109810D01*
X26669Y-109482D01*
X27654D01*
X140651Y-129133D02*
Y-126378D01*
X142028D01*
X142487Y-126838D01*
Y-127756D01*
X142028Y-128215D01*
X140651D01*
X141569D02*
X142487Y-129133D01*
X143406D02*
X144324D01*
X143865D01*
Y-126378D01*
X143406Y-126838D01*
X147079Y-129133D02*
Y-126378D01*
X145702Y-127756D01*
X147538D01*
X174115Y-129133D02*
Y-126378D01*
X175493D01*
X175952Y-126838D01*
Y-127756D01*
X175493Y-128215D01*
X174115D01*
X175034D02*
X175952Y-129133D01*
X176870D02*
X177789D01*
X177330D01*
Y-126378D01*
X176870Y-126838D01*
X181003Y-126378D02*
X179166D01*
Y-127756D01*
X180085Y-127297D01*
X180544D01*
X181003Y-127756D01*
Y-128674D01*
X180544Y-129133D01*
X179625D01*
X179166Y-128674D01*
X150854Y-135237D02*
Y-137992D01*
X152231D01*
X152690Y-137532D01*
Y-135696D01*
X152231Y-135237D01*
X150854D01*
X153609Y-137532D02*
X154068Y-137992D01*
X154986D01*
X155446Y-137532D01*
Y-135696D01*
X154986Y-135237D01*
X154068D01*
X153609Y-135696D01*
Y-136155D01*
X154068Y-136614D01*
X155446D01*
X164273Y-135237D02*
Y-137992D01*
X165650D01*
X166109Y-137532D01*
Y-135696D01*
X165650Y-135237D01*
X164273D01*
X167028Y-137992D02*
X167946D01*
X167487D01*
Y-135237D01*
X167028Y-135696D01*
X169324D02*
X169783Y-135237D01*
X170701D01*
X171160Y-135696D01*
Y-137532D01*
X170701Y-137992D01*
X169783D01*
X169324Y-137532D01*
Y-135696D01*
X40257Y-28149D02*
Y-25394D01*
X41635D01*
X42094Y-25853D01*
Y-26772D01*
X41635Y-27231D01*
X40257D01*
X41175D02*
X42094Y-28149D01*
X43012D02*
X43930D01*
X43471D01*
Y-25394D01*
X43012Y-25853D01*
X47145Y-28149D02*
X45308D01*
X47145Y-26313D01*
Y-25853D01*
X46685Y-25394D01*
X45767D01*
X45308Y-25853D01*
X83334Y-32480D02*
Y-29725D01*
X84712D01*
X85171Y-30184D01*
Y-31102D01*
X84712Y-31561D01*
X83334D01*
X84253D02*
X85171Y-32480D01*
X86089D02*
X87008D01*
X86549D01*
Y-29725D01*
X86089Y-30184D01*
X88385Y-32480D02*
X89303D01*
X88844D01*
Y-29725D01*
X88385Y-30184D01*
X121418Y-48681D02*
X123366Y-50629D01*
X124340Y-49655D01*
Y-49005D01*
X123042Y-47707D01*
X122392D01*
X121418Y-48681D01*
X123691Y-47058D02*
Y-46408D01*
X124340Y-45759D01*
X124990D01*
X125314Y-46083D01*
Y-46733D01*
X124990Y-47058D01*
X125314Y-46733D01*
X125964D01*
X126288Y-47058D01*
Y-47707D01*
X125639Y-48356D01*
X124990D01*
X135591Y-55374D02*
X137540Y-57322D01*
X138514Y-56348D01*
Y-55699D01*
X137215Y-54400D01*
X136566D01*
X135591Y-55374D01*
X137540Y-53426D02*
X138838Y-52127D01*
X139163Y-52452D01*
Y-55049D01*
X139488Y-55374D01*
X196982Y-123491D02*
X196523Y-123032D01*
X195605D01*
X195145Y-123491D01*
Y-123950D01*
X195605Y-124409D01*
X196523D01*
X196982Y-124869D01*
Y-125328D01*
X196523Y-125787D01*
X195605D01*
X195145Y-125328D01*
X197901Y-123032D02*
Y-125787D01*
X198819Y-124869D01*
X199737Y-125787D01*
Y-123032D01*
X202492Y-125787D02*
X200656D01*
X202492Y-123950D01*
Y-123491D01*
X202033Y-123032D01*
X201115D01*
X200656Y-123491D01*
X189567Y-26641D02*
X189108Y-26182D01*
X188190D01*
X187731Y-26641D01*
Y-27100D01*
X188190Y-27559D01*
X189108D01*
X189567Y-28018D01*
Y-28477D01*
X189108Y-28937D01*
X188190D01*
X187731Y-28477D01*
X190486Y-26182D02*
Y-28937D01*
X191404Y-28018D01*
X192322Y-28937D01*
Y-26182D01*
X193241Y-28937D02*
X194159D01*
X193700D01*
Y-26182D01*
X193241Y-26641D01*
X145686Y-119129D02*
X145227Y-118670D01*
X144309D01*
X143850Y-119129D01*
Y-120966D01*
X144309Y-121425D01*
X145227D01*
X145686Y-120966D01*
X148441Y-121425D02*
X146605D01*
X148441Y-119588D01*
Y-119129D01*
X147982Y-118670D01*
X147064D01*
X146605Y-119129D01*
X88386Y-100064D02*
X91141Y-98227D01*
X88386D02*
X91141Y-100064D01*
X88386Y-97309D02*
Y-95472D01*
Y-96390D01*
X91141D01*
Y-94554D02*
X89305D01*
X88386Y-93635D01*
X89305Y-92717D01*
X91141D01*
X89764D01*
Y-94554D01*
X88386Y-91799D02*
X91141D01*
Y-89962D01*
Y-89044D02*
Y-88125D01*
Y-88585D01*
X88386D01*
X88845Y-89044D01*
X69358Y-47835D02*
X71194Y-50590D01*
Y-47835D02*
X69358Y-50590D01*
X73490D02*
Y-47835D01*
X72113Y-49213D01*
X73949D01*
X90224Y-109745D02*
X92061Y-112500D01*
Y-109745D02*
X90224Y-112500D01*
X92979Y-110204D02*
X93438Y-109745D01*
X94356D01*
X94815Y-110204D01*
Y-110663D01*
X94356Y-111122D01*
X93897D01*
X94356D01*
X94815Y-111581D01*
Y-112040D01*
X94356Y-112500D01*
X93438D01*
X92979Y-112040D01*
X26444Y-47835D02*
X28281Y-50590D01*
Y-47835D02*
X26444Y-50590D01*
X31036D02*
X29199D01*
X31036Y-48753D01*
Y-48294D01*
X30577Y-47835D01*
X29658D01*
X29199Y-48294D01*
X91470Y-16339D02*
X93307Y-19094D01*
Y-16339D02*
X91470Y-19094D01*
X94225D02*
X95144D01*
X94685D01*
Y-16339D01*
X94225Y-16798D01*
X133897Y-84515D02*
X135521Y-86138D01*
X136170D01*
X136820Y-85489D01*
Y-84840D01*
X135196Y-83216D01*
X138768Y-83541D02*
X136820Y-81593D01*
Y-83541D01*
X138118Y-82242D01*
X158728Y-30906D02*
Y-33202D01*
X159187Y-33661D01*
X160105D01*
X160564Y-33202D01*
Y-30906D01*
X161483Y-31365D02*
X161942Y-30906D01*
X162860D01*
X163320Y-31365D01*
Y-31824D01*
X162860Y-32283D01*
X162401D01*
X162860D01*
X163320Y-32743D01*
Y-33202D01*
X162860Y-33661D01*
X161942D01*
X161483Y-33202D01*
X111379Y-61082D02*
X113002Y-62706D01*
X113652D01*
X114301Y-62056D01*
Y-61407D01*
X112678Y-59784D01*
X116574D02*
X115275Y-61082D01*
Y-58485D01*
X114950Y-58160D01*
X114301D01*
X113652Y-58810D01*
Y-59459D01*
X205250Y-116339D02*
Y-118635D01*
X205709Y-119094D01*
X206627D01*
X207087Y-118635D01*
Y-116339D01*
X208005Y-119094D02*
X208923D01*
X208464D01*
Y-116339D01*
X208005Y-116798D01*
X176478Y-33267D02*
Y-30512D01*
X177855D01*
X178314Y-30971D01*
Y-31890D01*
X177855Y-32349D01*
X176478D01*
X177396D02*
X178314Y-33267D01*
X179233D02*
X180151D01*
X179692D01*
Y-30512D01*
X179233Y-30971D01*
X181528D02*
X181988Y-30512D01*
X182906D01*
X183365Y-30971D01*
Y-31431D01*
X182906Y-31890D01*
X182447D01*
X182906D01*
X183365Y-32349D01*
Y-32808D01*
X182906Y-33267D01*
X181988D01*
X181528Y-32808D01*
X83334Y-36811D02*
Y-34056D01*
X84712D01*
X85171Y-34515D01*
Y-35433D01*
X84712Y-35892D01*
X83334D01*
X84253D02*
X85171Y-36811D01*
X86089D02*
X87008D01*
X86549D01*
Y-34056D01*
X86089Y-34515D01*
X88385D02*
X88844Y-34056D01*
X89763D01*
X90222Y-34515D01*
Y-36351D01*
X89763Y-36811D01*
X88844D01*
X88385Y-36351D01*
Y-34515D01*
X122118Y-63947D02*
X120170Y-61999D01*
X121144Y-61025D01*
X121793D01*
X122442Y-61674D01*
Y-62324D01*
X121468Y-63298D01*
X122118Y-62648D02*
X123416D01*
X123741Y-61674D02*
X124390D01*
X125040Y-61025D01*
Y-60376D01*
X123741Y-59077D01*
X123092D01*
X122442Y-59726D01*
Y-60376D01*
X122767Y-60700D01*
X123416D01*
X124390Y-59726D01*
X83334Y-41141D02*
Y-38386D01*
X84712D01*
X85171Y-38845D01*
Y-39764D01*
X84712Y-40223D01*
X83334D01*
X84253D02*
X85171Y-41141D01*
X86089Y-38845D02*
X86549Y-38386D01*
X87467D01*
X87926Y-38845D01*
Y-39305D01*
X87467Y-39764D01*
X87926Y-40223D01*
Y-40682D01*
X87467Y-41141D01*
X86549D01*
X86089Y-40682D01*
Y-40223D01*
X86549Y-39764D01*
X86089Y-39305D01*
Y-38845D01*
X86549Y-39764D02*
X87467D01*
X69456Y-28149D02*
Y-25394D01*
X70834D01*
X71293Y-25853D01*
Y-26772D01*
X70834Y-27231D01*
X69456D01*
X70375D02*
X71293Y-28149D01*
X74048Y-25394D02*
X72211D01*
Y-26772D01*
X73130Y-26313D01*
X73589D01*
X74048Y-26772D01*
Y-27690D01*
X73589Y-28149D01*
X72671D01*
X72211Y-27690D01*
X83334Y-28149D02*
Y-25394D01*
X84712D01*
X85171Y-25853D01*
Y-26772D01*
X84712Y-27231D01*
X83334D01*
X84253D02*
X85171Y-28149D01*
X86089Y-25394D02*
X87926D01*
Y-25853D01*
X86089Y-27690D01*
Y-28149D01*
X136358Y-48267D02*
X134410Y-46319D01*
X135384Y-45345D01*
X136034D01*
X136683Y-45994D01*
Y-46643D01*
X135709Y-47617D01*
X136358Y-46968D02*
X137657D01*
Y-43072D02*
X137332Y-44046D01*
Y-45345D01*
X137982Y-45994D01*
X138631D01*
X139281Y-45345D01*
Y-44695D01*
X138956Y-44370D01*
X138307D01*
X137332Y-45345D01*
X42586Y-32480D02*
Y-29725D01*
X43964D01*
X44423Y-30184D01*
Y-31102D01*
X43964Y-31561D01*
X42586D01*
X43504D02*
X44423Y-32480D01*
X46719D02*
Y-29725D01*
X45341Y-31102D01*
X47178D01*
X201248Y-28543D02*
Y-25788D01*
X202625D01*
X203084Y-26247D01*
Y-27165D01*
X202625Y-27624D01*
X201248D01*
X202166D02*
X203084Y-28543D01*
X204002Y-26247D02*
X204462Y-25788D01*
X205380D01*
X205839Y-26247D01*
Y-26706D01*
X205380Y-27165D01*
X204921D01*
X205380D01*
X205839Y-27624D01*
Y-28084D01*
X205380Y-28543D01*
X204462D01*
X204002Y-28084D01*
X185401Y-33267D02*
Y-30512D01*
X186778D01*
X187238Y-30971D01*
Y-31890D01*
X186778Y-32349D01*
X185401D01*
X186319D02*
X187238Y-33267D01*
X189993D02*
X188156D01*
X189993Y-31431D01*
Y-30971D01*
X189533Y-30512D01*
X188615D01*
X188156Y-30971D01*
X193636Y-33267D02*
Y-30512D01*
X195013D01*
X195472Y-30971D01*
Y-31890D01*
X195013Y-32349D01*
X193636D01*
X194554D02*
X195472Y-33267D01*
X196391D02*
X197309D01*
X196850D01*
Y-30512D01*
X196391Y-30971D01*
X150854Y-15158D02*
Y-17913D01*
X152231D01*
X152690Y-17454D01*
Y-15617D01*
X152231Y-15158D01*
X150854D01*
X153609Y-15617D02*
X154068Y-15158D01*
X154986D01*
X155446Y-15617D01*
Y-16076D01*
X154986Y-16535D01*
X155446Y-16995D01*
Y-17454D01*
X154986Y-17913D01*
X154068D01*
X153609Y-17454D01*
Y-16995D01*
X154068Y-16535D01*
X153609Y-16076D01*
Y-15617D01*
X154068Y-16535D02*
X154986D01*
X47704Y-15158D02*
Y-17913D01*
X49082D01*
X49541Y-17454D01*
Y-15617D01*
X49082Y-15158D01*
X47704D01*
X52296D02*
X51377Y-15617D01*
X50459Y-16535D01*
Y-17454D01*
X50918Y-17913D01*
X51837D01*
X52296Y-17454D01*
Y-16995D01*
X51837Y-16535D01*
X50459D01*
X61090Y-15158D02*
Y-17913D01*
X62467D01*
X62927Y-17454D01*
Y-15617D01*
X62467Y-15158D01*
X61090D01*
X65682D02*
X63845D01*
Y-16535D01*
X64763Y-16076D01*
X65223D01*
X65682Y-16535D01*
Y-17454D01*
X65223Y-17913D01*
X64304D01*
X63845Y-17454D01*
X74476Y-15158D02*
Y-17913D01*
X75853D01*
X76313Y-17454D01*
Y-15617D01*
X75853Y-15158D01*
X74476D01*
X78608Y-17913D02*
Y-15158D01*
X77231Y-16535D01*
X79067D01*
X165027Y-15158D02*
Y-17913D01*
X166404D01*
X166864Y-17454D01*
Y-15617D01*
X166404Y-15158D01*
X165027D01*
X169619Y-17913D02*
X167782D01*
X169619Y-16076D01*
Y-15617D01*
X169159Y-15158D01*
X168241D01*
X167782Y-15617D01*
X179266Y-15158D02*
Y-17913D01*
X180643D01*
X181102Y-17454D01*
Y-15617D01*
X180643Y-15158D01*
X179266D01*
X182021Y-17913D02*
X182939D01*
X182480D01*
Y-15158D01*
X182021Y-15617D01*
X115261Y-85616D02*
Y-84966D01*
X114612Y-84317D01*
X113962D01*
X112664Y-85616D01*
Y-86265D01*
X113313Y-86914D01*
X113962D01*
X114287Y-87889D02*
X114936Y-88538D01*
X114612Y-88213D01*
X116560Y-86265D01*
X115910D01*
X117534Y-87889D02*
X118183D01*
X118833Y-88538D01*
Y-89187D01*
X117534Y-90486D01*
X116884D01*
X116235Y-89837D01*
Y-89187D01*
X117534Y-87889D01*
X111348Y-81309D02*
Y-80660D01*
X110699Y-80011D01*
X110050D01*
X108751Y-81309D01*
Y-81959D01*
X109400Y-82608D01*
X110050D01*
X110699Y-83258D02*
Y-83907D01*
X111348Y-84556D01*
X111998D01*
X113296Y-83258D01*
Y-82608D01*
X112647Y-81959D01*
X111998D01*
X111673Y-82284D01*
Y-82933D01*
X112647Y-83907D01*
X110731Y-68883D02*
X110082D01*
X109433Y-69532D01*
Y-70182D01*
X110731Y-71481D01*
X111381D01*
X112030Y-70831D01*
Y-70182D01*
X111381Y-68234D02*
Y-67584D01*
X112030Y-66935D01*
X112680D01*
X113004Y-67260D01*
Y-67909D01*
X113654D01*
X113978Y-68234D01*
Y-68883D01*
X113329Y-69532D01*
X112680D01*
X112355Y-69208D01*
Y-68558D01*
X111706D01*
X111381Y-68234D01*
X112355Y-68558D02*
X113004Y-67909D01*
X172572Y-28412D02*
X172113Y-27953D01*
X171195D01*
X170736Y-28412D01*
Y-30249D01*
X171195Y-30708D01*
X172113D01*
X172572Y-30249D01*
X173491Y-27953D02*
X175327D01*
Y-28412D01*
X173491Y-30249D01*
Y-30708D01*
X143143Y-23097D02*
X142684Y-22638D01*
X141766D01*
X141306Y-23097D01*
Y-24934D01*
X141766Y-25393D01*
X142684D01*
X143143Y-24934D01*
X145898Y-22638D02*
X144980Y-23097D01*
X144062Y-24016D01*
Y-24934D01*
X144521Y-25393D01*
X145439D01*
X145898Y-24934D01*
Y-24475D01*
X145439Y-24016D01*
X144062D01*
X143242Y-27428D02*
X142782Y-26969D01*
X141864D01*
X141405Y-27428D01*
Y-29265D01*
X141864Y-29724D01*
X142782D01*
X143242Y-29265D01*
X145997Y-26969D02*
X144160D01*
Y-28346D01*
X145078Y-27887D01*
X145537D01*
X145997Y-28346D01*
Y-29265D01*
X145537Y-29724D01*
X144619D01*
X144160Y-29265D01*
X106506Y-47116D02*
X105857D01*
X105208Y-47766D01*
Y-48415D01*
X106506Y-49714D01*
X107156D01*
X107805Y-49064D01*
Y-48415D01*
X109753Y-47116D02*
X107805Y-45168D01*
Y-47116D01*
X109104Y-45818D01*
X97648Y-45935D02*
X96999D01*
X96349Y-46584D01*
Y-47234D01*
X97648Y-48533D01*
X98297D01*
X98947Y-47883D01*
Y-47234D01*
X98297Y-45286D02*
Y-44636D01*
X98947Y-43987D01*
X99596D01*
X99921Y-44312D01*
Y-44961D01*
X99596Y-45286D01*
X99921Y-44961D01*
X100570D01*
X100895Y-45286D01*
Y-45935D01*
X100245Y-46584D01*
X99596D01*
X209055Y-35302D02*
X208596Y-34843D01*
X207678D01*
X207218Y-35302D01*
Y-37139D01*
X207678Y-37598D01*
X208596D01*
X209055Y-37139D01*
X209973Y-37598D02*
X210892D01*
X210433D01*
Y-34843D01*
X209973Y-35302D01*
D13*
X109890Y-49097D02*
X111561Y-50768D01*
Y-46453D02*
X114205Y-49097D01*
X106689Y-51324D02*
X111561Y-46453D01*
X109334Y-53969D02*
X114205Y-49097D01*
X106689Y-51324D02*
X109334Y-53969D01*
Y-49654D02*
X111004Y-51324D01*
X203543Y-32874D02*
Y-30118D01*
X200098Y-33366D02*
Y-29626D01*
Y-33366D02*
X206988D01*
X200098Y-29626D02*
X206988D01*
Y-33366D02*
Y-29626D01*
X203937Y-37008D02*
Y-34646D01*
X206988Y-37697D02*
Y-33957D01*
X200098D02*
X206988D01*
X200098Y-37697D02*
X206988D01*
X200098D02*
Y-33957D01*
X203150Y-37008D02*
Y-34646D01*
X79134Y-36811D02*
Y-34055D01*
X75689Y-37303D02*
Y-33563D01*
Y-37303D02*
X82579D01*
X75689Y-33563D02*
X82579D01*
Y-37303D02*
Y-33563D01*
X79134Y-41142D02*
Y-38386D01*
X75689Y-41634D02*
Y-37894D01*
Y-41634D02*
X82579D01*
X75689Y-37894D02*
X82579D01*
Y-41634D02*
Y-37894D01*
X93144Y-49539D02*
X94814Y-47868D01*
Y-52183D02*
X97459Y-49539D01*
X92587Y-44667D02*
X97459Y-49539D01*
X89943Y-47312D02*
X94814Y-52183D01*
X89943Y-47312D02*
X92587Y-44667D01*
Y-48982D02*
X94258Y-47312D01*
X143898Y-33957D02*
Y-31594D01*
X140847Y-34646D02*
Y-30906D01*
Y-34646D02*
X147736D01*
X140847Y-30906D02*
X147736D01*
Y-34646D02*
Y-30906D01*
X144685Y-33957D02*
Y-31594D01*
X164075Y-37894D02*
X169587D01*
Y-26870D01*
X164075D02*
X169587D01*
X164075Y-37894D02*
Y-26870D01*
X165131Y-31782D02*
X168531D01*
X165131Y-32982D02*
X168531D01*
X191240Y-37697D02*
Y-33957D01*
X184350D02*
X191240D01*
X184350Y-37697D02*
X191240D01*
X184350D02*
Y-33957D01*
X187795Y-37205D02*
Y-34449D01*
X199114Y-37697D02*
Y-33957D01*
X192224D02*
X199114D01*
X192224Y-37697D02*
X199114D01*
X192224D02*
Y-33957D01*
X195669Y-37205D02*
Y-34449D01*
X146457Y-116535D02*
Y-114173D01*
X149508Y-117224D02*
Y-113484D01*
X142618D02*
X149508D01*
X142618Y-117224D02*
X149508D01*
X142618D02*
Y-113484D01*
X145669Y-116535D02*
Y-114173D01*
X143701Y-133268D02*
Y-130512D01*
X147146Y-133760D02*
Y-130020D01*
X140256D02*
X147146D01*
X140256Y-133760D02*
X147146D01*
X140256D02*
Y-130020D01*
X177165Y-133268D02*
Y-130512D01*
X180610Y-133760D02*
Y-130020D01*
X173721D02*
X180610D01*
X173721Y-133760D02*
X180610D01*
X173721D02*
Y-130020D01*
X129706Y-48493D02*
X132351Y-45848D01*
X129706Y-48493D02*
X134578Y-53364D01*
X132351Y-45848D02*
X137223Y-50720D01*
X134578Y-53364D02*
X137223Y-50720D01*
X132490Y-50581D02*
X134439Y-48632D01*
X113453Y-71491D02*
X115124Y-73161D01*
X110809D02*
X113453Y-75805D01*
X118325Y-70934D01*
X110809Y-73161D02*
X115681Y-68289D01*
X118325Y-70934D01*
X114010D02*
X115681Y-72604D01*
X117160Y-84578D02*
X118830Y-82908D01*
Y-87223D02*
X121475Y-84578D01*
X116603Y-79706D02*
X121475Y-84578D01*
X113958Y-82351D02*
X118830Y-87223D01*
X113958Y-82351D02*
X116603Y-79706D01*
Y-84021D02*
X118273Y-82351D01*
X111485Y-78903D02*
X113155Y-77233D01*
X108840D02*
X111485Y-74588D01*
X108840Y-77233D02*
X113712Y-82105D01*
X111485Y-74588D02*
X116357Y-79460D01*
X113712Y-82105D02*
X116357Y-79460D01*
X112042D02*
X113712Y-77790D01*
X119617Y-61238D02*
X122262Y-58594D01*
X117390Y-53722D02*
X122262Y-58594D01*
X114746Y-56367D02*
X119617Y-61238D01*
X114746Y-56367D02*
X117390Y-53722D01*
X117530Y-58455D02*
X119478Y-56506D01*
X82579Y-28642D02*
Y-24902D01*
X75689D02*
X82579D01*
X75689Y-28642D02*
X82579D01*
X75689D02*
Y-24902D01*
X79134Y-28150D02*
Y-25394D01*
X55020Y-32972D02*
Y-29232D01*
X48130D02*
X55020D01*
X48130Y-32972D02*
X55020D01*
X48130D02*
Y-29232D01*
X51575Y-32480D02*
Y-29724D01*
Y-28150D02*
Y-25394D01*
X55020Y-28642D02*
Y-24902D01*
X48130D02*
X55020D01*
X48130Y-28642D02*
X55020D01*
X48130D02*
Y-24902D01*
X82579Y-32972D02*
Y-29232D01*
X75689D02*
X82579D01*
X75689Y-32972D02*
X82579D01*
X75689D02*
Y-29232D01*
X79134Y-32480D02*
Y-29724D01*
X68799Y-28642D02*
Y-24902D01*
X61910D02*
X68799D01*
X61910Y-28642D02*
X68799D01*
X61910D02*
Y-24902D01*
X65354Y-28150D02*
Y-25394D01*
X179921Y-37205D02*
Y-34449D01*
X176476Y-37697D02*
Y-33957D01*
Y-37697D02*
X183366D01*
X176476Y-33957D02*
X183366D01*
Y-37697D02*
Y-33957D01*
X148721Y-41043D02*
Y-35531D01*
X137697D02*
X148721D01*
X137697Y-41043D02*
Y-35531D01*
Y-41043D02*
X148721D01*
X142609Y-39987D02*
Y-36587D01*
X143809Y-39987D02*
Y-36587D01*
D14*
X173031Y-133071D02*
Y-130709D01*
X159252Y-133071D02*
Y-130709D01*
X186811Y-22835D02*
Y-20472D01*
X173031Y-22835D02*
Y-20472D01*
X159252Y-22835D02*
Y-20472D01*
X71063Y-22835D02*
Y-20472D01*
X57284Y-22835D02*
Y-20472D01*
X43504Y-22835D02*
Y-20472D01*
D15*
X245275Y-112747D02*
Y-106747D01*
X236508D02*
X245275D01*
X236508D02*
Y-100747D01*
X245508D01*
Y-94747D01*
X236508D02*
X245508D01*
X236508D02*
Y-89747D01*
X245508D01*
Y-81747D01*
X236508D02*
X245508D01*
X236508D02*
Y-73747D01*
X245508D01*
Y-51747D01*
X140508Y-112747D02*
X149326D01*
X140508D02*
Y-41747D01*
X219689D02*
X248508D01*
Y-112747D02*
Y-41747D01*
X219689Y-112747D02*
X248508D01*
X140508Y-41747D02*
X149326D01*
X136142Y-116040D02*
Y-106197D01*
X96142Y-116040D02*
X136142D01*
X96142Y-106197D02*
X136142D01*
X101112D02*
Y-99110D01*
X111112Y-106197D02*
Y-99110D01*
X121112Y-106197D02*
Y-99110D01*
X131112Y-106197D02*
Y-99110D01*
X96142Y-116040D02*
Y-106197D01*
X81693Y-101772D02*
Y-99650D01*
Y-93893D02*
Y-89650D01*
Y-83893D02*
Y-79650D01*
Y-73893D02*
Y-69650D01*
Y-63893D02*
Y-59650D01*
X61614Y-53893D02*
Y-51772D01*
X81693D01*
Y-53893D02*
Y-51772D01*
X61614Y-63893D02*
Y-59650D01*
Y-73893D02*
Y-69650D01*
Y-83893D02*
Y-79650D01*
Y-93893D02*
Y-89650D01*
Y-101772D02*
X81693D01*
X61614D02*
Y-99650D01*
X23724Y-51772D02*
X33567D01*
Y-86742D02*
X40653D01*
X33567Y-76742D02*
X40653D01*
X33567Y-66742D02*
X40653D01*
X33567Y-56742D02*
X40653D01*
X33567Y-101772D02*
Y-51772D01*
X23724Y-101772D02*
Y-51772D01*
Y-101772D02*
X33567D01*
Y-96742D02*
X40653D01*
D16*
X116257Y-47888D02*
X116480Y-48111D01*
X118818Y-50449D02*
X119041Y-50672D01*
X118011Y-51702D02*
X119041Y-50672D01*
X115227Y-48918D02*
X116257Y-47888D01*
X134449Y-15079D02*
Y-10236D01*
X99252D02*
X134449D01*
X99252Y-15079D02*
Y-10236D01*
Y-31535D02*
Y-25866D01*
X134449Y-31535D02*
Y-25866D01*
M02*
