G04*
G04 #@! TF.GenerationSoftware,Altium Limited,Altium Designer,24.4.1 (13)*
G04*
G04 Layer_Physical_Order=2*
G04 Layer_Color=16711680*
%FSLAX25Y25*%
%MOIN*%
G70*
G04*
G04 #@! TF.SameCoordinates,92744E20-E44E-4A28-8DA4-2BCC43480402*
G04*
G04*
G04 #@! TF.FilePolarity,Positive*
G04*
G01*
G75*
%ADD12C,0.00787*%
%ADD72C,0.02362*%
%ADD75C,0.01008*%
%ADD81C,0.01378*%
%ADD82C,0.02756*%
%ADD83O,0.04134X0.08268*%
%ADD84C,0.16535*%
%ADD85C,0.02362*%
%ADD86C,0.15748*%
G36*
X224900Y-15199D02*
X226492Y-15626D01*
X228015Y-16256D01*
X229442Y-17081D01*
X230750Y-18084D01*
X231916Y-19250D01*
X232919Y-20558D01*
X233744Y-21985D01*
X234374Y-23508D01*
X234801Y-25100D01*
X235016Y-26735D01*
Y-27559D01*
Y-40134D01*
X224410D01*
X223949Y-40226D01*
X223558Y-40487D01*
X223297Y-40878D01*
X223205Y-41339D01*
Y-112205D01*
X223297Y-112665D01*
X223558Y-113056D01*
X223949Y-113317D01*
X224410Y-113409D01*
X235016D01*
Y-125984D01*
Y-126809D01*
X234801Y-128443D01*
X234374Y-130035D01*
X233744Y-131558D01*
X232919Y-132986D01*
X231916Y-134293D01*
X230750Y-135459D01*
X229442Y-136463D01*
X228015Y-137287D01*
X226492Y-137918D01*
X224900Y-138344D01*
X223265Y-138560D01*
X222441D01*
X13780Y-138560D01*
X12955D01*
X11321Y-138344D01*
X9729Y-137918D01*
X8206Y-137287D01*
X6778Y-136463D01*
X5470Y-135459D01*
X4305Y-134294D01*
X3301Y-132986D01*
X2477Y-131558D01*
X1846Y-130035D01*
X1419Y-128443D01*
X1204Y-126809D01*
X1204Y-125984D01*
Y-27559D01*
Y-26735D01*
X1419Y-25100D01*
X1846Y-23508D01*
X2477Y-21985D01*
X3301Y-20558D01*
X4305Y-19250D01*
X5470Y-18084D01*
X6778Y-17081D01*
X8206Y-16256D01*
X9729Y-15626D01*
X11321Y-15199D01*
X12955Y-14984D01*
X223266D01*
X224900Y-15199D01*
D02*
G37*
%LPC*%
G36*
X178931Y-21524D02*
X178931Y-21524D01*
X175295D01*
X175295Y-21524D01*
X174681Y-21646D01*
X174160Y-21995D01*
X173714Y-22441D01*
X173152D01*
X172284Y-22801D01*
X171619Y-23465D01*
X171260Y-24333D01*
Y-25273D01*
X171619Y-26141D01*
X172284Y-26806D01*
X173152Y-27165D01*
X174092D01*
X174960Y-26806D01*
X175270Y-26496D01*
X175860Y-26613D01*
X175950Y-26830D01*
X176347Y-27227D01*
Y-33193D01*
X175690Y-33851D01*
X175228Y-33659D01*
Y-31496D01*
X175106Y-30882D01*
X174757Y-30361D01*
X174757Y-30361D01*
X169291Y-24895D01*
Y-24333D01*
X168932Y-23465D01*
X168267Y-22801D01*
X167399Y-22441D01*
X166459D01*
X165591Y-22801D01*
X164976Y-23415D01*
X164872Y-23473D01*
X164349Y-23553D01*
X164000Y-23320D01*
X163386Y-23198D01*
X163386Y-23198D01*
X161577D01*
X161181Y-22801D01*
X160312Y-22441D01*
X159373D01*
X158504Y-22801D01*
X157840Y-23465D01*
X157480Y-24333D01*
Y-25273D01*
X157840Y-26141D01*
X158504Y-26806D01*
X159373Y-27165D01*
X160312D01*
X161181Y-26806D01*
X161577Y-26409D01*
X162721D01*
X168898Y-32586D01*
Y-33147D01*
X169257Y-34015D01*
X169769Y-34527D01*
X169870Y-34843D01*
X169769Y-35158D01*
X169257Y-35670D01*
X168898Y-36538D01*
Y-37478D01*
X169257Y-38346D01*
X169922Y-39010D01*
X170790Y-39370D01*
X171730D01*
X172598Y-39010D01*
X173031Y-38577D01*
X173465Y-39010D01*
X174333Y-39370D01*
X175273D01*
X176141Y-39010D01*
X176806Y-38346D01*
X177165Y-37478D01*
Y-36916D01*
X179088Y-34994D01*
X179436Y-34473D01*
X179558Y-33858D01*
Y-27227D01*
X179955Y-26830D01*
X180294Y-26763D01*
X182646Y-29116D01*
Y-30155D01*
X182249Y-30552D01*
X181890Y-31420D01*
Y-32360D01*
X182249Y-33228D01*
X182914Y-33892D01*
X183782Y-34252D01*
X184722D01*
X185590Y-33892D01*
X186255Y-33228D01*
X186614Y-32360D01*
Y-31420D01*
X186255Y-30552D01*
X185858Y-30155D01*
Y-28451D01*
X185735Y-27836D01*
X185596Y-27627D01*
X185637Y-27503D01*
X185839Y-27231D01*
X186354Y-27208D01*
X189593Y-30446D01*
X189730Y-30945D01*
X189370Y-31814D01*
Y-32753D01*
X189730Y-33621D01*
X190394Y-34286D01*
X191262Y-34646D01*
X192202D01*
X193070Y-34286D01*
X193735Y-33621D01*
X194095Y-32753D01*
Y-31814D01*
X193735Y-30945D01*
X193070Y-30281D01*
X193037Y-30267D01*
Y-30014D01*
X193037Y-30014D01*
X192914Y-29399D01*
X192566Y-28878D01*
X192566Y-28878D01*
X188583Y-24895D01*
Y-24333D01*
X188223Y-23465D01*
X187558Y-22801D01*
X186690Y-22441D01*
X185751D01*
X184882Y-22801D01*
X184218Y-23465D01*
X183858Y-24333D01*
Y-25079D01*
X183368Y-25296D01*
X180067Y-21995D01*
X179546Y-21646D01*
X179444Y-21626D01*
X178931Y-21524D01*
D02*
G37*
G36*
X95352Y-27559D02*
X94412D01*
X93544Y-27919D01*
X92879Y-28583D01*
X92520Y-29451D01*
Y-30391D01*
X92879Y-31259D01*
X93544Y-31924D01*
X94412Y-32283D01*
X95352D01*
X96220Y-31924D01*
X96617Y-31527D01*
X105733D01*
X106652Y-32446D01*
X106368Y-32870D01*
X105903Y-32677D01*
X105042D01*
X104246Y-33007D01*
X103637Y-33616D01*
X103307Y-34412D01*
Y-35273D01*
X103637Y-36069D01*
X104246Y-36678D01*
X105042Y-37008D01*
X105903D01*
X106699Y-36678D01*
X107308Y-36069D01*
X107638Y-35273D01*
Y-34412D01*
X107445Y-33947D01*
X107869Y-33663D01*
X109646Y-35440D01*
Y-36001D01*
X110005Y-36870D01*
X110670Y-37534D01*
X111538Y-37894D01*
X112478D01*
X113346Y-37534D01*
X114010Y-36870D01*
X114370Y-36001D01*
Y-35062D01*
X114010Y-34193D01*
X113346Y-33529D01*
X112478Y-33169D01*
X111916D01*
X107533Y-28786D01*
X107012Y-28438D01*
X106398Y-28316D01*
X106398Y-28316D01*
X96617D01*
X96220Y-27919D01*
X95352Y-27559D01*
D02*
G37*
G36*
X197320Y-19685D02*
X196380D01*
X195512Y-20045D01*
X194848Y-20709D01*
X194488Y-21577D01*
Y-22517D01*
X194848Y-23385D01*
X195132Y-23670D01*
Y-29921D01*
X195263Y-30579D01*
X195635Y-31136D01*
X196457Y-31957D01*
Y-32360D01*
X196816Y-33228D01*
X197481Y-33892D01*
X198349Y-34252D01*
X199289D01*
X200157Y-33892D01*
X200821Y-33228D01*
X201181Y-32360D01*
Y-31420D01*
X200821Y-30552D01*
X200157Y-29887D01*
X199289Y-29528D01*
X198886D01*
X198568Y-29210D01*
Y-23670D01*
X198853Y-23385D01*
X199213Y-22517D01*
Y-21577D01*
X198853Y-20709D01*
X198188Y-20045D01*
X197320Y-19685D01*
D02*
G37*
G36*
X128659Y-32677D02*
X127798D01*
X127002Y-33007D01*
X126393Y-33616D01*
X126063Y-34412D01*
Y-35273D01*
X126393Y-36069D01*
X127002Y-36678D01*
X127798Y-37008D01*
X128659D01*
X129455Y-36678D01*
X130064Y-36069D01*
X130394Y-35273D01*
Y-34412D01*
X130064Y-33616D01*
X129455Y-33007D01*
X128659Y-32677D01*
D02*
G37*
G36*
X85115Y-19291D02*
X84176D01*
X83308Y-19651D01*
X82643Y-20315D01*
X82284Y-21184D01*
Y-22123D01*
X82643Y-22992D01*
X83040Y-23389D01*
Y-43541D01*
X82643Y-43938D01*
X82442Y-44422D01*
X81853Y-44539D01*
X81768Y-44454D01*
X80900Y-44094D01*
X80675D01*
X75984Y-39404D01*
Y-38506D01*
X75625Y-37638D01*
X74960Y-36974D01*
X74092Y-36614D01*
X73152D01*
X72284Y-36974D01*
X71619Y-37638D01*
X71260Y-38506D01*
Y-39446D01*
X71619Y-40314D01*
X72284Y-40979D01*
X73152Y-41339D01*
X73220Y-41826D01*
X73205Y-41873D01*
X72678Y-42092D01*
X72013Y-42756D01*
X71653Y-43625D01*
Y-44564D01*
X72013Y-45433D01*
X72678Y-46097D01*
X73546Y-46457D01*
X74107D01*
X76741Y-49090D01*
Y-60076D01*
X76344Y-60473D01*
X75984Y-61341D01*
Y-62281D01*
X76344Y-63149D01*
X77008Y-63814D01*
X77877Y-64173D01*
X78816D01*
X79685Y-63814D01*
X80349Y-63149D01*
X80709Y-62281D01*
Y-61341D01*
X80349Y-60473D01*
X79952Y-60076D01*
Y-48824D01*
X79960Y-48819D01*
X80900D01*
X81768Y-48459D01*
X82432Y-47795D01*
X82633Y-47311D01*
X83223Y-47193D01*
X83308Y-47278D01*
X84176Y-47638D01*
X85115D01*
X85984Y-47278D01*
X86648Y-46614D01*
X87008Y-45746D01*
Y-44806D01*
X86648Y-43938D01*
X86251Y-43541D01*
Y-23389D01*
X86648Y-22992D01*
X87008Y-22123D01*
Y-21184D01*
X86648Y-20315D01*
X85984Y-19651D01*
X85115Y-19291D01*
D02*
G37*
G36*
X123698Y-43307D02*
X122758D01*
X121890Y-43667D01*
X121226Y-44331D01*
X120866Y-45199D01*
Y-46139D01*
X121226Y-47007D01*
X121890Y-47672D01*
X122758Y-48031D01*
X123698D01*
X124566Y-47672D01*
X124963Y-47275D01*
X127215D01*
X127284Y-47344D01*
Y-47714D01*
X127643Y-48582D01*
X128308Y-49247D01*
X129176Y-49606D01*
X130115D01*
X130984Y-49247D01*
X131648Y-48582D01*
X132008Y-47714D01*
Y-46774D01*
X131648Y-45906D01*
X130984Y-45241D01*
X130115Y-44882D01*
X129363D01*
X129015Y-44534D01*
X128494Y-44186D01*
X127880Y-44064D01*
X127880Y-44064D01*
X124963D01*
X124566Y-43667D01*
X123698Y-43307D01*
D02*
G37*
G36*
X162478Y-50295D02*
X161538D01*
X160670Y-50655D01*
X160005Y-51319D01*
X159646Y-52188D01*
Y-53127D01*
X160005Y-53996D01*
X160304Y-54294D01*
Y-58403D01*
X159808Y-58898D01*
X159449Y-59766D01*
Y-60706D01*
X159808Y-61574D01*
X160473Y-62239D01*
X161341Y-62598D01*
X162281D01*
X163149Y-62239D01*
X163814Y-61574D01*
X164173Y-60706D01*
Y-59766D01*
X163814Y-58898D01*
X163515Y-58600D01*
Y-54491D01*
X164010Y-53996D01*
X164370Y-53127D01*
Y-52188D01*
X164010Y-51319D01*
X163346Y-50655D01*
X162478Y-50295D01*
D02*
G37*
G36*
X130013Y-54376D02*
X129780Y-54422D01*
X129543D01*
X129324Y-54513D01*
X129091Y-54559D01*
X128894Y-54691D01*
X128675Y-54782D01*
X128507Y-54949D01*
X128310Y-55081D01*
X128178Y-55278D01*
X128010Y-55446D01*
X127919Y-55665D01*
X127788Y-55863D01*
X127741Y-56095D01*
X127650Y-56314D01*
Y-56552D01*
X127604Y-56784D01*
Y-56792D01*
X127650Y-57025D01*
Y-57254D01*
X127738Y-57466D01*
X127788Y-57714D01*
X127928Y-57925D01*
X128010Y-58122D01*
X128161Y-58274D01*
X128310Y-58496D01*
X129481Y-59667D01*
Y-65538D01*
X112864Y-82155D01*
X112864Y-82155D01*
X111910Y-83109D01*
X111448Y-82918D01*
Y-77902D01*
X111448Y-77902D01*
X111326Y-77287D01*
X110978Y-76766D01*
X110978Y-76766D01*
X105124Y-70912D01*
X104603Y-70564D01*
X103988Y-70442D01*
X103988Y-70442D01*
X103310D01*
X102913Y-70045D01*
X102045Y-69685D01*
X101105D01*
X100237Y-70045D01*
X99572Y-70709D01*
X99213Y-71577D01*
Y-72517D01*
X99572Y-73385D01*
X100237Y-74050D01*
X101105Y-74409D01*
X102045D01*
X102913Y-74050D01*
X103310Y-73653D01*
X103323D01*
X108237Y-78567D01*
Y-83698D01*
X107840Y-84095D01*
X107480Y-84963D01*
Y-85903D01*
X107840Y-86771D01*
X108504Y-87436D01*
X109373Y-87795D01*
X110312D01*
X111181Y-87436D01*
X111654D01*
X111873Y-87526D01*
X112070Y-87658D01*
X112303Y-87704D01*
X112522Y-87795D01*
X112759D01*
X112992Y-87841D01*
X113225Y-87795D01*
X113462D01*
X113681Y-87704D01*
X113914Y-87658D01*
X114111Y-87526D01*
X114330Y-87436D01*
X114498Y-87268D01*
X114695Y-87136D01*
X116270Y-85561D01*
X116270Y-85561D01*
X133593Y-68239D01*
X134115Y-67457D01*
X134298Y-66535D01*
Y-58661D01*
X134252Y-58429D01*
Y-58192D01*
X134161Y-57972D01*
X134115Y-57740D01*
X133983Y-57543D01*
X133892Y-57323D01*
X133725Y-57156D01*
X133593Y-56958D01*
X133396Y-56761D01*
X133371Y-56745D01*
X131732Y-55106D01*
X131716Y-55081D01*
X131518Y-54949D01*
X131351Y-54782D01*
X131132Y-54691D01*
X130934Y-54559D01*
X130702Y-54513D01*
X130483Y-54422D01*
X130245D01*
X130013Y-54376D01*
D02*
G37*
G36*
X143580Y-81693D02*
X142640D01*
X141772Y-82052D01*
X141108Y-82717D01*
X140748Y-83585D01*
Y-84147D01*
X139492Y-85402D01*
X128211D01*
X127814Y-85005D01*
X126946Y-84646D01*
X126006D01*
X125138Y-85005D01*
X124474Y-85670D01*
X124114Y-86538D01*
Y-87478D01*
X124474Y-88346D01*
X125138Y-89011D01*
X126006Y-89370D01*
X126946D01*
X127814Y-89011D01*
X128211Y-88613D01*
X140157D01*
X140157Y-88613D01*
X140772Y-88491D01*
X141293Y-88143D01*
X143019Y-86417D01*
X143580D01*
X144448Y-86058D01*
X145113Y-85393D01*
X145472Y-84525D01*
Y-83585D01*
X145113Y-82717D01*
X144448Y-82052D01*
X143580Y-81693D01*
D02*
G37*
G36*
X157556Y-113386D02*
X156617D01*
X155748Y-113745D01*
X155205Y-114289D01*
X154465D01*
X153808Y-114420D01*
X153250Y-114792D01*
X138515Y-129528D01*
X138113D01*
X137245Y-129887D01*
X136580Y-130552D01*
X136221Y-131420D01*
Y-132360D01*
X136580Y-133228D01*
X137245Y-133892D01*
X138113Y-134252D01*
X139052D01*
X139921Y-133892D01*
X140585Y-133228D01*
X140945Y-132360D01*
Y-131957D01*
X155177Y-117725D01*
X155723D01*
X155748Y-117751D01*
X156617Y-118110D01*
X157556D01*
X158425Y-117751D01*
X159089Y-117086D01*
X159449Y-116218D01*
Y-115278D01*
X159089Y-114410D01*
X158425Y-113745D01*
X157556Y-113386D01*
D02*
G37*
G36*
X148501Y-108661D02*
X147562D01*
X146693Y-109021D01*
X146029Y-109686D01*
X145669Y-110554D01*
Y-111494D01*
X146029Y-112362D01*
X146693Y-113026D01*
X147562Y-113386D01*
X148501D01*
X149370Y-113026D01*
X149654Y-112742D01*
X161099D01*
X162539Y-114182D01*
X162422Y-114771D01*
X162048Y-114927D01*
X161383Y-115591D01*
X161024Y-116459D01*
Y-117399D01*
X161383Y-118267D01*
X162048Y-118932D01*
X162916Y-119291D01*
X163318D01*
X173872Y-129845D01*
Y-133810D01*
X173588Y-134095D01*
X173228Y-134963D01*
Y-135903D01*
X173588Y-136771D01*
X174252Y-137436D01*
X175121Y-137795D01*
X176060D01*
X176929Y-137436D01*
X177593Y-136771D01*
X177953Y-135903D01*
Y-134963D01*
X177593Y-134095D01*
X177309Y-133810D01*
Y-129658D01*
X177809Y-129451D01*
X179494Y-131136D01*
X180051Y-131509D01*
X180709Y-131639D01*
X198377D01*
X198662Y-131924D01*
X199530Y-132283D01*
X200470D01*
X201338Y-131924D01*
X202003Y-131259D01*
X202362Y-130391D01*
Y-129451D01*
X202003Y-128583D01*
X201338Y-127919D01*
X200470Y-127559D01*
X199530D01*
X198662Y-127919D01*
X198377Y-128203D01*
X181420D01*
X163026Y-109809D01*
X162469Y-109436D01*
X161811Y-109306D01*
X149654D01*
X149370Y-109021D01*
X148501Y-108661D01*
D02*
G37*
%LPD*%
G36*
X175189Y-23793D02*
X175115Y-23874D01*
X175048Y-23958D01*
X174990Y-24047D01*
X174939Y-24141D01*
X174897Y-24239D01*
X174862Y-24340D01*
X174835Y-24447D01*
X174817Y-24557D01*
X174806Y-24672D01*
X174803Y-24791D01*
X173634Y-23622D01*
X173753Y-23619D01*
X173868Y-23609D01*
X173978Y-23590D01*
X174085Y-23563D01*
X174187Y-23529D01*
X174284Y-23486D01*
X174378Y-23436D01*
X174467Y-23377D01*
X174552Y-23311D01*
X174632Y-23236D01*
X175189Y-23793D01*
D02*
G37*
G36*
X160772Y-24059D02*
X160861Y-24132D01*
X160952Y-24197D01*
X161046Y-24253D01*
X161143Y-24301D01*
X161242Y-24340D01*
X161344Y-24371D01*
X161448Y-24392D01*
X161555Y-24405D01*
X161665Y-24409D01*
Y-25197D01*
X161555Y-25201D01*
X161448Y-25214D01*
X161344Y-25236D01*
X161242Y-25266D01*
X161143Y-25305D01*
X161046Y-25353D01*
X160952Y-25409D01*
X160861Y-25474D01*
X160772Y-25548D01*
X160686Y-25630D01*
Y-23976D01*
X160772Y-24059D01*
D02*
G37*
G36*
X187404Y-24934D02*
X187415Y-25049D01*
X187434Y-25159D01*
X187460Y-25266D01*
X187495Y-25368D01*
X187538Y-25465D01*
X187588Y-25559D01*
X187646Y-25648D01*
X187713Y-25733D01*
X187787Y-25813D01*
X187231Y-26370D01*
X187150Y-26296D01*
X187065Y-26229D01*
X186976Y-26171D01*
X186883Y-26120D01*
X186785Y-26078D01*
X186683Y-26043D01*
X186577Y-26016D01*
X186466Y-25998D01*
X186351Y-25987D01*
X186232Y-25984D01*
X187401Y-24815D01*
X187404Y-24934D01*
D02*
G37*
G36*
X168113D02*
X168124Y-25049D01*
X168142Y-25159D01*
X168169Y-25266D01*
X168204Y-25368D01*
X168246Y-25465D01*
X168297Y-25559D01*
X168355Y-25648D01*
X168422Y-25733D01*
X168496Y-25813D01*
X167939Y-26370D01*
X167859Y-26296D01*
X167774Y-26229D01*
X167685Y-26171D01*
X167591Y-26120D01*
X167494Y-26078D01*
X167392Y-26043D01*
X167286Y-26016D01*
X167175Y-25998D01*
X167060Y-25987D01*
X166941Y-25984D01*
X168110Y-24815D01*
X168113Y-24934D01*
D02*
G37*
G36*
X178697Y-26422D02*
X178624Y-26511D01*
X178559Y-26602D01*
X178502Y-26696D01*
X178455Y-26792D01*
X178416Y-26892D01*
X178385Y-26994D01*
X178364Y-27098D01*
X178351Y-27205D01*
X178347Y-27314D01*
X177559D01*
X177555Y-27205D01*
X177542Y-27098D01*
X177520Y-26994D01*
X177490Y-26892D01*
X177451Y-26792D01*
X177403Y-26696D01*
X177347Y-26602D01*
X177282Y-26511D01*
X177208Y-26422D01*
X177126Y-26336D01*
X178779D01*
X178697Y-26422D01*
D02*
G37*
G36*
X184650Y-30177D02*
X184663Y-30284D01*
X184685Y-30388D01*
X184715Y-30490D01*
X184754Y-30589D01*
X184802Y-30686D01*
X184858Y-30780D01*
X184923Y-30871D01*
X184996Y-30960D01*
X185079Y-31046D01*
X183425D01*
X183508Y-30960D01*
X183581Y-30871D01*
X183646Y-30780D01*
X183702Y-30686D01*
X183750Y-30589D01*
X183789Y-30490D01*
X183819Y-30388D01*
X183841Y-30284D01*
X183854Y-30177D01*
X183858Y-30068D01*
X184646D01*
X184650Y-30177D01*
D02*
G37*
G36*
X191830Y-30510D02*
X191844Y-30617D01*
X191869Y-30718D01*
X191903Y-30813D01*
X191948Y-30902D01*
X192002Y-30985D01*
X192066Y-31062D01*
X192139Y-31133D01*
X192223Y-31198D01*
X192316Y-31257D01*
X190718Y-31679D01*
X190778Y-31572D01*
X190881Y-31358D01*
X190922Y-31252D01*
X190957Y-31146D01*
X190986Y-31040D01*
X191008Y-30935D01*
X191024Y-30830D01*
X191034Y-30724D01*
X191037Y-30620D01*
X191825Y-30397D01*
X191830Y-30510D01*
D02*
G37*
G36*
X170330Y-31185D02*
X170415Y-31251D01*
X170504Y-31310D01*
X170598Y-31360D01*
X170695Y-31403D01*
X170797Y-31437D01*
X170904Y-31464D01*
X171014Y-31483D01*
X171129Y-31493D01*
X171248Y-31496D01*
X170079Y-32665D01*
X170076Y-32546D01*
X170065Y-32431D01*
X170047Y-32321D01*
X170020Y-32215D01*
X169985Y-32113D01*
X169943Y-32015D01*
X169892Y-31921D01*
X169834Y-31832D01*
X169767Y-31748D01*
X169693Y-31667D01*
X170250Y-31110D01*
X170330Y-31185D01*
D02*
G37*
G36*
X176370Y-35998D02*
X176296Y-36078D01*
X176229Y-36163D01*
X176171Y-36252D01*
X176120Y-36346D01*
X176078Y-36443D01*
X176043Y-36545D01*
X176016Y-36652D01*
X175998Y-36762D01*
X175987Y-36877D01*
X175984Y-36996D01*
X174815Y-35827D01*
X174934Y-35824D01*
X175049Y-35813D01*
X175160Y-35795D01*
X175266Y-35768D01*
X175368Y-35733D01*
X175465Y-35691D01*
X175559Y-35640D01*
X175648Y-35582D01*
X175733Y-35515D01*
X175813Y-35441D01*
X176370Y-35998D01*
D02*
G37*
G36*
X172827D02*
X172752Y-36078D01*
X172686Y-36163D01*
X172627Y-36252D01*
X172577Y-36346D01*
X172534Y-36443D01*
X172500Y-36545D01*
X172473Y-36652D01*
X172454Y-36762D01*
X172444Y-36877D01*
X172441Y-36996D01*
X171272Y-35827D01*
X171391Y-35824D01*
X171506Y-35813D01*
X171616Y-35795D01*
X171722Y-35768D01*
X171824Y-35733D01*
X171922Y-35691D01*
X172016Y-35640D01*
X172105Y-35582D01*
X172189Y-35515D01*
X172270Y-35441D01*
X172827Y-35998D01*
D02*
G37*
G36*
X95812Y-29177D02*
X95900Y-29250D01*
X95992Y-29315D01*
X96086Y-29372D01*
X96182Y-29419D01*
X96281Y-29458D01*
X96383Y-29489D01*
X96488Y-29510D01*
X96595Y-29523D01*
X96704Y-29528D01*
Y-30315D01*
X96595Y-30319D01*
X96488Y-30332D01*
X96383Y-30354D01*
X96281Y-30384D01*
X96182Y-30423D01*
X96086Y-30471D01*
X95992Y-30527D01*
X95900Y-30592D01*
X95812Y-30666D01*
X95725Y-30748D01*
Y-29094D01*
X95812Y-29177D01*
D02*
G37*
G36*
X111078Y-34039D02*
X111163Y-34106D01*
X111252Y-34164D01*
X111346Y-34214D01*
X111443Y-34257D01*
X111545Y-34292D01*
X111652Y-34318D01*
X111762Y-34337D01*
X111877Y-34348D01*
X111996Y-34350D01*
X110827Y-35520D01*
X110824Y-35401D01*
X110813Y-35286D01*
X110795Y-35175D01*
X110768Y-35069D01*
X110733Y-34967D01*
X110691Y-34869D01*
X110640Y-34776D01*
X110582Y-34687D01*
X110515Y-34602D01*
X110441Y-34521D01*
X110998Y-33965D01*
X111078Y-34039D01*
D02*
G37*
G36*
X197616Y-22957D02*
X197561Y-23029D01*
X197512Y-23108D01*
X197471Y-23192D01*
X197435Y-23282D01*
X197406Y-23379D01*
X197383Y-23481D01*
X197367Y-23589D01*
X197357Y-23704D01*
X197354Y-23824D01*
X196346D01*
X196343Y-23704D01*
X196334Y-23589D01*
X196317Y-23481D01*
X196295Y-23379D01*
X196266Y-23282D01*
X196230Y-23192D01*
X196188Y-23108D01*
X196140Y-23029D01*
X196085Y-22957D01*
X196024Y-22891D01*
X197677D01*
X197616Y-22957D01*
D02*
G37*
G36*
X198006Y-30360D02*
X198094Y-30434D01*
X198182Y-30499D01*
X198270Y-30555D01*
X198359Y-30603D01*
X198448Y-30642D01*
X198537Y-30672D01*
X198627Y-30693D01*
X198717Y-30705D01*
X198807Y-30709D01*
X197638Y-31878D01*
X197634Y-31788D01*
X197622Y-31698D01*
X197601Y-31608D01*
X197571Y-31519D01*
X197532Y-31430D01*
X197485Y-31341D01*
X197428Y-31253D01*
X197363Y-31165D01*
X197289Y-31077D01*
X197206Y-30990D01*
X197919Y-30277D01*
X198006Y-30360D01*
D02*
G37*
G36*
X85390Y-22583D02*
X85316Y-22672D01*
X85252Y-22763D01*
X85195Y-22857D01*
X85148Y-22954D01*
X85109Y-23053D01*
X85078Y-23155D01*
X85057Y-23259D01*
X85044Y-23366D01*
X85039Y-23476D01*
X84252D01*
X84248Y-23366D01*
X84235Y-23259D01*
X84213Y-23155D01*
X84183Y-23053D01*
X84144Y-22954D01*
X84096Y-22857D01*
X84040Y-22763D01*
X83975Y-22672D01*
X83901Y-22583D01*
X83819Y-22497D01*
X85472D01*
X85390Y-22583D01*
D02*
G37*
G36*
X74757Y-39337D02*
X74749Y-39445D01*
X74751Y-39549D01*
X74764Y-39651D01*
X74787Y-39750D01*
X74821Y-39845D01*
X74865Y-39937D01*
X74920Y-40026D01*
X74985Y-40112D01*
X75061Y-40195D01*
X74382Y-40630D01*
X74305Y-40557D01*
X74223Y-40490D01*
X74136Y-40428D01*
X74045Y-40371D01*
X73948Y-40319D01*
X73847Y-40272D01*
X73742Y-40230D01*
X73631Y-40194D01*
X73516Y-40162D01*
X73396Y-40136D01*
X74777Y-39226D01*
X74757Y-39337D01*
D02*
G37*
G36*
X85044Y-43563D02*
X85057Y-43670D01*
X85078Y-43774D01*
X85109Y-43876D01*
X85148Y-43975D01*
X85195Y-44072D01*
X85252Y-44166D01*
X85316Y-44257D01*
X85390Y-44346D01*
X85472Y-44432D01*
X83819D01*
X83901Y-44346D01*
X83975Y-44257D01*
X84040Y-44166D01*
X84096Y-44072D01*
X84144Y-43975D01*
X84183Y-43876D01*
X84213Y-43774D01*
X84235Y-43670D01*
X84248Y-43563D01*
X84252Y-43453D01*
X85039D01*
X85044Y-43563D01*
D02*
G37*
G36*
X75200Y-44225D02*
X75210Y-44340D01*
X75229Y-44451D01*
X75256Y-44557D01*
X75290Y-44659D01*
X75333Y-44757D01*
X75383Y-44850D01*
X75442Y-44939D01*
X75508Y-45024D01*
X75583Y-45105D01*
X75026Y-45661D01*
X74945Y-45587D01*
X74861Y-45520D01*
X74771Y-45462D01*
X74678Y-45412D01*
X74580Y-45369D01*
X74478Y-45334D01*
X74372Y-45308D01*
X74261Y-45289D01*
X74147Y-45278D01*
X74028Y-45276D01*
X75197Y-44106D01*
X75200Y-44225D01*
D02*
G37*
G36*
X79747Y-44876D02*
X79829Y-44943D01*
X79916Y-45005D01*
X80007Y-45062D01*
X80103Y-45114D01*
X80204Y-45161D01*
X80310Y-45203D01*
X80421Y-45239D01*
X80536Y-45271D01*
X80656Y-45298D01*
X79275Y-46207D01*
X79294Y-46096D01*
X79303Y-45988D01*
X79301Y-45884D01*
X79288Y-45782D01*
X79265Y-45684D01*
X79231Y-45588D01*
X79187Y-45496D01*
X79132Y-45407D01*
X79066Y-45321D01*
X78991Y-45238D01*
X79669Y-44803D01*
X79747Y-44876D01*
D02*
G37*
G36*
X78745Y-60098D02*
X78758Y-60205D01*
X78779Y-60310D01*
X78809Y-60411D01*
X78848Y-60511D01*
X78896Y-60607D01*
X78952Y-60701D01*
X79017Y-60793D01*
X79091Y-60881D01*
X79173Y-60968D01*
X77520D01*
X77602Y-60881D01*
X77676Y-60793D01*
X77741Y-60701D01*
X77797Y-60607D01*
X77845Y-60511D01*
X77883Y-60411D01*
X77914Y-60310D01*
X77935Y-60205D01*
X77948Y-60098D01*
X77953Y-59989D01*
X78740D01*
X78745Y-60098D01*
D02*
G37*
G36*
X124158Y-44925D02*
X124247Y-44998D01*
X124338Y-45063D01*
X124432Y-45120D01*
X124529Y-45167D01*
X124628Y-45206D01*
X124730Y-45237D01*
X124834Y-45258D01*
X124941Y-45271D01*
X125051Y-45276D01*
Y-46063D01*
X124941Y-46067D01*
X124834Y-46080D01*
X124730Y-46102D01*
X124628Y-46132D01*
X124529Y-46171D01*
X124432Y-46219D01*
X124338Y-46275D01*
X124247Y-46340D01*
X124158Y-46414D01*
X124072Y-46496D01*
Y-44842D01*
X124158Y-44925D01*
D02*
G37*
G36*
X128595Y-45821D02*
X128680Y-45886D01*
X128769Y-45943D01*
X128863Y-45990D01*
X128959Y-46027D01*
X129060Y-46055D01*
X129164Y-46074D01*
X129272Y-46083D01*
X129384Y-46082D01*
X129499Y-46072D01*
X128471Y-47367D01*
X128455Y-47247D01*
X128433Y-47131D01*
X128404Y-47019D01*
X128368Y-46913D01*
X128327Y-46811D01*
X128279Y-46713D01*
X128225Y-46621D01*
X128164Y-46532D01*
X128097Y-46449D01*
X128024Y-46370D01*
X128513Y-45745D01*
X128595Y-45821D01*
D02*
G37*
G36*
X162761Y-53567D02*
X162674Y-53645D01*
X162596Y-53726D01*
X162528Y-53811D01*
X162468Y-53900D01*
X162418Y-53992D01*
X162376Y-54089D01*
X162344Y-54188D01*
X162321Y-54292D01*
X162308Y-54399D01*
X162303Y-54510D01*
X161516Y-54440D01*
X161512Y-54332D01*
X161500Y-54225D01*
X161479Y-54120D01*
X161451Y-54017D01*
X161415Y-53915D01*
X161371Y-53815D01*
X161319Y-53716D01*
X161258Y-53619D01*
X161190Y-53523D01*
X161114Y-53429D01*
X162761Y-53567D01*
D02*
G37*
G36*
X162303Y-58454D02*
X162307Y-58562D01*
X162319Y-58669D01*
X162339Y-58774D01*
X162367Y-58877D01*
X162404Y-58979D01*
X162448Y-59079D01*
X162500Y-59178D01*
X162560Y-59275D01*
X162629Y-59371D01*
X162705Y-59465D01*
X161057Y-59327D01*
X161144Y-59249D01*
X161222Y-59167D01*
X161291Y-59082D01*
X161351Y-58994D01*
X161401Y-58901D01*
X161442Y-58805D01*
X161475Y-58705D01*
X161497Y-58602D01*
X161511Y-58495D01*
X161516Y-58384D01*
X162303Y-58454D01*
D02*
G37*
G36*
X102505Y-71303D02*
X102593Y-71376D01*
X102685Y-71441D01*
X102779Y-71498D01*
X102875Y-71545D01*
X102974Y-71584D01*
X103076Y-71615D01*
X103181Y-71636D01*
X103287Y-71649D01*
X103397Y-71653D01*
Y-72441D01*
X103287Y-72445D01*
X103181Y-72458D01*
X103076Y-72480D01*
X102974Y-72510D01*
X102875Y-72549D01*
X102779Y-72597D01*
X102685Y-72653D01*
X102593Y-72718D01*
X102505Y-72792D01*
X102418Y-72874D01*
Y-71220D01*
X102505Y-71303D01*
D02*
G37*
G36*
X110241Y-83720D02*
X110254Y-83827D01*
X110275Y-83932D01*
X110306Y-84034D01*
X110345Y-84133D01*
X110392Y-84229D01*
X110448Y-84323D01*
X110513Y-84415D01*
X110587Y-84503D01*
X110669Y-84590D01*
X109016D01*
X109098Y-84503D01*
X109172Y-84415D01*
X109237Y-84323D01*
X109293Y-84229D01*
X109341Y-84133D01*
X109379Y-84034D01*
X109410Y-83932D01*
X109432Y-83827D01*
X109444Y-83720D01*
X109449Y-83611D01*
X110236D01*
X110241Y-83720D01*
D02*
G37*
G36*
X143098Y-85236D02*
X142979Y-85239D01*
X142865Y-85250D01*
X142754Y-85268D01*
X142648Y-85295D01*
X142546Y-85330D01*
X142448Y-85372D01*
X142355Y-85423D01*
X142265Y-85481D01*
X142181Y-85548D01*
X142100Y-85622D01*
X141543Y-85065D01*
X141618Y-84985D01*
X141684Y-84900D01*
X141743Y-84811D01*
X141793Y-84717D01*
X141836Y-84620D01*
X141870Y-84518D01*
X141897Y-84412D01*
X141916Y-84301D01*
X141926Y-84186D01*
X141929Y-84067D01*
X143098Y-85236D01*
D02*
G37*
G36*
X127406Y-86263D02*
X127495Y-86337D01*
X127586Y-86402D01*
X127680Y-86458D01*
X127777Y-86506D01*
X127876Y-86545D01*
X127978Y-86575D01*
X128082Y-86597D01*
X128189Y-86610D01*
X128299Y-86614D01*
Y-87402D01*
X128189Y-87406D01*
X128082Y-87419D01*
X127978Y-87441D01*
X127876Y-87471D01*
X127777Y-87510D01*
X127680Y-87558D01*
X127586Y-87614D01*
X127495Y-87679D01*
X127406Y-87752D01*
X127320Y-87835D01*
Y-86181D01*
X127406Y-86263D01*
D02*
G37*
G36*
X156445Y-116740D02*
X156372Y-116696D01*
X156293Y-116657D01*
X156210Y-116623D01*
X156121Y-116593D01*
X156026Y-116568D01*
X155927Y-116548D01*
X155712Y-116520D01*
X155597Y-116513D01*
X155476Y-116511D01*
X155222Y-115503D01*
X155344Y-115499D01*
X155457Y-115488D01*
X155563Y-115469D01*
X155661Y-115443D01*
X155751Y-115409D01*
X155833Y-115368D01*
X155907Y-115319D01*
X155973Y-115262D01*
X156032Y-115198D01*
X156082Y-115127D01*
X156445Y-116740D01*
D02*
G37*
G36*
X140195Y-130990D02*
X140113Y-131077D01*
X140039Y-131165D01*
X139973Y-131253D01*
X139917Y-131341D01*
X139869Y-131430D01*
X139831Y-131519D01*
X139801Y-131608D01*
X139779Y-131698D01*
X139767Y-131788D01*
X139764Y-131878D01*
X138594Y-130709D01*
X138685Y-130705D01*
X138775Y-130693D01*
X138864Y-130672D01*
X138954Y-130642D01*
X139043Y-130603D01*
X139131Y-130555D01*
X139220Y-130499D01*
X139308Y-130434D01*
X139395Y-130360D01*
X139483Y-130277D01*
X140195Y-130990D01*
D02*
G37*
G36*
X148941Y-110258D02*
X149014Y-110313D01*
X149092Y-110362D01*
X149176Y-110404D01*
X149267Y-110439D01*
X149363Y-110468D01*
X149465Y-110491D01*
X149574Y-110507D01*
X149688Y-110517D01*
X149808Y-110520D01*
Y-111528D01*
X149688Y-111531D01*
X149574Y-111540D01*
X149465Y-111557D01*
X149363Y-111579D01*
X149267Y-111608D01*
X149176Y-111644D01*
X149092Y-111686D01*
X149014Y-111734D01*
X148941Y-111789D01*
X148875Y-111850D01*
Y-110197D01*
X148941Y-110258D01*
D02*
G37*
G36*
X164570Y-117031D02*
X164583Y-117121D01*
X164604Y-117211D01*
X164634Y-117300D01*
X164673Y-117389D01*
X164720Y-117478D01*
X164777Y-117566D01*
X164842Y-117654D01*
X164916Y-117742D01*
X164999Y-117829D01*
X164286Y-118542D01*
X164199Y-118459D01*
X164111Y-118385D01*
X164023Y-118320D01*
X163934Y-118263D01*
X163846Y-118216D01*
X163757Y-118177D01*
X163667Y-118147D01*
X163578Y-118126D01*
X163488Y-118114D01*
X163398Y-118110D01*
X164567Y-116941D01*
X164570Y-117031D01*
D02*
G37*
G36*
X199156Y-130748D02*
X199090Y-130687D01*
X199018Y-130632D01*
X198940Y-130583D01*
X198855Y-130541D01*
X198765Y-130506D01*
X198669Y-130477D01*
X198566Y-130454D01*
X198458Y-130438D01*
X198344Y-130428D01*
X198223Y-130425D01*
Y-129417D01*
X198344Y-129414D01*
X198458Y-129404D01*
X198566Y-129388D01*
X198669Y-129366D01*
X198765Y-129337D01*
X198855Y-129301D01*
X198940Y-129259D01*
X199018Y-129211D01*
X199090Y-129156D01*
X199156Y-129095D01*
Y-130748D01*
D02*
G37*
G36*
X176098Y-133777D02*
X176107Y-133891D01*
X176123Y-133999D01*
X176146Y-134102D01*
X176175Y-134198D01*
X176211Y-134288D01*
X176253Y-134373D01*
X176301Y-134451D01*
X176356Y-134523D01*
X176417Y-134590D01*
X174764D01*
X174825Y-134523D01*
X174880Y-134451D01*
X174928Y-134373D01*
X174970Y-134288D01*
X175006Y-134198D01*
X175035Y-134102D01*
X175058Y-133999D01*
X175074Y-133891D01*
X175083Y-133777D01*
X175087Y-133656D01*
X176094D01*
X176098Y-133777D01*
D02*
G37*
D12*
X106398Y-29921D02*
X112008Y-35531D01*
X94882Y-29921D02*
X106398D01*
X74016Y-44094D02*
X78347Y-48425D01*
Y-61811D02*
Y-48425D01*
X73622Y-39313D02*
Y-38976D01*
X80430Y-46457D02*
Y-46120D01*
X73622Y-39313D02*
X80430Y-46120D01*
X101575Y-72047D02*
X103988D01*
X109843Y-77902D01*
X84646Y-45276D02*
Y-21654D01*
X129455Y-47244D02*
X129646D01*
X123228Y-45669D02*
X127880D01*
X129455Y-47244D01*
X109843Y-85433D02*
Y-77902D01*
X186221Y-24803D02*
X191431Y-30014D01*
Y-31982D02*
Y-30014D01*
Y-31982D02*
X191732Y-32283D01*
X173622Y-34646D02*
Y-31496D01*
X171260Y-37008D02*
X173622Y-34646D01*
X166929Y-24803D02*
X173622Y-31496D01*
X159843Y-24803D02*
X163386D01*
X171260Y-32677D01*
X174803Y-37008D02*
X177953Y-33858D01*
Y-25492D01*
X178931Y-23130D02*
X184252Y-28451D01*
Y-31890D02*
Y-28451D01*
X175295Y-23130D02*
X178931D01*
X173622Y-24803D02*
X175295Y-23130D01*
X126476Y-87008D02*
X140157D01*
X143110Y-84055D01*
X161909Y-60138D02*
Y-52756D01*
X161811Y-60236D02*
X161909Y-60138D01*
Y-52756D02*
X162008Y-52658D01*
D72*
X112992Y-85433D02*
X114567Y-83858D01*
X131890Y-66535D01*
Y-58661D01*
X131685Y-58465D02*
X131693D01*
X130013Y-56792D02*
Y-56784D01*
Y-56792D02*
X131685Y-58465D01*
X131693D02*
X131890Y-58661D01*
D75*
X196850Y-29921D02*
X198819Y-31890D01*
X196850Y-29921D02*
Y-22047D01*
X161811Y-111024D02*
X180709Y-129921D01*
X200000D01*
X148031Y-111024D02*
X161811D01*
X163386Y-116929D02*
X175591Y-129134D01*
Y-135433D02*
Y-129134D01*
X154465Y-116007D02*
X156827D01*
X157087Y-115748D01*
X138583Y-131890D02*
X154465Y-116007D01*
D81*
X191339Y-76772D02*
D03*
X189110D02*
D03*
X191339Y-83465D02*
D03*
X189110D02*
D03*
X186882Y-72315D02*
D03*
Y-74543D02*
D03*
Y-76772D02*
D03*
Y-79004D02*
D03*
Y-81232D02*
D03*
Y-83465D02*
D03*
Y-85693D02*
D03*
Y-87921D02*
D03*
X184650Y-76772D02*
D03*
X182421D02*
D03*
X184650Y-83465D02*
D03*
X182421D02*
D03*
X180189Y-72315D02*
D03*
Y-74543D02*
D03*
Y-76772D02*
D03*
Y-79004D02*
D03*
Y-81232D02*
D03*
Y-83465D02*
D03*
Y-85693D02*
D03*
Y-87921D02*
D03*
X177961Y-76772D02*
D03*
X175732D02*
D03*
X177961Y-83465D02*
D03*
X175732D02*
D03*
D82*
X105473Y-34843D02*
D03*
X128228D02*
D03*
D83*
X99843Y-20472D02*
D03*
X133858D02*
D03*
X99843Y-36929D02*
D03*
X133858D02*
D03*
D84*
X13780Y27559D02*
D03*
Y125984D02*
D03*
X222441D02*
D03*
Y27559D02*
D03*
D85*
X131890Y-58661D02*
D03*
X130013Y-56784D02*
D03*
X114567Y-83858D02*
D03*
X112992Y-85433D02*
D03*
X94882Y-29921D02*
D03*
X133071Y-55118D02*
D03*
X47244Y-59842D02*
D03*
Y-62008D02*
D03*
X134524Y-93024D02*
D03*
X137118D02*
D03*
X140945Y-115354D02*
D03*
X83858Y-53150D02*
D03*
Y-50787D02*
D03*
X83858Y-83359D02*
D03*
Y-80341D02*
D03*
X180709Y-31988D02*
D03*
X188189Y-31890D02*
D03*
X199508Y-37478D02*
D03*
X201181Y-17323D02*
D03*
X196457D02*
D03*
X195965Y-136417D02*
D03*
X200787Y-136516D02*
D03*
X215846Y-106398D02*
D03*
X220374Y-110827D02*
D03*
X218307Y-106299D02*
D03*
X220669Y-43996D02*
D03*
X218406Y-46949D02*
D03*
X215748D02*
D03*
X163494Y-35355D02*
D03*
X157480Y-32480D02*
D03*
X97441Y-61024D02*
D03*
X101378Y-64961D02*
D03*
X105315Y-61024D02*
D03*
X101378Y-57087D02*
D03*
X112008Y-45374D02*
D03*
X90354Y-45177D02*
D03*
X74410Y-29921D02*
D03*
X74016Y-44094D02*
D03*
X73622Y-38976D02*
D03*
X78347Y-61811D02*
D03*
X93307Y-72047D02*
D03*
X101575D02*
D03*
X107480Y-80709D02*
D03*
X84646Y-45276D02*
D03*
Y-21654D02*
D03*
X80430Y-46457D02*
D03*
X123228Y-45669D02*
D03*
X129646Y-47244D02*
D03*
X146063Y-43701D02*
D03*
X109843Y-85433D02*
D03*
X184252Y-31890D02*
D03*
X191732Y-32283D02*
D03*
X173622Y-24803D02*
D03*
X166929D02*
D03*
X159843D02*
D03*
X171260Y-32677D02*
D03*
Y-37008D02*
D03*
X174803D02*
D03*
X177953Y-25492D02*
D03*
X186221Y-24803D02*
D03*
X196850Y-22047D02*
D03*
X198819Y-31890D02*
D03*
X200000Y-129921D02*
D03*
X148031Y-111024D02*
D03*
X157087Y-115748D02*
D03*
X163386Y-116929D02*
D03*
X138583Y-131890D02*
D03*
X175591Y-135433D02*
D03*
X122047Y-56299D02*
D03*
X117323Y-86811D02*
D03*
X109252Y-72933D02*
D03*
X112008Y-35531D02*
D03*
X143110Y-84055D02*
D03*
X126476Y-87008D02*
D03*
X162008Y-52658D02*
D03*
X161811Y-60236D02*
D03*
X121464Y-66107D02*
D03*
X118110Y-46850D02*
D03*
X56693Y-26772D02*
D03*
X13780Y33858D02*
D03*
X16929Y33014D02*
D03*
X20079Y27559D02*
D03*
X19235Y30709D02*
D03*
X16929Y22104D02*
D03*
X13780Y21260D02*
D03*
X19235Y24409D02*
D03*
X8324D02*
D03*
X7480Y27559D02*
D03*
X10630Y22104D02*
D03*
Y33014D02*
D03*
X8324Y30709D02*
D03*
X13780Y132283D02*
D03*
X16929Y131439D02*
D03*
X20079Y125984D02*
D03*
X19235Y129134D02*
D03*
X16929Y120529D02*
D03*
X13780Y119685D02*
D03*
X19235Y122835D02*
D03*
X8324D02*
D03*
X7480Y125984D02*
D03*
X10630Y120529D02*
D03*
Y131439D02*
D03*
X8324Y129134D02*
D03*
X222441Y132283D02*
D03*
X225591Y131439D02*
D03*
X228740Y125984D02*
D03*
X227896Y129134D02*
D03*
X225591Y120529D02*
D03*
X222441Y119685D02*
D03*
X227896Y122835D02*
D03*
X216986D02*
D03*
X216142Y125984D02*
D03*
X219291Y120529D02*
D03*
Y131439D02*
D03*
X216986Y129134D02*
D03*
X222441Y33858D02*
D03*
X225591Y33014D02*
D03*
X228740Y27559D02*
D03*
X227896Y30709D02*
D03*
X225591Y22104D02*
D03*
X222441Y21260D02*
D03*
X227896Y24409D02*
D03*
X216986D02*
D03*
X216142Y27559D02*
D03*
X219291Y22104D02*
D03*
Y33014D02*
D03*
X216986Y30709D02*
D03*
D86*
X222441Y-27559D02*
D03*
X13780Y-125984D02*
D03*
Y-27559D02*
D03*
X222441Y-125984D02*
D03*
M02*
